%TF.GenerationSoftware,KiCad,Pcbnew,6.0.11+dfsg-1*%
%TF.ProjectId,project,70726f6a-6563-4742-9e6b-696361645f70,rev?*%
%TF.SameCoordinates,Original*%
%TF.FileFunction,Drillmap*%
%TF.FilePolarity,Positive*%
%FSLAX45Y45*%
G04 Gerber Fmt 4.5, Leading zero omitted, Abs format (unit mm)*
%MOMM*%
%LPD*%
G01*
G04 APERTURE LIST*
%ADD10C,0.100000*%
%ADD11C,0.200000*%
%ADD12C,0.030000*%
%ADD13C,0.050000*%
%ADD14C,0.065000*%
%ADD15C,0.090000*%
%ADD16C,0.095000*%
%ADD17C,0.110000*%
%ADD18C,0.120000*%
%ADD19C,0.320000*%
%ADD20C,0.420000*%
G04 APERTURE END LIST*
D10*
X16950000Y-11100000D02*
X16950000Y-8800000D01*
X15050000Y-7500000D02*
G75*
G03*
X15050000Y-7900000I0J-200000D01*
G01*
X17250000Y-8800000D02*
G75*
G03*
X16950000Y-8800000I-150000J0D01*
G01*
X14620000Y-5210000D02*
G75*
G03*
X14280000Y-5210000I-170000J300D01*
G01*
X16950000Y-3800000D02*
G75*
G03*
X17250000Y-3800000I150000J0D01*
G01*
X16950000Y-11850000D02*
X16950000Y-11600000D01*
X17250000Y-8800000D02*
X17250000Y-10650000D01*
X20350000Y-12000000D02*
G75*
G03*
X20450000Y-11900000I0J100000D01*
G01*
X16950000Y-8050000D02*
X16950000Y-8300000D01*
X16800000Y-12000000D02*
X16550000Y-12000000D01*
X14150000Y-12000000D02*
X14400000Y-12000000D01*
X17250000Y-11600000D02*
G75*
G03*
X16950000Y-11600000I-150000J0D01*
G01*
X14280000Y-5790000D02*
G75*
G03*
X14620000Y-5790000I170000J-300D01*
G01*
X17250000Y-4300000D02*
G75*
G03*
X16950000Y-4300000I-150000J0D01*
G01*
X16950000Y-3550000D02*
G75*
G03*
X16800000Y-3400000I-150000J0D01*
G01*
X16950000Y-11100000D02*
G75*
G03*
X17250000Y-11100000I150000J0D01*
G01*
X16550000Y-7500000D02*
G75*
G03*
X16550000Y-7900000I0J-200000D01*
G01*
X16950000Y-6600000D02*
G75*
G03*
X17250000Y-6600000I150000J0D01*
G01*
X14000000Y-7350000D02*
X14000000Y-3550000D01*
X17250000Y-4650000D02*
X17250000Y-4300000D01*
X20450000Y-4650000D02*
X20450000Y-3500000D01*
X15950000Y-6200000D02*
X15950000Y-4700000D01*
X20450000Y-11900000D02*
X20450000Y-10750000D01*
X17250000Y-4750000D02*
G75*
G03*
X17250000Y-4650000I-50000J50000D01*
G01*
X14000000Y-11850000D02*
G75*
G03*
X14150000Y-12000000I150000J0D01*
G01*
X20450000Y-4650000D02*
G75*
G03*
X20450000Y-4750000I50000J-50000D01*
G01*
X16950000Y-3800000D02*
X16950000Y-3550000D01*
X15950000Y-7500000D02*
X15050000Y-7500000D01*
X14650000Y-11750000D02*
G75*
G03*
X14500000Y-11900000I0J-150000D01*
G01*
X16000000Y-4650000D02*
X16900000Y-4650000D01*
X16800000Y-3400000D02*
X14150000Y-3400000D01*
X16750000Y-7900000D02*
X16800000Y-7900000D01*
X14450000Y-7900000D02*
G75*
G03*
X14450000Y-7500000I0J200000D01*
G01*
X14630000Y-4200000D02*
G75*
G03*
X14630000Y-4200000I-180000J0D01*
G01*
X17250000Y-10750000D02*
G75*
G03*
X17250000Y-10650000I-50000J50000D01*
G01*
X16900000Y-6250000D02*
X16000000Y-6250000D01*
X15380000Y-4200000D02*
G75*
G03*
X15380000Y-4200000I-180000J0D01*
G01*
X14000000Y-7350000D02*
G75*
G03*
X14150000Y-7500000I150000J0D01*
G01*
X14150000Y-7900000D02*
G75*
G03*
X14000000Y-8050000I0J-150000D01*
G01*
X14280000Y-5790000D02*
X14280000Y-5210000D01*
X15950000Y-6200000D02*
G75*
G03*
X16000000Y-6250000I50000J0D01*
G01*
X14000000Y-11850000D02*
X14000000Y-8050000D01*
X16550000Y-7900000D02*
X16750000Y-7900000D01*
X14450000Y-7500000D02*
X14150000Y-7500000D01*
X16950000Y-4600000D02*
X16950000Y-4300000D01*
X17250000Y-11600000D02*
X17250000Y-11900000D01*
X16800000Y-7500000D02*
X16750000Y-7500000D01*
X16550000Y-7500000D02*
X16750000Y-7500000D01*
X14620000Y-5210000D02*
X14620000Y-5790000D01*
X17250000Y-11900000D02*
G75*
G03*
X17350000Y-12000000I100000J0D01*
G01*
X20450000Y-3500000D02*
G75*
G03*
X20350000Y-3400000I-100000J0D01*
G01*
X16950000Y-7100000D02*
X16950000Y-7350000D01*
X15950000Y-7900000D02*
G75*
G03*
X15950000Y-7500000I0J200000D01*
G01*
X16300000Y-11750000D02*
X14650000Y-11750000D01*
X17350000Y-3400000D02*
X20350000Y-3400000D01*
X16450000Y-11900000D02*
G75*
G03*
X16550000Y-12000000I100000J0D01*
G01*
X17250000Y-4750000D02*
X17250000Y-6600000D01*
X17250000Y-10750000D02*
X17250000Y-11100000D01*
X16000000Y-4650000D02*
G75*
G03*
X15950000Y-4700000I0J-50000D01*
G01*
X17250000Y-3800000D02*
X17250000Y-3500000D01*
X16950000Y-8300000D02*
G75*
G03*
X17250000Y-8300000I150000J0D01*
G01*
X16950000Y-8050000D02*
G75*
G03*
X16800000Y-7900000I-150000J0D01*
G01*
X15050000Y-7900000D02*
X15950000Y-7900000D01*
X16800000Y-7500000D02*
G75*
G03*
X16950000Y-7350000I0J150000D01*
G01*
X16450000Y-11900000D02*
G75*
G03*
X16300000Y-11750000I-150000J0D01*
G01*
X16800000Y-12000000D02*
G75*
G03*
X16950000Y-11850000I0J150000D01*
G01*
X20450000Y-10650000D02*
G75*
G03*
X20450000Y-10750000I50000J-50000D01*
G01*
X17250000Y-7100000D02*
G75*
G03*
X16950000Y-7100000I-150000J0D01*
G01*
X16900000Y-4650000D02*
G75*
G03*
X16950000Y-4600000I0J50000D01*
G01*
X17350000Y-12000000D02*
X20350000Y-12000000D01*
X14150000Y-3400000D02*
G75*
G03*
X14000000Y-3550000I0J-150000D01*
G01*
X16950000Y-6300000D02*
X16950000Y-6600000D01*
X17350000Y-3400000D02*
G75*
G03*
X17250000Y-3500000I0J-100000D01*
G01*
X14400000Y-12000000D02*
G75*
G03*
X14500000Y-11900000I0J100000D01*
G01*
X14150000Y-7900000D02*
X14450000Y-7900000D01*
X17250000Y-7100000D02*
X17250000Y-8300000D01*
X20450000Y-10650000D02*
X20450000Y-4750000D01*
X16950000Y-6300000D02*
G75*
G03*
X16900000Y-6250000I-50000J0D01*
G01*
D11*
D12*
X14035000Y-9835000D02*
X14065000Y-9865000D01*
X14065000Y-9835000D02*
X14035000Y-9865000D01*
X14134217Y-7087088D02*
X14164217Y-7117088D01*
X14164217Y-7087088D02*
X14134217Y-7117088D01*
X14135000Y-3985000D02*
X14165000Y-4015000D01*
X14165000Y-3985000D02*
X14135000Y-4015000D01*
X14135000Y-4185000D02*
X14165000Y-4215000D01*
X14165000Y-4185000D02*
X14135000Y-4215000D01*
X14135000Y-4385000D02*
X14165000Y-4415000D01*
X14165000Y-4385000D02*
X14135000Y-4415000D01*
X14135000Y-4585000D02*
X14165000Y-4615000D01*
X14165000Y-4585000D02*
X14135000Y-4615000D01*
X14135000Y-4785000D02*
X14165000Y-4815000D01*
X14165000Y-4785000D02*
X14135000Y-4815000D01*
X14135000Y-7185000D02*
X14165000Y-7215000D01*
X14165000Y-7185000D02*
X14135000Y-7215000D01*
X14135000Y-7385000D02*
X14165000Y-7415000D01*
X14165000Y-7385000D02*
X14135000Y-7415000D01*
X14135000Y-8085000D02*
X14165000Y-8115000D01*
X14165000Y-8085000D02*
X14135000Y-8115000D01*
X14135000Y-8285000D02*
X14165000Y-8315000D01*
X14165000Y-8285000D02*
X14135000Y-8315000D01*
X14135000Y-8685000D02*
X14165000Y-8715000D01*
X14165000Y-8685000D02*
X14135000Y-8715000D01*
X14135000Y-8885000D02*
X14165000Y-8915000D01*
X14165000Y-8885000D02*
X14135000Y-8915000D01*
X14135000Y-9085000D02*
X14165000Y-9115000D01*
X14165000Y-9085000D02*
X14135000Y-9115000D01*
X14135000Y-9285000D02*
X14165000Y-9315000D01*
X14165000Y-9285000D02*
X14135000Y-9315000D01*
X14135000Y-9385000D02*
X14165000Y-9415000D01*
X14165000Y-9385000D02*
X14135000Y-9415000D01*
X14135000Y-9485000D02*
X14165000Y-9515000D01*
X14165000Y-9485000D02*
X14135000Y-9515000D01*
X14135000Y-9585000D02*
X14165000Y-9615000D01*
X14165000Y-9585000D02*
X14135000Y-9615000D01*
X14135000Y-10185000D02*
X14165000Y-10215000D01*
X14165000Y-10185000D02*
X14135000Y-10215000D01*
X14135000Y-10285000D02*
X14165000Y-10315000D01*
X14165000Y-10285000D02*
X14135000Y-10315000D01*
X14135000Y-10385000D02*
X14165000Y-10415000D01*
X14165000Y-10385000D02*
X14135000Y-10415000D01*
X14135000Y-10485000D02*
X14165000Y-10515000D01*
X14165000Y-10485000D02*
X14135000Y-10515000D01*
X14135000Y-10585000D02*
X14165000Y-10615000D01*
X14165000Y-10585000D02*
X14135000Y-10615000D01*
X14135000Y-10685000D02*
X14165000Y-10715000D01*
X14165000Y-10685000D02*
X14135000Y-10715000D01*
X14135000Y-11485000D02*
X14165000Y-11515000D01*
X14165000Y-11485000D02*
X14135000Y-11515000D01*
X14135000Y-11685000D02*
X14165000Y-11715000D01*
X14165000Y-11685000D02*
X14135000Y-11715000D01*
X14135000Y-11885000D02*
X14165000Y-11915000D01*
X14165000Y-11885000D02*
X14135000Y-11915000D01*
X14139173Y-9727485D02*
X14169173Y-9757485D01*
X14169173Y-9727485D02*
X14139173Y-9757485D01*
X14176371Y-9970050D02*
X14206371Y-10000050D01*
X14206371Y-9970050D02*
X14176371Y-10000050D01*
X14183528Y-9785726D02*
X14213528Y-9815726D01*
X14213528Y-9785726D02*
X14183528Y-9815726D01*
X14185000Y-6085000D02*
X14215000Y-6115000D01*
X14215000Y-6085000D02*
X14185000Y-6115000D01*
X14185000Y-6185000D02*
X14215000Y-6215000D01*
X14215000Y-6185000D02*
X14185000Y-6215000D01*
X14185000Y-6585000D02*
X14215000Y-6615000D01*
X14215000Y-6585000D02*
X14185000Y-6615000D01*
X14185000Y-6685000D02*
X14215000Y-6715000D01*
X14215000Y-6685000D02*
X14185000Y-6715000D01*
X14235000Y-3885000D02*
X14265000Y-3915000D01*
X14265000Y-3885000D02*
X14235000Y-3915000D01*
X14235000Y-7185000D02*
X14265000Y-7215000D01*
X14265000Y-7185000D02*
X14235000Y-7215000D01*
X14235000Y-7985000D02*
X14265000Y-8015000D01*
X14265000Y-7985000D02*
X14235000Y-8015000D01*
X14235000Y-8185000D02*
X14265000Y-8215000D01*
X14265000Y-8185000D02*
X14235000Y-8215000D01*
X14235000Y-8785000D02*
X14265000Y-8815000D01*
X14265000Y-8785000D02*
X14235000Y-8815000D01*
X14235000Y-9185000D02*
X14265000Y-9215000D01*
X14265000Y-9185000D02*
X14235000Y-9215000D01*
X14235000Y-9285000D02*
X14265000Y-9315000D01*
X14265000Y-9285000D02*
X14235000Y-9315000D01*
X14235000Y-10585000D02*
X14265000Y-10615000D01*
X14265000Y-10585000D02*
X14235000Y-10615000D01*
X14235000Y-10685000D02*
X14265000Y-10715000D01*
X14265000Y-10685000D02*
X14235000Y-10715000D01*
X14235000Y-11485000D02*
X14265000Y-11515000D01*
X14265000Y-11485000D02*
X14235000Y-11515000D01*
X14285000Y-6835000D02*
X14315000Y-6865000D01*
X14315000Y-6835000D02*
X14285000Y-6865000D01*
X14335000Y-7085000D02*
X14365000Y-7115000D01*
X14365000Y-7085000D02*
X14335000Y-7115000D01*
X14335000Y-8085000D02*
X14365000Y-8115000D01*
X14365000Y-8085000D02*
X14335000Y-8115000D01*
X14335000Y-8285000D02*
X14365000Y-8315000D01*
X14365000Y-8285000D02*
X14335000Y-8315000D01*
X14335000Y-8585000D02*
X14365000Y-8615000D01*
X14365000Y-8585000D02*
X14335000Y-8615000D01*
X14335000Y-8885000D02*
X14365000Y-8915000D01*
X14365000Y-8885000D02*
X14335000Y-8915000D01*
X14335000Y-9085000D02*
X14365000Y-9115000D01*
X14365000Y-9085000D02*
X14335000Y-9115000D01*
X14335000Y-9285000D02*
X14365000Y-9315000D01*
X14365000Y-9285000D02*
X14335000Y-9315000D01*
X14335000Y-10585000D02*
X14365000Y-10615000D01*
X14365000Y-10585000D02*
X14335000Y-10615000D01*
X14335000Y-11885000D02*
X14365000Y-11915000D01*
X14365000Y-11885000D02*
X14335000Y-11915000D01*
X14403615Y-9835138D02*
X14433615Y-9865138D01*
X14433615Y-9835138D02*
X14403615Y-9865138D01*
X14435000Y-3885000D02*
X14465000Y-3915000D01*
X14465000Y-3885000D02*
X14435000Y-3915000D01*
X14435000Y-7985000D02*
X14465000Y-8015000D01*
X14465000Y-7985000D02*
X14435000Y-8015000D01*
X14435000Y-8185000D02*
X14465000Y-8215000D01*
X14465000Y-8185000D02*
X14435000Y-8215000D01*
X14435000Y-9185000D02*
X14465000Y-9215000D01*
X14465000Y-9185000D02*
X14435000Y-9215000D01*
X14435000Y-9285000D02*
X14465000Y-9315000D01*
X14465000Y-9285000D02*
X14435000Y-9315000D01*
X14435000Y-9385000D02*
X14465000Y-9415000D01*
X14465000Y-9385000D02*
X14435000Y-9415000D01*
X14435000Y-9485000D02*
X14465000Y-9515000D01*
X14465000Y-9485000D02*
X14435000Y-9515000D01*
X14435000Y-10035000D02*
X14465000Y-10065000D01*
X14465000Y-10035000D02*
X14435000Y-10065000D01*
X14435000Y-10285000D02*
X14465000Y-10315000D01*
X14465000Y-10285000D02*
X14435000Y-10315000D01*
X14435000Y-10385000D02*
X14465000Y-10415000D01*
X14465000Y-10385000D02*
X14435000Y-10415000D01*
X14435000Y-10485000D02*
X14465000Y-10515000D01*
X14465000Y-10485000D02*
X14435000Y-10515000D01*
X14435000Y-10585000D02*
X14465000Y-10615000D01*
X14465000Y-10585000D02*
X14435000Y-10615000D01*
X14440730Y-9775846D02*
X14470730Y-9805846D01*
X14470730Y-9775846D02*
X14440730Y-9805846D01*
X14464264Y-9704950D02*
X14494264Y-9734950D01*
X14494264Y-9704950D02*
X14464264Y-9734950D01*
X14465179Y-9971895D02*
X14495179Y-10001895D01*
X14495179Y-9971895D02*
X14465179Y-10001895D01*
X14535000Y-4885000D02*
X14565000Y-4915000D01*
X14565000Y-4885000D02*
X14535000Y-4915000D01*
X14535000Y-5985000D02*
X14565000Y-6015000D01*
X14565000Y-5985000D02*
X14535000Y-6015000D01*
X14535000Y-8085000D02*
X14565000Y-8115000D01*
X14565000Y-8085000D02*
X14535000Y-8115000D01*
X14535000Y-8685000D02*
X14565000Y-8715000D01*
X14565000Y-8685000D02*
X14535000Y-8715000D01*
X14535000Y-9185000D02*
X14565000Y-9215000D01*
X14565000Y-9185000D02*
X14535000Y-9215000D01*
X14535000Y-10485000D02*
X14565000Y-10515000D01*
X14565000Y-10485000D02*
X14535000Y-10515000D01*
X14535000Y-10585000D02*
X14565000Y-10615000D01*
X14565000Y-10585000D02*
X14535000Y-10615000D01*
X14546464Y-6164552D02*
X14576464Y-6194552D01*
X14576464Y-6164552D02*
X14546464Y-6194552D01*
X14585000Y-8985000D02*
X14615000Y-9015000D01*
X14615000Y-8985000D02*
X14585000Y-9015000D01*
X14585000Y-9085000D02*
X14615000Y-9115000D01*
X14615000Y-9085000D02*
X14585000Y-9115000D01*
X14606464Y-6092825D02*
X14636464Y-6122825D01*
X14636464Y-6092825D02*
X14606464Y-6122825D01*
X14635000Y-3445000D02*
X14665000Y-3475000D01*
X14665000Y-3445000D02*
X14635000Y-3475000D01*
X14635000Y-3885000D02*
X14665000Y-3915000D01*
X14665000Y-3885000D02*
X14635000Y-3915000D01*
X14635000Y-4985000D02*
X14665000Y-5015000D01*
X14665000Y-4985000D02*
X14635000Y-5015000D01*
X14635000Y-7985000D02*
X14665000Y-8015000D01*
X14665000Y-7985000D02*
X14635000Y-8015000D01*
X14635000Y-8785000D02*
X14665000Y-8815000D01*
X14665000Y-8785000D02*
X14635000Y-8815000D01*
X14635000Y-10485000D02*
X14665000Y-10515000D01*
X14665000Y-10485000D02*
X14635000Y-10515000D01*
X14635000Y-10585000D02*
X14665000Y-10615000D01*
X14665000Y-10585000D02*
X14635000Y-10615000D01*
X14640000Y-7090000D02*
X14670000Y-7120000D01*
X14670000Y-7090000D02*
X14640000Y-7120000D01*
X14665000Y-5185000D02*
X14695000Y-5215000D01*
X14695000Y-5185000D02*
X14665000Y-5215000D01*
X14665000Y-5655000D02*
X14695000Y-5685000D01*
X14695000Y-5655000D02*
X14665000Y-5685000D01*
X14685000Y-5875000D02*
X14715000Y-5905000D01*
X14715000Y-5875000D02*
X14685000Y-5905000D01*
X14685000Y-9285000D02*
X14715000Y-9315000D01*
X14715000Y-9285000D02*
X14685000Y-9315000D01*
X14685000Y-9385000D02*
X14715000Y-9415000D01*
X14715000Y-9385000D02*
X14685000Y-9415000D01*
X14685000Y-9635000D02*
X14715000Y-9665000D01*
X14715000Y-9635000D02*
X14685000Y-9665000D01*
X14685000Y-10135000D02*
X14715000Y-10165000D01*
X14715000Y-10135000D02*
X14685000Y-10165000D01*
X14685000Y-10285000D02*
X14715000Y-10315000D01*
X14715000Y-10285000D02*
X14685000Y-10315000D01*
X14685000Y-10385000D02*
X14715000Y-10415000D01*
X14715000Y-10385000D02*
X14685000Y-10415000D01*
X14735000Y-3445000D02*
X14765000Y-3475000D01*
X14765000Y-3445000D02*
X14735000Y-3475000D01*
X14735000Y-4885000D02*
X14765000Y-4915000D01*
X14765000Y-4885000D02*
X14735000Y-4915000D01*
X14735000Y-5735000D02*
X14765000Y-5765000D01*
X14765000Y-5735000D02*
X14735000Y-5765000D01*
X14735000Y-8685000D02*
X14765000Y-8715000D01*
X14765000Y-8685000D02*
X14735000Y-8715000D01*
X14785000Y-10135000D02*
X14815000Y-10165000D01*
X14815000Y-10135000D02*
X14785000Y-10165000D01*
X14794950Y-5485000D02*
X14824950Y-5515000D01*
X14824950Y-5485000D02*
X14794950Y-5515000D01*
X14800000Y-6185000D02*
X14830000Y-6215000D01*
X14830000Y-6185000D02*
X14800000Y-6215000D01*
X14835000Y-3445000D02*
X14865000Y-3475000D01*
X14865000Y-3445000D02*
X14835000Y-3475000D01*
X14835000Y-4185000D02*
X14865000Y-4215000D01*
X14865000Y-4185000D02*
X14835000Y-4215000D01*
X14835000Y-4385000D02*
X14865000Y-4415000D01*
X14865000Y-4385000D02*
X14835000Y-4415000D01*
X14835000Y-4585000D02*
X14865000Y-4615000D01*
X14865000Y-4585000D02*
X14835000Y-4615000D01*
X14835000Y-4785000D02*
X14865000Y-4815000D01*
X14865000Y-4785000D02*
X14835000Y-4815000D01*
X14835000Y-6035000D02*
X14865000Y-6065000D01*
X14865000Y-6035000D02*
X14835000Y-6065000D01*
X14835000Y-6385000D02*
X14865000Y-6415000D01*
X14865000Y-6385000D02*
X14835000Y-6415000D01*
X14835000Y-6485000D02*
X14865000Y-6515000D01*
X14865000Y-6485000D02*
X14835000Y-6515000D01*
X14835000Y-6585000D02*
X14865000Y-6615000D01*
X14865000Y-6585000D02*
X14835000Y-6615000D01*
X14835000Y-6685000D02*
X14865000Y-6715000D01*
X14865000Y-6685000D02*
X14835000Y-6715000D01*
X14835000Y-6785000D02*
X14865000Y-6815000D01*
X14865000Y-6785000D02*
X14835000Y-6815000D01*
X14835000Y-6885000D02*
X14865000Y-6915000D01*
X14865000Y-6885000D02*
X14835000Y-6915000D01*
X14835000Y-6985000D02*
X14865000Y-7015000D01*
X14865000Y-6985000D02*
X14835000Y-7015000D01*
X14835000Y-7985000D02*
X14865000Y-8015000D01*
X14865000Y-7985000D02*
X14835000Y-8015000D01*
X14835000Y-8385000D02*
X14865000Y-8415000D01*
X14865000Y-8385000D02*
X14835000Y-8415000D01*
X14835000Y-8585000D02*
X14865000Y-8615000D01*
X14865000Y-8585000D02*
X14835000Y-8615000D01*
X14835000Y-8785000D02*
X14865000Y-8815000D01*
X14865000Y-8785000D02*
X14835000Y-8815000D01*
X14835000Y-8885000D02*
X14865000Y-8915000D01*
X14865000Y-8885000D02*
X14835000Y-8915000D01*
X14835000Y-9085000D02*
X14865000Y-9115000D01*
X14865000Y-9085000D02*
X14835000Y-9115000D01*
X14854950Y-5557631D02*
X14884950Y-5587631D01*
X14884950Y-5557631D02*
X14854950Y-5587631D01*
X14854950Y-10135000D02*
X14884950Y-10165000D01*
X14884950Y-10135000D02*
X14854950Y-10165000D01*
X14870000Y-6185000D02*
X14900000Y-6215000D01*
X14900000Y-6185000D02*
X14870000Y-6215000D01*
X14885000Y-5135000D02*
X14915000Y-5165000D01*
X14915000Y-5135000D02*
X14885000Y-5165000D01*
X14885000Y-5635000D02*
X14915000Y-5665000D01*
X14915000Y-5635000D02*
X14885000Y-5665000D01*
X14885000Y-9635000D02*
X14915000Y-9665000D01*
X14915000Y-9635000D02*
X14885000Y-9665000D01*
X14935000Y-3445000D02*
X14965000Y-3475000D01*
X14965000Y-3445000D02*
X14935000Y-3475000D01*
X14935000Y-8685000D02*
X14965000Y-8715000D01*
X14965000Y-8685000D02*
X14935000Y-8715000D01*
X14935000Y-10385000D02*
X14965000Y-10415000D01*
X14965000Y-10385000D02*
X14935000Y-10415000D01*
X14935000Y-10585000D02*
X14965000Y-10615000D01*
X14965000Y-10585000D02*
X14935000Y-10615000D01*
X14935000Y-10685000D02*
X14965000Y-10715000D01*
X14965000Y-10685000D02*
X14935000Y-10715000D01*
X14935000Y-11485000D02*
X14965000Y-11515000D01*
X14965000Y-11485000D02*
X14935000Y-11515000D01*
X14946701Y-5675050D02*
X14976701Y-5705050D01*
X14976701Y-5675050D02*
X14946701Y-5705050D01*
X14985000Y-6180050D02*
X15015000Y-6210050D01*
X15015000Y-6180050D02*
X14985000Y-6210050D01*
X14995000Y-5885000D02*
X15025000Y-5915000D01*
X15025000Y-5885000D02*
X14995000Y-5915000D01*
X15035000Y-7985000D02*
X15065000Y-8015000D01*
X15065000Y-7985000D02*
X15035000Y-8015000D01*
X15035000Y-8385000D02*
X15065000Y-8415000D01*
X15065000Y-8385000D02*
X15035000Y-8415000D01*
X15035000Y-8585000D02*
X15065000Y-8615000D01*
X15065000Y-8585000D02*
X15035000Y-8615000D01*
X15035000Y-8785000D02*
X15065000Y-8815000D01*
X15065000Y-8785000D02*
X15035000Y-8815000D01*
X15035000Y-10485000D02*
X15065000Y-10515000D01*
X15065000Y-10485000D02*
X15035000Y-10515000D01*
X15035000Y-10685000D02*
X15065000Y-10715000D01*
X15065000Y-10685000D02*
X15035000Y-10715000D01*
X15035000Y-11485000D02*
X15065000Y-11515000D01*
X15065000Y-11485000D02*
X15035000Y-11515000D01*
X15084210Y-3632367D02*
X15114210Y-3662367D01*
X15114210Y-3632367D02*
X15084210Y-3662367D01*
X15085000Y-3835000D02*
X15115000Y-3865000D01*
X15115000Y-3835000D02*
X15085000Y-3865000D01*
X15135000Y-4885000D02*
X15165000Y-4915000D01*
X15165000Y-4885000D02*
X15135000Y-4915000D01*
X15135000Y-8685000D02*
X15165000Y-8715000D01*
X15165000Y-8685000D02*
X15135000Y-8715000D01*
X15135000Y-10585000D02*
X15165000Y-10615000D01*
X15165000Y-10585000D02*
X15135000Y-10615000D01*
X15160000Y-3647324D02*
X15190000Y-3677324D01*
X15190000Y-3647324D02*
X15160000Y-3677324D01*
X15235000Y-3445000D02*
X15265000Y-3475000D01*
X15265000Y-3445000D02*
X15235000Y-3475000D01*
X15235000Y-7985000D02*
X15265000Y-8015000D01*
X15265000Y-7985000D02*
X15235000Y-8015000D01*
X15235000Y-8785000D02*
X15265000Y-8815000D01*
X15265000Y-8785000D02*
X15235000Y-8815000D01*
X15265000Y-6085000D02*
X15295000Y-6115000D01*
X15295000Y-6085000D02*
X15265000Y-6115000D01*
X15335000Y-3445000D02*
X15365000Y-3475000D01*
X15365000Y-3445000D02*
X15335000Y-3475000D01*
X15335000Y-3985000D02*
X15365000Y-4015000D01*
X15365000Y-3985000D02*
X15335000Y-4015000D01*
X15335000Y-6885000D02*
X15365000Y-6915000D01*
X15365000Y-6885000D02*
X15335000Y-6915000D01*
X15335000Y-7085000D02*
X15365000Y-7115000D01*
X15365000Y-7085000D02*
X15335000Y-7115000D01*
X15335000Y-8885000D02*
X15365000Y-8915000D01*
X15365000Y-8885000D02*
X15335000Y-8915000D01*
X15335000Y-9085000D02*
X15365000Y-9115000D01*
X15365000Y-9085000D02*
X15335000Y-9115000D01*
X15341965Y-5898843D02*
X15371965Y-5928843D01*
X15371965Y-5898843D02*
X15341965Y-5928843D01*
X15385000Y-6175000D02*
X15415000Y-6205000D01*
X15415000Y-6175000D02*
X15385000Y-6205000D01*
X15422609Y-3907391D02*
X15452609Y-3937391D01*
X15452609Y-3907391D02*
X15422609Y-3937391D01*
X15435000Y-3445000D02*
X15465000Y-3475000D01*
X15465000Y-3445000D02*
X15435000Y-3475000D01*
X15435000Y-3835000D02*
X15465000Y-3865000D01*
X15465000Y-3835000D02*
X15435000Y-3865000D01*
X15435000Y-4585000D02*
X15465000Y-4615000D01*
X15465000Y-4585000D02*
X15435000Y-4615000D01*
X15435000Y-4885000D02*
X15465000Y-4915000D01*
X15465000Y-4885000D02*
X15435000Y-4915000D01*
X15435000Y-7985000D02*
X15465000Y-8015000D01*
X15465000Y-7985000D02*
X15435000Y-8015000D01*
X15485000Y-5835000D02*
X15515000Y-5865000D01*
X15515000Y-5835000D02*
X15485000Y-5865000D01*
X15535000Y-3445000D02*
X15565000Y-3475000D01*
X15565000Y-3445000D02*
X15535000Y-3475000D01*
X15535000Y-3835000D02*
X15565000Y-3865000D01*
X15565000Y-3835000D02*
X15535000Y-3865000D01*
X15535000Y-6085000D02*
X15565000Y-6115000D01*
X15565000Y-6085000D02*
X15535000Y-6115000D01*
X15562609Y-8827391D02*
X15592609Y-8857391D01*
X15592609Y-8827391D02*
X15562609Y-8857391D01*
X15565000Y-8925000D02*
X15595000Y-8955000D01*
X15595000Y-8925000D02*
X15565000Y-8955000D01*
X15635000Y-3445000D02*
X15665000Y-3475000D01*
X15665000Y-3445000D02*
X15635000Y-3475000D01*
X15635000Y-4085000D02*
X15665000Y-4115000D01*
X15665000Y-4085000D02*
X15635000Y-4115000D01*
X15635000Y-4285000D02*
X15665000Y-4315000D01*
X15665000Y-4285000D02*
X15635000Y-4315000D01*
X15635000Y-5685000D02*
X15665000Y-5715000D01*
X15665000Y-5685000D02*
X15635000Y-5715000D01*
X15635000Y-6885000D02*
X15665000Y-6915000D01*
X15665000Y-6885000D02*
X15635000Y-6915000D01*
X15635000Y-7035000D02*
X15665000Y-7065000D01*
X15665000Y-7035000D02*
X15635000Y-7065000D01*
X15635000Y-7985000D02*
X15665000Y-8015000D01*
X15665000Y-7985000D02*
X15635000Y-8015000D01*
X15635000Y-8285000D02*
X15665000Y-8315000D01*
X15665000Y-8285000D02*
X15635000Y-8315000D01*
X15635000Y-8535000D02*
X15665000Y-8565000D01*
X15665000Y-8535000D02*
X15635000Y-8565000D01*
X15643317Y-8658000D02*
X15673317Y-8688000D01*
X15673317Y-8658000D02*
X15643317Y-8688000D01*
X15735000Y-3445000D02*
X15765000Y-3475000D01*
X15765000Y-3445000D02*
X15735000Y-3475000D01*
X15735000Y-3835000D02*
X15765000Y-3865000D01*
X15765000Y-3835000D02*
X15735000Y-3865000D01*
X15735000Y-6585000D02*
X15765000Y-6615000D01*
X15765000Y-6585000D02*
X15735000Y-6615000D01*
X15735000Y-6785000D02*
X15765000Y-6815000D01*
X15765000Y-6785000D02*
X15735000Y-6815000D01*
X15735000Y-9085000D02*
X15765000Y-9115000D01*
X15765000Y-9085000D02*
X15735000Y-9115000D01*
X15735000Y-9285000D02*
X15765000Y-9315000D01*
X15765000Y-9285000D02*
X15735000Y-9315000D01*
X15735000Y-9485000D02*
X15765000Y-9515000D01*
X15765000Y-9485000D02*
X15735000Y-9515000D01*
X15763502Y-8770050D02*
X15793502Y-8800050D01*
X15793502Y-8770050D02*
X15763502Y-8800050D01*
X15804950Y-3835000D02*
X15834950Y-3865000D01*
X15834950Y-3835000D02*
X15804950Y-3865000D01*
X15835000Y-3445000D02*
X15865000Y-3475000D01*
X15865000Y-3445000D02*
X15835000Y-3475000D01*
X15835000Y-7985000D02*
X15865000Y-8015000D01*
X15865000Y-7985000D02*
X15835000Y-8015000D01*
X15835000Y-8285000D02*
X15865000Y-8315000D01*
X15865000Y-8285000D02*
X15835000Y-8315000D01*
X15835000Y-8985000D02*
X15865000Y-9015000D01*
X15865000Y-8985000D02*
X15835000Y-9015000D01*
X15835000Y-9585000D02*
X15865000Y-9615000D01*
X15865000Y-9585000D02*
X15835000Y-9615000D01*
X15835000Y-9785000D02*
X15865000Y-9815000D01*
X15865000Y-9785000D02*
X15835000Y-9815000D01*
X15835000Y-10085000D02*
X15865000Y-10115000D01*
X15865000Y-10085000D02*
X15835000Y-10115000D01*
X15835000Y-10285000D02*
X15865000Y-10315000D01*
X15865000Y-10285000D02*
X15835000Y-10315000D01*
X15874920Y-3683194D02*
X15904920Y-3713194D01*
X15904920Y-3683194D02*
X15874920Y-3713194D01*
X15895050Y-3507431D02*
X15925050Y-3537431D01*
X15925050Y-3507431D02*
X15895050Y-3537431D01*
X15910000Y-3622676D02*
X15940000Y-3652676D01*
X15940000Y-3622676D02*
X15910000Y-3652676D01*
X15935000Y-3885000D02*
X15965000Y-3915000D01*
X15965000Y-3885000D02*
X15935000Y-3915000D01*
X15935000Y-4085000D02*
X15965000Y-4115000D01*
X15965000Y-4085000D02*
X15935000Y-4115000D01*
X15935000Y-4285000D02*
X15965000Y-4315000D01*
X15965000Y-4285000D02*
X15935000Y-4315000D01*
X15935000Y-6285000D02*
X15965000Y-6315000D01*
X15965000Y-6285000D02*
X15935000Y-6315000D01*
X15935000Y-9585000D02*
X15965000Y-9615000D01*
X15965000Y-9585000D02*
X15935000Y-9615000D01*
X15935000Y-10285000D02*
X15965000Y-10315000D01*
X15965000Y-10285000D02*
X15935000Y-10315000D01*
X15978250Y-8769941D02*
X16008250Y-8799941D01*
X16008250Y-8769941D02*
X15978250Y-8799941D01*
X15978250Y-8928250D02*
X16008250Y-8958250D01*
X16008250Y-8928250D02*
X15978250Y-8958250D01*
X16025898Y-3542476D02*
X16055898Y-3572476D01*
X16055898Y-3542476D02*
X16025898Y-3572476D01*
X16035000Y-3445000D02*
X16065000Y-3475000D01*
X16065000Y-3445000D02*
X16035000Y-3475000D01*
X16035000Y-4485000D02*
X16065000Y-4515000D01*
X16065000Y-4485000D02*
X16035000Y-4515000D01*
X16035000Y-6385000D02*
X16065000Y-6415000D01*
X16065000Y-6385000D02*
X16035000Y-6415000D01*
X16035000Y-7985000D02*
X16065000Y-8015000D01*
X16065000Y-7985000D02*
X16035000Y-8015000D01*
X16035000Y-8285000D02*
X16065000Y-8315000D01*
X16065000Y-8285000D02*
X16035000Y-8315000D01*
X16035000Y-9585000D02*
X16065000Y-9615000D01*
X16065000Y-9585000D02*
X16035000Y-9615000D01*
X16035000Y-9685000D02*
X16065000Y-9715000D01*
X16065000Y-9685000D02*
X16035000Y-9715000D01*
X16035000Y-9785000D02*
X16065000Y-9815000D01*
X16065000Y-9785000D02*
X16035000Y-9815000D01*
X16035000Y-10085000D02*
X16065000Y-10115000D01*
X16065000Y-10085000D02*
X16035000Y-10115000D01*
X16035000Y-10185000D02*
X16065000Y-10215000D01*
X16065000Y-10185000D02*
X16035000Y-10215000D01*
X16035000Y-10285000D02*
X16065000Y-10315000D01*
X16065000Y-10285000D02*
X16035000Y-10315000D01*
X16035000Y-10385000D02*
X16065000Y-10415000D01*
X16065000Y-10385000D02*
X16035000Y-10415000D01*
X16035000Y-10485000D02*
X16065000Y-10515000D01*
X16065000Y-10485000D02*
X16035000Y-10515000D01*
X16060050Y-3639950D02*
X16090050Y-3669950D01*
X16090050Y-3639950D02*
X16060050Y-3669950D01*
X16135000Y-3445000D02*
X16165000Y-3475000D01*
X16165000Y-3445000D02*
X16135000Y-3475000D01*
X16135000Y-3885000D02*
X16165000Y-3915000D01*
X16165000Y-3885000D02*
X16135000Y-3915000D01*
X16135000Y-3985000D02*
X16165000Y-4015000D01*
X16165000Y-3985000D02*
X16135000Y-4015000D01*
X16135000Y-9685000D02*
X16165000Y-9715000D01*
X16165000Y-9685000D02*
X16135000Y-9715000D01*
X16135000Y-9785000D02*
X16165000Y-9815000D01*
X16165000Y-9785000D02*
X16135000Y-9815000D01*
X16135000Y-9885000D02*
X16165000Y-9915000D01*
X16165000Y-9885000D02*
X16135000Y-9915000D01*
X16135000Y-9985000D02*
X16165000Y-10015000D01*
X16165000Y-9985000D02*
X16135000Y-10015000D01*
X16135000Y-10085000D02*
X16165000Y-10115000D01*
X16165000Y-10085000D02*
X16135000Y-10115000D01*
X16135000Y-10185000D02*
X16165000Y-10215000D01*
X16165000Y-10185000D02*
X16135000Y-10215000D01*
X16135000Y-10285000D02*
X16165000Y-10315000D01*
X16165000Y-10285000D02*
X16135000Y-10315000D01*
X16135000Y-10385000D02*
X16165000Y-10415000D01*
X16165000Y-10385000D02*
X16135000Y-10415000D01*
X16135000Y-11085000D02*
X16165000Y-11115000D01*
X16165000Y-11085000D02*
X16135000Y-11115000D01*
X16135000Y-11185000D02*
X16165000Y-11215000D01*
X16165000Y-11185000D02*
X16135000Y-11215000D01*
X16135000Y-11285000D02*
X16165000Y-11315000D01*
X16165000Y-11285000D02*
X16135000Y-11315000D01*
X16185000Y-8735000D02*
X16215000Y-8765000D01*
X16215000Y-8735000D02*
X16185000Y-8765000D01*
X16185000Y-8985000D02*
X16215000Y-9015000D01*
X16215000Y-8985000D02*
X16185000Y-9015000D01*
X16235000Y-3445000D02*
X16265000Y-3475000D01*
X16265000Y-3445000D02*
X16235000Y-3475000D01*
X16235000Y-3885000D02*
X16265000Y-3915000D01*
X16265000Y-3885000D02*
X16235000Y-3915000D01*
X16235000Y-4485000D02*
X16265000Y-4515000D01*
X16265000Y-4485000D02*
X16235000Y-4515000D01*
X16235000Y-6385000D02*
X16265000Y-6415000D01*
X16265000Y-6385000D02*
X16235000Y-6415000D01*
X16235000Y-6585000D02*
X16265000Y-6615000D01*
X16265000Y-6585000D02*
X16235000Y-6615000D01*
X16235000Y-6785000D02*
X16265000Y-6815000D01*
X16265000Y-6785000D02*
X16235000Y-6815000D01*
X16235000Y-6985000D02*
X16265000Y-7015000D01*
X16265000Y-6985000D02*
X16235000Y-7015000D01*
X16235000Y-7985000D02*
X16265000Y-8015000D01*
X16265000Y-7985000D02*
X16235000Y-8015000D01*
X16235000Y-8285000D02*
X16265000Y-8315000D01*
X16265000Y-8285000D02*
X16235000Y-8315000D01*
X16235000Y-9285000D02*
X16265000Y-9315000D01*
X16265000Y-9285000D02*
X16235000Y-9315000D01*
X16235000Y-9485000D02*
X16265000Y-9515000D01*
X16265000Y-9485000D02*
X16235000Y-9515000D01*
X16235000Y-9685000D02*
X16265000Y-9715000D01*
X16265000Y-9685000D02*
X16235000Y-9715000D01*
X16235000Y-9885000D02*
X16265000Y-9915000D01*
X16265000Y-9885000D02*
X16235000Y-9915000D01*
X16235000Y-9985000D02*
X16265000Y-10015000D01*
X16265000Y-9985000D02*
X16235000Y-10015000D01*
X16235000Y-10085000D02*
X16265000Y-10115000D01*
X16265000Y-10085000D02*
X16235000Y-10115000D01*
X16235000Y-10185000D02*
X16265000Y-10215000D01*
X16265000Y-10185000D02*
X16235000Y-10215000D01*
X16235000Y-10285000D02*
X16265000Y-10315000D01*
X16265000Y-10285000D02*
X16235000Y-10315000D01*
X16235000Y-11285000D02*
X16265000Y-11315000D01*
X16265000Y-11285000D02*
X16235000Y-11315000D01*
X16327550Y-11435654D02*
X16357550Y-11465654D01*
X16357550Y-11435654D02*
X16327550Y-11465654D01*
X16335000Y-3445000D02*
X16365000Y-3475000D01*
X16365000Y-3445000D02*
X16335000Y-3475000D01*
X16335000Y-8385000D02*
X16365000Y-8415000D01*
X16365000Y-8385000D02*
X16335000Y-8415000D01*
X16335000Y-9585000D02*
X16365000Y-9615000D01*
X16365000Y-9585000D02*
X16335000Y-9615000D01*
X16335000Y-9985000D02*
X16365000Y-10015000D01*
X16365000Y-9985000D02*
X16335000Y-10015000D01*
X16335000Y-10285000D02*
X16365000Y-10315000D01*
X16365000Y-10285000D02*
X16335000Y-10315000D01*
X16435000Y-3885000D02*
X16465000Y-3915000D01*
X16465000Y-3885000D02*
X16435000Y-3915000D01*
X16435000Y-4485000D02*
X16465000Y-4515000D01*
X16465000Y-4485000D02*
X16435000Y-4515000D01*
X16435000Y-6385000D02*
X16465000Y-6415000D01*
X16465000Y-6385000D02*
X16435000Y-6415000D01*
X16435000Y-7985000D02*
X16465000Y-8015000D01*
X16465000Y-7985000D02*
X16435000Y-8015000D01*
X16435000Y-8985000D02*
X16465000Y-9015000D01*
X16465000Y-8985000D02*
X16435000Y-9015000D01*
X16435000Y-9985000D02*
X16465000Y-10015000D01*
X16465000Y-9985000D02*
X16435000Y-10015000D01*
X16435000Y-11285000D02*
X16465000Y-11315000D01*
X16465000Y-11285000D02*
X16435000Y-11315000D01*
X16485000Y-11135000D02*
X16515000Y-11165000D01*
X16515000Y-11135000D02*
X16485000Y-11165000D01*
X16535000Y-9585000D02*
X16565000Y-9615000D01*
X16565000Y-9585000D02*
X16535000Y-9615000D01*
X16535000Y-9985000D02*
X16565000Y-10015000D01*
X16565000Y-9985000D02*
X16535000Y-10015000D01*
X16535000Y-11185000D02*
X16565000Y-11215000D01*
X16565000Y-11185000D02*
X16535000Y-11215000D01*
X16535000Y-11492450D02*
X16565000Y-11522450D01*
X16565000Y-11492450D02*
X16535000Y-11522450D01*
X16535000Y-11685000D02*
X16565000Y-11715000D01*
X16565000Y-11685000D02*
X16535000Y-11715000D01*
X16535000Y-11885000D02*
X16565000Y-11915000D01*
X16565000Y-11885000D02*
X16535000Y-11915000D01*
X16635000Y-3885000D02*
X16665000Y-3915000D01*
X16665000Y-3885000D02*
X16635000Y-3915000D01*
X16635000Y-4485000D02*
X16665000Y-4515000D01*
X16665000Y-4485000D02*
X16635000Y-4515000D01*
X16635000Y-6385000D02*
X16665000Y-6415000D01*
X16665000Y-6385000D02*
X16635000Y-6415000D01*
X16635000Y-7985000D02*
X16665000Y-8015000D01*
X16665000Y-7985000D02*
X16635000Y-8015000D01*
X16635000Y-9885000D02*
X16665000Y-9915000D01*
X16665000Y-9885000D02*
X16635000Y-9915000D01*
X16635000Y-9985000D02*
X16665000Y-10015000D01*
X16665000Y-9985000D02*
X16635000Y-10015000D01*
X16635000Y-10185000D02*
X16665000Y-10215000D01*
X16665000Y-10185000D02*
X16635000Y-10215000D01*
X16635000Y-10285000D02*
X16665000Y-10315000D01*
X16665000Y-10285000D02*
X16635000Y-10315000D01*
X16635000Y-11185000D02*
X16665000Y-11215000D01*
X16665000Y-11185000D02*
X16635000Y-11215000D01*
X16635000Y-11585000D02*
X16665000Y-11615000D01*
X16665000Y-11585000D02*
X16635000Y-11615000D01*
X16635000Y-11785000D02*
X16665000Y-11815000D01*
X16665000Y-11785000D02*
X16635000Y-11815000D01*
X16685000Y-8435000D02*
X16715000Y-8465000D01*
X16715000Y-8435000D02*
X16685000Y-8465000D01*
X16685000Y-10735000D02*
X16715000Y-10765000D01*
X16715000Y-10735000D02*
X16685000Y-10765000D01*
X16685000Y-10885000D02*
X16715000Y-10915000D01*
X16715000Y-10885000D02*
X16685000Y-10915000D01*
X16735000Y-8085000D02*
X16765000Y-8115000D01*
X16765000Y-8085000D02*
X16735000Y-8115000D01*
X16735000Y-8985000D02*
X16765000Y-9015000D01*
X16765000Y-8985000D02*
X16735000Y-9015000D01*
X16735000Y-9185000D02*
X16765000Y-9215000D01*
X16765000Y-9185000D02*
X16735000Y-9215000D01*
X16735000Y-9785000D02*
X16765000Y-9815000D01*
X16765000Y-9785000D02*
X16735000Y-9815000D01*
X16735000Y-9885000D02*
X16765000Y-9915000D01*
X16765000Y-9885000D02*
X16735000Y-9915000D01*
X16735000Y-9985000D02*
X16765000Y-10015000D01*
X16765000Y-9985000D02*
X16735000Y-10015000D01*
X16735000Y-10085000D02*
X16765000Y-10115000D01*
X16765000Y-10085000D02*
X16735000Y-10115000D01*
X16735000Y-10185000D02*
X16765000Y-10215000D01*
X16765000Y-10185000D02*
X16735000Y-10215000D01*
X16735000Y-10285000D02*
X16765000Y-10315000D01*
X16765000Y-10285000D02*
X16735000Y-10315000D01*
X16735000Y-10385000D02*
X16765000Y-10415000D01*
X16765000Y-10385000D02*
X16735000Y-10415000D01*
X16735000Y-11235000D02*
X16765000Y-11265000D01*
X16765000Y-11235000D02*
X16735000Y-11265000D01*
X16735000Y-11685000D02*
X16765000Y-11715000D01*
X16765000Y-11685000D02*
X16735000Y-11715000D01*
X16735000Y-11885000D02*
X16765000Y-11915000D01*
X16765000Y-11885000D02*
X16735000Y-11915000D01*
X16781050Y-10935000D02*
X16811050Y-10965000D01*
X16811050Y-10935000D02*
X16781050Y-10965000D01*
X16785000Y-8685000D02*
X16815000Y-8715000D01*
X16815000Y-8685000D02*
X16785000Y-8715000D01*
X16785000Y-8785000D02*
X16815000Y-8815000D01*
X16815000Y-8785000D02*
X16785000Y-8815000D01*
X16785000Y-8885000D02*
X16815000Y-8915000D01*
X16815000Y-8885000D02*
X16785000Y-8915000D01*
X16810000Y-10760000D02*
X16840000Y-10790000D01*
X16840000Y-10760000D02*
X16810000Y-10790000D01*
X16835000Y-3485000D02*
X16865000Y-3515000D01*
X16865000Y-3485000D02*
X16835000Y-3515000D01*
X16835000Y-3685000D02*
X16865000Y-3715000D01*
X16865000Y-3685000D02*
X16835000Y-3715000D01*
X16835000Y-3885000D02*
X16865000Y-3915000D01*
X16865000Y-3885000D02*
X16835000Y-3915000D01*
X16835000Y-4085000D02*
X16865000Y-4115000D01*
X16865000Y-4085000D02*
X16835000Y-4115000D01*
X16835000Y-4285000D02*
X16865000Y-4315000D01*
X16865000Y-4285000D02*
X16835000Y-4315000D01*
X16835000Y-4485000D02*
X16865000Y-4515000D01*
X16865000Y-4485000D02*
X16835000Y-4515000D01*
X16835000Y-6385000D02*
X16865000Y-6415000D01*
X16865000Y-6385000D02*
X16835000Y-6415000D01*
X16835000Y-6585000D02*
X16865000Y-6615000D01*
X16865000Y-6585000D02*
X16835000Y-6615000D01*
X16835000Y-6785000D02*
X16865000Y-6815000D01*
X16865000Y-6785000D02*
X16835000Y-6815000D01*
X16835000Y-6985000D02*
X16865000Y-7015000D01*
X16865000Y-6985000D02*
X16835000Y-7015000D01*
X16835000Y-7185000D02*
X16865000Y-7215000D01*
X16865000Y-7185000D02*
X16835000Y-7215000D01*
X16835000Y-7385000D02*
X16865000Y-7415000D01*
X16865000Y-7385000D02*
X16835000Y-7415000D01*
X16835000Y-8185000D02*
X16865000Y-8215000D01*
X16865000Y-8185000D02*
X16835000Y-8215000D01*
X16835000Y-8385000D02*
X16865000Y-8415000D01*
X16865000Y-8385000D02*
X16835000Y-8415000D01*
X16835000Y-8585000D02*
X16865000Y-8615000D01*
X16865000Y-8585000D02*
X16835000Y-8615000D01*
X16835000Y-11585000D02*
X16865000Y-11615000D01*
X16865000Y-11585000D02*
X16835000Y-11615000D01*
X16835000Y-11785000D02*
X16865000Y-11815000D01*
X16865000Y-11785000D02*
X16835000Y-11815000D01*
X17335000Y-3585000D02*
X17365000Y-3615000D01*
X17365000Y-3585000D02*
X17335000Y-3615000D01*
X17335000Y-3785000D02*
X17365000Y-3815000D01*
X17365000Y-3785000D02*
X17335000Y-3815000D01*
X17335000Y-3985000D02*
X17365000Y-4015000D01*
X17365000Y-3985000D02*
X17335000Y-4015000D01*
X17335000Y-4185000D02*
X17365000Y-4215000D01*
X17365000Y-4185000D02*
X17335000Y-4215000D01*
X17335000Y-4385000D02*
X17365000Y-4415000D01*
X17365000Y-4385000D02*
X17335000Y-4415000D01*
X17335000Y-4585000D02*
X17365000Y-4615000D01*
X17365000Y-4585000D02*
X17335000Y-4615000D01*
X17335000Y-4785000D02*
X17365000Y-4815000D01*
X17365000Y-4785000D02*
X17335000Y-4815000D01*
X17335000Y-4985000D02*
X17365000Y-5015000D01*
X17365000Y-4985000D02*
X17335000Y-5015000D01*
X17335000Y-5185000D02*
X17365000Y-5215000D01*
X17365000Y-5185000D02*
X17335000Y-5215000D01*
X17335000Y-5385000D02*
X17365000Y-5415000D01*
X17365000Y-5385000D02*
X17335000Y-5415000D01*
X17335000Y-5585000D02*
X17365000Y-5615000D01*
X17365000Y-5585000D02*
X17335000Y-5615000D01*
X17335000Y-5785000D02*
X17365000Y-5815000D01*
X17365000Y-5785000D02*
X17335000Y-5815000D01*
X17335000Y-6185000D02*
X17365000Y-6215000D01*
X17365000Y-6185000D02*
X17335000Y-6215000D01*
X17335000Y-6385000D02*
X17365000Y-6415000D01*
X17365000Y-6385000D02*
X17335000Y-6415000D01*
X17335000Y-6585000D02*
X17365000Y-6615000D01*
X17365000Y-6585000D02*
X17335000Y-6615000D01*
X17335000Y-6785000D02*
X17365000Y-6815000D01*
X17365000Y-6785000D02*
X17335000Y-6815000D01*
X17335000Y-6985000D02*
X17365000Y-7015000D01*
X17365000Y-6985000D02*
X17335000Y-7015000D01*
X17335000Y-8085000D02*
X17365000Y-8115000D01*
X17365000Y-8085000D02*
X17335000Y-8115000D01*
X17335000Y-8285000D02*
X17365000Y-8315000D01*
X17365000Y-8285000D02*
X17335000Y-8315000D01*
X17335000Y-8385000D02*
X17365000Y-8415000D01*
X17365000Y-8385000D02*
X17335000Y-8415000D01*
X17335000Y-8985000D02*
X17365000Y-9015000D01*
X17365000Y-8985000D02*
X17335000Y-9015000D01*
X17335000Y-9185000D02*
X17365000Y-9215000D01*
X17365000Y-9185000D02*
X17335000Y-9215000D01*
X17335000Y-9385000D02*
X17365000Y-9415000D01*
X17365000Y-9385000D02*
X17335000Y-9415000D01*
X17335000Y-9585000D02*
X17365000Y-9615000D01*
X17365000Y-9585000D02*
X17335000Y-9615000D01*
X17335000Y-9785000D02*
X17365000Y-9815000D01*
X17365000Y-9785000D02*
X17335000Y-9815000D01*
X17335000Y-10135000D02*
X17365000Y-10165000D01*
X17365000Y-10135000D02*
X17335000Y-10165000D01*
X17335000Y-10335000D02*
X17365000Y-10365000D01*
X17365000Y-10335000D02*
X17335000Y-10365000D01*
X17335000Y-10585000D02*
X17365000Y-10615000D01*
X17365000Y-10585000D02*
X17335000Y-10615000D01*
X17335000Y-10785000D02*
X17365000Y-10815000D01*
X17365000Y-10785000D02*
X17335000Y-10815000D01*
X17335000Y-10985000D02*
X17365000Y-11015000D01*
X17365000Y-10985000D02*
X17335000Y-11015000D01*
X17335000Y-11185000D02*
X17365000Y-11215000D01*
X17365000Y-11185000D02*
X17335000Y-11215000D01*
X17335000Y-11385000D02*
X17365000Y-11415000D01*
X17365000Y-11385000D02*
X17335000Y-11415000D01*
X17335000Y-11585000D02*
X17365000Y-11615000D01*
X17365000Y-11585000D02*
X17335000Y-11615000D01*
X17335000Y-11785000D02*
X17365000Y-11815000D01*
X17365000Y-11785000D02*
X17335000Y-11815000D01*
X17435000Y-7085000D02*
X17465000Y-7115000D01*
X17465000Y-7085000D02*
X17435000Y-7115000D01*
X17435000Y-8085000D02*
X17465000Y-8115000D01*
X17465000Y-8085000D02*
X17435000Y-8115000D01*
X17435000Y-8285000D02*
X17465000Y-8315000D01*
X17465000Y-8285000D02*
X17435000Y-8315000D01*
X17435000Y-8385000D02*
X17465000Y-8415000D01*
X17465000Y-8385000D02*
X17435000Y-8415000D01*
X17435000Y-8985000D02*
X17465000Y-9015000D01*
X17465000Y-8985000D02*
X17435000Y-9015000D01*
X17435000Y-10685000D02*
X17465000Y-10715000D01*
X17465000Y-10685000D02*
X17435000Y-10715000D01*
X17435000Y-10885000D02*
X17465000Y-10915000D01*
X17465000Y-10885000D02*
X17435000Y-10915000D01*
X17435000Y-11085000D02*
X17465000Y-11115000D01*
X17465000Y-11085000D02*
X17435000Y-11115000D01*
X17435000Y-11685000D02*
X17465000Y-11715000D01*
X17465000Y-11685000D02*
X17435000Y-11715000D01*
X17435000Y-11885000D02*
X17465000Y-11915000D01*
X17465000Y-11885000D02*
X17435000Y-11915000D01*
X17476565Y-9833105D02*
X17506565Y-9863105D01*
X17506565Y-9833105D02*
X17476565Y-9863105D01*
X17535000Y-8085000D02*
X17565000Y-8115000D01*
X17565000Y-8085000D02*
X17535000Y-8115000D01*
X17535000Y-8285000D02*
X17565000Y-8315000D01*
X17565000Y-8285000D02*
X17535000Y-8315000D01*
X17535000Y-8985000D02*
X17565000Y-9015000D01*
X17565000Y-8985000D02*
X17535000Y-9015000D01*
X17535000Y-9485000D02*
X17565000Y-9515000D01*
X17565000Y-9485000D02*
X17535000Y-9515000D01*
X17535000Y-9585000D02*
X17565000Y-9615000D01*
X17565000Y-9585000D02*
X17535000Y-9615000D01*
X17535000Y-11185000D02*
X17565000Y-11215000D01*
X17565000Y-11185000D02*
X17535000Y-11215000D01*
X17535000Y-11385000D02*
X17565000Y-11415000D01*
X17565000Y-11385000D02*
X17535000Y-11415000D01*
X17535000Y-11585000D02*
X17565000Y-11615000D01*
X17565000Y-11585000D02*
X17535000Y-11615000D01*
X17535000Y-11785000D02*
X17565000Y-11815000D01*
X17565000Y-11785000D02*
X17535000Y-11815000D01*
X17578901Y-9949318D02*
X17608901Y-9979318D01*
X17608901Y-9949318D02*
X17578901Y-9979318D01*
X17635000Y-5985000D02*
X17665000Y-6015000D01*
X17665000Y-5985000D02*
X17635000Y-6015000D01*
X17635000Y-6185000D02*
X17665000Y-6215000D01*
X17665000Y-6185000D02*
X17635000Y-6215000D01*
X17635000Y-7085000D02*
X17665000Y-7115000D01*
X17665000Y-7085000D02*
X17635000Y-7115000D01*
X17635000Y-7635000D02*
X17665000Y-7665000D01*
X17665000Y-7635000D02*
X17635000Y-7665000D01*
X17635000Y-8285000D02*
X17665000Y-8315000D01*
X17665000Y-8285000D02*
X17635000Y-8315000D01*
X17635000Y-8985000D02*
X17665000Y-9015000D01*
X17665000Y-8985000D02*
X17635000Y-9015000D01*
X17685000Y-7135000D02*
X17715000Y-7165000D01*
X17715000Y-7135000D02*
X17685000Y-7165000D01*
X17735000Y-5485000D02*
X17765000Y-5515000D01*
X17765000Y-5485000D02*
X17735000Y-5515000D01*
X17735000Y-8285000D02*
X17765000Y-8315000D01*
X17765000Y-8285000D02*
X17735000Y-8315000D01*
X17735000Y-8485000D02*
X17765000Y-8515000D01*
X17765000Y-8485000D02*
X17735000Y-8515000D01*
X17735000Y-8985000D02*
X17765000Y-9015000D01*
X17765000Y-8985000D02*
X17735000Y-9015000D01*
X17735000Y-9485000D02*
X17765000Y-9515000D01*
X17765000Y-9485000D02*
X17735000Y-9515000D01*
X17735000Y-9585000D02*
X17765000Y-9615000D01*
X17765000Y-9585000D02*
X17735000Y-9615000D01*
X17735000Y-10785000D02*
X17765000Y-10815000D01*
X17765000Y-10785000D02*
X17735000Y-10815000D01*
X17735000Y-11185000D02*
X17765000Y-11215000D01*
X17765000Y-11185000D02*
X17735000Y-11215000D01*
X17785000Y-7085000D02*
X17815000Y-7115000D01*
X17815000Y-7085000D02*
X17785000Y-7115000D01*
X17785000Y-7835000D02*
X17815000Y-7865000D01*
X17815000Y-7835000D02*
X17785000Y-7865000D01*
X17835000Y-3635000D02*
X17865000Y-3665000D01*
X17865000Y-3635000D02*
X17835000Y-3665000D01*
X17835000Y-5385000D02*
X17865000Y-5415000D01*
X17865000Y-5385000D02*
X17835000Y-5415000D01*
X17835000Y-7635000D02*
X17865000Y-7665000D01*
X17865000Y-7635000D02*
X17835000Y-7665000D01*
X17835000Y-8285000D02*
X17865000Y-8315000D01*
X17865000Y-8285000D02*
X17835000Y-8315000D01*
X17835000Y-8485000D02*
X17865000Y-8515000D01*
X17865000Y-8485000D02*
X17835000Y-8515000D01*
X17835000Y-8985000D02*
X17865000Y-9015000D01*
X17865000Y-8985000D02*
X17835000Y-9015000D01*
X17835000Y-10685000D02*
X17865000Y-10715000D01*
X17865000Y-10685000D02*
X17835000Y-10715000D01*
X17835000Y-10885000D02*
X17865000Y-10915000D01*
X17865000Y-10885000D02*
X17835000Y-10915000D01*
X17845000Y-7445000D02*
X17875000Y-7475000D01*
X17875000Y-7445000D02*
X17845000Y-7475000D01*
X17885000Y-7835000D02*
X17915000Y-7865000D01*
X17915000Y-7835000D02*
X17885000Y-7865000D01*
X17932500Y-7437500D02*
X17962500Y-7467500D01*
X17962500Y-7437500D02*
X17932500Y-7467500D01*
X17935000Y-3785000D02*
X17965000Y-3815000D01*
X17965000Y-3785000D02*
X17935000Y-3815000D01*
X17935000Y-3885000D02*
X17965000Y-3915000D01*
X17965000Y-3885000D02*
X17935000Y-3915000D01*
X17935000Y-5385000D02*
X17965000Y-5415000D01*
X17965000Y-5385000D02*
X17935000Y-5415000D01*
X17935000Y-6835000D02*
X17965000Y-6865000D01*
X17965000Y-6835000D02*
X17935000Y-6865000D01*
X17935000Y-6935000D02*
X17965000Y-6965000D01*
X17965000Y-6935000D02*
X17935000Y-6965000D01*
X17935000Y-8185000D02*
X17965000Y-8215000D01*
X17965000Y-8185000D02*
X17935000Y-8215000D01*
X17935000Y-8935000D02*
X17965000Y-8965000D01*
X17965000Y-8935000D02*
X17935000Y-8965000D01*
X17935000Y-9485000D02*
X17965000Y-9515000D01*
X17965000Y-9485000D02*
X17935000Y-9515000D01*
X17935000Y-9585000D02*
X17965000Y-9615000D01*
X17965000Y-9585000D02*
X17935000Y-9615000D01*
X17935000Y-10585000D02*
X17965000Y-10615000D01*
X17965000Y-10585000D02*
X17935000Y-10615000D01*
X17935000Y-10785000D02*
X17965000Y-10815000D01*
X17965000Y-10785000D02*
X17935000Y-10815000D01*
X17935000Y-11085000D02*
X17965000Y-11115000D01*
X17965000Y-11085000D02*
X17935000Y-11115000D01*
X17985000Y-5735000D02*
X18015000Y-5765000D01*
X18015000Y-5735000D02*
X17985000Y-5765000D01*
X17985000Y-5935000D02*
X18015000Y-5965000D01*
X18015000Y-5935000D02*
X17985000Y-5965000D01*
X18002654Y-9847284D02*
X18032654Y-9877284D01*
X18032654Y-9847284D02*
X18002654Y-9877284D01*
X18035000Y-3635000D02*
X18065000Y-3665000D01*
X18065000Y-3635000D02*
X18035000Y-3665000D01*
X18035000Y-4185000D02*
X18065000Y-4215000D01*
X18065000Y-4185000D02*
X18035000Y-4215000D01*
X18035000Y-4385000D02*
X18065000Y-4415000D01*
X18065000Y-4385000D02*
X18035000Y-4415000D01*
X18035000Y-4685000D02*
X18065000Y-4715000D01*
X18065000Y-4685000D02*
X18035000Y-4715000D01*
X18035000Y-7435000D02*
X18065000Y-7465000D01*
X18065000Y-7435000D02*
X18035000Y-7465000D01*
X18035000Y-8185000D02*
X18065000Y-8215000D01*
X18065000Y-8185000D02*
X18035000Y-8215000D01*
X18035000Y-8385000D02*
X18065000Y-8415000D01*
X18065000Y-8385000D02*
X18035000Y-8415000D01*
X18035000Y-8585000D02*
X18065000Y-8615000D01*
X18065000Y-8585000D02*
X18035000Y-8615000D01*
X18035000Y-9485000D02*
X18065000Y-9515000D01*
X18065000Y-9485000D02*
X18035000Y-9515000D01*
X18035000Y-9585000D02*
X18065000Y-9615000D01*
X18065000Y-9585000D02*
X18035000Y-9615000D01*
X18035000Y-11385000D02*
X18065000Y-11415000D01*
X18065000Y-11385000D02*
X18035000Y-11415000D01*
X18035000Y-11685000D02*
X18065000Y-11715000D01*
X18065000Y-11685000D02*
X18035000Y-11715000D01*
X18103352Y-9889201D02*
X18133352Y-9919201D01*
X18133352Y-9889201D02*
X18103352Y-9919201D01*
X18135000Y-4285000D02*
X18165000Y-4315000D01*
X18165000Y-4285000D02*
X18135000Y-4315000D01*
X18135000Y-4785000D02*
X18165000Y-4815000D01*
X18165000Y-4785000D02*
X18135000Y-4815000D01*
X18135000Y-5735000D02*
X18165000Y-5765000D01*
X18165000Y-5735000D02*
X18135000Y-5765000D01*
X18135000Y-6835000D02*
X18165000Y-6865000D01*
X18165000Y-6835000D02*
X18135000Y-6865000D01*
X18135000Y-6935000D02*
X18165000Y-6965000D01*
X18165000Y-6935000D02*
X18135000Y-6965000D01*
X18135000Y-7430050D02*
X18165000Y-7460050D01*
X18165000Y-7430050D02*
X18135000Y-7460050D01*
X18135000Y-8485000D02*
X18165000Y-8515000D01*
X18165000Y-8485000D02*
X18135000Y-8515000D01*
X18135000Y-11385000D02*
X18165000Y-11415000D01*
X18165000Y-11385000D02*
X18135000Y-11415000D01*
X18135000Y-11585000D02*
X18165000Y-11615000D01*
X18165000Y-11585000D02*
X18135000Y-11615000D01*
X18155000Y-6635000D02*
X18185000Y-6665000D01*
X18185000Y-6635000D02*
X18155000Y-6665000D01*
X18185000Y-6435000D02*
X18215000Y-6465000D01*
X18215000Y-6435000D02*
X18185000Y-6465000D01*
X18185000Y-9285000D02*
X18215000Y-9315000D01*
X18215000Y-9285000D02*
X18185000Y-9315000D01*
X18235000Y-3635000D02*
X18265000Y-3665000D01*
X18265000Y-3635000D02*
X18235000Y-3665000D01*
X18235000Y-4185000D02*
X18265000Y-4215000D01*
X18265000Y-4185000D02*
X18235000Y-4215000D01*
X18235000Y-4385000D02*
X18265000Y-4415000D01*
X18265000Y-4385000D02*
X18235000Y-4415000D01*
X18235000Y-4685000D02*
X18265000Y-4715000D01*
X18265000Y-4685000D02*
X18235000Y-4715000D01*
X18235000Y-7335000D02*
X18265000Y-7365000D01*
X18265000Y-7335000D02*
X18235000Y-7365000D01*
X18235000Y-7435000D02*
X18265000Y-7465000D01*
X18265000Y-7435000D02*
X18235000Y-7465000D01*
X18235000Y-8585000D02*
X18265000Y-8615000D01*
X18265000Y-8585000D02*
X18235000Y-8615000D01*
X18235000Y-11685000D02*
X18265000Y-11715000D01*
X18265000Y-11685000D02*
X18235000Y-11715000D01*
X18335000Y-4285000D02*
X18365000Y-4315000D01*
X18365000Y-4285000D02*
X18335000Y-4315000D01*
X18335000Y-5085000D02*
X18365000Y-5115000D01*
X18365000Y-5085000D02*
X18335000Y-5115000D01*
X18335000Y-5285000D02*
X18365000Y-5315000D01*
X18365000Y-5285000D02*
X18335000Y-5315000D01*
X18335000Y-5385000D02*
X18365000Y-5415000D01*
X18365000Y-5385000D02*
X18335000Y-5415000D01*
X18335000Y-5485000D02*
X18365000Y-5515000D01*
X18365000Y-5485000D02*
X18335000Y-5515000D01*
X18335000Y-5585000D02*
X18365000Y-5615000D01*
X18365000Y-5585000D02*
X18335000Y-5615000D01*
X18335000Y-5685000D02*
X18365000Y-5715000D01*
X18365000Y-5685000D02*
X18335000Y-5715000D01*
X18335000Y-6135000D02*
X18365000Y-6165000D01*
X18365000Y-6135000D02*
X18335000Y-6165000D01*
X18335000Y-6435000D02*
X18365000Y-6465000D01*
X18365000Y-6435000D02*
X18335000Y-6465000D01*
X18335000Y-6635000D02*
X18365000Y-6665000D01*
X18365000Y-6635000D02*
X18335000Y-6665000D01*
X18335000Y-6835000D02*
X18365000Y-6865000D01*
X18365000Y-6835000D02*
X18335000Y-6865000D01*
X18335000Y-6935000D02*
X18365000Y-6965000D01*
X18365000Y-6935000D02*
X18335000Y-6965000D01*
X18335000Y-11285000D02*
X18365000Y-11315000D01*
X18365000Y-11285000D02*
X18335000Y-11315000D01*
X18385000Y-6035000D02*
X18415000Y-6065000D01*
X18415000Y-6035000D02*
X18385000Y-6065000D01*
X18385000Y-6235000D02*
X18415000Y-6265000D01*
X18415000Y-6235000D02*
X18385000Y-6265000D01*
X18435000Y-3635000D02*
X18465000Y-3665000D01*
X18465000Y-3635000D02*
X18435000Y-3665000D01*
X18435000Y-4385000D02*
X18465000Y-4415000D01*
X18465000Y-4385000D02*
X18435000Y-4415000D01*
X18435000Y-6485000D02*
X18465000Y-6515000D01*
X18465000Y-6485000D02*
X18435000Y-6515000D01*
X18435000Y-7385000D02*
X18465000Y-7415000D01*
X18465000Y-7385000D02*
X18435000Y-7415000D01*
X18435000Y-7785000D02*
X18465000Y-7815000D01*
X18465000Y-7785000D02*
X18435000Y-7815000D01*
X18435000Y-7985000D02*
X18465000Y-8015000D01*
X18465000Y-7985000D02*
X18435000Y-8015000D01*
X18435000Y-8185000D02*
X18465000Y-8215000D01*
X18465000Y-8185000D02*
X18435000Y-8215000D01*
X18435000Y-8385000D02*
X18465000Y-8415000D01*
X18465000Y-8385000D02*
X18435000Y-8415000D01*
X18435000Y-8585000D02*
X18465000Y-8615000D01*
X18465000Y-8585000D02*
X18435000Y-8615000D01*
X18435000Y-11485000D02*
X18465000Y-11515000D01*
X18465000Y-11485000D02*
X18435000Y-11515000D01*
X18435000Y-11685000D02*
X18465000Y-11715000D01*
X18465000Y-11685000D02*
X18435000Y-11715000D01*
X18485000Y-4635000D02*
X18515000Y-4665000D01*
X18515000Y-4635000D02*
X18485000Y-4665000D01*
X18485000Y-4935000D02*
X18515000Y-4965000D01*
X18515000Y-4935000D02*
X18485000Y-4965000D01*
X18535000Y-6235000D02*
X18565000Y-6265000D01*
X18565000Y-6235000D02*
X18535000Y-6265000D01*
X18535000Y-6935000D02*
X18565000Y-6965000D01*
X18565000Y-6935000D02*
X18535000Y-6965000D01*
X18535000Y-7135000D02*
X18565000Y-7165000D01*
X18565000Y-7135000D02*
X18535000Y-7165000D01*
X18535000Y-11585000D02*
X18565000Y-11615000D01*
X18565000Y-11585000D02*
X18535000Y-11615000D01*
X18585000Y-4635000D02*
X18615000Y-4665000D01*
X18615000Y-4635000D02*
X18585000Y-4665000D01*
X18585000Y-4935000D02*
X18615000Y-4965000D01*
X18615000Y-4935000D02*
X18585000Y-4965000D01*
X18585000Y-6035000D02*
X18615000Y-6065000D01*
X18615000Y-6035000D02*
X18585000Y-6065000D01*
X18595000Y-4785000D02*
X18625000Y-4815000D01*
X18625000Y-4785000D02*
X18595000Y-4815000D01*
X18635000Y-3635000D02*
X18665000Y-3665000D01*
X18665000Y-3635000D02*
X18635000Y-3665000D01*
X18635000Y-4085000D02*
X18665000Y-4115000D01*
X18665000Y-4085000D02*
X18635000Y-4115000D01*
X18635000Y-5535000D02*
X18665000Y-5565000D01*
X18665000Y-5535000D02*
X18635000Y-5565000D01*
X18635000Y-5735000D02*
X18665000Y-5765000D01*
X18665000Y-5735000D02*
X18635000Y-5765000D01*
X18635000Y-6135000D02*
X18665000Y-6165000D01*
X18665000Y-6135000D02*
X18635000Y-6165000D01*
X18635000Y-7385000D02*
X18665000Y-7415000D01*
X18665000Y-7385000D02*
X18635000Y-7415000D01*
X18635000Y-7585000D02*
X18665000Y-7615000D01*
X18665000Y-7585000D02*
X18635000Y-7615000D01*
X18635000Y-7785000D02*
X18665000Y-7815000D01*
X18665000Y-7785000D02*
X18635000Y-7815000D01*
X18635000Y-7985000D02*
X18665000Y-8015000D01*
X18665000Y-7985000D02*
X18635000Y-8015000D01*
X18635000Y-8185000D02*
X18665000Y-8215000D01*
X18665000Y-8185000D02*
X18635000Y-8215000D01*
X18635000Y-8385000D02*
X18665000Y-8415000D01*
X18665000Y-8385000D02*
X18635000Y-8415000D01*
X18635000Y-9085000D02*
X18665000Y-9115000D01*
X18665000Y-9085000D02*
X18635000Y-9115000D01*
X18635000Y-9285000D02*
X18665000Y-9315000D01*
X18665000Y-9285000D02*
X18635000Y-9315000D01*
X18682550Y-6735631D02*
X18712550Y-6765631D01*
X18712550Y-6735631D02*
X18682550Y-6765631D01*
X18685000Y-4635000D02*
X18715000Y-4665000D01*
X18715000Y-4635000D02*
X18685000Y-4665000D01*
X18685000Y-4935000D02*
X18715000Y-4965000D01*
X18715000Y-4935000D02*
X18685000Y-4965000D01*
X18685000Y-5885000D02*
X18715000Y-5915000D01*
X18715000Y-5885000D02*
X18685000Y-5915000D01*
X18707442Y-6490010D02*
X18737442Y-6520010D01*
X18737442Y-6490010D02*
X18707442Y-6520010D01*
X18735000Y-3785000D02*
X18765000Y-3815000D01*
X18765000Y-3785000D02*
X18735000Y-3815000D01*
X18735000Y-3885000D02*
X18765000Y-3915000D01*
X18765000Y-3885000D02*
X18735000Y-3915000D01*
X18735000Y-3985000D02*
X18765000Y-4015000D01*
X18765000Y-3985000D02*
X18735000Y-4015000D01*
X18735000Y-4085000D02*
X18765000Y-4115000D01*
X18765000Y-4085000D02*
X18735000Y-4115000D01*
X18735000Y-4185000D02*
X18765000Y-4215000D01*
X18765000Y-4185000D02*
X18735000Y-4215000D01*
X18735000Y-5792500D02*
X18765000Y-5822500D01*
X18765000Y-5792500D02*
X18735000Y-5822500D01*
X18735000Y-6985000D02*
X18765000Y-7015000D01*
X18765000Y-6985000D02*
X18735000Y-7015000D01*
X18735000Y-8985000D02*
X18765000Y-9015000D01*
X18765000Y-8985000D02*
X18735000Y-9015000D01*
X18785000Y-5885000D02*
X18815000Y-5915000D01*
X18815000Y-5885000D02*
X18785000Y-5915000D01*
X18785000Y-7107391D02*
X18815000Y-7137391D01*
X18815000Y-7107391D02*
X18785000Y-7137391D01*
X18810000Y-4585000D02*
X18840000Y-4615000D01*
X18840000Y-4585000D02*
X18810000Y-4615000D01*
X18823589Y-6911025D02*
X18853589Y-6941025D01*
X18853589Y-6911025D02*
X18823589Y-6941025D01*
X18827550Y-5985000D02*
X18857550Y-6015000D01*
X18857550Y-5985000D02*
X18827550Y-6015000D01*
X18835000Y-3635000D02*
X18865000Y-3665000D01*
X18865000Y-3635000D02*
X18835000Y-3665000D01*
X18835000Y-4185000D02*
X18865000Y-4215000D01*
X18865000Y-4185000D02*
X18835000Y-4215000D01*
X18835000Y-4485000D02*
X18865000Y-4515000D01*
X18865000Y-4485000D02*
X18835000Y-4515000D01*
X18835000Y-5535000D02*
X18865000Y-5565000D01*
X18865000Y-5535000D02*
X18835000Y-5565000D01*
X18835000Y-7185000D02*
X18865000Y-7215000D01*
X18865000Y-7185000D02*
X18835000Y-7215000D01*
X18835000Y-7385000D02*
X18865000Y-7415000D01*
X18865000Y-7385000D02*
X18835000Y-7415000D01*
X18835000Y-8885000D02*
X18865000Y-8915000D01*
X18865000Y-8885000D02*
X18835000Y-8915000D01*
X18835000Y-8985000D02*
X18865000Y-9015000D01*
X18865000Y-8985000D02*
X18835000Y-9015000D01*
X18835000Y-10485000D02*
X18865000Y-10515000D01*
X18865000Y-10485000D02*
X18835000Y-10515000D01*
X18842450Y-6754088D02*
X18872450Y-6784088D01*
X18872450Y-6754088D02*
X18842450Y-6784088D01*
X18860000Y-4785000D02*
X18890000Y-4815000D01*
X18890000Y-4785000D02*
X18860000Y-4815000D01*
X18885000Y-9935000D02*
X18915000Y-9965000D01*
X18915000Y-9935000D02*
X18885000Y-9965000D01*
X18885000Y-10235000D02*
X18915000Y-10265000D01*
X18915000Y-10235000D02*
X18885000Y-10265000D01*
X18891373Y-9628628D02*
X18921373Y-9658628D01*
X18921373Y-9628628D02*
X18891373Y-9658628D01*
X18894245Y-9295250D02*
X18924245Y-9325250D01*
X18924245Y-9295250D02*
X18894245Y-9325250D01*
X18924450Y-6616928D02*
X18954450Y-6646928D01*
X18954450Y-6616928D02*
X18924450Y-6646928D01*
X18934210Y-4782367D02*
X18964210Y-4812367D01*
X18964210Y-4782367D02*
X18934210Y-4812367D01*
X18935000Y-4185000D02*
X18965000Y-4215000D01*
X18965000Y-4185000D02*
X18935000Y-4215000D01*
X18935000Y-4485000D02*
X18965000Y-4515000D01*
X18965000Y-4485000D02*
X18935000Y-4515000D01*
X18935000Y-8785000D02*
X18965000Y-8815000D01*
X18965000Y-8785000D02*
X18935000Y-8815000D01*
X18935000Y-9085000D02*
X18965000Y-9115000D01*
X18965000Y-9085000D02*
X18935000Y-9115000D01*
X18982450Y-6980789D02*
X19012450Y-7010789D01*
X19012450Y-6980789D02*
X18982450Y-7010789D01*
X18992450Y-6788951D02*
X19022450Y-6818951D01*
X19022450Y-6788951D02*
X18992450Y-6818951D01*
X18999377Y-6600623D02*
X19029377Y-6630623D01*
X19029377Y-6600623D02*
X18999377Y-6630623D01*
X19034210Y-4782367D02*
X19064210Y-4812367D01*
X19064210Y-4782367D02*
X19034210Y-4812367D01*
X19035000Y-3635000D02*
X19065000Y-3665000D01*
X19065000Y-3635000D02*
X19035000Y-3665000D01*
X19035000Y-7077550D02*
X19065000Y-7107550D01*
X19065000Y-7077550D02*
X19035000Y-7107550D01*
X19035000Y-8685000D02*
X19065000Y-8715000D01*
X19065000Y-8685000D02*
X19035000Y-8715000D01*
X19035050Y-6855000D02*
X19065050Y-6885000D01*
X19065050Y-6855000D02*
X19035050Y-6885000D01*
X19040034Y-6722096D02*
X19070034Y-6752096D01*
X19070034Y-6722096D02*
X19040034Y-6752096D01*
X19077149Y-6277370D02*
X19107149Y-6307370D01*
X19107149Y-6277370D02*
X19077149Y-6307370D01*
X19085000Y-3785000D02*
X19115000Y-3815000D01*
X19115000Y-3785000D02*
X19085000Y-3815000D01*
X19085000Y-3885000D02*
X19115000Y-3915000D01*
X19115000Y-3885000D02*
X19085000Y-3915000D01*
X19085000Y-3985000D02*
X19115000Y-4015000D01*
X19115000Y-3985000D02*
X19085000Y-4015000D01*
X19085000Y-4085000D02*
X19115000Y-4115000D01*
X19115000Y-4085000D02*
X19085000Y-4115000D01*
X19085000Y-6909968D02*
X19115000Y-6939968D01*
X19115000Y-6909968D02*
X19085000Y-6939968D01*
X19110000Y-4585000D02*
X19140000Y-4615000D01*
X19140000Y-4585000D02*
X19110000Y-4615000D01*
X19110000Y-4785000D02*
X19140000Y-4815000D01*
X19140000Y-4785000D02*
X19110000Y-4815000D01*
X19135000Y-6235000D02*
X19165000Y-6265000D01*
X19165000Y-6235000D02*
X19135000Y-6265000D01*
X19135000Y-6585000D02*
X19165000Y-6615000D01*
X19165000Y-6585000D02*
X19135000Y-6615000D01*
X19135000Y-8585000D02*
X19165000Y-8615000D01*
X19165000Y-8585000D02*
X19135000Y-8615000D01*
X19204950Y-6904433D02*
X19234950Y-6934433D01*
X19234950Y-6904433D02*
X19204950Y-6934433D01*
X19205623Y-6563050D02*
X19235623Y-6593050D01*
X19235623Y-6563050D02*
X19205623Y-6593050D01*
X19210000Y-4585000D02*
X19240000Y-4615000D01*
X19240000Y-4585000D02*
X19210000Y-4615000D01*
X19213216Y-6725103D02*
X19243216Y-6755103D01*
X19243216Y-6725103D02*
X19213216Y-6755103D01*
X19235000Y-3635000D02*
X19265000Y-3665000D01*
X19265000Y-3635000D02*
X19235000Y-3665000D01*
X19235000Y-5985000D02*
X19265000Y-6015000D01*
X19265000Y-5985000D02*
X19235000Y-6015000D01*
X19235000Y-6085000D02*
X19265000Y-6115000D01*
X19265000Y-6085000D02*
X19235000Y-6115000D01*
X19235000Y-6285000D02*
X19265000Y-6315000D01*
X19265000Y-6285000D02*
X19235000Y-6315000D01*
X19235000Y-6385000D02*
X19265000Y-6415000D01*
X19265000Y-6385000D02*
X19235000Y-6415000D01*
X19235000Y-6967600D02*
X19265000Y-6997600D01*
X19265000Y-6967600D02*
X19235000Y-6997600D01*
X19235000Y-8385000D02*
X19265000Y-8415000D01*
X19265000Y-8385000D02*
X19235000Y-8415000D01*
X19235000Y-8485000D02*
X19265000Y-8515000D01*
X19265000Y-8485000D02*
X19235000Y-8515000D01*
X19235000Y-9585000D02*
X19265000Y-9615000D01*
X19265000Y-9585000D02*
X19235000Y-9615000D01*
X19235061Y-4787846D02*
X19265061Y-4817846D01*
X19265061Y-4787846D02*
X19235061Y-4817846D01*
X19276152Y-5383602D02*
X19306152Y-5413602D01*
X19306152Y-5383602D02*
X19276152Y-5413602D01*
X19287349Y-6563050D02*
X19317349Y-6593050D01*
X19317349Y-6563050D02*
X19287349Y-6593050D01*
X19296193Y-5005054D02*
X19326193Y-5035054D01*
X19326193Y-5005054D02*
X19296193Y-5035054D01*
X19310000Y-4785000D02*
X19340000Y-4815000D01*
X19340000Y-4785000D02*
X19310000Y-4815000D01*
X19315050Y-4485000D02*
X19345050Y-4515000D01*
X19345050Y-4485000D02*
X19315050Y-4515000D01*
X19335000Y-3785000D02*
X19365000Y-3815000D01*
X19365000Y-3785000D02*
X19335000Y-3815000D01*
X19335000Y-3885000D02*
X19365000Y-3915000D01*
X19365000Y-3885000D02*
X19335000Y-3915000D01*
X19335000Y-3985000D02*
X19365000Y-4015000D01*
X19365000Y-3985000D02*
X19335000Y-4015000D01*
X19335000Y-4085000D02*
X19365000Y-4115000D01*
X19365000Y-4085000D02*
X19335000Y-4115000D01*
X19335000Y-6085000D02*
X19365000Y-6115000D01*
X19365000Y-6085000D02*
X19335000Y-6115000D01*
X19335000Y-8285000D02*
X19365000Y-8315000D01*
X19365000Y-8285000D02*
X19335000Y-8315000D01*
X19335000Y-9685000D02*
X19365000Y-9715000D01*
X19365000Y-9685000D02*
X19335000Y-9715000D01*
X19384210Y-4787633D02*
X19414210Y-4817633D01*
X19414210Y-4787633D02*
X19384210Y-4817633D01*
X19385000Y-4439853D02*
X19415000Y-4469853D01*
X19415000Y-4439853D02*
X19385000Y-4469853D01*
X19410000Y-4585000D02*
X19440000Y-4615000D01*
X19440000Y-4585000D02*
X19410000Y-4615000D01*
X19412000Y-8788065D02*
X19442000Y-8818065D01*
X19442000Y-8788065D02*
X19412000Y-8818065D01*
X19425623Y-6494377D02*
X19455623Y-6524377D01*
X19455623Y-6494377D02*
X19425623Y-6524377D01*
X19428684Y-6032293D02*
X19458684Y-6062293D01*
X19458684Y-6032293D02*
X19428684Y-6062293D01*
X19435000Y-5885000D02*
X19465000Y-5915000D01*
X19465000Y-5885000D02*
X19435000Y-5915000D01*
X19435000Y-7785000D02*
X19465000Y-7815000D01*
X19465000Y-7785000D02*
X19435000Y-7815000D01*
X19435000Y-7885000D02*
X19465000Y-7915000D01*
X19465000Y-7885000D02*
X19435000Y-7915000D01*
X19435000Y-7985000D02*
X19465000Y-8015000D01*
X19465000Y-7985000D02*
X19435000Y-8015000D01*
X19435000Y-8085000D02*
X19465000Y-8115000D01*
X19465000Y-8085000D02*
X19435000Y-8115000D01*
X19435000Y-8185000D02*
X19465000Y-8215000D01*
X19465000Y-8185000D02*
X19435000Y-8215000D01*
X19435000Y-8285000D02*
X19465000Y-8315000D01*
X19465000Y-8285000D02*
X19435000Y-8315000D01*
X19435000Y-9785000D02*
X19465000Y-9815000D01*
X19465000Y-9785000D02*
X19435000Y-9815000D01*
X19452450Y-6185000D02*
X19482450Y-6215000D01*
X19482450Y-6185000D02*
X19452450Y-6215000D01*
X19460000Y-4780050D02*
X19490000Y-4810050D01*
X19490000Y-4780050D02*
X19460000Y-4810050D01*
X19468708Y-8571067D02*
X19498708Y-8601067D01*
X19498708Y-8571067D02*
X19468708Y-8601067D01*
X19485000Y-8335000D02*
X19515000Y-8365000D01*
X19515000Y-8335000D02*
X19485000Y-8365000D01*
X19510000Y-4585000D02*
X19540000Y-4615000D01*
X19540000Y-4585000D02*
X19510000Y-4615000D01*
X19532218Y-7182218D02*
X19562218Y-7212218D01*
X19562218Y-7182218D02*
X19532218Y-7212218D01*
X19535000Y-3485000D02*
X19565000Y-3515000D01*
X19565000Y-3485000D02*
X19535000Y-3515000D01*
X19535000Y-3685000D02*
X19565000Y-3715000D01*
X19565000Y-3685000D02*
X19535000Y-3715000D01*
X19535000Y-5085000D02*
X19565000Y-5115000D01*
X19565000Y-5085000D02*
X19535000Y-5115000D01*
X19535000Y-5385000D02*
X19565000Y-5415000D01*
X19565000Y-5385000D02*
X19535000Y-5415000D01*
X19535000Y-7785000D02*
X19565000Y-7815000D01*
X19565000Y-7785000D02*
X19535000Y-7815000D01*
X19535000Y-8285000D02*
X19565000Y-8315000D01*
X19565000Y-8285000D02*
X19535000Y-8315000D01*
X19535000Y-9685000D02*
X19565000Y-9715000D01*
X19565000Y-9685000D02*
X19535000Y-9715000D01*
X19535790Y-4787633D02*
X19565790Y-4817633D01*
X19565790Y-4787633D02*
X19535790Y-4817633D01*
X19562733Y-8825500D02*
X19592733Y-8855500D01*
X19592733Y-8825500D02*
X19562733Y-8855500D01*
X19577020Y-4468415D02*
X19607020Y-4498415D01*
X19607020Y-4468415D02*
X19577020Y-4498415D01*
X19610000Y-4785000D02*
X19640000Y-4815000D01*
X19640000Y-4785000D02*
X19610000Y-4815000D01*
X19635000Y-5485000D02*
X19665000Y-5515000D01*
X19665000Y-5485000D02*
X19635000Y-5515000D01*
X19635000Y-6525000D02*
X19665000Y-6555000D01*
X19665000Y-6525000D02*
X19635000Y-6555000D01*
X19635000Y-6645000D02*
X19665000Y-6675000D01*
X19665000Y-6645000D02*
X19635000Y-6675000D01*
X19635000Y-7785000D02*
X19665000Y-7815000D01*
X19665000Y-7785000D02*
X19635000Y-7815000D01*
X19635000Y-8285000D02*
X19665000Y-8315000D01*
X19665000Y-8285000D02*
X19635000Y-8315000D01*
X19635000Y-9785000D02*
X19665000Y-9815000D01*
X19665000Y-9785000D02*
X19635000Y-9815000D01*
X19641646Y-4441646D02*
X19671646Y-4471646D01*
X19671646Y-4441646D02*
X19641646Y-4471646D01*
X19684210Y-4787633D02*
X19714210Y-4817633D01*
X19714210Y-4787633D02*
X19684210Y-4817633D01*
X19685000Y-3685000D02*
X19715000Y-3715000D01*
X19715000Y-3685000D02*
X19685000Y-3715000D01*
X19685000Y-3885000D02*
X19715000Y-3915000D01*
X19715000Y-3885000D02*
X19685000Y-3915000D01*
X19685000Y-7735000D02*
X19715000Y-7765000D01*
X19715000Y-7735000D02*
X19685000Y-7765000D01*
X19700050Y-6927550D02*
X19730050Y-6957550D01*
X19730050Y-6927550D02*
X19700050Y-6957550D01*
X19702550Y-6152862D02*
X19732550Y-6182862D01*
X19732550Y-6152862D02*
X19702550Y-6182862D01*
X19710000Y-4585000D02*
X19740000Y-4615000D01*
X19740000Y-4585000D02*
X19710000Y-4615000D01*
X19710000Y-8560000D02*
X19740000Y-8590000D01*
X19740000Y-8560000D02*
X19710000Y-8590000D01*
X19725000Y-6435000D02*
X19755000Y-6465000D01*
X19755000Y-6435000D02*
X19725000Y-6465000D01*
X19725000Y-6525000D02*
X19755000Y-6555000D01*
X19755000Y-6525000D02*
X19725000Y-6555000D01*
X19725000Y-6645000D02*
X19755000Y-6675000D01*
X19755000Y-6645000D02*
X19725000Y-6675000D01*
X19725000Y-6735000D02*
X19755000Y-6765000D01*
X19755000Y-6735000D02*
X19725000Y-6765000D01*
X19725500Y-7278940D02*
X19755500Y-7308940D01*
X19755500Y-7278940D02*
X19725500Y-7308940D01*
X19735000Y-7785000D02*
X19765000Y-7815000D01*
X19765000Y-7785000D02*
X19735000Y-7815000D01*
X19735000Y-8285000D02*
X19765000Y-8315000D01*
X19765000Y-8285000D02*
X19735000Y-8315000D01*
X19735000Y-9685000D02*
X19765000Y-9715000D01*
X19765000Y-9685000D02*
X19735000Y-9715000D01*
X19760000Y-4785000D02*
X19790000Y-4815000D01*
X19790000Y-4785000D02*
X19760000Y-4815000D01*
X19760000Y-4985000D02*
X19790000Y-5015000D01*
X19790000Y-4985000D02*
X19760000Y-5015000D01*
X19785000Y-3685000D02*
X19815000Y-3715000D01*
X19815000Y-3685000D02*
X19785000Y-3715000D01*
X19785000Y-8335000D02*
X19815000Y-8365000D01*
X19815000Y-8335000D02*
X19785000Y-8365000D01*
X19786646Y-8698913D02*
X19816646Y-8728913D01*
X19816646Y-8698913D02*
X19786646Y-8728913D01*
X19827220Y-5777220D02*
X19857220Y-5807220D01*
X19857220Y-5777220D02*
X19827220Y-5807220D01*
X19835000Y-3985000D02*
X19865000Y-4015000D01*
X19865000Y-3985000D02*
X19835000Y-4015000D01*
X19835000Y-4485000D02*
X19865000Y-4515000D01*
X19865000Y-4485000D02*
X19835000Y-4515000D01*
X19835000Y-5985000D02*
X19865000Y-6015000D01*
X19865000Y-5985000D02*
X19835000Y-6015000D01*
X19835000Y-7885000D02*
X19865000Y-7915000D01*
X19865000Y-7885000D02*
X19835000Y-7915000D01*
X19835000Y-7985000D02*
X19865000Y-8015000D01*
X19865000Y-7985000D02*
X19835000Y-8015000D01*
X19835000Y-8085000D02*
X19865000Y-8115000D01*
X19865000Y-8085000D02*
X19835000Y-8115000D01*
X19835000Y-8185000D02*
X19865000Y-8215000D01*
X19865000Y-8185000D02*
X19835000Y-8215000D01*
X19835000Y-8285000D02*
X19865000Y-8315000D01*
X19865000Y-8285000D02*
X19835000Y-8315000D01*
X19835000Y-9785000D02*
X19865000Y-9815000D01*
X19865000Y-9785000D02*
X19835000Y-9815000D01*
X19845000Y-6435000D02*
X19875000Y-6465000D01*
X19875000Y-6435000D02*
X19845000Y-6465000D01*
X19845000Y-6525000D02*
X19875000Y-6555000D01*
X19875000Y-6525000D02*
X19845000Y-6555000D01*
X19845000Y-6645000D02*
X19875000Y-6675000D01*
X19875000Y-6645000D02*
X19845000Y-6675000D01*
X19845000Y-6735000D02*
X19875000Y-6765000D01*
X19875000Y-6735000D02*
X19845000Y-6765000D01*
X19869950Y-6977600D02*
X19899950Y-7007600D01*
X19899950Y-6977600D02*
X19869950Y-7007600D01*
X19870470Y-7270470D02*
X19900470Y-7300470D01*
X19900470Y-7270470D02*
X19870470Y-7300470D01*
X19885000Y-3485000D02*
X19915000Y-3515000D01*
X19915000Y-3485000D02*
X19885000Y-3515000D01*
X19885000Y-3585000D02*
X19915000Y-3615000D01*
X19915000Y-3585000D02*
X19885000Y-3615000D01*
X19885000Y-4135000D02*
X19915000Y-4165000D01*
X19915000Y-4135000D02*
X19885000Y-4165000D01*
X19885000Y-7485000D02*
X19915000Y-7515000D01*
X19915000Y-7485000D02*
X19885000Y-7515000D01*
X19885769Y-8699664D02*
X19915769Y-8729664D01*
X19915769Y-8699664D02*
X19885769Y-8729664D01*
X19900713Y-8570236D02*
X19930713Y-8600236D01*
X19930713Y-8570236D02*
X19900713Y-8600236D01*
X19923500Y-5585000D02*
X19953500Y-5615000D01*
X19953500Y-5585000D02*
X19923500Y-5615000D01*
X19923500Y-5685000D02*
X19953500Y-5715000D01*
X19953500Y-5685000D02*
X19923500Y-5715000D01*
X19935000Y-4385000D02*
X19965000Y-4415000D01*
X19965000Y-4385000D02*
X19935000Y-4415000D01*
X19935000Y-4585000D02*
X19965000Y-4615000D01*
X19965000Y-4585000D02*
X19935000Y-4615000D01*
X19935000Y-6525000D02*
X19965000Y-6555000D01*
X19965000Y-6525000D02*
X19935000Y-6555000D01*
X19935000Y-6645000D02*
X19965000Y-6675000D01*
X19965000Y-6645000D02*
X19935000Y-6675000D01*
X19935000Y-7985000D02*
X19965000Y-8015000D01*
X19965000Y-7985000D02*
X19935000Y-8015000D01*
X19935000Y-8135000D02*
X19965000Y-8165000D01*
X19965000Y-8135000D02*
X19935000Y-8165000D01*
X19935000Y-8235000D02*
X19965000Y-8265000D01*
X19965000Y-8235000D02*
X19935000Y-8265000D01*
X19935000Y-9685000D02*
X19965000Y-9715000D01*
X19965000Y-9685000D02*
X19935000Y-9715000D01*
X19935000Y-10485000D02*
X19965000Y-10515000D01*
X19965000Y-10485000D02*
X19935000Y-10515000D01*
X19956693Y-6035000D02*
X19986693Y-6065000D01*
X19986693Y-6035000D02*
X19956693Y-6065000D01*
X19956693Y-6127685D02*
X19986693Y-6157685D01*
X19986693Y-6127685D02*
X19956693Y-6157685D01*
X19967450Y-6866254D02*
X19997450Y-6896254D01*
X19997450Y-6866254D02*
X19967450Y-6896254D01*
X19985000Y-4635000D02*
X20015000Y-4665000D01*
X20015000Y-4635000D02*
X19985000Y-4665000D01*
X20000600Y-7382795D02*
X20030600Y-7412795D01*
X20030600Y-7382795D02*
X20000600Y-7412795D01*
X20035000Y-4485000D02*
X20065000Y-4515000D01*
X20065000Y-4485000D02*
X20035000Y-4515000D01*
X20035000Y-4585000D02*
X20065000Y-4615000D01*
X20065000Y-4585000D02*
X20035000Y-4615000D01*
X20035000Y-5375050D02*
X20065000Y-5405050D01*
X20065000Y-5375050D02*
X20035000Y-5405050D01*
X20035000Y-5495000D02*
X20065000Y-5525000D01*
X20065000Y-5495000D02*
X20035000Y-5525000D01*
X20035000Y-6842633D02*
X20065000Y-6872633D01*
X20065000Y-6842633D02*
X20035000Y-6872633D01*
X20035000Y-9785000D02*
X20065000Y-9815000D01*
X20065000Y-9785000D02*
X20035000Y-9815000D01*
X20038170Y-7688170D02*
X20068170Y-7718170D01*
X20068170Y-7688170D02*
X20038170Y-7718170D01*
X20075000Y-4785000D02*
X20105000Y-4815000D01*
X20105000Y-4785000D02*
X20075000Y-4815000D01*
X20085000Y-4635000D02*
X20115000Y-4665000D01*
X20115000Y-4635000D02*
X20085000Y-4665000D01*
X20091637Y-7011637D02*
X20121637Y-7041637D01*
X20121637Y-7011637D02*
X20091637Y-7041637D01*
X20094550Y-6785000D02*
X20124550Y-6815000D01*
X20124550Y-6785000D02*
X20094550Y-6815000D01*
X20117500Y-6890050D02*
X20147500Y-6920050D01*
X20147500Y-6890050D02*
X20117500Y-6920050D01*
X20135000Y-4385000D02*
X20165000Y-4415000D01*
X20165000Y-4385000D02*
X20135000Y-4415000D01*
X20135000Y-4585000D02*
X20165000Y-4615000D01*
X20165000Y-4585000D02*
X20135000Y-4615000D01*
X20135000Y-5285000D02*
X20165000Y-5315000D01*
X20165000Y-5285000D02*
X20135000Y-5315000D01*
X20135000Y-5385000D02*
X20165000Y-5415000D01*
X20165000Y-5385000D02*
X20135000Y-5415000D01*
X20135000Y-6385000D02*
X20165000Y-6415000D01*
X20165000Y-6385000D02*
X20135000Y-6415000D01*
X20135000Y-6485000D02*
X20165000Y-6515000D01*
X20165000Y-6485000D02*
X20135000Y-6515000D01*
X20135000Y-7080226D02*
X20165000Y-7110226D01*
X20165000Y-7080226D02*
X20135000Y-7110226D01*
X20135000Y-9685000D02*
X20165000Y-9715000D01*
X20165000Y-9685000D02*
X20135000Y-9715000D01*
X20135000Y-9885000D02*
X20165000Y-9915000D01*
X20165000Y-9885000D02*
X20135000Y-9915000D01*
X20135000Y-10485000D02*
X20165000Y-10515000D01*
X20165000Y-10485000D02*
X20135000Y-10515000D01*
X20160000Y-8560000D02*
X20190000Y-8590000D01*
X20190000Y-8560000D02*
X20160000Y-8590000D01*
X20160120Y-8121930D02*
X20190120Y-8151930D01*
X20190120Y-8121930D02*
X20160120Y-8151930D01*
X20168180Y-7910000D02*
X20198180Y-7940000D01*
X20198180Y-7910000D02*
X20168180Y-7940000D01*
X20185000Y-4635000D02*
X20215000Y-4665000D01*
X20215000Y-4635000D02*
X20185000Y-4665000D01*
X20216450Y-7381121D02*
X20246450Y-7411121D01*
X20246450Y-7381121D02*
X20216450Y-7411121D01*
X20220793Y-8835099D02*
X20250793Y-8865099D01*
X20250793Y-8835099D02*
X20220793Y-8865099D01*
X20235000Y-4785000D02*
X20265000Y-4815000D01*
X20265000Y-4785000D02*
X20235000Y-4815000D01*
X20235000Y-6285000D02*
X20265000Y-6315000D01*
X20265000Y-6285000D02*
X20235000Y-6315000D01*
X20235000Y-9585000D02*
X20265000Y-9615000D01*
X20265000Y-9585000D02*
X20235000Y-9615000D01*
X20235000Y-9785000D02*
X20265000Y-9815000D01*
X20265000Y-9785000D02*
X20235000Y-9815000D01*
X20235000Y-9985000D02*
X20265000Y-10015000D01*
X20265000Y-9985000D02*
X20235000Y-10015000D01*
X20235000Y-10385000D02*
X20265000Y-10415000D01*
X20265000Y-10385000D02*
X20235000Y-10415000D01*
X20235000Y-10585000D02*
X20265000Y-10615000D01*
X20265000Y-10585000D02*
X20235000Y-10615000D01*
X20244500Y-8941060D02*
X20274500Y-8971060D01*
X20274500Y-8941060D02*
X20244500Y-8971060D01*
X20250600Y-6632795D02*
X20280600Y-6662795D01*
X20280600Y-6632795D02*
X20250600Y-6662795D01*
X20259177Y-6859860D02*
X20289177Y-6889860D01*
X20289177Y-6859860D02*
X20259177Y-6889860D01*
X20287332Y-7768962D02*
X20317332Y-7798962D01*
X20317332Y-7768962D02*
X20287332Y-7798962D01*
X20300600Y-7882795D02*
X20330600Y-7912795D01*
X20330600Y-7882795D02*
X20300600Y-7912795D01*
X20300600Y-7982795D02*
X20330600Y-8012795D01*
X20330600Y-7982795D02*
X20300600Y-8012795D01*
X20300600Y-8082795D02*
X20330600Y-8112795D01*
X20330600Y-8082795D02*
X20300600Y-8112795D01*
X20300600Y-8182795D02*
X20330600Y-8212795D01*
X20330600Y-8182795D02*
X20300600Y-8212795D01*
X20300600Y-8282795D02*
X20330600Y-8312795D01*
X20330600Y-8282795D02*
X20300600Y-8312795D01*
X20335000Y-4385000D02*
X20365000Y-4415000D01*
X20365000Y-4385000D02*
X20335000Y-4415000D01*
X20335000Y-4585000D02*
X20365000Y-4615000D01*
X20365000Y-4585000D02*
X20335000Y-4615000D01*
X20335000Y-4785000D02*
X20365000Y-4815000D01*
X20365000Y-4785000D02*
X20335000Y-4815000D01*
X20335000Y-4885000D02*
X20365000Y-4915000D01*
X20365000Y-4885000D02*
X20335000Y-4915000D01*
X20335000Y-6285000D02*
X20365000Y-6315000D01*
X20365000Y-6285000D02*
X20335000Y-6315000D01*
X20335000Y-6485000D02*
X20365000Y-6515000D01*
X20365000Y-6485000D02*
X20335000Y-6515000D01*
X20335000Y-9485000D02*
X20365000Y-9515000D01*
X20365000Y-9485000D02*
X20335000Y-9515000D01*
X20335000Y-9685000D02*
X20365000Y-9715000D01*
X20365000Y-9685000D02*
X20335000Y-9715000D01*
X20335000Y-9885000D02*
X20365000Y-9915000D01*
X20365000Y-9885000D02*
X20335000Y-9915000D01*
X20335000Y-10085000D02*
X20365000Y-10115000D01*
X20365000Y-10085000D02*
X20335000Y-10115000D01*
X20335000Y-10285000D02*
X20365000Y-10315000D01*
X20365000Y-10285000D02*
X20335000Y-10315000D01*
X20335000Y-10485000D02*
X20365000Y-10515000D01*
X20365000Y-10485000D02*
X20335000Y-10515000D01*
X20335000Y-10685000D02*
X20365000Y-10715000D01*
X20365000Y-10685000D02*
X20335000Y-10715000D01*
X20335000Y-10885000D02*
X20365000Y-10915000D01*
X20365000Y-10885000D02*
X20335000Y-10915000D01*
X20335000Y-11085000D02*
X20365000Y-11115000D01*
X20365000Y-11085000D02*
X20335000Y-11115000D01*
X20335000Y-11285000D02*
X20365000Y-11315000D01*
X20365000Y-11285000D02*
X20335000Y-11315000D01*
X20335000Y-11485000D02*
X20365000Y-11515000D01*
X20365000Y-11485000D02*
X20335000Y-11515000D01*
X20335000Y-11685000D02*
X20365000Y-11715000D01*
X20365000Y-11685000D02*
X20335000Y-11715000D01*
X20335000Y-11885000D02*
X20365000Y-11915000D01*
X20365000Y-11885000D02*
X20335000Y-11915000D01*
X20341750Y-7391750D02*
X20371750Y-7421750D01*
X20371750Y-7391750D02*
X20341750Y-7421750D01*
X20361000Y-6959000D02*
X20391000Y-6989000D01*
X20391000Y-6959000D02*
X20361000Y-6989000D01*
D13*
X14332000Y-9477500D02*
G75*
G03*
X14332000Y-9477500I-25000J0D01*
G01*
D11*
X14332000Y-9512500D02*
X14332000Y-9442500D01*
X14282000Y-9512500D02*
X14282000Y-9442500D01*
X14332000Y-9442500D02*
G75*
G03*
X14282000Y-9442500I-25000J0D01*
G01*
X14282000Y-9512500D02*
G75*
G03*
X14332000Y-9512500I25000J0D01*
G01*
D13*
X14618000Y-10322500D02*
G75*
G03*
X14618000Y-10322500I-25000J0D01*
G01*
D11*
X14618000Y-10357500D02*
X14618000Y-10287500D01*
X14568000Y-10357500D02*
X14568000Y-10287500D01*
X14618000Y-10287500D02*
G75*
G03*
X14568000Y-10287500I-25000J0D01*
G01*
X14568000Y-10357500D02*
G75*
G03*
X14618000Y-10357500I25000J0D01*
G01*
D13*
X15053269Y-9908156D02*
G75*
G03*
X15053269Y-9908156I-25000J0D01*
G01*
X15053269Y-10091844D02*
G75*
G03*
X15053269Y-10091844I-25000J0D01*
G01*
X15183156Y-9778269D02*
G75*
G03*
X15183156Y-9778269I-25000J0D01*
G01*
X15183156Y-10221731D02*
G75*
G03*
X15183156Y-10221731I-25000J0D01*
G01*
X15366844Y-9778269D02*
G75*
G03*
X15366844Y-9778269I-25000J0D01*
G01*
X15366844Y-10221731D02*
G75*
G03*
X15366844Y-10221731I-25000J0D01*
G01*
X15496731Y-9908156D02*
G75*
G03*
X15496731Y-9908156I-25000J0D01*
G01*
X15496731Y-10091844D02*
G75*
G03*
X15496731Y-10091844I-25000J0D01*
G01*
D14*
X18795000Y-10887500D02*
X18795000Y-10952500D01*
X18762500Y-10920000D02*
X18827500Y-10920000D01*
D11*
X18762500Y-10855000D02*
X18762500Y-10985000D01*
X18827500Y-10855000D02*
X18827500Y-10985000D01*
X18762500Y-10985000D02*
G75*
G03*
X18827500Y-10985000I32500J0D01*
G01*
X18827500Y-10855000D02*
G75*
G03*
X18762500Y-10855000I-32500J0D01*
G01*
D14*
X18795000Y-11477500D02*
X18795000Y-11542500D01*
X18762500Y-11510000D02*
X18827500Y-11510000D01*
D11*
X18762500Y-11445000D02*
X18762500Y-11575000D01*
X18827500Y-11445000D02*
X18827500Y-11575000D01*
X18762500Y-11575000D02*
G75*
G03*
X18827500Y-11575000I32500J0D01*
G01*
X18827500Y-11445000D02*
G75*
G03*
X18762500Y-11445000I-32500J0D01*
G01*
D14*
X20205000Y-10887500D02*
X20205000Y-10952500D01*
X20172500Y-10920000D02*
X20237500Y-10920000D01*
D11*
X20172500Y-10855000D02*
X20172500Y-10985000D01*
X20237500Y-10855000D02*
X20237500Y-10985000D01*
X20172500Y-10985000D02*
G75*
G03*
X20237500Y-10985000I32500J0D01*
G01*
X20237500Y-10855000D02*
G75*
G03*
X20172500Y-10855000I-32500J0D01*
G01*
D14*
X20205000Y-11477500D02*
X20205000Y-11542500D01*
X20172500Y-11510000D02*
X20237500Y-11510000D01*
D11*
X20172500Y-11445000D02*
X20172500Y-11575000D01*
X20237500Y-11445000D02*
X20237500Y-11575000D01*
X20172500Y-11575000D02*
G75*
G03*
X20237500Y-11575000I32500J0D01*
G01*
X20237500Y-11445000D02*
G75*
G03*
X20172500Y-11445000I-32500J0D01*
G01*
D15*
X14331820Y-10406820D02*
X14331820Y-10343180D01*
X14268180Y-10343180D01*
X14268180Y-10406820D01*
X14331820Y-10406820D01*
D11*
X14345000Y-10442000D02*
X14345000Y-10308000D01*
X14255000Y-10442000D02*
X14255000Y-10308000D01*
X14345000Y-10308000D02*
G75*
G03*
X14255000Y-10308000I-45000J0D01*
G01*
X14255000Y-10442000D02*
G75*
G03*
X14345000Y-10442000I45000J0D01*
G01*
D15*
X14631820Y-9456820D02*
X14631820Y-9393180D01*
X14568180Y-9393180D01*
X14568180Y-9456820D01*
X14631820Y-9456820D01*
D11*
X14645000Y-9492000D02*
X14645000Y-9358000D01*
X14555000Y-9492000D02*
X14555000Y-9358000D01*
X14645000Y-9358000D02*
G75*
G03*
X14555000Y-9358000I-45000J0D01*
G01*
X14555000Y-9492000D02*
G75*
G03*
X14645000Y-9492000I45000J0D01*
G01*
D16*
X15797500Y-9747500D02*
X15845000Y-9700000D01*
X15797500Y-9652500D01*
X15750000Y-9700000D01*
X15797500Y-9747500D01*
X15797500Y-10247500D02*
X15845000Y-10200000D01*
X15797500Y-10152500D01*
X15750000Y-10200000D01*
X15797500Y-10247500D01*
X15797500Y-10497500D02*
X15845000Y-10450000D01*
X15797500Y-10402500D01*
X15750000Y-10450000D01*
X15797500Y-10497500D01*
X15797500Y-10747500D02*
X15845000Y-10700000D01*
X15797500Y-10652500D01*
X15750000Y-10700000D01*
X15797500Y-10747500D01*
X15797500Y-10997500D02*
X15845000Y-10950000D01*
X15797500Y-10902500D01*
X15750000Y-10950000D01*
X15797500Y-10997500D01*
X15797500Y-11497500D02*
X15845000Y-11450000D01*
X15797500Y-11402500D01*
X15750000Y-11450000D01*
X15797500Y-11497500D01*
X17547500Y-5147500D02*
X17595000Y-5100000D01*
X17547500Y-5052500D01*
X17500000Y-5100000D01*
X17547500Y-5147500D01*
X17547500Y-5647500D02*
X17595000Y-5600000D01*
X17547500Y-5552500D01*
X17500000Y-5600000D01*
X17547500Y-5647500D01*
X17547500Y-5897500D02*
X17595000Y-5850000D01*
X17547500Y-5802500D01*
X17500000Y-5850000D01*
X17547500Y-5897500D01*
X17547500Y-6147500D02*
X17595000Y-6100000D01*
X17547500Y-6052500D01*
X17500000Y-6100000D01*
X17547500Y-6147500D01*
X17547500Y-6397500D02*
X17595000Y-6350000D01*
X17547500Y-6302500D01*
X17500000Y-6350000D01*
X17547500Y-6397500D01*
X17547500Y-6897500D02*
X17595000Y-6850000D01*
X17547500Y-6802500D01*
X17500000Y-6850000D01*
X17547500Y-6897500D01*
X17600000Y-11047500D02*
X17647500Y-11000000D01*
X17600000Y-10952500D01*
X17552500Y-11000000D01*
X17600000Y-11047500D01*
X17850000Y-11047500D02*
X17897500Y-11000000D01*
X17850000Y-10952500D01*
X17802500Y-11000000D01*
X17850000Y-11047500D01*
X18100000Y-11047500D02*
X18147500Y-11000000D01*
X18100000Y-10952500D01*
X18052500Y-11000000D01*
X18100000Y-11047500D01*
D10*
X17350000Y-7644500D02*
X17450000Y-7744500D01*
X17450000Y-7644500D02*
X17350000Y-7744500D01*
X17450000Y-7694500D02*
G75*
G03*
X17450000Y-7694500I-50000J0D01*
G01*
X17350000Y-7898500D02*
X17450000Y-7998500D01*
X17450000Y-7898500D02*
X17350000Y-7998500D01*
X17450000Y-7948500D02*
G75*
G03*
X17450000Y-7948500I-50000J0D01*
G01*
X17350000Y-8152500D02*
X17450000Y-8252500D01*
X17450000Y-8152500D02*
X17350000Y-8252500D01*
X17450000Y-8202500D02*
G75*
G03*
X17450000Y-8202500I-50000J0D01*
G01*
X17350000Y-8544500D02*
X17450000Y-8644500D01*
X17450000Y-8544500D02*
X17350000Y-8644500D01*
X17450000Y-8594500D02*
G75*
G03*
X17450000Y-8594500I-50000J0D01*
G01*
X17350000Y-8798500D02*
X17450000Y-8898500D01*
X17450000Y-8798500D02*
X17350000Y-8898500D01*
X17450000Y-8848500D02*
G75*
G03*
X17450000Y-8848500I-50000J0D01*
G01*
X17350000Y-9052500D02*
X17450000Y-9152500D01*
X17450000Y-9052500D02*
X17350000Y-9152500D01*
X17450000Y-9102500D02*
G75*
G03*
X17450000Y-9102500I-50000J0D01*
G01*
X18700000Y-5094500D02*
X18800000Y-5194500D01*
X18800000Y-5094500D02*
X18700000Y-5194500D01*
X18800000Y-5144500D02*
G75*
G03*
X18800000Y-5144500I-50000J0D01*
G01*
X18700000Y-5348500D02*
X18800000Y-5448500D01*
X18800000Y-5348500D02*
X18700000Y-5448500D01*
X18800000Y-5398500D02*
G75*
G03*
X18800000Y-5398500I-50000J0D01*
G01*
X18700000Y-5602500D02*
X18800000Y-5702500D01*
X18800000Y-5602500D02*
X18700000Y-5702500D01*
X18800000Y-5652500D02*
G75*
G03*
X18800000Y-5652500I-50000J0D01*
G01*
D17*
X18445000Y-5315000D02*
X18555000Y-5425000D01*
X18555000Y-5315000D02*
X18445000Y-5425000D01*
X18500000Y-5315000D02*
X18500000Y-5425000D01*
X18445000Y-5370000D02*
X18555000Y-5370000D01*
X18445000Y-5569000D02*
X18555000Y-5679000D01*
X18555000Y-5569000D02*
X18445000Y-5679000D01*
X18500000Y-5569000D02*
X18500000Y-5679000D01*
X18445000Y-5624000D02*
X18555000Y-5624000D01*
X18445000Y-5823000D02*
X18555000Y-5933000D01*
X18555000Y-5823000D02*
X18445000Y-5933000D01*
X18500000Y-5823000D02*
X18500000Y-5933000D01*
X18445000Y-5878000D02*
X18555000Y-5878000D01*
X18445000Y-6077000D02*
X18555000Y-6187000D01*
X18555000Y-6077000D02*
X18445000Y-6187000D01*
X18500000Y-6077000D02*
X18500000Y-6187000D01*
X18445000Y-6132000D02*
X18555000Y-6132000D01*
X18445000Y-9125000D02*
X18555000Y-9235000D01*
X18555000Y-9125000D02*
X18445000Y-9235000D01*
X18500000Y-9125000D02*
X18500000Y-9235000D01*
X18445000Y-9180000D02*
X18555000Y-9180000D01*
X18445000Y-9379000D02*
X18555000Y-9489000D01*
X18555000Y-9379000D02*
X18445000Y-9489000D01*
X18500000Y-9379000D02*
X18500000Y-9489000D01*
X18445000Y-9434000D02*
X18555000Y-9434000D01*
X18445000Y-9633000D02*
X18555000Y-9743000D01*
X18555000Y-9633000D02*
X18445000Y-9743000D01*
X18500000Y-9633000D02*
X18500000Y-9743000D01*
X18445000Y-9688000D02*
X18555000Y-9688000D01*
X18445000Y-9887000D02*
X18555000Y-9997000D01*
X18555000Y-9887000D02*
X18445000Y-9997000D01*
X18500000Y-9887000D02*
X18500000Y-9997000D01*
X18445000Y-9942000D02*
X18555000Y-9942000D01*
X18445000Y-10141000D02*
X18555000Y-10251000D01*
X18555000Y-10141000D02*
X18445000Y-10251000D01*
X18500000Y-10141000D02*
X18500000Y-10251000D01*
X18445000Y-10196000D02*
X18555000Y-10196000D01*
X18445000Y-10395000D02*
X18555000Y-10505000D01*
X18555000Y-10395000D02*
X18445000Y-10505000D01*
X18500000Y-10395000D02*
X18500000Y-10505000D01*
X18445000Y-10450000D02*
X18555000Y-10450000D01*
D18*
X16408184Y-9357184D02*
X16528184Y-9477184D01*
X16528184Y-9357184D02*
X16408184Y-9477184D01*
X16510611Y-9459611D02*
X16510611Y-9374757D01*
X16425757Y-9374757D01*
X16425757Y-9459611D01*
X16510611Y-9459611D01*
X16408184Y-9707184D02*
X16528184Y-9827184D01*
X16528184Y-9707184D02*
X16408184Y-9827184D01*
X16510611Y-9809611D02*
X16510611Y-9724757D01*
X16425757Y-9724757D01*
X16425757Y-9809611D01*
X16510611Y-9809611D01*
X16408184Y-10057184D02*
X16528184Y-10177184D01*
X16528184Y-10057184D02*
X16408184Y-10177184D01*
X16510611Y-10159611D02*
X16510611Y-10074757D01*
X16425757Y-10074757D01*
X16425757Y-10159611D01*
X16510611Y-10159611D01*
X16408184Y-10407184D02*
X16528184Y-10527184D01*
X16528184Y-10407184D02*
X16408184Y-10527184D01*
X16510611Y-10509611D02*
X16510611Y-10424757D01*
X16425757Y-10424757D01*
X16425757Y-10509611D01*
X16510611Y-10509611D01*
X18113250Y-3875750D02*
X18233250Y-3995750D01*
X18233250Y-3875750D02*
X18113250Y-3995750D01*
X18215677Y-3978177D02*
X18215677Y-3893323D01*
X18130823Y-3893323D01*
X18130823Y-3978177D01*
X18215677Y-3978177D01*
X18463250Y-3875750D02*
X18583250Y-3995750D01*
X18583250Y-3875750D02*
X18463250Y-3995750D01*
X18565677Y-3978177D02*
X18565677Y-3893323D01*
X18480823Y-3893323D01*
X18480823Y-3978177D01*
X18565677Y-3978177D01*
X18813250Y-3875750D02*
X18933250Y-3995750D01*
X18933250Y-3875750D02*
X18813250Y-3995750D01*
X18915677Y-3978177D02*
X18915677Y-3893323D01*
X18830823Y-3893323D01*
X18830823Y-3978177D01*
X18915677Y-3978177D01*
X19163250Y-3875750D02*
X19283250Y-3995750D01*
X19283250Y-3875750D02*
X19163250Y-3995750D01*
X19265677Y-3978177D02*
X19265677Y-3893323D01*
X19180823Y-3893323D01*
X19180823Y-3978177D01*
X19265677Y-3978177D01*
D11*
X15747500Y-9850000D02*
X15947500Y-10050000D01*
X15947500Y-9850000D02*
X15747500Y-10050000D01*
X15847500Y-10050000D02*
X15947500Y-9950000D01*
X15847500Y-9850000D01*
X15747500Y-9950000D01*
X15847500Y-10050000D01*
X15747500Y-11100000D02*
X15947500Y-11300000D01*
X15947500Y-11100000D02*
X15747500Y-11300000D01*
X15847500Y-11300000D02*
X15947500Y-11200000D01*
X15847500Y-11100000D01*
X15747500Y-11200000D01*
X15847500Y-11300000D01*
X17497500Y-5250000D02*
X17697500Y-5450000D01*
X17697500Y-5250000D02*
X17497500Y-5450000D01*
X17597500Y-5450000D02*
X17697500Y-5350000D01*
X17597500Y-5250000D01*
X17497500Y-5350000D01*
X17597500Y-5450000D01*
X17497500Y-6500000D02*
X17697500Y-6700000D01*
X17697500Y-6500000D02*
X17497500Y-6700000D01*
X17597500Y-6700000D02*
X17697500Y-6600000D01*
X17597500Y-6500000D01*
X17497500Y-6600000D01*
X17597500Y-6700000D01*
D19*
X15250000Y-9840000D02*
X15250000Y-10160000D01*
X15090000Y-10000000D02*
X15410000Y-10000000D01*
X15410000Y-10000000D02*
G75*
G03*
X15410000Y-10000000I-160000J0D01*
G01*
D20*
X15398494Y-5548494D02*
X15398494Y-5251506D01*
X15101506Y-5251506D01*
X15101506Y-5548494D01*
X15398494Y-5548494D01*
X15460000Y-5400000D02*
G75*
G03*
X15460000Y-5400000I-210000J0D01*
G01*
D11*
X14252619Y-12315476D02*
X14252619Y-12115476D01*
X14300238Y-12115476D01*
X14328809Y-12125000D01*
X14347857Y-12144048D01*
X14357381Y-12163095D01*
X14366905Y-12201190D01*
X14366905Y-12229762D01*
X14357381Y-12267857D01*
X14347857Y-12286905D01*
X14328809Y-12305952D01*
X14300238Y-12315476D01*
X14252619Y-12315476D01*
X14452619Y-12315476D02*
X14452619Y-12182143D01*
X14452619Y-12220238D02*
X14462143Y-12201190D01*
X14471667Y-12191667D01*
X14490714Y-12182143D01*
X14509762Y-12182143D01*
X14576428Y-12315476D02*
X14576428Y-12182143D01*
X14576428Y-12115476D02*
X14566905Y-12125000D01*
X14576428Y-12134524D01*
X14585952Y-12125000D01*
X14576428Y-12115476D01*
X14576428Y-12134524D01*
X14700238Y-12315476D02*
X14681190Y-12305952D01*
X14671667Y-12286905D01*
X14671667Y-12115476D01*
X14805000Y-12315476D02*
X14785952Y-12305952D01*
X14776428Y-12286905D01*
X14776428Y-12115476D01*
X15033571Y-12315476D02*
X15033571Y-12115476D01*
X15100238Y-12258333D01*
X15166905Y-12115476D01*
X15166905Y-12315476D01*
X15347857Y-12315476D02*
X15347857Y-12210714D01*
X15338333Y-12191667D01*
X15319286Y-12182143D01*
X15281190Y-12182143D01*
X15262143Y-12191667D01*
X15347857Y-12305952D02*
X15328809Y-12315476D01*
X15281190Y-12315476D01*
X15262143Y-12305952D01*
X15252619Y-12286905D01*
X15252619Y-12267857D01*
X15262143Y-12248809D01*
X15281190Y-12239286D01*
X15328809Y-12239286D01*
X15347857Y-12229762D01*
X15443095Y-12182143D02*
X15443095Y-12382143D01*
X15443095Y-12191667D02*
X15462143Y-12182143D01*
X15500238Y-12182143D01*
X15519286Y-12191667D01*
X15528809Y-12201190D01*
X15538333Y-12220238D01*
X15538333Y-12277381D01*
X15528809Y-12296428D01*
X15519286Y-12305952D01*
X15500238Y-12315476D01*
X15462143Y-12315476D01*
X15443095Y-12305952D01*
X15624048Y-12296428D02*
X15633571Y-12305952D01*
X15624048Y-12315476D01*
X15614524Y-12305952D01*
X15624048Y-12296428D01*
X15624048Y-12315476D01*
X15624048Y-12191667D02*
X15633571Y-12201190D01*
X15624048Y-12210714D01*
X15614524Y-12201190D01*
X15624048Y-12191667D01*
X15624048Y-12210714D01*
D12*
X13965000Y-12630000D02*
X13995000Y-12660000D01*
X13995000Y-12630000D02*
X13965000Y-12660000D01*
D11*
X14290714Y-12535476D02*
X14309762Y-12535476D01*
X14328809Y-12545000D01*
X14338333Y-12554524D01*
X14347857Y-12573571D01*
X14357381Y-12611667D01*
X14357381Y-12659286D01*
X14347857Y-12697381D01*
X14338333Y-12716428D01*
X14328809Y-12725952D01*
X14309762Y-12735476D01*
X14290714Y-12735476D01*
X14271667Y-12725952D01*
X14262143Y-12716428D01*
X14252619Y-12697381D01*
X14243095Y-12659286D01*
X14243095Y-12611667D01*
X14252619Y-12573571D01*
X14262143Y-12554524D01*
X14271667Y-12545000D01*
X14290714Y-12535476D01*
X14443095Y-12716428D02*
X14452619Y-12725952D01*
X14443095Y-12735476D01*
X14433571Y-12725952D01*
X14443095Y-12716428D01*
X14443095Y-12735476D01*
X14519286Y-12535476D02*
X14643095Y-12535476D01*
X14576428Y-12611667D01*
X14605000Y-12611667D01*
X14624048Y-12621190D01*
X14633571Y-12630714D01*
X14643095Y-12649762D01*
X14643095Y-12697381D01*
X14633571Y-12716428D01*
X14624048Y-12725952D01*
X14605000Y-12735476D01*
X14547857Y-12735476D01*
X14528809Y-12725952D01*
X14519286Y-12716428D01*
X14766905Y-12535476D02*
X14785952Y-12535476D01*
X14805000Y-12545000D01*
X14814524Y-12554524D01*
X14824048Y-12573571D01*
X14833571Y-12611667D01*
X14833571Y-12659286D01*
X14824048Y-12697381D01*
X14814524Y-12716428D01*
X14805000Y-12725952D01*
X14785952Y-12735476D01*
X14766905Y-12735476D01*
X14747857Y-12725952D01*
X14738333Y-12716428D01*
X14728809Y-12697381D01*
X14719286Y-12659286D01*
X14719286Y-12611667D01*
X14728809Y-12573571D01*
X14738333Y-12554524D01*
X14747857Y-12545000D01*
X14766905Y-12535476D01*
X14957381Y-12535476D02*
X14976428Y-12535476D01*
X14995476Y-12545000D01*
X15005000Y-12554524D01*
X15014524Y-12573571D01*
X15024048Y-12611667D01*
X15024048Y-12659286D01*
X15014524Y-12697381D01*
X15005000Y-12716428D01*
X14995476Y-12725952D01*
X14976428Y-12735476D01*
X14957381Y-12735476D01*
X14938333Y-12725952D01*
X14928809Y-12716428D01*
X14919286Y-12697381D01*
X14909762Y-12659286D01*
X14909762Y-12611667D01*
X14919286Y-12573571D01*
X14928809Y-12554524D01*
X14938333Y-12545000D01*
X14957381Y-12535476D01*
X15109762Y-12735476D02*
X15109762Y-12602143D01*
X15109762Y-12621190D02*
X15119286Y-12611667D01*
X15138333Y-12602143D01*
X15166905Y-12602143D01*
X15185952Y-12611667D01*
X15195476Y-12630714D01*
X15195476Y-12735476D01*
X15195476Y-12630714D02*
X15205000Y-12611667D01*
X15224048Y-12602143D01*
X15252619Y-12602143D01*
X15271667Y-12611667D01*
X15281190Y-12630714D01*
X15281190Y-12735476D01*
X15376428Y-12735476D02*
X15376428Y-12602143D01*
X15376428Y-12621190D02*
X15385952Y-12611667D01*
X15405000Y-12602143D01*
X15433571Y-12602143D01*
X15452619Y-12611667D01*
X15462143Y-12630714D01*
X15462143Y-12735476D01*
X15462143Y-12630714D02*
X15471667Y-12611667D01*
X15490714Y-12602143D01*
X15519286Y-12602143D01*
X15538333Y-12611667D01*
X15547857Y-12630714D01*
X15547857Y-12735476D01*
X15938333Y-12525952D02*
X15766905Y-12783095D01*
X16195476Y-12535476D02*
X16214524Y-12535476D01*
X16233571Y-12545000D01*
X16243095Y-12554524D01*
X16252619Y-12573571D01*
X16262143Y-12611667D01*
X16262143Y-12659286D01*
X16252619Y-12697381D01*
X16243095Y-12716428D01*
X16233571Y-12725952D01*
X16214524Y-12735476D01*
X16195476Y-12735476D01*
X16176428Y-12725952D01*
X16166905Y-12716428D01*
X16157381Y-12697381D01*
X16147857Y-12659286D01*
X16147857Y-12611667D01*
X16157381Y-12573571D01*
X16166905Y-12554524D01*
X16176428Y-12545000D01*
X16195476Y-12535476D01*
X16347857Y-12716428D02*
X16357381Y-12725952D01*
X16347857Y-12735476D01*
X16338333Y-12725952D01*
X16347857Y-12716428D01*
X16347857Y-12735476D01*
X16481190Y-12535476D02*
X16500238Y-12535476D01*
X16519286Y-12545000D01*
X16528809Y-12554524D01*
X16538333Y-12573571D01*
X16547857Y-12611667D01*
X16547857Y-12659286D01*
X16538333Y-12697381D01*
X16528809Y-12716428D01*
X16519286Y-12725952D01*
X16500238Y-12735476D01*
X16481190Y-12735476D01*
X16462143Y-12725952D01*
X16452619Y-12716428D01*
X16443095Y-12697381D01*
X16433571Y-12659286D01*
X16433571Y-12611667D01*
X16443095Y-12573571D01*
X16452619Y-12554524D01*
X16462143Y-12545000D01*
X16481190Y-12535476D01*
X16738333Y-12735476D02*
X16624048Y-12735476D01*
X16681190Y-12735476D02*
X16681190Y-12535476D01*
X16662143Y-12564048D01*
X16643095Y-12583095D01*
X16624048Y-12592619D01*
X16928810Y-12735476D02*
X16814524Y-12735476D01*
X16871667Y-12735476D02*
X16871667Y-12535476D01*
X16852619Y-12564048D01*
X16833571Y-12583095D01*
X16814524Y-12592619D01*
X17043095Y-12621190D02*
X17024048Y-12611667D01*
X17014524Y-12602143D01*
X17005000Y-12583095D01*
X17005000Y-12573571D01*
X17014524Y-12554524D01*
X17024048Y-12545000D01*
X17043095Y-12535476D01*
X17081190Y-12535476D01*
X17100238Y-12545000D01*
X17109762Y-12554524D01*
X17119286Y-12573571D01*
X17119286Y-12583095D01*
X17109762Y-12602143D01*
X17100238Y-12611667D01*
X17081190Y-12621190D01*
X17043095Y-12621190D01*
X17024048Y-12630714D01*
X17014524Y-12640238D01*
X17005000Y-12659286D01*
X17005000Y-12697381D01*
X17014524Y-12716428D01*
X17024048Y-12725952D01*
X17043095Y-12735476D01*
X17081190Y-12735476D01*
X17100238Y-12725952D01*
X17109762Y-12716428D01*
X17119286Y-12697381D01*
X17119286Y-12659286D01*
X17109762Y-12640238D01*
X17100238Y-12630714D01*
X17081190Y-12621190D01*
X17195476Y-12535476D02*
X17195476Y-12573571D01*
X17271667Y-12535476D02*
X17271667Y-12573571D01*
X17566905Y-12811667D02*
X17557381Y-12802143D01*
X17538333Y-12773571D01*
X17528810Y-12754524D01*
X17519286Y-12725952D01*
X17509762Y-12678333D01*
X17509762Y-12640238D01*
X17519286Y-12592619D01*
X17528810Y-12564048D01*
X17538333Y-12545000D01*
X17557381Y-12516428D01*
X17566905Y-12506905D01*
X17624048Y-12535476D02*
X17757381Y-12535476D01*
X17671667Y-12735476D01*
X17928810Y-12535476D02*
X17833571Y-12535476D01*
X17824048Y-12630714D01*
X17833571Y-12621190D01*
X17852619Y-12611667D01*
X17900238Y-12611667D01*
X17919286Y-12621190D01*
X17928810Y-12630714D01*
X17938333Y-12649762D01*
X17938333Y-12697381D01*
X17928810Y-12716428D01*
X17919286Y-12725952D01*
X17900238Y-12735476D01*
X17852619Y-12735476D01*
X17833571Y-12725952D01*
X17824048Y-12716428D01*
X18033571Y-12735476D02*
X18071667Y-12735476D01*
X18090714Y-12725952D01*
X18100238Y-12716428D01*
X18119286Y-12687857D01*
X18128810Y-12649762D01*
X18128810Y-12573571D01*
X18119286Y-12554524D01*
X18109762Y-12545000D01*
X18090714Y-12535476D01*
X18052619Y-12535476D01*
X18033571Y-12545000D01*
X18024048Y-12554524D01*
X18014524Y-12573571D01*
X18014524Y-12621190D01*
X18024048Y-12640238D01*
X18033571Y-12649762D01*
X18052619Y-12659286D01*
X18090714Y-12659286D01*
X18109762Y-12649762D01*
X18119286Y-12640238D01*
X18128810Y-12621190D01*
X18366905Y-12735476D02*
X18366905Y-12535476D01*
X18452619Y-12735476D02*
X18452619Y-12630714D01*
X18443095Y-12611667D01*
X18424048Y-12602143D01*
X18395476Y-12602143D01*
X18376429Y-12611667D01*
X18366905Y-12621190D01*
X18576429Y-12735476D02*
X18557381Y-12725952D01*
X18547857Y-12716428D01*
X18538333Y-12697381D01*
X18538333Y-12640238D01*
X18547857Y-12621190D01*
X18557381Y-12611667D01*
X18576429Y-12602143D01*
X18605000Y-12602143D01*
X18624048Y-12611667D01*
X18633571Y-12621190D01*
X18643095Y-12640238D01*
X18643095Y-12697381D01*
X18633571Y-12716428D01*
X18624048Y-12725952D01*
X18605000Y-12735476D01*
X18576429Y-12735476D01*
X18757381Y-12735476D02*
X18738333Y-12725952D01*
X18728810Y-12706905D01*
X18728810Y-12535476D01*
X18909762Y-12725952D02*
X18890714Y-12735476D01*
X18852619Y-12735476D01*
X18833571Y-12725952D01*
X18824048Y-12706905D01*
X18824048Y-12630714D01*
X18833571Y-12611667D01*
X18852619Y-12602143D01*
X18890714Y-12602143D01*
X18909762Y-12611667D01*
X18919286Y-12630714D01*
X18919286Y-12649762D01*
X18824048Y-12668809D01*
X18995476Y-12725952D02*
X19014524Y-12735476D01*
X19052619Y-12735476D01*
X19071667Y-12725952D01*
X19081190Y-12706905D01*
X19081190Y-12697381D01*
X19071667Y-12678333D01*
X19052619Y-12668809D01*
X19024048Y-12668809D01*
X19005000Y-12659286D01*
X18995476Y-12640238D01*
X18995476Y-12630714D01*
X19005000Y-12611667D01*
X19024048Y-12602143D01*
X19052619Y-12602143D01*
X19071667Y-12611667D01*
X19147857Y-12811667D02*
X19157381Y-12802143D01*
X19176429Y-12773571D01*
X19185952Y-12754524D01*
X19195476Y-12725952D01*
X19205000Y-12678333D01*
X19205000Y-12640238D01*
X19195476Y-12592619D01*
X19185952Y-12564048D01*
X19176429Y-12545000D01*
X19157381Y-12516428D01*
X19147857Y-12506905D01*
D13*
X13995000Y-12909000D02*
G75*
G03*
X13995000Y-12909000I-25000J0D01*
G01*
D11*
X14290714Y-12799476D02*
X14309762Y-12799476D01*
X14328809Y-12809000D01*
X14338333Y-12818524D01*
X14347857Y-12837571D01*
X14357381Y-12875667D01*
X14357381Y-12923286D01*
X14347857Y-12961381D01*
X14338333Y-12980428D01*
X14328809Y-12989952D01*
X14309762Y-12999476D01*
X14290714Y-12999476D01*
X14271667Y-12989952D01*
X14262143Y-12980428D01*
X14252619Y-12961381D01*
X14243095Y-12923286D01*
X14243095Y-12875667D01*
X14252619Y-12837571D01*
X14262143Y-12818524D01*
X14271667Y-12809000D01*
X14290714Y-12799476D01*
X14443095Y-12980428D02*
X14452619Y-12989952D01*
X14443095Y-12999476D01*
X14433571Y-12989952D01*
X14443095Y-12980428D01*
X14443095Y-12999476D01*
X14633571Y-12799476D02*
X14538333Y-12799476D01*
X14528809Y-12894714D01*
X14538333Y-12885190D01*
X14557381Y-12875667D01*
X14605000Y-12875667D01*
X14624048Y-12885190D01*
X14633571Y-12894714D01*
X14643095Y-12913762D01*
X14643095Y-12961381D01*
X14633571Y-12980428D01*
X14624048Y-12989952D01*
X14605000Y-12999476D01*
X14557381Y-12999476D01*
X14538333Y-12989952D01*
X14528809Y-12980428D01*
X14766905Y-12799476D02*
X14785952Y-12799476D01*
X14805000Y-12809000D01*
X14814524Y-12818524D01*
X14824048Y-12837571D01*
X14833571Y-12875667D01*
X14833571Y-12923286D01*
X14824048Y-12961381D01*
X14814524Y-12980428D01*
X14805000Y-12989952D01*
X14785952Y-12999476D01*
X14766905Y-12999476D01*
X14747857Y-12989952D01*
X14738333Y-12980428D01*
X14728809Y-12961381D01*
X14719286Y-12923286D01*
X14719286Y-12875667D01*
X14728809Y-12837571D01*
X14738333Y-12818524D01*
X14747857Y-12809000D01*
X14766905Y-12799476D01*
X14957381Y-12799476D02*
X14976428Y-12799476D01*
X14995476Y-12809000D01*
X15005000Y-12818524D01*
X15014524Y-12837571D01*
X15024048Y-12875667D01*
X15024048Y-12923286D01*
X15014524Y-12961381D01*
X15005000Y-12980428D01*
X14995476Y-12989952D01*
X14976428Y-12999476D01*
X14957381Y-12999476D01*
X14938333Y-12989952D01*
X14928809Y-12980428D01*
X14919286Y-12961381D01*
X14909762Y-12923286D01*
X14909762Y-12875667D01*
X14919286Y-12837571D01*
X14928809Y-12818524D01*
X14938333Y-12809000D01*
X14957381Y-12799476D01*
X15109762Y-12999476D02*
X15109762Y-12866143D01*
X15109762Y-12885190D02*
X15119286Y-12875667D01*
X15138333Y-12866143D01*
X15166905Y-12866143D01*
X15185952Y-12875667D01*
X15195476Y-12894714D01*
X15195476Y-12999476D01*
X15195476Y-12894714D02*
X15205000Y-12875667D01*
X15224048Y-12866143D01*
X15252619Y-12866143D01*
X15271667Y-12875667D01*
X15281190Y-12894714D01*
X15281190Y-12999476D01*
X15376428Y-12999476D02*
X15376428Y-12866143D01*
X15376428Y-12885190D02*
X15385952Y-12875667D01*
X15405000Y-12866143D01*
X15433571Y-12866143D01*
X15452619Y-12875667D01*
X15462143Y-12894714D01*
X15462143Y-12999476D01*
X15462143Y-12894714D02*
X15471667Y-12875667D01*
X15490714Y-12866143D01*
X15519286Y-12866143D01*
X15538333Y-12875667D01*
X15547857Y-12894714D01*
X15547857Y-12999476D01*
X15938333Y-12789952D02*
X15766905Y-13047095D01*
X16195476Y-12799476D02*
X16214524Y-12799476D01*
X16233571Y-12809000D01*
X16243095Y-12818524D01*
X16252619Y-12837571D01*
X16262143Y-12875667D01*
X16262143Y-12923286D01*
X16252619Y-12961381D01*
X16243095Y-12980428D01*
X16233571Y-12989952D01*
X16214524Y-12999476D01*
X16195476Y-12999476D01*
X16176428Y-12989952D01*
X16166905Y-12980428D01*
X16157381Y-12961381D01*
X16147857Y-12923286D01*
X16147857Y-12875667D01*
X16157381Y-12837571D01*
X16166905Y-12818524D01*
X16176428Y-12809000D01*
X16195476Y-12799476D01*
X16347857Y-12980428D02*
X16357381Y-12989952D01*
X16347857Y-12999476D01*
X16338333Y-12989952D01*
X16347857Y-12980428D01*
X16347857Y-12999476D01*
X16481190Y-12799476D02*
X16500238Y-12799476D01*
X16519286Y-12809000D01*
X16528809Y-12818524D01*
X16538333Y-12837571D01*
X16547857Y-12875667D01*
X16547857Y-12923286D01*
X16538333Y-12961381D01*
X16528809Y-12980428D01*
X16519286Y-12989952D01*
X16500238Y-12999476D01*
X16481190Y-12999476D01*
X16462143Y-12989952D01*
X16452619Y-12980428D01*
X16443095Y-12961381D01*
X16433571Y-12923286D01*
X16433571Y-12875667D01*
X16443095Y-12837571D01*
X16452619Y-12818524D01*
X16462143Y-12809000D01*
X16481190Y-12799476D01*
X16738333Y-12999476D02*
X16624048Y-12999476D01*
X16681190Y-12999476D02*
X16681190Y-12799476D01*
X16662143Y-12828048D01*
X16643095Y-12847095D01*
X16624048Y-12856619D01*
X16833571Y-12999476D02*
X16871667Y-12999476D01*
X16890714Y-12989952D01*
X16900238Y-12980428D01*
X16919286Y-12951857D01*
X16928810Y-12913762D01*
X16928810Y-12837571D01*
X16919286Y-12818524D01*
X16909762Y-12809000D01*
X16890714Y-12799476D01*
X16852619Y-12799476D01*
X16833571Y-12809000D01*
X16824048Y-12818524D01*
X16814524Y-12837571D01*
X16814524Y-12885190D01*
X16824048Y-12904238D01*
X16833571Y-12913762D01*
X16852619Y-12923286D01*
X16890714Y-12923286D01*
X16909762Y-12913762D01*
X16919286Y-12904238D01*
X16928810Y-12885190D01*
X16995476Y-12799476D02*
X17128810Y-12799476D01*
X17043095Y-12999476D01*
X17195476Y-12799476D02*
X17195476Y-12837571D01*
X17271667Y-12799476D02*
X17271667Y-12837571D01*
X17566905Y-13075667D02*
X17557381Y-13066143D01*
X17538333Y-13037571D01*
X17528810Y-13018524D01*
X17519286Y-12989952D01*
X17509762Y-12942333D01*
X17509762Y-12904238D01*
X17519286Y-12856619D01*
X17528810Y-12828048D01*
X17538333Y-12809000D01*
X17557381Y-12780428D01*
X17566905Y-12770905D01*
X17671667Y-12885190D02*
X17652619Y-12875667D01*
X17643095Y-12866143D01*
X17633571Y-12847095D01*
X17633571Y-12837571D01*
X17643095Y-12818524D01*
X17652619Y-12809000D01*
X17671667Y-12799476D01*
X17709762Y-12799476D01*
X17728810Y-12809000D01*
X17738333Y-12818524D01*
X17747857Y-12837571D01*
X17747857Y-12847095D01*
X17738333Y-12866143D01*
X17728810Y-12875667D01*
X17709762Y-12885190D01*
X17671667Y-12885190D01*
X17652619Y-12894714D01*
X17643095Y-12904238D01*
X17633571Y-12923286D01*
X17633571Y-12961381D01*
X17643095Y-12980428D01*
X17652619Y-12989952D01*
X17671667Y-12999476D01*
X17709762Y-12999476D01*
X17728810Y-12989952D01*
X17738333Y-12980428D01*
X17747857Y-12961381D01*
X17747857Y-12923286D01*
X17738333Y-12904238D01*
X17728810Y-12894714D01*
X17709762Y-12885190D01*
X17985952Y-12999476D02*
X17985952Y-12799476D01*
X18071667Y-12999476D02*
X18071667Y-12894714D01*
X18062143Y-12875667D01*
X18043095Y-12866143D01*
X18014524Y-12866143D01*
X17995476Y-12875667D01*
X17985952Y-12885190D01*
X18195476Y-12999476D02*
X18176429Y-12989952D01*
X18166905Y-12980428D01*
X18157381Y-12961381D01*
X18157381Y-12904238D01*
X18166905Y-12885190D01*
X18176429Y-12875667D01*
X18195476Y-12866143D01*
X18224048Y-12866143D01*
X18243095Y-12875667D01*
X18252619Y-12885190D01*
X18262143Y-12904238D01*
X18262143Y-12961381D01*
X18252619Y-12980428D01*
X18243095Y-12989952D01*
X18224048Y-12999476D01*
X18195476Y-12999476D01*
X18376429Y-12999476D02*
X18357381Y-12989952D01*
X18347857Y-12970905D01*
X18347857Y-12799476D01*
X18528810Y-12989952D02*
X18509762Y-12999476D01*
X18471667Y-12999476D01*
X18452619Y-12989952D01*
X18443095Y-12970905D01*
X18443095Y-12894714D01*
X18452619Y-12875667D01*
X18471667Y-12866143D01*
X18509762Y-12866143D01*
X18528810Y-12875667D01*
X18538333Y-12894714D01*
X18538333Y-12913762D01*
X18443095Y-12932809D01*
X18614524Y-12989952D02*
X18633571Y-12999476D01*
X18671667Y-12999476D01*
X18690714Y-12989952D01*
X18700238Y-12970905D01*
X18700238Y-12961381D01*
X18690714Y-12942333D01*
X18671667Y-12932809D01*
X18643095Y-12932809D01*
X18624048Y-12923286D01*
X18614524Y-12904238D01*
X18614524Y-12894714D01*
X18624048Y-12875667D01*
X18643095Y-12866143D01*
X18671667Y-12866143D01*
X18690714Y-12875667D01*
X18938333Y-12923286D02*
X19090714Y-12923286D01*
X19014524Y-12999476D02*
X19014524Y-12847095D01*
X19328810Y-12818524D02*
X19338333Y-12809000D01*
X19357381Y-12799476D01*
X19405000Y-12799476D01*
X19424048Y-12809000D01*
X19433571Y-12818524D01*
X19443095Y-12837571D01*
X19443095Y-12856619D01*
X19433571Y-12885190D01*
X19319286Y-12999476D01*
X19443095Y-12999476D01*
X19671667Y-12989952D02*
X19690714Y-12999476D01*
X19728810Y-12999476D01*
X19747857Y-12989952D01*
X19757381Y-12970905D01*
X19757381Y-12961381D01*
X19747857Y-12942333D01*
X19728810Y-12932809D01*
X19700238Y-12932809D01*
X19681190Y-12923286D01*
X19671667Y-12904238D01*
X19671667Y-12894714D01*
X19681190Y-12875667D01*
X19700238Y-12866143D01*
X19728810Y-12866143D01*
X19747857Y-12875667D01*
X19871667Y-12999476D02*
X19852619Y-12989952D01*
X19843095Y-12970905D01*
X19843095Y-12799476D01*
X19976429Y-12999476D02*
X19957381Y-12989952D01*
X19947857Y-12980428D01*
X19938333Y-12961381D01*
X19938333Y-12904238D01*
X19947857Y-12885190D01*
X19957381Y-12875667D01*
X19976429Y-12866143D01*
X20005000Y-12866143D01*
X20024048Y-12875667D01*
X20033571Y-12885190D01*
X20043095Y-12904238D01*
X20043095Y-12961381D01*
X20033571Y-12980428D01*
X20024048Y-12989952D01*
X20005000Y-12999476D01*
X19976429Y-12999476D01*
X20100238Y-12866143D02*
X20176429Y-12866143D01*
X20128810Y-12799476D02*
X20128810Y-12970905D01*
X20138333Y-12989952D01*
X20157381Y-12999476D01*
X20176429Y-12999476D01*
X20233571Y-12989952D02*
X20252619Y-12999476D01*
X20290714Y-12999476D01*
X20309762Y-12989952D01*
X20319286Y-12970905D01*
X20319286Y-12961381D01*
X20309762Y-12942333D01*
X20290714Y-12932809D01*
X20262143Y-12932809D01*
X20243095Y-12923286D01*
X20233571Y-12904238D01*
X20233571Y-12894714D01*
X20243095Y-12875667D01*
X20262143Y-12866143D01*
X20290714Y-12866143D01*
X20309762Y-12875667D01*
X20385952Y-13075667D02*
X20395476Y-13066143D01*
X20414524Y-13037571D01*
X20424048Y-13018524D01*
X20433571Y-12989952D01*
X20443095Y-12942333D01*
X20443095Y-12904238D01*
X20433571Y-12856619D01*
X20424048Y-12828048D01*
X20414524Y-12809000D01*
X20395476Y-12780428D01*
X20385952Y-12770905D01*
D14*
X13962500Y-13140500D02*
X13962500Y-13205500D01*
X13930000Y-13173000D02*
X13995000Y-13173000D01*
D11*
X14290714Y-13063476D02*
X14309762Y-13063476D01*
X14328809Y-13073000D01*
X14338333Y-13082524D01*
X14347857Y-13101571D01*
X14357381Y-13139667D01*
X14357381Y-13187286D01*
X14347857Y-13225381D01*
X14338333Y-13244428D01*
X14328809Y-13253952D01*
X14309762Y-13263476D01*
X14290714Y-13263476D01*
X14271667Y-13253952D01*
X14262143Y-13244428D01*
X14252619Y-13225381D01*
X14243095Y-13187286D01*
X14243095Y-13139667D01*
X14252619Y-13101571D01*
X14262143Y-13082524D01*
X14271667Y-13073000D01*
X14290714Y-13063476D01*
X14443095Y-13244428D02*
X14452619Y-13253952D01*
X14443095Y-13263476D01*
X14433571Y-13253952D01*
X14443095Y-13244428D01*
X14443095Y-13263476D01*
X14624048Y-13063476D02*
X14585952Y-13063476D01*
X14566905Y-13073000D01*
X14557381Y-13082524D01*
X14538333Y-13111095D01*
X14528809Y-13149190D01*
X14528809Y-13225381D01*
X14538333Y-13244428D01*
X14547857Y-13253952D01*
X14566905Y-13263476D01*
X14605000Y-13263476D01*
X14624048Y-13253952D01*
X14633571Y-13244428D01*
X14643095Y-13225381D01*
X14643095Y-13177762D01*
X14633571Y-13158714D01*
X14624048Y-13149190D01*
X14605000Y-13139667D01*
X14566905Y-13139667D01*
X14547857Y-13149190D01*
X14538333Y-13158714D01*
X14528809Y-13177762D01*
X14824048Y-13063476D02*
X14728809Y-13063476D01*
X14719286Y-13158714D01*
X14728809Y-13149190D01*
X14747857Y-13139667D01*
X14795476Y-13139667D01*
X14814524Y-13149190D01*
X14824048Y-13158714D01*
X14833571Y-13177762D01*
X14833571Y-13225381D01*
X14824048Y-13244428D01*
X14814524Y-13253952D01*
X14795476Y-13263476D01*
X14747857Y-13263476D01*
X14728809Y-13253952D01*
X14719286Y-13244428D01*
X14957381Y-13063476D02*
X14976428Y-13063476D01*
X14995476Y-13073000D01*
X15005000Y-13082524D01*
X15014524Y-13101571D01*
X15024048Y-13139667D01*
X15024048Y-13187286D01*
X15014524Y-13225381D01*
X15005000Y-13244428D01*
X14995476Y-13253952D01*
X14976428Y-13263476D01*
X14957381Y-13263476D01*
X14938333Y-13253952D01*
X14928809Y-13244428D01*
X14919286Y-13225381D01*
X14909762Y-13187286D01*
X14909762Y-13139667D01*
X14919286Y-13101571D01*
X14928809Y-13082524D01*
X14938333Y-13073000D01*
X14957381Y-13063476D01*
X15109762Y-13263476D02*
X15109762Y-13130143D01*
X15109762Y-13149190D02*
X15119286Y-13139667D01*
X15138333Y-13130143D01*
X15166905Y-13130143D01*
X15185952Y-13139667D01*
X15195476Y-13158714D01*
X15195476Y-13263476D01*
X15195476Y-13158714D02*
X15205000Y-13139667D01*
X15224048Y-13130143D01*
X15252619Y-13130143D01*
X15271667Y-13139667D01*
X15281190Y-13158714D01*
X15281190Y-13263476D01*
X15376428Y-13263476D02*
X15376428Y-13130143D01*
X15376428Y-13149190D02*
X15385952Y-13139667D01*
X15405000Y-13130143D01*
X15433571Y-13130143D01*
X15452619Y-13139667D01*
X15462143Y-13158714D01*
X15462143Y-13263476D01*
X15462143Y-13158714D02*
X15471667Y-13139667D01*
X15490714Y-13130143D01*
X15519286Y-13130143D01*
X15538333Y-13139667D01*
X15547857Y-13158714D01*
X15547857Y-13263476D01*
X15938333Y-13053952D02*
X15766905Y-13311095D01*
X16195476Y-13063476D02*
X16214524Y-13063476D01*
X16233571Y-13073000D01*
X16243095Y-13082524D01*
X16252619Y-13101571D01*
X16262143Y-13139667D01*
X16262143Y-13187286D01*
X16252619Y-13225381D01*
X16243095Y-13244428D01*
X16233571Y-13253952D01*
X16214524Y-13263476D01*
X16195476Y-13263476D01*
X16176428Y-13253952D01*
X16166905Y-13244428D01*
X16157381Y-13225381D01*
X16147857Y-13187286D01*
X16147857Y-13139667D01*
X16157381Y-13101571D01*
X16166905Y-13082524D01*
X16176428Y-13073000D01*
X16195476Y-13063476D01*
X16347857Y-13244428D02*
X16357381Y-13253952D01*
X16347857Y-13263476D01*
X16338333Y-13253952D01*
X16347857Y-13244428D01*
X16347857Y-13263476D01*
X16481190Y-13063476D02*
X16500238Y-13063476D01*
X16519286Y-13073000D01*
X16528809Y-13082524D01*
X16538333Y-13101571D01*
X16547857Y-13139667D01*
X16547857Y-13187286D01*
X16538333Y-13225381D01*
X16528809Y-13244428D01*
X16519286Y-13253952D01*
X16500238Y-13263476D01*
X16481190Y-13263476D01*
X16462143Y-13253952D01*
X16452619Y-13244428D01*
X16443095Y-13225381D01*
X16433571Y-13187286D01*
X16433571Y-13139667D01*
X16443095Y-13101571D01*
X16452619Y-13082524D01*
X16462143Y-13073000D01*
X16481190Y-13063476D01*
X16624048Y-13082524D02*
X16633571Y-13073000D01*
X16652619Y-13063476D01*
X16700238Y-13063476D01*
X16719286Y-13073000D01*
X16728809Y-13082524D01*
X16738333Y-13101571D01*
X16738333Y-13120619D01*
X16728809Y-13149190D01*
X16614524Y-13263476D01*
X16738333Y-13263476D01*
X16919286Y-13063476D02*
X16824048Y-13063476D01*
X16814524Y-13158714D01*
X16824048Y-13149190D01*
X16843095Y-13139667D01*
X16890714Y-13139667D01*
X16909762Y-13149190D01*
X16919286Y-13158714D01*
X16928810Y-13177762D01*
X16928810Y-13225381D01*
X16919286Y-13244428D01*
X16909762Y-13253952D01*
X16890714Y-13263476D01*
X16843095Y-13263476D01*
X16824048Y-13253952D01*
X16814524Y-13244428D01*
X17100238Y-13063476D02*
X17062143Y-13063476D01*
X17043095Y-13073000D01*
X17033571Y-13082524D01*
X17014524Y-13111095D01*
X17005000Y-13149190D01*
X17005000Y-13225381D01*
X17014524Y-13244428D01*
X17024048Y-13253952D01*
X17043095Y-13263476D01*
X17081190Y-13263476D01*
X17100238Y-13253952D01*
X17109762Y-13244428D01*
X17119286Y-13225381D01*
X17119286Y-13177762D01*
X17109762Y-13158714D01*
X17100238Y-13149190D01*
X17081190Y-13139667D01*
X17043095Y-13139667D01*
X17024048Y-13149190D01*
X17014524Y-13158714D01*
X17005000Y-13177762D01*
X17195476Y-13063476D02*
X17195476Y-13101571D01*
X17271667Y-13063476D02*
X17271667Y-13101571D01*
X17566905Y-13339667D02*
X17557381Y-13330143D01*
X17538333Y-13301571D01*
X17528810Y-13282524D01*
X17519286Y-13253952D01*
X17509762Y-13206333D01*
X17509762Y-13168238D01*
X17519286Y-13120619D01*
X17528810Y-13092048D01*
X17538333Y-13073000D01*
X17557381Y-13044428D01*
X17566905Y-13034905D01*
X17681190Y-13063476D02*
X17700238Y-13063476D01*
X17719286Y-13073000D01*
X17728810Y-13082524D01*
X17738333Y-13101571D01*
X17747857Y-13139667D01*
X17747857Y-13187286D01*
X17738333Y-13225381D01*
X17728810Y-13244428D01*
X17719286Y-13253952D01*
X17700238Y-13263476D01*
X17681190Y-13263476D01*
X17662143Y-13253952D01*
X17652619Y-13244428D01*
X17643095Y-13225381D01*
X17633571Y-13187286D01*
X17633571Y-13139667D01*
X17643095Y-13101571D01*
X17652619Y-13082524D01*
X17662143Y-13073000D01*
X17681190Y-13063476D01*
X17985952Y-13263476D02*
X17985952Y-13063476D01*
X18071667Y-13263476D02*
X18071667Y-13158714D01*
X18062143Y-13139667D01*
X18043095Y-13130143D01*
X18014524Y-13130143D01*
X17995476Y-13139667D01*
X17985952Y-13149190D01*
X18195476Y-13263476D02*
X18176429Y-13253952D01*
X18166905Y-13244428D01*
X18157381Y-13225381D01*
X18157381Y-13168238D01*
X18166905Y-13149190D01*
X18176429Y-13139667D01*
X18195476Y-13130143D01*
X18224048Y-13130143D01*
X18243095Y-13139667D01*
X18252619Y-13149190D01*
X18262143Y-13168238D01*
X18262143Y-13225381D01*
X18252619Y-13244428D01*
X18243095Y-13253952D01*
X18224048Y-13263476D01*
X18195476Y-13263476D01*
X18376429Y-13263476D02*
X18357381Y-13253952D01*
X18347857Y-13234905D01*
X18347857Y-13063476D01*
X18528810Y-13253952D02*
X18509762Y-13263476D01*
X18471667Y-13263476D01*
X18452619Y-13253952D01*
X18443095Y-13234905D01*
X18443095Y-13158714D01*
X18452619Y-13139667D01*
X18471667Y-13130143D01*
X18509762Y-13130143D01*
X18528810Y-13139667D01*
X18538333Y-13158714D01*
X18538333Y-13177762D01*
X18443095Y-13196809D01*
X18614524Y-13253952D02*
X18633571Y-13263476D01*
X18671667Y-13263476D01*
X18690714Y-13253952D01*
X18700238Y-13234905D01*
X18700238Y-13225381D01*
X18690714Y-13206333D01*
X18671667Y-13196809D01*
X18643095Y-13196809D01*
X18624048Y-13187286D01*
X18614524Y-13168238D01*
X18614524Y-13158714D01*
X18624048Y-13139667D01*
X18643095Y-13130143D01*
X18671667Y-13130143D01*
X18690714Y-13139667D01*
X18938333Y-13187286D02*
X19090714Y-13187286D01*
X19014524Y-13263476D02*
X19014524Y-13111095D01*
X19424048Y-13130143D02*
X19424048Y-13263476D01*
X19376429Y-13053952D02*
X19328810Y-13196809D01*
X19452619Y-13196809D01*
X19671667Y-13253952D02*
X19690714Y-13263476D01*
X19728810Y-13263476D01*
X19747857Y-13253952D01*
X19757381Y-13234905D01*
X19757381Y-13225381D01*
X19747857Y-13206333D01*
X19728810Y-13196809D01*
X19700238Y-13196809D01*
X19681190Y-13187286D01*
X19671667Y-13168238D01*
X19671667Y-13158714D01*
X19681190Y-13139667D01*
X19700238Y-13130143D01*
X19728810Y-13130143D01*
X19747857Y-13139667D01*
X19871667Y-13263476D02*
X19852619Y-13253952D01*
X19843095Y-13234905D01*
X19843095Y-13063476D01*
X19976429Y-13263476D02*
X19957381Y-13253952D01*
X19947857Y-13244428D01*
X19938333Y-13225381D01*
X19938333Y-13168238D01*
X19947857Y-13149190D01*
X19957381Y-13139667D01*
X19976429Y-13130143D01*
X20005000Y-13130143D01*
X20024048Y-13139667D01*
X20033571Y-13149190D01*
X20043095Y-13168238D01*
X20043095Y-13225381D01*
X20033571Y-13244428D01*
X20024048Y-13253952D01*
X20005000Y-13263476D01*
X19976429Y-13263476D01*
X20100238Y-13130143D02*
X20176429Y-13130143D01*
X20128810Y-13063476D02*
X20128810Y-13234905D01*
X20138333Y-13253952D01*
X20157381Y-13263476D01*
X20176429Y-13263476D01*
X20233571Y-13253952D02*
X20252619Y-13263476D01*
X20290714Y-13263476D01*
X20309762Y-13253952D01*
X20319286Y-13234905D01*
X20319286Y-13225381D01*
X20309762Y-13206333D01*
X20290714Y-13196809D01*
X20262143Y-13196809D01*
X20243095Y-13187286D01*
X20233571Y-13168238D01*
X20233571Y-13158714D01*
X20243095Y-13139667D01*
X20262143Y-13130143D01*
X20290714Y-13130143D01*
X20309762Y-13139667D01*
X20385952Y-13339667D02*
X20395476Y-13330143D01*
X20414524Y-13301571D01*
X20424048Y-13282524D01*
X20433571Y-13253952D01*
X20443095Y-13206333D01*
X20443095Y-13168238D01*
X20433571Y-13120619D01*
X20424048Y-13092048D01*
X20414524Y-13073000D01*
X20395476Y-13044428D01*
X20385952Y-13034905D01*
D15*
X13981820Y-13468820D02*
X13981820Y-13405180D01*
X13918180Y-13405180D01*
X13918180Y-13468820D01*
X13981820Y-13468820D01*
D11*
X14290714Y-13327476D02*
X14309762Y-13327476D01*
X14328809Y-13337000D01*
X14338333Y-13346524D01*
X14347857Y-13365571D01*
X14357381Y-13403667D01*
X14357381Y-13451286D01*
X14347857Y-13489381D01*
X14338333Y-13508428D01*
X14328809Y-13517952D01*
X14309762Y-13527476D01*
X14290714Y-13527476D01*
X14271667Y-13517952D01*
X14262143Y-13508428D01*
X14252619Y-13489381D01*
X14243095Y-13451286D01*
X14243095Y-13403667D01*
X14252619Y-13365571D01*
X14262143Y-13346524D01*
X14271667Y-13337000D01*
X14290714Y-13327476D01*
X14443095Y-13508428D02*
X14452619Y-13517952D01*
X14443095Y-13527476D01*
X14433571Y-13517952D01*
X14443095Y-13508428D01*
X14443095Y-13527476D01*
X14547857Y-13527476D02*
X14585952Y-13527476D01*
X14605000Y-13517952D01*
X14614524Y-13508428D01*
X14633571Y-13479857D01*
X14643095Y-13441762D01*
X14643095Y-13365571D01*
X14633571Y-13346524D01*
X14624048Y-13337000D01*
X14605000Y-13327476D01*
X14566905Y-13327476D01*
X14547857Y-13337000D01*
X14538333Y-13346524D01*
X14528809Y-13365571D01*
X14528809Y-13413190D01*
X14538333Y-13432238D01*
X14547857Y-13441762D01*
X14566905Y-13451286D01*
X14605000Y-13451286D01*
X14624048Y-13441762D01*
X14633571Y-13432238D01*
X14643095Y-13413190D01*
X14766905Y-13327476D02*
X14785952Y-13327476D01*
X14805000Y-13337000D01*
X14814524Y-13346524D01*
X14824048Y-13365571D01*
X14833571Y-13403667D01*
X14833571Y-13451286D01*
X14824048Y-13489381D01*
X14814524Y-13508428D01*
X14805000Y-13517952D01*
X14785952Y-13527476D01*
X14766905Y-13527476D01*
X14747857Y-13517952D01*
X14738333Y-13508428D01*
X14728809Y-13489381D01*
X14719286Y-13451286D01*
X14719286Y-13403667D01*
X14728809Y-13365571D01*
X14738333Y-13346524D01*
X14747857Y-13337000D01*
X14766905Y-13327476D01*
X14957381Y-13327476D02*
X14976428Y-13327476D01*
X14995476Y-13337000D01*
X15005000Y-13346524D01*
X15014524Y-13365571D01*
X15024048Y-13403667D01*
X15024048Y-13451286D01*
X15014524Y-13489381D01*
X15005000Y-13508428D01*
X14995476Y-13517952D01*
X14976428Y-13527476D01*
X14957381Y-13527476D01*
X14938333Y-13517952D01*
X14928809Y-13508428D01*
X14919286Y-13489381D01*
X14909762Y-13451286D01*
X14909762Y-13403667D01*
X14919286Y-13365571D01*
X14928809Y-13346524D01*
X14938333Y-13337000D01*
X14957381Y-13327476D01*
X15109762Y-13527476D02*
X15109762Y-13394143D01*
X15109762Y-13413190D02*
X15119286Y-13403667D01*
X15138333Y-13394143D01*
X15166905Y-13394143D01*
X15185952Y-13403667D01*
X15195476Y-13422714D01*
X15195476Y-13527476D01*
X15195476Y-13422714D02*
X15205000Y-13403667D01*
X15224048Y-13394143D01*
X15252619Y-13394143D01*
X15271667Y-13403667D01*
X15281190Y-13422714D01*
X15281190Y-13527476D01*
X15376428Y-13527476D02*
X15376428Y-13394143D01*
X15376428Y-13413190D02*
X15385952Y-13403667D01*
X15405000Y-13394143D01*
X15433571Y-13394143D01*
X15452619Y-13403667D01*
X15462143Y-13422714D01*
X15462143Y-13527476D01*
X15462143Y-13422714D02*
X15471667Y-13403667D01*
X15490714Y-13394143D01*
X15519286Y-13394143D01*
X15538333Y-13403667D01*
X15547857Y-13422714D01*
X15547857Y-13527476D01*
X15938333Y-13317952D02*
X15766905Y-13575095D01*
X16195476Y-13327476D02*
X16214524Y-13327476D01*
X16233571Y-13337000D01*
X16243095Y-13346524D01*
X16252619Y-13365571D01*
X16262143Y-13403667D01*
X16262143Y-13451286D01*
X16252619Y-13489381D01*
X16243095Y-13508428D01*
X16233571Y-13517952D01*
X16214524Y-13527476D01*
X16195476Y-13527476D01*
X16176428Y-13517952D01*
X16166905Y-13508428D01*
X16157381Y-13489381D01*
X16147857Y-13451286D01*
X16147857Y-13403667D01*
X16157381Y-13365571D01*
X16166905Y-13346524D01*
X16176428Y-13337000D01*
X16195476Y-13327476D01*
X16347857Y-13508428D02*
X16357381Y-13517952D01*
X16347857Y-13527476D01*
X16338333Y-13517952D01*
X16347857Y-13508428D01*
X16347857Y-13527476D01*
X16481190Y-13327476D02*
X16500238Y-13327476D01*
X16519286Y-13337000D01*
X16528809Y-13346524D01*
X16538333Y-13365571D01*
X16547857Y-13403667D01*
X16547857Y-13451286D01*
X16538333Y-13489381D01*
X16528809Y-13508428D01*
X16519286Y-13517952D01*
X16500238Y-13527476D01*
X16481190Y-13527476D01*
X16462143Y-13517952D01*
X16452619Y-13508428D01*
X16443095Y-13489381D01*
X16433571Y-13451286D01*
X16433571Y-13403667D01*
X16443095Y-13365571D01*
X16452619Y-13346524D01*
X16462143Y-13337000D01*
X16481190Y-13327476D01*
X16614524Y-13327476D02*
X16738333Y-13327476D01*
X16671667Y-13403667D01*
X16700238Y-13403667D01*
X16719286Y-13413190D01*
X16728809Y-13422714D01*
X16738333Y-13441762D01*
X16738333Y-13489381D01*
X16728809Y-13508428D01*
X16719286Y-13517952D01*
X16700238Y-13527476D01*
X16643095Y-13527476D01*
X16624048Y-13517952D01*
X16614524Y-13508428D01*
X16919286Y-13327476D02*
X16824048Y-13327476D01*
X16814524Y-13422714D01*
X16824048Y-13413190D01*
X16843095Y-13403667D01*
X16890714Y-13403667D01*
X16909762Y-13413190D01*
X16919286Y-13422714D01*
X16928810Y-13441762D01*
X16928810Y-13489381D01*
X16919286Y-13508428D01*
X16909762Y-13517952D01*
X16890714Y-13527476D01*
X16843095Y-13527476D01*
X16824048Y-13517952D01*
X16814524Y-13508428D01*
X17100238Y-13394143D02*
X17100238Y-13527476D01*
X17052619Y-13317952D02*
X17005000Y-13460809D01*
X17128810Y-13460809D01*
X17195476Y-13327476D02*
X17195476Y-13365571D01*
X17271667Y-13327476D02*
X17271667Y-13365571D01*
X17566905Y-13603667D02*
X17557381Y-13594143D01*
X17538333Y-13565571D01*
X17528810Y-13546524D01*
X17519286Y-13517952D01*
X17509762Y-13470333D01*
X17509762Y-13432238D01*
X17519286Y-13384619D01*
X17528810Y-13356048D01*
X17538333Y-13337000D01*
X17557381Y-13308428D01*
X17566905Y-13298905D01*
X17681190Y-13327476D02*
X17700238Y-13327476D01*
X17719286Y-13337000D01*
X17728810Y-13346524D01*
X17738333Y-13365571D01*
X17747857Y-13403667D01*
X17747857Y-13451286D01*
X17738333Y-13489381D01*
X17728810Y-13508428D01*
X17719286Y-13517952D01*
X17700238Y-13527476D01*
X17681190Y-13527476D01*
X17662143Y-13517952D01*
X17652619Y-13508428D01*
X17643095Y-13489381D01*
X17633571Y-13451286D01*
X17633571Y-13403667D01*
X17643095Y-13365571D01*
X17652619Y-13346524D01*
X17662143Y-13337000D01*
X17681190Y-13327476D01*
X17985952Y-13527476D02*
X17985952Y-13327476D01*
X18071667Y-13527476D02*
X18071667Y-13422714D01*
X18062143Y-13403667D01*
X18043095Y-13394143D01*
X18014524Y-13394143D01*
X17995476Y-13403667D01*
X17985952Y-13413190D01*
X18195476Y-13527476D02*
X18176429Y-13517952D01*
X18166905Y-13508428D01*
X18157381Y-13489381D01*
X18157381Y-13432238D01*
X18166905Y-13413190D01*
X18176429Y-13403667D01*
X18195476Y-13394143D01*
X18224048Y-13394143D01*
X18243095Y-13403667D01*
X18252619Y-13413190D01*
X18262143Y-13432238D01*
X18262143Y-13489381D01*
X18252619Y-13508428D01*
X18243095Y-13517952D01*
X18224048Y-13527476D01*
X18195476Y-13527476D01*
X18376429Y-13527476D02*
X18357381Y-13517952D01*
X18347857Y-13498905D01*
X18347857Y-13327476D01*
X18528810Y-13517952D02*
X18509762Y-13527476D01*
X18471667Y-13527476D01*
X18452619Y-13517952D01*
X18443095Y-13498905D01*
X18443095Y-13422714D01*
X18452619Y-13403667D01*
X18471667Y-13394143D01*
X18509762Y-13394143D01*
X18528810Y-13403667D01*
X18538333Y-13422714D01*
X18538333Y-13441762D01*
X18443095Y-13460809D01*
X18614524Y-13517952D02*
X18633571Y-13527476D01*
X18671667Y-13527476D01*
X18690714Y-13517952D01*
X18700238Y-13498905D01*
X18700238Y-13489381D01*
X18690714Y-13470333D01*
X18671667Y-13460809D01*
X18643095Y-13460809D01*
X18624048Y-13451286D01*
X18614524Y-13432238D01*
X18614524Y-13422714D01*
X18624048Y-13403667D01*
X18643095Y-13394143D01*
X18671667Y-13394143D01*
X18690714Y-13403667D01*
X18938333Y-13451286D02*
X19090714Y-13451286D01*
X19014524Y-13527476D02*
X19014524Y-13375095D01*
X19328810Y-13346524D02*
X19338333Y-13337000D01*
X19357381Y-13327476D01*
X19405000Y-13327476D01*
X19424048Y-13337000D01*
X19433571Y-13346524D01*
X19443095Y-13365571D01*
X19443095Y-13384619D01*
X19433571Y-13413190D01*
X19319286Y-13527476D01*
X19443095Y-13527476D01*
X19671667Y-13517952D02*
X19690714Y-13527476D01*
X19728810Y-13527476D01*
X19747857Y-13517952D01*
X19757381Y-13498905D01*
X19757381Y-13489381D01*
X19747857Y-13470333D01*
X19728810Y-13460809D01*
X19700238Y-13460809D01*
X19681190Y-13451286D01*
X19671667Y-13432238D01*
X19671667Y-13422714D01*
X19681190Y-13403667D01*
X19700238Y-13394143D01*
X19728810Y-13394143D01*
X19747857Y-13403667D01*
X19871667Y-13527476D02*
X19852619Y-13517952D01*
X19843095Y-13498905D01*
X19843095Y-13327476D01*
X19976429Y-13527476D02*
X19957381Y-13517952D01*
X19947857Y-13508428D01*
X19938333Y-13489381D01*
X19938333Y-13432238D01*
X19947857Y-13413190D01*
X19957381Y-13403667D01*
X19976429Y-13394143D01*
X20005000Y-13394143D01*
X20024048Y-13403667D01*
X20033571Y-13413190D01*
X20043095Y-13432238D01*
X20043095Y-13489381D01*
X20033571Y-13508428D01*
X20024048Y-13517952D01*
X20005000Y-13527476D01*
X19976429Y-13527476D01*
X20100238Y-13394143D02*
X20176429Y-13394143D01*
X20128810Y-13327476D02*
X20128810Y-13498905D01*
X20138333Y-13517952D01*
X20157381Y-13527476D01*
X20176429Y-13527476D01*
X20233571Y-13517952D02*
X20252619Y-13527476D01*
X20290714Y-13527476D01*
X20309762Y-13517952D01*
X20319286Y-13498905D01*
X20319286Y-13489381D01*
X20309762Y-13470333D01*
X20290714Y-13460809D01*
X20262143Y-13460809D01*
X20243095Y-13451286D01*
X20233571Y-13432238D01*
X20233571Y-13422714D01*
X20243095Y-13403667D01*
X20262143Y-13394143D01*
X20290714Y-13394143D01*
X20309762Y-13403667D01*
X20385952Y-13603667D02*
X20395476Y-13594143D01*
X20414524Y-13565571D01*
X20424048Y-13546524D01*
X20433571Y-13517952D01*
X20443095Y-13470333D01*
X20443095Y-13432238D01*
X20433571Y-13384619D01*
X20424048Y-13356048D01*
X20414524Y-13337000D01*
X20395476Y-13308428D01*
X20385952Y-13298905D01*
D16*
X13947500Y-13748500D02*
X13995000Y-13701000D01*
X13947500Y-13653500D01*
X13900000Y-13701000D01*
X13947500Y-13748500D01*
D11*
X14290714Y-13591476D02*
X14309762Y-13591476D01*
X14328809Y-13601000D01*
X14338333Y-13610524D01*
X14347857Y-13629571D01*
X14357381Y-13667667D01*
X14357381Y-13715286D01*
X14347857Y-13753381D01*
X14338333Y-13772428D01*
X14328809Y-13781952D01*
X14309762Y-13791476D01*
X14290714Y-13791476D01*
X14271667Y-13781952D01*
X14262143Y-13772428D01*
X14252619Y-13753381D01*
X14243095Y-13715286D01*
X14243095Y-13667667D01*
X14252619Y-13629571D01*
X14262143Y-13610524D01*
X14271667Y-13601000D01*
X14290714Y-13591476D01*
X14443095Y-13772428D02*
X14452619Y-13781952D01*
X14443095Y-13791476D01*
X14433571Y-13781952D01*
X14443095Y-13772428D01*
X14443095Y-13791476D01*
X14547857Y-13791476D02*
X14585952Y-13791476D01*
X14605000Y-13781952D01*
X14614524Y-13772428D01*
X14633571Y-13743857D01*
X14643095Y-13705762D01*
X14643095Y-13629571D01*
X14633571Y-13610524D01*
X14624048Y-13601000D01*
X14605000Y-13591476D01*
X14566905Y-13591476D01*
X14547857Y-13601000D01*
X14538333Y-13610524D01*
X14528809Y-13629571D01*
X14528809Y-13677190D01*
X14538333Y-13696238D01*
X14547857Y-13705762D01*
X14566905Y-13715286D01*
X14605000Y-13715286D01*
X14624048Y-13705762D01*
X14633571Y-13696238D01*
X14643095Y-13677190D01*
X14824048Y-13591476D02*
X14728809Y-13591476D01*
X14719286Y-13686714D01*
X14728809Y-13677190D01*
X14747857Y-13667667D01*
X14795476Y-13667667D01*
X14814524Y-13677190D01*
X14824048Y-13686714D01*
X14833571Y-13705762D01*
X14833571Y-13753381D01*
X14824048Y-13772428D01*
X14814524Y-13781952D01*
X14795476Y-13791476D01*
X14747857Y-13791476D01*
X14728809Y-13781952D01*
X14719286Y-13772428D01*
X14957381Y-13591476D02*
X14976428Y-13591476D01*
X14995476Y-13601000D01*
X15005000Y-13610524D01*
X15014524Y-13629571D01*
X15024048Y-13667667D01*
X15024048Y-13715286D01*
X15014524Y-13753381D01*
X15005000Y-13772428D01*
X14995476Y-13781952D01*
X14976428Y-13791476D01*
X14957381Y-13791476D01*
X14938333Y-13781952D01*
X14928809Y-13772428D01*
X14919286Y-13753381D01*
X14909762Y-13715286D01*
X14909762Y-13667667D01*
X14919286Y-13629571D01*
X14928809Y-13610524D01*
X14938333Y-13601000D01*
X14957381Y-13591476D01*
X15109762Y-13791476D02*
X15109762Y-13658143D01*
X15109762Y-13677190D02*
X15119286Y-13667667D01*
X15138333Y-13658143D01*
X15166905Y-13658143D01*
X15185952Y-13667667D01*
X15195476Y-13686714D01*
X15195476Y-13791476D01*
X15195476Y-13686714D02*
X15205000Y-13667667D01*
X15224048Y-13658143D01*
X15252619Y-13658143D01*
X15271667Y-13667667D01*
X15281190Y-13686714D01*
X15281190Y-13791476D01*
X15376428Y-13791476D02*
X15376428Y-13658143D01*
X15376428Y-13677190D02*
X15385952Y-13667667D01*
X15405000Y-13658143D01*
X15433571Y-13658143D01*
X15452619Y-13667667D01*
X15462143Y-13686714D01*
X15462143Y-13791476D01*
X15462143Y-13686714D02*
X15471667Y-13667667D01*
X15490714Y-13658143D01*
X15519286Y-13658143D01*
X15538333Y-13667667D01*
X15547857Y-13686714D01*
X15547857Y-13791476D01*
X15938333Y-13581952D02*
X15766905Y-13839095D01*
X16195476Y-13591476D02*
X16214524Y-13591476D01*
X16233571Y-13601000D01*
X16243095Y-13610524D01*
X16252619Y-13629571D01*
X16262143Y-13667667D01*
X16262143Y-13715286D01*
X16252619Y-13753381D01*
X16243095Y-13772428D01*
X16233571Y-13781952D01*
X16214524Y-13791476D01*
X16195476Y-13791476D01*
X16176428Y-13781952D01*
X16166905Y-13772428D01*
X16157381Y-13753381D01*
X16147857Y-13715286D01*
X16147857Y-13667667D01*
X16157381Y-13629571D01*
X16166905Y-13610524D01*
X16176428Y-13601000D01*
X16195476Y-13591476D01*
X16347857Y-13772428D02*
X16357381Y-13781952D01*
X16347857Y-13791476D01*
X16338333Y-13781952D01*
X16347857Y-13772428D01*
X16347857Y-13791476D01*
X16481190Y-13591476D02*
X16500238Y-13591476D01*
X16519286Y-13601000D01*
X16528809Y-13610524D01*
X16538333Y-13629571D01*
X16547857Y-13667667D01*
X16547857Y-13715286D01*
X16538333Y-13753381D01*
X16528809Y-13772428D01*
X16519286Y-13781952D01*
X16500238Y-13791476D01*
X16481190Y-13791476D01*
X16462143Y-13781952D01*
X16452619Y-13772428D01*
X16443095Y-13753381D01*
X16433571Y-13715286D01*
X16433571Y-13667667D01*
X16443095Y-13629571D01*
X16452619Y-13610524D01*
X16462143Y-13601000D01*
X16481190Y-13591476D01*
X16614524Y-13591476D02*
X16738333Y-13591476D01*
X16671667Y-13667667D01*
X16700238Y-13667667D01*
X16719286Y-13677190D01*
X16728809Y-13686714D01*
X16738333Y-13705762D01*
X16738333Y-13753381D01*
X16728809Y-13772428D01*
X16719286Y-13781952D01*
X16700238Y-13791476D01*
X16643095Y-13791476D01*
X16624048Y-13781952D01*
X16614524Y-13772428D01*
X16805000Y-13591476D02*
X16938333Y-13591476D01*
X16852619Y-13791476D01*
X17100238Y-13658143D02*
X17100238Y-13791476D01*
X17052619Y-13581952D02*
X17005000Y-13724809D01*
X17128810Y-13724809D01*
X17195476Y-13591476D02*
X17195476Y-13629571D01*
X17271667Y-13591476D02*
X17271667Y-13629571D01*
X17566905Y-13867667D02*
X17557381Y-13858143D01*
X17538333Y-13829571D01*
X17528810Y-13810524D01*
X17519286Y-13781952D01*
X17509762Y-13734333D01*
X17509762Y-13696238D01*
X17519286Y-13648619D01*
X17528810Y-13620048D01*
X17538333Y-13601000D01*
X17557381Y-13572428D01*
X17566905Y-13562905D01*
X17747857Y-13791476D02*
X17633571Y-13791476D01*
X17690714Y-13791476D02*
X17690714Y-13591476D01*
X17671667Y-13620048D01*
X17652619Y-13639095D01*
X17633571Y-13648619D01*
X17928810Y-13591476D02*
X17833571Y-13591476D01*
X17824048Y-13686714D01*
X17833571Y-13677190D01*
X17852619Y-13667667D01*
X17900238Y-13667667D01*
X17919286Y-13677190D01*
X17928810Y-13686714D01*
X17938333Y-13705762D01*
X17938333Y-13753381D01*
X17928810Y-13772428D01*
X17919286Y-13781952D01*
X17900238Y-13791476D01*
X17852619Y-13791476D01*
X17833571Y-13781952D01*
X17824048Y-13772428D01*
X18176429Y-13791476D02*
X18176429Y-13591476D01*
X18262143Y-13791476D02*
X18262143Y-13686714D01*
X18252619Y-13667667D01*
X18233571Y-13658143D01*
X18205000Y-13658143D01*
X18185952Y-13667667D01*
X18176429Y-13677190D01*
X18385952Y-13791476D02*
X18366905Y-13781952D01*
X18357381Y-13772428D01*
X18347857Y-13753381D01*
X18347857Y-13696238D01*
X18357381Y-13677190D01*
X18366905Y-13667667D01*
X18385952Y-13658143D01*
X18414524Y-13658143D01*
X18433571Y-13667667D01*
X18443095Y-13677190D01*
X18452619Y-13696238D01*
X18452619Y-13753381D01*
X18443095Y-13772428D01*
X18433571Y-13781952D01*
X18414524Y-13791476D01*
X18385952Y-13791476D01*
X18566905Y-13791476D02*
X18547857Y-13781952D01*
X18538333Y-13762905D01*
X18538333Y-13591476D01*
X18719286Y-13781952D02*
X18700238Y-13791476D01*
X18662143Y-13791476D01*
X18643095Y-13781952D01*
X18633571Y-13762905D01*
X18633571Y-13686714D01*
X18643095Y-13667667D01*
X18662143Y-13658143D01*
X18700238Y-13658143D01*
X18719286Y-13667667D01*
X18728810Y-13686714D01*
X18728810Y-13705762D01*
X18633571Y-13724809D01*
X18805000Y-13781952D02*
X18824048Y-13791476D01*
X18862143Y-13791476D01*
X18881190Y-13781952D01*
X18890714Y-13762905D01*
X18890714Y-13753381D01*
X18881190Y-13734333D01*
X18862143Y-13724809D01*
X18833571Y-13724809D01*
X18814524Y-13715286D01*
X18805000Y-13696238D01*
X18805000Y-13686714D01*
X18814524Y-13667667D01*
X18833571Y-13658143D01*
X18862143Y-13658143D01*
X18881190Y-13667667D01*
X18957381Y-13867667D02*
X18966905Y-13858143D01*
X18985952Y-13829571D01*
X18995476Y-13810524D01*
X19005000Y-13781952D01*
X19014524Y-13734333D01*
X19014524Y-13696238D01*
X19005000Y-13648619D01*
X18995476Y-13620048D01*
X18985952Y-13601000D01*
X18966905Y-13572428D01*
X18957381Y-13562905D01*
D10*
X13895000Y-13915000D02*
X13995000Y-14015000D01*
X13995000Y-13915000D02*
X13895000Y-14015000D01*
X13995000Y-13965000D02*
G75*
G03*
X13995000Y-13965000I-50000J0D01*
G01*
D11*
X14357381Y-14055476D02*
X14243095Y-14055476D01*
X14300238Y-14055476D02*
X14300238Y-13855476D01*
X14281190Y-13884048D01*
X14262143Y-13903095D01*
X14243095Y-13912619D01*
X14443095Y-14036428D02*
X14452619Y-14045952D01*
X14443095Y-14055476D01*
X14433571Y-14045952D01*
X14443095Y-14036428D01*
X14443095Y-14055476D01*
X14576428Y-13855476D02*
X14595476Y-13855476D01*
X14614524Y-13865000D01*
X14624048Y-13874524D01*
X14633571Y-13893571D01*
X14643095Y-13931667D01*
X14643095Y-13979286D01*
X14633571Y-14017381D01*
X14624048Y-14036428D01*
X14614524Y-14045952D01*
X14595476Y-14055476D01*
X14576428Y-14055476D01*
X14557381Y-14045952D01*
X14547857Y-14036428D01*
X14538333Y-14017381D01*
X14528809Y-13979286D01*
X14528809Y-13931667D01*
X14538333Y-13893571D01*
X14547857Y-13874524D01*
X14557381Y-13865000D01*
X14576428Y-13855476D01*
X14766905Y-13855476D02*
X14785952Y-13855476D01*
X14805000Y-13865000D01*
X14814524Y-13874524D01*
X14824048Y-13893571D01*
X14833571Y-13931667D01*
X14833571Y-13979286D01*
X14824048Y-14017381D01*
X14814524Y-14036428D01*
X14805000Y-14045952D01*
X14785952Y-14055476D01*
X14766905Y-14055476D01*
X14747857Y-14045952D01*
X14738333Y-14036428D01*
X14728809Y-14017381D01*
X14719286Y-13979286D01*
X14719286Y-13931667D01*
X14728809Y-13893571D01*
X14738333Y-13874524D01*
X14747857Y-13865000D01*
X14766905Y-13855476D01*
X14957381Y-13855476D02*
X14976428Y-13855476D01*
X14995476Y-13865000D01*
X15005000Y-13874524D01*
X15014524Y-13893571D01*
X15024048Y-13931667D01*
X15024048Y-13979286D01*
X15014524Y-14017381D01*
X15005000Y-14036428D01*
X14995476Y-14045952D01*
X14976428Y-14055476D01*
X14957381Y-14055476D01*
X14938333Y-14045952D01*
X14928809Y-14036428D01*
X14919286Y-14017381D01*
X14909762Y-13979286D01*
X14909762Y-13931667D01*
X14919286Y-13893571D01*
X14928809Y-13874524D01*
X14938333Y-13865000D01*
X14957381Y-13855476D01*
X15109762Y-14055476D02*
X15109762Y-13922143D01*
X15109762Y-13941190D02*
X15119286Y-13931667D01*
X15138333Y-13922143D01*
X15166905Y-13922143D01*
X15185952Y-13931667D01*
X15195476Y-13950714D01*
X15195476Y-14055476D01*
X15195476Y-13950714D02*
X15205000Y-13931667D01*
X15224048Y-13922143D01*
X15252619Y-13922143D01*
X15271667Y-13931667D01*
X15281190Y-13950714D01*
X15281190Y-14055476D01*
X15376428Y-14055476D02*
X15376428Y-13922143D01*
X15376428Y-13941190D02*
X15385952Y-13931667D01*
X15405000Y-13922143D01*
X15433571Y-13922143D01*
X15452619Y-13931667D01*
X15462143Y-13950714D01*
X15462143Y-14055476D01*
X15462143Y-13950714D02*
X15471667Y-13931667D01*
X15490714Y-13922143D01*
X15519286Y-13922143D01*
X15538333Y-13931667D01*
X15547857Y-13950714D01*
X15547857Y-14055476D01*
X15938333Y-13845952D02*
X15766905Y-14103095D01*
X16195476Y-13855476D02*
X16214524Y-13855476D01*
X16233571Y-13865000D01*
X16243095Y-13874524D01*
X16252619Y-13893571D01*
X16262143Y-13931667D01*
X16262143Y-13979286D01*
X16252619Y-14017381D01*
X16243095Y-14036428D01*
X16233571Y-14045952D01*
X16214524Y-14055476D01*
X16195476Y-14055476D01*
X16176428Y-14045952D01*
X16166905Y-14036428D01*
X16157381Y-14017381D01*
X16147857Y-13979286D01*
X16147857Y-13931667D01*
X16157381Y-13893571D01*
X16166905Y-13874524D01*
X16176428Y-13865000D01*
X16195476Y-13855476D01*
X16347857Y-14036428D02*
X16357381Y-14045952D01*
X16347857Y-14055476D01*
X16338333Y-14045952D01*
X16347857Y-14036428D01*
X16347857Y-14055476D01*
X16481190Y-13855476D02*
X16500238Y-13855476D01*
X16519286Y-13865000D01*
X16528809Y-13874524D01*
X16538333Y-13893571D01*
X16547857Y-13931667D01*
X16547857Y-13979286D01*
X16538333Y-14017381D01*
X16528809Y-14036428D01*
X16519286Y-14045952D01*
X16500238Y-14055476D01*
X16481190Y-14055476D01*
X16462143Y-14045952D01*
X16452619Y-14036428D01*
X16443095Y-14017381D01*
X16433571Y-13979286D01*
X16433571Y-13931667D01*
X16443095Y-13893571D01*
X16452619Y-13874524D01*
X16462143Y-13865000D01*
X16481190Y-13855476D01*
X16614524Y-13855476D02*
X16738333Y-13855476D01*
X16671667Y-13931667D01*
X16700238Y-13931667D01*
X16719286Y-13941190D01*
X16728809Y-13950714D01*
X16738333Y-13969762D01*
X16738333Y-14017381D01*
X16728809Y-14036428D01*
X16719286Y-14045952D01*
X16700238Y-14055476D01*
X16643095Y-14055476D01*
X16624048Y-14045952D01*
X16614524Y-14036428D01*
X16833571Y-14055476D02*
X16871667Y-14055476D01*
X16890714Y-14045952D01*
X16900238Y-14036428D01*
X16919286Y-14007857D01*
X16928810Y-13969762D01*
X16928810Y-13893571D01*
X16919286Y-13874524D01*
X16909762Y-13865000D01*
X16890714Y-13855476D01*
X16852619Y-13855476D01*
X16833571Y-13865000D01*
X16824048Y-13874524D01*
X16814524Y-13893571D01*
X16814524Y-13941190D01*
X16824048Y-13960238D01*
X16833571Y-13969762D01*
X16852619Y-13979286D01*
X16890714Y-13979286D01*
X16909762Y-13969762D01*
X16919286Y-13960238D01*
X16928810Y-13941190D01*
X17100238Y-13922143D02*
X17100238Y-14055476D01*
X17052619Y-13845952D02*
X17005000Y-13988809D01*
X17128810Y-13988809D01*
X17195476Y-13855476D02*
X17195476Y-13893571D01*
X17271667Y-13855476D02*
X17271667Y-13893571D01*
X17566905Y-14131667D02*
X17557381Y-14122143D01*
X17538333Y-14093571D01*
X17528810Y-14074524D01*
X17519286Y-14045952D01*
X17509762Y-13998333D01*
X17509762Y-13960238D01*
X17519286Y-13912619D01*
X17528810Y-13884048D01*
X17538333Y-13865000D01*
X17557381Y-13836428D01*
X17566905Y-13826905D01*
X17652619Y-14055476D02*
X17690714Y-14055476D01*
X17709762Y-14045952D01*
X17719286Y-14036428D01*
X17738333Y-14007857D01*
X17747857Y-13969762D01*
X17747857Y-13893571D01*
X17738333Y-13874524D01*
X17728810Y-13865000D01*
X17709762Y-13855476D01*
X17671667Y-13855476D01*
X17652619Y-13865000D01*
X17643095Y-13874524D01*
X17633571Y-13893571D01*
X17633571Y-13941190D01*
X17643095Y-13960238D01*
X17652619Y-13969762D01*
X17671667Y-13979286D01*
X17709762Y-13979286D01*
X17728810Y-13969762D01*
X17738333Y-13960238D01*
X17747857Y-13941190D01*
X17985952Y-14055476D02*
X17985952Y-13855476D01*
X18071667Y-14055476D02*
X18071667Y-13950714D01*
X18062143Y-13931667D01*
X18043095Y-13922143D01*
X18014524Y-13922143D01*
X17995476Y-13931667D01*
X17985952Y-13941190D01*
X18195476Y-14055476D02*
X18176429Y-14045952D01*
X18166905Y-14036428D01*
X18157381Y-14017381D01*
X18157381Y-13960238D01*
X18166905Y-13941190D01*
X18176429Y-13931667D01*
X18195476Y-13922143D01*
X18224048Y-13922143D01*
X18243095Y-13931667D01*
X18252619Y-13941190D01*
X18262143Y-13960238D01*
X18262143Y-14017381D01*
X18252619Y-14036428D01*
X18243095Y-14045952D01*
X18224048Y-14055476D01*
X18195476Y-14055476D01*
X18376429Y-14055476D02*
X18357381Y-14045952D01*
X18347857Y-14026905D01*
X18347857Y-13855476D01*
X18528810Y-14045952D02*
X18509762Y-14055476D01*
X18471667Y-14055476D01*
X18452619Y-14045952D01*
X18443095Y-14026905D01*
X18443095Y-13950714D01*
X18452619Y-13931667D01*
X18471667Y-13922143D01*
X18509762Y-13922143D01*
X18528810Y-13931667D01*
X18538333Y-13950714D01*
X18538333Y-13969762D01*
X18443095Y-13988809D01*
X18614524Y-14045952D02*
X18633571Y-14055476D01*
X18671667Y-14055476D01*
X18690714Y-14045952D01*
X18700238Y-14026905D01*
X18700238Y-14017381D01*
X18690714Y-13998333D01*
X18671667Y-13988809D01*
X18643095Y-13988809D01*
X18624048Y-13979286D01*
X18614524Y-13960238D01*
X18614524Y-13950714D01*
X18624048Y-13931667D01*
X18643095Y-13922143D01*
X18671667Y-13922143D01*
X18690714Y-13931667D01*
X18766905Y-14131667D02*
X18776429Y-14122143D01*
X18795476Y-14093571D01*
X18805000Y-14074524D01*
X18814524Y-14045952D01*
X18824048Y-13998333D01*
X18824048Y-13960238D01*
X18814524Y-13912619D01*
X18805000Y-13884048D01*
X18795476Y-13865000D01*
X18776429Y-13836428D01*
X18766905Y-13826905D01*
D17*
X13885000Y-14174000D02*
X13995000Y-14284000D01*
X13995000Y-14174000D02*
X13885000Y-14284000D01*
X13940000Y-14174000D02*
X13940000Y-14284000D01*
X13885000Y-14229000D02*
X13995000Y-14229000D01*
D11*
X14357381Y-14319476D02*
X14243095Y-14319476D01*
X14300238Y-14319476D02*
X14300238Y-14119476D01*
X14281190Y-14148048D01*
X14262143Y-14167095D01*
X14243095Y-14176619D01*
X14443095Y-14300428D02*
X14452619Y-14309952D01*
X14443095Y-14319476D01*
X14433571Y-14309952D01*
X14443095Y-14300428D01*
X14443095Y-14319476D01*
X14643095Y-14319476D02*
X14528809Y-14319476D01*
X14585952Y-14319476D02*
X14585952Y-14119476D01*
X14566905Y-14148048D01*
X14547857Y-14167095D01*
X14528809Y-14176619D01*
X14766905Y-14119476D02*
X14785952Y-14119476D01*
X14805000Y-14129000D01*
X14814524Y-14138524D01*
X14824048Y-14157571D01*
X14833571Y-14195667D01*
X14833571Y-14243286D01*
X14824048Y-14281381D01*
X14814524Y-14300428D01*
X14805000Y-14309952D01*
X14785952Y-14319476D01*
X14766905Y-14319476D01*
X14747857Y-14309952D01*
X14738333Y-14300428D01*
X14728809Y-14281381D01*
X14719286Y-14243286D01*
X14719286Y-14195667D01*
X14728809Y-14157571D01*
X14738333Y-14138524D01*
X14747857Y-14129000D01*
X14766905Y-14119476D01*
X14957381Y-14119476D02*
X14976428Y-14119476D01*
X14995476Y-14129000D01*
X15005000Y-14138524D01*
X15014524Y-14157571D01*
X15024048Y-14195667D01*
X15024048Y-14243286D01*
X15014524Y-14281381D01*
X15005000Y-14300428D01*
X14995476Y-14309952D01*
X14976428Y-14319476D01*
X14957381Y-14319476D01*
X14938333Y-14309952D01*
X14928809Y-14300428D01*
X14919286Y-14281381D01*
X14909762Y-14243286D01*
X14909762Y-14195667D01*
X14919286Y-14157571D01*
X14928809Y-14138524D01*
X14938333Y-14129000D01*
X14957381Y-14119476D01*
X15109762Y-14319476D02*
X15109762Y-14186143D01*
X15109762Y-14205190D02*
X15119286Y-14195667D01*
X15138333Y-14186143D01*
X15166905Y-14186143D01*
X15185952Y-14195667D01*
X15195476Y-14214714D01*
X15195476Y-14319476D01*
X15195476Y-14214714D02*
X15205000Y-14195667D01*
X15224048Y-14186143D01*
X15252619Y-14186143D01*
X15271667Y-14195667D01*
X15281190Y-14214714D01*
X15281190Y-14319476D01*
X15376428Y-14319476D02*
X15376428Y-14186143D01*
X15376428Y-14205190D02*
X15385952Y-14195667D01*
X15405000Y-14186143D01*
X15433571Y-14186143D01*
X15452619Y-14195667D01*
X15462143Y-14214714D01*
X15462143Y-14319476D01*
X15462143Y-14214714D02*
X15471667Y-14195667D01*
X15490714Y-14186143D01*
X15519286Y-14186143D01*
X15538333Y-14195667D01*
X15547857Y-14214714D01*
X15547857Y-14319476D01*
X15938333Y-14109952D02*
X15766905Y-14367095D01*
X16195476Y-14119476D02*
X16214524Y-14119476D01*
X16233571Y-14129000D01*
X16243095Y-14138524D01*
X16252619Y-14157571D01*
X16262143Y-14195667D01*
X16262143Y-14243286D01*
X16252619Y-14281381D01*
X16243095Y-14300428D01*
X16233571Y-14309952D01*
X16214524Y-14319476D01*
X16195476Y-14319476D01*
X16176428Y-14309952D01*
X16166905Y-14300428D01*
X16157381Y-14281381D01*
X16147857Y-14243286D01*
X16147857Y-14195667D01*
X16157381Y-14157571D01*
X16166905Y-14138524D01*
X16176428Y-14129000D01*
X16195476Y-14119476D01*
X16347857Y-14300428D02*
X16357381Y-14309952D01*
X16347857Y-14319476D01*
X16338333Y-14309952D01*
X16347857Y-14300428D01*
X16347857Y-14319476D01*
X16481190Y-14119476D02*
X16500238Y-14119476D01*
X16519286Y-14129000D01*
X16528809Y-14138524D01*
X16538333Y-14157571D01*
X16547857Y-14195667D01*
X16547857Y-14243286D01*
X16538333Y-14281381D01*
X16528809Y-14300428D01*
X16519286Y-14309952D01*
X16500238Y-14319476D01*
X16481190Y-14319476D01*
X16462143Y-14309952D01*
X16452619Y-14300428D01*
X16443095Y-14281381D01*
X16433571Y-14243286D01*
X16433571Y-14195667D01*
X16443095Y-14157571D01*
X16452619Y-14138524D01*
X16462143Y-14129000D01*
X16481190Y-14119476D01*
X16719286Y-14186143D02*
X16719286Y-14319476D01*
X16671667Y-14109952D02*
X16624048Y-14252809D01*
X16747857Y-14252809D01*
X16805000Y-14119476D02*
X16928810Y-14119476D01*
X16862143Y-14195667D01*
X16890714Y-14195667D01*
X16909762Y-14205190D01*
X16919286Y-14214714D01*
X16928810Y-14233762D01*
X16928810Y-14281381D01*
X16919286Y-14300428D01*
X16909762Y-14309952D01*
X16890714Y-14319476D01*
X16833571Y-14319476D01*
X16814524Y-14309952D01*
X16805000Y-14300428D01*
X16995476Y-14119476D02*
X17119286Y-14119476D01*
X17052619Y-14195667D01*
X17081190Y-14195667D01*
X17100238Y-14205190D01*
X17109762Y-14214714D01*
X17119286Y-14233762D01*
X17119286Y-14281381D01*
X17109762Y-14300428D01*
X17100238Y-14309952D01*
X17081190Y-14319476D01*
X17024048Y-14319476D01*
X17005000Y-14309952D01*
X16995476Y-14300428D01*
X17195476Y-14119476D02*
X17195476Y-14157571D01*
X17271667Y-14119476D02*
X17271667Y-14157571D01*
X17566905Y-14395667D02*
X17557381Y-14386143D01*
X17538333Y-14357571D01*
X17528810Y-14338524D01*
X17519286Y-14309952D01*
X17509762Y-14262333D01*
X17509762Y-14224238D01*
X17519286Y-14176619D01*
X17528810Y-14148048D01*
X17538333Y-14129000D01*
X17557381Y-14100428D01*
X17566905Y-14090905D01*
X17747857Y-14319476D02*
X17633571Y-14319476D01*
X17690714Y-14319476D02*
X17690714Y-14119476D01*
X17671667Y-14148048D01*
X17652619Y-14167095D01*
X17633571Y-14176619D01*
X17871667Y-14119476D02*
X17890714Y-14119476D01*
X17909762Y-14129000D01*
X17919286Y-14138524D01*
X17928810Y-14157571D01*
X17938333Y-14195667D01*
X17938333Y-14243286D01*
X17928810Y-14281381D01*
X17919286Y-14300428D01*
X17909762Y-14309952D01*
X17890714Y-14319476D01*
X17871667Y-14319476D01*
X17852619Y-14309952D01*
X17843095Y-14300428D01*
X17833571Y-14281381D01*
X17824048Y-14243286D01*
X17824048Y-14195667D01*
X17833571Y-14157571D01*
X17843095Y-14138524D01*
X17852619Y-14129000D01*
X17871667Y-14119476D01*
X18176429Y-14319476D02*
X18176429Y-14119476D01*
X18262143Y-14319476D02*
X18262143Y-14214714D01*
X18252619Y-14195667D01*
X18233571Y-14186143D01*
X18205000Y-14186143D01*
X18185952Y-14195667D01*
X18176429Y-14205190D01*
X18385952Y-14319476D02*
X18366905Y-14309952D01*
X18357381Y-14300428D01*
X18347857Y-14281381D01*
X18347857Y-14224238D01*
X18357381Y-14205190D01*
X18366905Y-14195667D01*
X18385952Y-14186143D01*
X18414524Y-14186143D01*
X18433571Y-14195667D01*
X18443095Y-14205190D01*
X18452619Y-14224238D01*
X18452619Y-14281381D01*
X18443095Y-14300428D01*
X18433571Y-14309952D01*
X18414524Y-14319476D01*
X18385952Y-14319476D01*
X18566905Y-14319476D02*
X18547857Y-14309952D01*
X18538333Y-14290905D01*
X18538333Y-14119476D01*
X18719286Y-14309952D02*
X18700238Y-14319476D01*
X18662143Y-14319476D01*
X18643095Y-14309952D01*
X18633571Y-14290905D01*
X18633571Y-14214714D01*
X18643095Y-14195667D01*
X18662143Y-14186143D01*
X18700238Y-14186143D01*
X18719286Y-14195667D01*
X18728810Y-14214714D01*
X18728810Y-14233762D01*
X18633571Y-14252809D01*
X18805000Y-14309952D02*
X18824048Y-14319476D01*
X18862143Y-14319476D01*
X18881190Y-14309952D01*
X18890714Y-14290905D01*
X18890714Y-14281381D01*
X18881190Y-14262333D01*
X18862143Y-14252809D01*
X18833571Y-14252809D01*
X18814524Y-14243286D01*
X18805000Y-14224238D01*
X18805000Y-14214714D01*
X18814524Y-14195667D01*
X18833571Y-14186143D01*
X18862143Y-14186143D01*
X18881190Y-14195667D01*
X18957381Y-14395667D02*
X18966905Y-14386143D01*
X18985952Y-14357571D01*
X18995476Y-14338524D01*
X19005000Y-14309952D01*
X19014524Y-14262333D01*
X19014524Y-14224238D01*
X19005000Y-14176619D01*
X18995476Y-14148048D01*
X18985952Y-14129000D01*
X18966905Y-14100428D01*
X18957381Y-14090905D01*
D18*
X13875000Y-14433000D02*
X13995000Y-14553000D01*
X13995000Y-14433000D02*
X13875000Y-14553000D01*
X13977427Y-14535427D02*
X13977427Y-14450573D01*
X13892573Y-14450573D01*
X13892573Y-14535427D01*
X13977427Y-14535427D01*
D11*
X14357381Y-14583476D02*
X14243095Y-14583476D01*
X14300238Y-14583476D02*
X14300238Y-14383476D01*
X14281190Y-14412048D01*
X14262143Y-14431095D01*
X14243095Y-14440619D01*
X14443095Y-14564428D02*
X14452619Y-14573952D01*
X14443095Y-14583476D01*
X14433571Y-14573952D01*
X14443095Y-14564428D01*
X14443095Y-14583476D01*
X14528809Y-14402524D02*
X14538333Y-14393000D01*
X14557381Y-14383476D01*
X14605000Y-14383476D01*
X14624048Y-14393000D01*
X14633571Y-14402524D01*
X14643095Y-14421571D01*
X14643095Y-14440619D01*
X14633571Y-14469190D01*
X14519286Y-14583476D01*
X14643095Y-14583476D01*
X14766905Y-14383476D02*
X14785952Y-14383476D01*
X14805000Y-14393000D01*
X14814524Y-14402524D01*
X14824048Y-14421571D01*
X14833571Y-14459667D01*
X14833571Y-14507286D01*
X14824048Y-14545381D01*
X14814524Y-14564428D01*
X14805000Y-14573952D01*
X14785952Y-14583476D01*
X14766905Y-14583476D01*
X14747857Y-14573952D01*
X14738333Y-14564428D01*
X14728809Y-14545381D01*
X14719286Y-14507286D01*
X14719286Y-14459667D01*
X14728809Y-14421571D01*
X14738333Y-14402524D01*
X14747857Y-14393000D01*
X14766905Y-14383476D01*
X14957381Y-14383476D02*
X14976428Y-14383476D01*
X14995476Y-14393000D01*
X15005000Y-14402524D01*
X15014524Y-14421571D01*
X15024048Y-14459667D01*
X15024048Y-14507286D01*
X15014524Y-14545381D01*
X15005000Y-14564428D01*
X14995476Y-14573952D01*
X14976428Y-14583476D01*
X14957381Y-14583476D01*
X14938333Y-14573952D01*
X14928809Y-14564428D01*
X14919286Y-14545381D01*
X14909762Y-14507286D01*
X14909762Y-14459667D01*
X14919286Y-14421571D01*
X14928809Y-14402524D01*
X14938333Y-14393000D01*
X14957381Y-14383476D01*
X15109762Y-14583476D02*
X15109762Y-14450143D01*
X15109762Y-14469190D02*
X15119286Y-14459667D01*
X15138333Y-14450143D01*
X15166905Y-14450143D01*
X15185952Y-14459667D01*
X15195476Y-14478714D01*
X15195476Y-14583476D01*
X15195476Y-14478714D02*
X15205000Y-14459667D01*
X15224048Y-14450143D01*
X15252619Y-14450143D01*
X15271667Y-14459667D01*
X15281190Y-14478714D01*
X15281190Y-14583476D01*
X15376428Y-14583476D02*
X15376428Y-14450143D01*
X15376428Y-14469190D02*
X15385952Y-14459667D01*
X15405000Y-14450143D01*
X15433571Y-14450143D01*
X15452619Y-14459667D01*
X15462143Y-14478714D01*
X15462143Y-14583476D01*
X15462143Y-14478714D02*
X15471667Y-14459667D01*
X15490714Y-14450143D01*
X15519286Y-14450143D01*
X15538333Y-14459667D01*
X15547857Y-14478714D01*
X15547857Y-14583476D01*
X15938333Y-14373952D02*
X15766905Y-14631095D01*
X16195476Y-14383476D02*
X16214524Y-14383476D01*
X16233571Y-14393000D01*
X16243095Y-14402524D01*
X16252619Y-14421571D01*
X16262143Y-14459667D01*
X16262143Y-14507286D01*
X16252619Y-14545381D01*
X16243095Y-14564428D01*
X16233571Y-14573952D01*
X16214524Y-14583476D01*
X16195476Y-14583476D01*
X16176428Y-14573952D01*
X16166905Y-14564428D01*
X16157381Y-14545381D01*
X16147857Y-14507286D01*
X16147857Y-14459667D01*
X16157381Y-14421571D01*
X16166905Y-14402524D01*
X16176428Y-14393000D01*
X16195476Y-14383476D01*
X16347857Y-14564428D02*
X16357381Y-14573952D01*
X16347857Y-14583476D01*
X16338333Y-14573952D01*
X16347857Y-14564428D01*
X16347857Y-14583476D01*
X16481190Y-14383476D02*
X16500238Y-14383476D01*
X16519286Y-14393000D01*
X16528809Y-14402524D01*
X16538333Y-14421571D01*
X16547857Y-14459667D01*
X16547857Y-14507286D01*
X16538333Y-14545381D01*
X16528809Y-14564428D01*
X16519286Y-14573952D01*
X16500238Y-14583476D01*
X16481190Y-14583476D01*
X16462143Y-14573952D01*
X16452619Y-14564428D01*
X16443095Y-14545381D01*
X16433571Y-14507286D01*
X16433571Y-14459667D01*
X16443095Y-14421571D01*
X16452619Y-14402524D01*
X16462143Y-14393000D01*
X16481190Y-14383476D01*
X16719286Y-14450143D02*
X16719286Y-14583476D01*
X16671667Y-14373952D02*
X16624048Y-14516809D01*
X16747857Y-14516809D01*
X16805000Y-14383476D02*
X16938333Y-14383476D01*
X16852619Y-14583476D01*
X17005000Y-14402524D02*
X17014524Y-14393000D01*
X17033571Y-14383476D01*
X17081190Y-14383476D01*
X17100238Y-14393000D01*
X17109762Y-14402524D01*
X17119286Y-14421571D01*
X17119286Y-14440619D01*
X17109762Y-14469190D01*
X16995476Y-14583476D01*
X17119286Y-14583476D01*
X17195476Y-14383476D02*
X17195476Y-14421571D01*
X17271667Y-14383476D02*
X17271667Y-14421571D01*
X17566905Y-14659667D02*
X17557381Y-14650143D01*
X17538333Y-14621571D01*
X17528810Y-14602524D01*
X17519286Y-14573952D01*
X17509762Y-14526333D01*
X17509762Y-14488238D01*
X17519286Y-14440619D01*
X17528810Y-14412048D01*
X17538333Y-14393000D01*
X17557381Y-14364428D01*
X17566905Y-14354905D01*
X17671667Y-14469190D02*
X17652619Y-14459667D01*
X17643095Y-14450143D01*
X17633571Y-14431095D01*
X17633571Y-14421571D01*
X17643095Y-14402524D01*
X17652619Y-14393000D01*
X17671667Y-14383476D01*
X17709762Y-14383476D01*
X17728810Y-14393000D01*
X17738333Y-14402524D01*
X17747857Y-14421571D01*
X17747857Y-14431095D01*
X17738333Y-14450143D01*
X17728810Y-14459667D01*
X17709762Y-14469190D01*
X17671667Y-14469190D01*
X17652619Y-14478714D01*
X17643095Y-14488238D01*
X17633571Y-14507286D01*
X17633571Y-14545381D01*
X17643095Y-14564428D01*
X17652619Y-14573952D01*
X17671667Y-14583476D01*
X17709762Y-14583476D01*
X17728810Y-14573952D01*
X17738333Y-14564428D01*
X17747857Y-14545381D01*
X17747857Y-14507286D01*
X17738333Y-14488238D01*
X17728810Y-14478714D01*
X17709762Y-14469190D01*
X17985952Y-14583476D02*
X17985952Y-14383476D01*
X18071667Y-14583476D02*
X18071667Y-14478714D01*
X18062143Y-14459667D01*
X18043095Y-14450143D01*
X18014524Y-14450143D01*
X17995476Y-14459667D01*
X17985952Y-14469190D01*
X18195476Y-14583476D02*
X18176429Y-14573952D01*
X18166905Y-14564428D01*
X18157381Y-14545381D01*
X18157381Y-14488238D01*
X18166905Y-14469190D01*
X18176429Y-14459667D01*
X18195476Y-14450143D01*
X18224048Y-14450143D01*
X18243095Y-14459667D01*
X18252619Y-14469190D01*
X18262143Y-14488238D01*
X18262143Y-14545381D01*
X18252619Y-14564428D01*
X18243095Y-14573952D01*
X18224048Y-14583476D01*
X18195476Y-14583476D01*
X18376429Y-14583476D02*
X18357381Y-14573952D01*
X18347857Y-14554905D01*
X18347857Y-14383476D01*
X18528810Y-14573952D02*
X18509762Y-14583476D01*
X18471667Y-14583476D01*
X18452619Y-14573952D01*
X18443095Y-14554905D01*
X18443095Y-14478714D01*
X18452619Y-14459667D01*
X18471667Y-14450143D01*
X18509762Y-14450143D01*
X18528810Y-14459667D01*
X18538333Y-14478714D01*
X18538333Y-14497762D01*
X18443095Y-14516809D01*
X18614524Y-14573952D02*
X18633571Y-14583476D01*
X18671667Y-14583476D01*
X18690714Y-14573952D01*
X18700238Y-14554905D01*
X18700238Y-14545381D01*
X18690714Y-14526333D01*
X18671667Y-14516809D01*
X18643095Y-14516809D01*
X18624048Y-14507286D01*
X18614524Y-14488238D01*
X18614524Y-14478714D01*
X18624048Y-14459667D01*
X18643095Y-14450143D01*
X18671667Y-14450143D01*
X18690714Y-14459667D01*
X18766905Y-14659667D02*
X18776429Y-14650143D01*
X18795476Y-14621571D01*
X18805000Y-14602524D01*
X18814524Y-14573952D01*
X18824048Y-14526333D01*
X18824048Y-14488238D01*
X18814524Y-14440619D01*
X18805000Y-14412048D01*
X18795476Y-14393000D01*
X18776429Y-14364428D01*
X18766905Y-14354905D01*
X13795000Y-14657000D02*
X13995000Y-14857000D01*
X13995000Y-14657000D02*
X13795000Y-14857000D01*
X13895000Y-14857000D02*
X13995000Y-14757000D01*
X13895000Y-14657000D01*
X13795000Y-14757000D01*
X13895000Y-14857000D01*
X14243095Y-14666524D02*
X14252619Y-14657000D01*
X14271667Y-14647476D01*
X14319286Y-14647476D01*
X14338333Y-14657000D01*
X14347857Y-14666524D01*
X14357381Y-14685571D01*
X14357381Y-14704619D01*
X14347857Y-14733190D01*
X14233571Y-14847476D01*
X14357381Y-14847476D01*
X14443095Y-14828428D02*
X14452619Y-14837952D01*
X14443095Y-14847476D01*
X14433571Y-14837952D01*
X14443095Y-14828428D01*
X14443095Y-14847476D01*
X14576428Y-14647476D02*
X14595476Y-14647476D01*
X14614524Y-14657000D01*
X14624048Y-14666524D01*
X14633571Y-14685571D01*
X14643095Y-14723667D01*
X14643095Y-14771286D01*
X14633571Y-14809381D01*
X14624048Y-14828428D01*
X14614524Y-14837952D01*
X14595476Y-14847476D01*
X14576428Y-14847476D01*
X14557381Y-14837952D01*
X14547857Y-14828428D01*
X14538333Y-14809381D01*
X14528809Y-14771286D01*
X14528809Y-14723667D01*
X14538333Y-14685571D01*
X14547857Y-14666524D01*
X14557381Y-14657000D01*
X14576428Y-14647476D01*
X14766905Y-14647476D02*
X14785952Y-14647476D01*
X14805000Y-14657000D01*
X14814524Y-14666524D01*
X14824048Y-14685571D01*
X14833571Y-14723667D01*
X14833571Y-14771286D01*
X14824048Y-14809381D01*
X14814524Y-14828428D01*
X14805000Y-14837952D01*
X14785952Y-14847476D01*
X14766905Y-14847476D01*
X14747857Y-14837952D01*
X14738333Y-14828428D01*
X14728809Y-14809381D01*
X14719286Y-14771286D01*
X14719286Y-14723667D01*
X14728809Y-14685571D01*
X14738333Y-14666524D01*
X14747857Y-14657000D01*
X14766905Y-14647476D01*
X14957381Y-14647476D02*
X14976428Y-14647476D01*
X14995476Y-14657000D01*
X15005000Y-14666524D01*
X15014524Y-14685571D01*
X15024048Y-14723667D01*
X15024048Y-14771286D01*
X15014524Y-14809381D01*
X15005000Y-14828428D01*
X14995476Y-14837952D01*
X14976428Y-14847476D01*
X14957381Y-14847476D01*
X14938333Y-14837952D01*
X14928809Y-14828428D01*
X14919286Y-14809381D01*
X14909762Y-14771286D01*
X14909762Y-14723667D01*
X14919286Y-14685571D01*
X14928809Y-14666524D01*
X14938333Y-14657000D01*
X14957381Y-14647476D01*
X15109762Y-14847476D02*
X15109762Y-14714143D01*
X15109762Y-14733190D02*
X15119286Y-14723667D01*
X15138333Y-14714143D01*
X15166905Y-14714143D01*
X15185952Y-14723667D01*
X15195476Y-14742714D01*
X15195476Y-14847476D01*
X15195476Y-14742714D02*
X15205000Y-14723667D01*
X15224048Y-14714143D01*
X15252619Y-14714143D01*
X15271667Y-14723667D01*
X15281190Y-14742714D01*
X15281190Y-14847476D01*
X15376428Y-14847476D02*
X15376428Y-14714143D01*
X15376428Y-14733190D02*
X15385952Y-14723667D01*
X15405000Y-14714143D01*
X15433571Y-14714143D01*
X15452619Y-14723667D01*
X15462143Y-14742714D01*
X15462143Y-14847476D01*
X15462143Y-14742714D02*
X15471667Y-14723667D01*
X15490714Y-14714143D01*
X15519286Y-14714143D01*
X15538333Y-14723667D01*
X15547857Y-14742714D01*
X15547857Y-14847476D01*
X15938333Y-14637952D02*
X15766905Y-14895095D01*
X16195476Y-14647476D02*
X16214524Y-14647476D01*
X16233571Y-14657000D01*
X16243095Y-14666524D01*
X16252619Y-14685571D01*
X16262143Y-14723667D01*
X16262143Y-14771286D01*
X16252619Y-14809381D01*
X16243095Y-14828428D01*
X16233571Y-14837952D01*
X16214524Y-14847476D01*
X16195476Y-14847476D01*
X16176428Y-14837952D01*
X16166905Y-14828428D01*
X16157381Y-14809381D01*
X16147857Y-14771286D01*
X16147857Y-14723667D01*
X16157381Y-14685571D01*
X16166905Y-14666524D01*
X16176428Y-14657000D01*
X16195476Y-14647476D01*
X16347857Y-14828428D02*
X16357381Y-14837952D01*
X16347857Y-14847476D01*
X16338333Y-14837952D01*
X16347857Y-14828428D01*
X16347857Y-14847476D01*
X16481190Y-14647476D02*
X16500238Y-14647476D01*
X16519286Y-14657000D01*
X16528809Y-14666524D01*
X16538333Y-14685571D01*
X16547857Y-14723667D01*
X16547857Y-14771286D01*
X16538333Y-14809381D01*
X16528809Y-14828428D01*
X16519286Y-14837952D01*
X16500238Y-14847476D01*
X16481190Y-14847476D01*
X16462143Y-14837952D01*
X16452619Y-14828428D01*
X16443095Y-14809381D01*
X16433571Y-14771286D01*
X16433571Y-14723667D01*
X16443095Y-14685571D01*
X16452619Y-14666524D01*
X16462143Y-14657000D01*
X16481190Y-14647476D01*
X16614524Y-14647476D02*
X16747857Y-14647476D01*
X16662143Y-14847476D01*
X16852619Y-14733190D02*
X16833571Y-14723667D01*
X16824048Y-14714143D01*
X16814524Y-14695095D01*
X16814524Y-14685571D01*
X16824048Y-14666524D01*
X16833571Y-14657000D01*
X16852619Y-14647476D01*
X16890714Y-14647476D01*
X16909762Y-14657000D01*
X16919286Y-14666524D01*
X16928810Y-14685571D01*
X16928810Y-14695095D01*
X16919286Y-14714143D01*
X16909762Y-14723667D01*
X16890714Y-14733190D01*
X16852619Y-14733190D01*
X16833571Y-14742714D01*
X16824048Y-14752238D01*
X16814524Y-14771286D01*
X16814524Y-14809381D01*
X16824048Y-14828428D01*
X16833571Y-14837952D01*
X16852619Y-14847476D01*
X16890714Y-14847476D01*
X16909762Y-14837952D01*
X16919286Y-14828428D01*
X16928810Y-14809381D01*
X16928810Y-14771286D01*
X16919286Y-14752238D01*
X16909762Y-14742714D01*
X16890714Y-14733190D01*
X16995476Y-14647476D02*
X17128810Y-14647476D01*
X17043095Y-14847476D01*
X17195476Y-14647476D02*
X17195476Y-14685571D01*
X17271667Y-14647476D02*
X17271667Y-14685571D01*
X17566905Y-14923667D02*
X17557381Y-14914143D01*
X17538333Y-14885571D01*
X17528810Y-14866524D01*
X17519286Y-14837952D01*
X17509762Y-14790333D01*
X17509762Y-14752238D01*
X17519286Y-14704619D01*
X17528810Y-14676048D01*
X17538333Y-14657000D01*
X17557381Y-14628428D01*
X17566905Y-14618905D01*
X17728810Y-14714143D02*
X17728810Y-14847476D01*
X17681190Y-14637952D02*
X17633571Y-14780809D01*
X17757381Y-14780809D01*
X17985952Y-14847476D02*
X17985952Y-14647476D01*
X18071667Y-14847476D02*
X18071667Y-14742714D01*
X18062143Y-14723667D01*
X18043095Y-14714143D01*
X18014524Y-14714143D01*
X17995476Y-14723667D01*
X17985952Y-14733190D01*
X18195476Y-14847476D02*
X18176429Y-14837952D01*
X18166905Y-14828428D01*
X18157381Y-14809381D01*
X18157381Y-14752238D01*
X18166905Y-14733190D01*
X18176429Y-14723667D01*
X18195476Y-14714143D01*
X18224048Y-14714143D01*
X18243095Y-14723667D01*
X18252619Y-14733190D01*
X18262143Y-14752238D01*
X18262143Y-14809381D01*
X18252619Y-14828428D01*
X18243095Y-14837952D01*
X18224048Y-14847476D01*
X18195476Y-14847476D01*
X18376429Y-14847476D02*
X18357381Y-14837952D01*
X18347857Y-14818905D01*
X18347857Y-14647476D01*
X18528810Y-14837952D02*
X18509762Y-14847476D01*
X18471667Y-14847476D01*
X18452619Y-14837952D01*
X18443095Y-14818905D01*
X18443095Y-14742714D01*
X18452619Y-14723667D01*
X18471667Y-14714143D01*
X18509762Y-14714143D01*
X18528810Y-14723667D01*
X18538333Y-14742714D01*
X18538333Y-14761762D01*
X18443095Y-14780809D01*
X18614524Y-14837952D02*
X18633571Y-14847476D01*
X18671667Y-14847476D01*
X18690714Y-14837952D01*
X18700238Y-14818905D01*
X18700238Y-14809381D01*
X18690714Y-14790333D01*
X18671667Y-14780809D01*
X18643095Y-14780809D01*
X18624048Y-14771286D01*
X18614524Y-14752238D01*
X18614524Y-14742714D01*
X18624048Y-14723667D01*
X18643095Y-14714143D01*
X18671667Y-14714143D01*
X18690714Y-14723667D01*
X18766905Y-14923667D02*
X18776429Y-14914143D01*
X18795476Y-14885571D01*
X18805000Y-14866524D01*
X18814524Y-14837952D01*
X18824048Y-14790333D01*
X18824048Y-14752238D01*
X18814524Y-14704619D01*
X18805000Y-14676048D01*
X18795476Y-14657000D01*
X18776429Y-14628428D01*
X18766905Y-14618905D01*
X13895000Y-14977000D02*
X13895000Y-15177000D01*
X13795000Y-15077000D02*
X13995000Y-15077000D01*
X13995000Y-15077000D02*
G75*
G03*
X13995000Y-15077000I-100000J0D01*
G01*
X14233571Y-14967476D02*
X14357381Y-14967476D01*
X14290714Y-15043667D01*
X14319286Y-15043667D01*
X14338333Y-15053190D01*
X14347857Y-15062714D01*
X14357381Y-15081762D01*
X14357381Y-15129381D01*
X14347857Y-15148428D01*
X14338333Y-15157952D01*
X14319286Y-15167476D01*
X14262143Y-15167476D01*
X14243095Y-15157952D01*
X14233571Y-15148428D01*
X14443095Y-15148428D02*
X14452619Y-15157952D01*
X14443095Y-15167476D01*
X14433571Y-15157952D01*
X14443095Y-15148428D01*
X14443095Y-15167476D01*
X14528809Y-14986524D02*
X14538333Y-14977000D01*
X14557381Y-14967476D01*
X14605000Y-14967476D01*
X14624048Y-14977000D01*
X14633571Y-14986524D01*
X14643095Y-15005571D01*
X14643095Y-15024619D01*
X14633571Y-15053190D01*
X14519286Y-15167476D01*
X14643095Y-15167476D01*
X14766905Y-14967476D02*
X14785952Y-14967476D01*
X14805000Y-14977000D01*
X14814524Y-14986524D01*
X14824048Y-15005571D01*
X14833571Y-15043667D01*
X14833571Y-15091286D01*
X14824048Y-15129381D01*
X14814524Y-15148428D01*
X14805000Y-15157952D01*
X14785952Y-15167476D01*
X14766905Y-15167476D01*
X14747857Y-15157952D01*
X14738333Y-15148428D01*
X14728809Y-15129381D01*
X14719286Y-15091286D01*
X14719286Y-15043667D01*
X14728809Y-15005571D01*
X14738333Y-14986524D01*
X14747857Y-14977000D01*
X14766905Y-14967476D01*
X14957381Y-14967476D02*
X14976428Y-14967476D01*
X14995476Y-14977000D01*
X15005000Y-14986524D01*
X15014524Y-15005571D01*
X15024048Y-15043667D01*
X15024048Y-15091286D01*
X15014524Y-15129381D01*
X15005000Y-15148428D01*
X14995476Y-15157952D01*
X14976428Y-15167476D01*
X14957381Y-15167476D01*
X14938333Y-15157952D01*
X14928809Y-15148428D01*
X14919286Y-15129381D01*
X14909762Y-15091286D01*
X14909762Y-15043667D01*
X14919286Y-15005571D01*
X14928809Y-14986524D01*
X14938333Y-14977000D01*
X14957381Y-14967476D01*
X15109762Y-15167476D02*
X15109762Y-15034143D01*
X15109762Y-15053190D02*
X15119286Y-15043667D01*
X15138333Y-15034143D01*
X15166905Y-15034143D01*
X15185952Y-15043667D01*
X15195476Y-15062714D01*
X15195476Y-15167476D01*
X15195476Y-15062714D02*
X15205000Y-15043667D01*
X15224048Y-15034143D01*
X15252619Y-15034143D01*
X15271667Y-15043667D01*
X15281190Y-15062714D01*
X15281190Y-15167476D01*
X15376428Y-15167476D02*
X15376428Y-15034143D01*
X15376428Y-15053190D02*
X15385952Y-15043667D01*
X15405000Y-15034143D01*
X15433571Y-15034143D01*
X15452619Y-15043667D01*
X15462143Y-15062714D01*
X15462143Y-15167476D01*
X15462143Y-15062714D02*
X15471667Y-15043667D01*
X15490714Y-15034143D01*
X15519286Y-15034143D01*
X15538333Y-15043667D01*
X15547857Y-15062714D01*
X15547857Y-15167476D01*
X15938333Y-14957952D02*
X15766905Y-15215095D01*
X16195476Y-14967476D02*
X16214524Y-14967476D01*
X16233571Y-14977000D01*
X16243095Y-14986524D01*
X16252619Y-15005571D01*
X16262143Y-15043667D01*
X16262143Y-15091286D01*
X16252619Y-15129381D01*
X16243095Y-15148428D01*
X16233571Y-15157952D01*
X16214524Y-15167476D01*
X16195476Y-15167476D01*
X16176428Y-15157952D01*
X16166905Y-15148428D01*
X16157381Y-15129381D01*
X16147857Y-15091286D01*
X16147857Y-15043667D01*
X16157381Y-15005571D01*
X16166905Y-14986524D01*
X16176428Y-14977000D01*
X16195476Y-14967476D01*
X16347857Y-15148428D02*
X16357381Y-15157952D01*
X16347857Y-15167476D01*
X16338333Y-15157952D01*
X16347857Y-15148428D01*
X16347857Y-15167476D01*
X16547857Y-15167476D02*
X16433571Y-15167476D01*
X16490714Y-15167476D02*
X16490714Y-14967476D01*
X16471667Y-14996048D01*
X16452619Y-15015095D01*
X16433571Y-15024619D01*
X16624048Y-14986524D02*
X16633571Y-14977000D01*
X16652619Y-14967476D01*
X16700238Y-14967476D01*
X16719286Y-14977000D01*
X16728809Y-14986524D01*
X16738333Y-15005571D01*
X16738333Y-15024619D01*
X16728809Y-15053190D01*
X16614524Y-15167476D01*
X16738333Y-15167476D01*
X16909762Y-14967476D02*
X16871667Y-14967476D01*
X16852619Y-14977000D01*
X16843095Y-14986524D01*
X16824048Y-15015095D01*
X16814524Y-15053190D01*
X16814524Y-15129381D01*
X16824048Y-15148428D01*
X16833571Y-15157952D01*
X16852619Y-15167476D01*
X16890714Y-15167476D01*
X16909762Y-15157952D01*
X16919286Y-15148428D01*
X16928810Y-15129381D01*
X16928810Y-15081762D01*
X16919286Y-15062714D01*
X16909762Y-15053190D01*
X16890714Y-15043667D01*
X16852619Y-15043667D01*
X16833571Y-15053190D01*
X16824048Y-15062714D01*
X16814524Y-15081762D01*
X17052619Y-14967476D02*
X17071667Y-14967476D01*
X17090714Y-14977000D01*
X17100238Y-14986524D01*
X17109762Y-15005571D01*
X17119286Y-15043667D01*
X17119286Y-15091286D01*
X17109762Y-15129381D01*
X17100238Y-15148428D01*
X17090714Y-15157952D01*
X17071667Y-15167476D01*
X17052619Y-15167476D01*
X17033571Y-15157952D01*
X17024048Y-15148428D01*
X17014524Y-15129381D01*
X17005000Y-15091286D01*
X17005000Y-15043667D01*
X17014524Y-15005571D01*
X17024048Y-14986524D01*
X17033571Y-14977000D01*
X17052619Y-14967476D01*
X17195476Y-14967476D02*
X17195476Y-15005571D01*
X17271667Y-14967476D02*
X17271667Y-15005571D01*
X17566905Y-15243667D02*
X17557381Y-15234143D01*
X17538333Y-15205571D01*
X17528810Y-15186524D01*
X17519286Y-15157952D01*
X17509762Y-15110333D01*
X17509762Y-15072238D01*
X17519286Y-15024619D01*
X17528810Y-14996048D01*
X17538333Y-14977000D01*
X17557381Y-14948428D01*
X17566905Y-14938905D01*
X17747857Y-15167476D02*
X17633571Y-15167476D01*
X17690714Y-15167476D02*
X17690714Y-14967476D01*
X17671667Y-14996048D01*
X17652619Y-15015095D01*
X17633571Y-15024619D01*
X17985952Y-15167476D02*
X17985952Y-14967476D01*
X18071667Y-15167476D02*
X18071667Y-15062714D01*
X18062143Y-15043667D01*
X18043095Y-15034143D01*
X18014524Y-15034143D01*
X17995476Y-15043667D01*
X17985952Y-15053190D01*
X18195476Y-15167476D02*
X18176429Y-15157952D01*
X18166905Y-15148428D01*
X18157381Y-15129381D01*
X18157381Y-15072238D01*
X18166905Y-15053190D01*
X18176429Y-15043667D01*
X18195476Y-15034143D01*
X18224048Y-15034143D01*
X18243095Y-15043667D01*
X18252619Y-15053190D01*
X18262143Y-15072238D01*
X18262143Y-15129381D01*
X18252619Y-15148428D01*
X18243095Y-15157952D01*
X18224048Y-15167476D01*
X18195476Y-15167476D01*
X18376429Y-15167476D02*
X18357381Y-15157952D01*
X18347857Y-15138905D01*
X18347857Y-14967476D01*
X18528810Y-15157952D02*
X18509762Y-15167476D01*
X18471667Y-15167476D01*
X18452619Y-15157952D01*
X18443095Y-15138905D01*
X18443095Y-15062714D01*
X18452619Y-15043667D01*
X18471667Y-15034143D01*
X18509762Y-15034143D01*
X18528810Y-15043667D01*
X18538333Y-15062714D01*
X18538333Y-15081762D01*
X18443095Y-15100809D01*
X18605000Y-15243667D02*
X18614524Y-15234143D01*
X18633571Y-15205571D01*
X18643095Y-15186524D01*
X18652619Y-15157952D01*
X18662143Y-15110333D01*
X18662143Y-15072238D01*
X18652619Y-15024619D01*
X18643095Y-14996048D01*
X18633571Y-14977000D01*
X18614524Y-14948428D01*
X18605000Y-14938905D01*
X13965711Y-15467711D02*
X13965711Y-15326289D01*
X13824289Y-15326289D01*
X13824289Y-15467711D01*
X13965711Y-15467711D01*
X13995000Y-15397000D02*
G75*
G03*
X13995000Y-15397000I-100000J0D01*
G01*
X14338333Y-15354143D02*
X14338333Y-15487476D01*
X14290714Y-15277952D02*
X14243095Y-15420809D01*
X14366905Y-15420809D01*
X14443095Y-15468428D02*
X14452619Y-15477952D01*
X14443095Y-15487476D01*
X14433571Y-15477952D01*
X14443095Y-15468428D01*
X14443095Y-15487476D01*
X14528809Y-15306524D02*
X14538333Y-15297000D01*
X14557381Y-15287476D01*
X14605000Y-15287476D01*
X14624048Y-15297000D01*
X14633571Y-15306524D01*
X14643095Y-15325571D01*
X14643095Y-15344619D01*
X14633571Y-15373190D01*
X14519286Y-15487476D01*
X14643095Y-15487476D01*
X14766905Y-15287476D02*
X14785952Y-15287476D01*
X14805000Y-15297000D01*
X14814524Y-15306524D01*
X14824048Y-15325571D01*
X14833571Y-15363667D01*
X14833571Y-15411286D01*
X14824048Y-15449381D01*
X14814524Y-15468428D01*
X14805000Y-15477952D01*
X14785952Y-15487476D01*
X14766905Y-15487476D01*
X14747857Y-15477952D01*
X14738333Y-15468428D01*
X14728809Y-15449381D01*
X14719286Y-15411286D01*
X14719286Y-15363667D01*
X14728809Y-15325571D01*
X14738333Y-15306524D01*
X14747857Y-15297000D01*
X14766905Y-15287476D01*
X14957381Y-15287476D02*
X14976428Y-15287476D01*
X14995476Y-15297000D01*
X15005000Y-15306524D01*
X15014524Y-15325571D01*
X15024048Y-15363667D01*
X15024048Y-15411286D01*
X15014524Y-15449381D01*
X15005000Y-15468428D01*
X14995476Y-15477952D01*
X14976428Y-15487476D01*
X14957381Y-15487476D01*
X14938333Y-15477952D01*
X14928809Y-15468428D01*
X14919286Y-15449381D01*
X14909762Y-15411286D01*
X14909762Y-15363667D01*
X14919286Y-15325571D01*
X14928809Y-15306524D01*
X14938333Y-15297000D01*
X14957381Y-15287476D01*
X15109762Y-15487476D02*
X15109762Y-15354143D01*
X15109762Y-15373190D02*
X15119286Y-15363667D01*
X15138333Y-15354143D01*
X15166905Y-15354143D01*
X15185952Y-15363667D01*
X15195476Y-15382714D01*
X15195476Y-15487476D01*
X15195476Y-15382714D02*
X15205000Y-15363667D01*
X15224048Y-15354143D01*
X15252619Y-15354143D01*
X15271667Y-15363667D01*
X15281190Y-15382714D01*
X15281190Y-15487476D01*
X15376428Y-15487476D02*
X15376428Y-15354143D01*
X15376428Y-15373190D02*
X15385952Y-15363667D01*
X15405000Y-15354143D01*
X15433571Y-15354143D01*
X15452619Y-15363667D01*
X15462143Y-15382714D01*
X15462143Y-15487476D01*
X15462143Y-15382714D02*
X15471667Y-15363667D01*
X15490714Y-15354143D01*
X15519286Y-15354143D01*
X15538333Y-15363667D01*
X15547857Y-15382714D01*
X15547857Y-15487476D01*
X15938333Y-15277952D02*
X15766905Y-15535095D01*
X16195476Y-15287476D02*
X16214524Y-15287476D01*
X16233571Y-15297000D01*
X16243095Y-15306524D01*
X16252619Y-15325571D01*
X16262143Y-15363667D01*
X16262143Y-15411286D01*
X16252619Y-15449381D01*
X16243095Y-15468428D01*
X16233571Y-15477952D01*
X16214524Y-15487476D01*
X16195476Y-15487476D01*
X16176428Y-15477952D01*
X16166905Y-15468428D01*
X16157381Y-15449381D01*
X16147857Y-15411286D01*
X16147857Y-15363667D01*
X16157381Y-15325571D01*
X16166905Y-15306524D01*
X16176428Y-15297000D01*
X16195476Y-15287476D01*
X16347857Y-15468428D02*
X16357381Y-15477952D01*
X16347857Y-15487476D01*
X16338333Y-15477952D01*
X16347857Y-15468428D01*
X16347857Y-15487476D01*
X16547857Y-15487476D02*
X16433571Y-15487476D01*
X16490714Y-15487476D02*
X16490714Y-15287476D01*
X16471667Y-15316048D01*
X16452619Y-15335095D01*
X16433571Y-15344619D01*
X16719286Y-15287476D02*
X16681190Y-15287476D01*
X16662143Y-15297000D01*
X16652619Y-15306524D01*
X16633571Y-15335095D01*
X16624048Y-15373190D01*
X16624048Y-15449381D01*
X16633571Y-15468428D01*
X16643095Y-15477952D01*
X16662143Y-15487476D01*
X16700238Y-15487476D01*
X16719286Y-15477952D01*
X16728809Y-15468428D01*
X16738333Y-15449381D01*
X16738333Y-15401762D01*
X16728809Y-15382714D01*
X16719286Y-15373190D01*
X16700238Y-15363667D01*
X16662143Y-15363667D01*
X16643095Y-15373190D01*
X16633571Y-15382714D01*
X16624048Y-15401762D01*
X16919286Y-15287476D02*
X16824048Y-15287476D01*
X16814524Y-15382714D01*
X16824048Y-15373190D01*
X16843095Y-15363667D01*
X16890714Y-15363667D01*
X16909762Y-15373190D01*
X16919286Y-15382714D01*
X16928810Y-15401762D01*
X16928810Y-15449381D01*
X16919286Y-15468428D01*
X16909762Y-15477952D01*
X16890714Y-15487476D01*
X16843095Y-15487476D01*
X16824048Y-15477952D01*
X16814524Y-15468428D01*
X17100238Y-15354143D02*
X17100238Y-15487476D01*
X17052619Y-15277952D02*
X17005000Y-15420809D01*
X17128810Y-15420809D01*
X17195476Y-15287476D02*
X17195476Y-15325571D01*
X17271667Y-15287476D02*
X17271667Y-15325571D01*
X17566905Y-15563667D02*
X17557381Y-15554143D01*
X17538333Y-15525571D01*
X17528810Y-15506524D01*
X17519286Y-15477952D01*
X17509762Y-15430333D01*
X17509762Y-15392238D01*
X17519286Y-15344619D01*
X17528810Y-15316048D01*
X17538333Y-15297000D01*
X17557381Y-15268428D01*
X17566905Y-15258905D01*
X17747857Y-15487476D02*
X17633571Y-15487476D01*
X17690714Y-15487476D02*
X17690714Y-15287476D01*
X17671667Y-15316048D01*
X17652619Y-15335095D01*
X17633571Y-15344619D01*
X17985952Y-15487476D02*
X17985952Y-15287476D01*
X18071667Y-15487476D02*
X18071667Y-15382714D01*
X18062143Y-15363667D01*
X18043095Y-15354143D01*
X18014524Y-15354143D01*
X17995476Y-15363667D01*
X17985952Y-15373190D01*
X18195476Y-15487476D02*
X18176429Y-15477952D01*
X18166905Y-15468428D01*
X18157381Y-15449381D01*
X18157381Y-15392238D01*
X18166905Y-15373190D01*
X18176429Y-15363667D01*
X18195476Y-15354143D01*
X18224048Y-15354143D01*
X18243095Y-15363667D01*
X18252619Y-15373190D01*
X18262143Y-15392238D01*
X18262143Y-15449381D01*
X18252619Y-15468428D01*
X18243095Y-15477952D01*
X18224048Y-15487476D01*
X18195476Y-15487476D01*
X18376429Y-15487476D02*
X18357381Y-15477952D01*
X18347857Y-15458905D01*
X18347857Y-15287476D01*
X18528810Y-15477952D02*
X18509762Y-15487476D01*
X18471667Y-15487476D01*
X18452619Y-15477952D01*
X18443095Y-15458905D01*
X18443095Y-15382714D01*
X18452619Y-15363667D01*
X18471667Y-15354143D01*
X18509762Y-15354143D01*
X18528810Y-15363667D01*
X18538333Y-15382714D01*
X18538333Y-15401762D01*
X18443095Y-15420809D01*
X18605000Y-15563667D02*
X18614524Y-15554143D01*
X18633571Y-15525571D01*
X18643095Y-15506524D01*
X18652619Y-15477952D01*
X18662143Y-15430333D01*
X18662143Y-15392238D01*
X18652619Y-15344619D01*
X18643095Y-15316048D01*
X18633571Y-15297000D01*
X18614524Y-15268428D01*
X18605000Y-15258905D01*
M02*
