G04 #@! TF.GenerationSoftware,KiCad,Pcbnew,6.0.11+dfsg-1*
G04 #@! TF.ProjectId,project,70726f6a-6563-4742-9e6b-696361645f70,rev?*
G04 #@! TF.SameCoordinates,Original*
G04 #@! TF.FileFunction,Soldermask,Top*
G04 #@! TF.FilePolarity,Negative*
%FSLAX46Y46*%
G04 Gerber Fmt 4.6, Leading zero omitted, Abs format (unit mm)*
%MOMM*%
%LPD*%
G01*
G04 APERTURE LIST*
G04 #@! TA.AperFunction,Profile*
%ADD10C,0.100000*%
G04 #@! TD*
%ADD11C,1.552000*%
%ADD12R,1.000000X1.000000*%
%ADD13R,0.300000X0.700000*%
%ADD14C,1.800000*%
%ADD15O,1.450000X2.750000*%
%ADD16R,0.900000X0.800000*%
%ADD17O,2.000000X3.000000*%
%ADD18C,2.000000*%
%ADD19R,1.000000X3.150000*%
%ADD20R,0.700000X0.300000*%
%ADD21O,3.000000X2.600000*%
%ADD22O,1.950000X1.700000*%
%ADD23O,3.600000X1.800000*%
%ADD24C,6.400000*%
%ADD25C,0.900000*%
%ADD26R,1.800000X2.500000*%
%ADD27C,5.000000*%
%ADD28C,7.000000*%
%ADD29R,3.650000X3.650000*%
%ADD30O,1.800000X3.600000*%
%ADD31R,0.800000X0.900000*%
%ADD32R,1.000000X3.000000*%
%ADD33O,1.700000X1.950000*%
%ADD34R,1.700000X1.700000*%
%ADD35O,1.700000X1.700000*%
G04 APERTURE END LIST*
D10*
X169500000Y-111000000D02*
X169500000Y-88000000D01*
X150500000Y-75000000D02*
G75*
G03*
X150500000Y-79000000I0J-2000000D01*
G01*
X172500000Y-88000000D02*
G75*
G03*
X169500000Y-88000000I-1500000J0D01*
G01*
X146200000Y-52100000D02*
G75*
G03*
X142800000Y-52100000I-1700000J3000D01*
G01*
X169500000Y-38000000D02*
G75*
G03*
X172500000Y-38000000I1500000J0D01*
G01*
X169500000Y-118500000D02*
X169500000Y-116000000D01*
X172500000Y-88000000D02*
X172499999Y-106500001D01*
X203500000Y-120000000D02*
G75*
G03*
X204500000Y-119000000I0J1000000D01*
G01*
X169500000Y-80500000D02*
X169500000Y-83000000D01*
X168000000Y-120000000D02*
X165500000Y-120000000D01*
X141500000Y-120000000D02*
X144000000Y-120000000D01*
X172500000Y-116000000D02*
G75*
G03*
X169500000Y-116000000I-1500000J0D01*
G01*
X142800000Y-57900000D02*
G75*
G03*
X146200000Y-57900000I1700000J-3000D01*
G01*
X172500000Y-43000000D02*
G75*
G03*
X169500000Y-43000000I-1500000J0D01*
G01*
X169500000Y-35500000D02*
G75*
G03*
X168000000Y-34000000I-1500000J0D01*
G01*
X169500000Y-111000000D02*
G75*
G03*
X172500000Y-111000000I1500000J0D01*
G01*
X165500000Y-75000000D02*
G75*
G03*
X165500000Y-79000000I0J-2000000D01*
G01*
X169500000Y-66000000D02*
G75*
G03*
X172500000Y-66000000I1500000J0D01*
G01*
X140000000Y-73500000D02*
X140000000Y-35500000D01*
X172499999Y-46500001D02*
X172500000Y-43000000D01*
X204500001Y-46500001D02*
X204500000Y-35000000D01*
X159500000Y-62000000D02*
X159500000Y-47000000D01*
X204500000Y-119000000D02*
X204500001Y-107499999D01*
X172499999Y-47499999D02*
G75*
G03*
X172499999Y-46500001I-499999J499999D01*
G01*
X140000000Y-118500000D02*
G75*
G03*
X141500000Y-120000000I1500000J0D01*
G01*
X204500001Y-46500001D02*
G75*
G03*
X204500001Y-47499999I499999J-499999D01*
G01*
X169500000Y-38000000D02*
X169500000Y-35500000D01*
X159500000Y-75000000D02*
X150500000Y-75000000D01*
X146500000Y-117500000D02*
G75*
G03*
X145000000Y-119000000I0J-1500000D01*
G01*
X160000000Y-46500000D02*
X169000000Y-46500000D01*
X168000000Y-34000000D02*
X141500000Y-34000000D01*
X167500000Y-79000000D02*
X168000000Y-79000000D01*
X144500000Y-79000000D02*
G75*
G03*
X144500000Y-75000000I0J2000000D01*
G01*
X146300000Y-42000000D02*
G75*
G03*
X146300000Y-42000000I-1800000J0D01*
G01*
X172499999Y-107499999D02*
G75*
G03*
X172499999Y-106500001I-499999J499999D01*
G01*
X169000000Y-62500000D02*
X160000000Y-62500000D01*
X153800000Y-42000000D02*
G75*
G03*
X153800000Y-42000000I-1800000J0D01*
G01*
X140000000Y-73500000D02*
G75*
G03*
X141500000Y-75000000I1500000J0D01*
G01*
X141500000Y-79000000D02*
G75*
G03*
X140000000Y-80500000I0J-1500000D01*
G01*
X142800000Y-57900000D02*
X142800000Y-52100000D01*
X159500000Y-62000000D02*
G75*
G03*
X160000000Y-62500000I500000J0D01*
G01*
X140000000Y-118500000D02*
X140000000Y-80500000D01*
X165500000Y-79000000D02*
X167500000Y-79000000D01*
X144500000Y-75000000D02*
X141500000Y-75000000D01*
X169500000Y-46000000D02*
X169500000Y-43000000D01*
X172500000Y-116000000D02*
X172500000Y-119000000D01*
X168000000Y-75000000D02*
X167500000Y-75000000D01*
X165500000Y-75000000D02*
X167500000Y-75000000D01*
X146200000Y-52100000D02*
X146200000Y-57900000D01*
X172500000Y-119000000D02*
G75*
G03*
X173500000Y-120000000I1000000J0D01*
G01*
X204500000Y-35000000D02*
G75*
G03*
X203500000Y-34000000I-1000000J0D01*
G01*
X169500000Y-71000000D02*
X169500000Y-73500000D01*
X159500000Y-79000000D02*
G75*
G03*
X159500000Y-75000000I0J2000000D01*
G01*
X163000000Y-117500000D02*
X146500000Y-117500000D01*
X173500000Y-34000000D02*
X203500000Y-34000000D01*
X164500000Y-119000000D02*
G75*
G03*
X165500000Y-120000000I1000000J0D01*
G01*
X172499999Y-47499999D02*
X172500000Y-66000000D01*
X172499999Y-107499999D02*
X172500000Y-111000000D01*
X160000000Y-46500000D02*
G75*
G03*
X159500000Y-47000000I0J-500000D01*
G01*
X172500000Y-38000000D02*
X172500000Y-35000000D01*
X169500000Y-83000000D02*
G75*
G03*
X172500000Y-83000000I1500000J0D01*
G01*
X169500000Y-80500000D02*
G75*
G03*
X168000000Y-79000000I-1500000J0D01*
G01*
X150500000Y-79000000D02*
X159500000Y-79000000D01*
X168000000Y-75000000D02*
G75*
G03*
X169500000Y-73500000I0J1500000D01*
G01*
X164500000Y-119000000D02*
G75*
G03*
X163000000Y-117500000I-1500000J0D01*
G01*
X168000000Y-120000000D02*
G75*
G03*
X169500000Y-118500000I0J1500000D01*
G01*
X204500001Y-106500001D02*
G75*
G03*
X204500001Y-107499999I499999J-499999D01*
G01*
X172500000Y-71000000D02*
G75*
G03*
X169500000Y-71000000I-1500000J0D01*
G01*
X169000000Y-46500000D02*
G75*
G03*
X169500000Y-46000000I0J500000D01*
G01*
X173500000Y-120000000D02*
X203500000Y-120000000D01*
X141500000Y-34000000D02*
G75*
G03*
X140000000Y-35500000I0J-1500000D01*
G01*
X169500000Y-63000000D02*
X169500000Y-66000000D01*
X173500000Y-34000000D02*
G75*
G03*
X172500000Y-35000000I0J-1000000D01*
G01*
X144000000Y-120000000D02*
G75*
G03*
X145000000Y-119000000I0J1000000D01*
G01*
X141500000Y-79000000D02*
X144500000Y-79000000D01*
X172500000Y-71000000D02*
X172500000Y-83000000D01*
X204500001Y-106500001D02*
X204500001Y-47499999D01*
X169500000Y-63000000D02*
G75*
G03*
X169000000Y-62500000I-500000J0D01*
G01*
G36*
G01*
X197745000Y-57450000D02*
X197445000Y-57450000D01*
G75*
G02*
X197295000Y-57300000I0J150000D01*
G01*
X197295000Y-55650000D01*
G75*
G02*
X197445000Y-55500000I150000J0D01*
G01*
X197745000Y-55500000D01*
G75*
G02*
X197895000Y-55650000I0J-150000D01*
G01*
X197895000Y-57300000D01*
G75*
G02*
X197745000Y-57450000I-150000J0D01*
G01*
G37*
G36*
G01*
X199015000Y-57450000D02*
X198715000Y-57450000D01*
G75*
G02*
X198565000Y-57300000I0J150000D01*
G01*
X198565000Y-55650000D01*
G75*
G02*
X198715000Y-55500000I150000J0D01*
G01*
X199015000Y-55500000D01*
G75*
G02*
X199165000Y-55650000I0J-150000D01*
G01*
X199165000Y-57300000D01*
G75*
G02*
X199015000Y-57450000I-150000J0D01*
G01*
G37*
G36*
G01*
X200285000Y-57450000D02*
X199985000Y-57450000D01*
G75*
G02*
X199835000Y-57300000I0J150000D01*
G01*
X199835000Y-55650000D01*
G75*
G02*
X199985000Y-55500000I150000J0D01*
G01*
X200285000Y-55500000D01*
G75*
G02*
X200435000Y-55650000I0J-150000D01*
G01*
X200435000Y-57300000D01*
G75*
G02*
X200285000Y-57450000I-150000J0D01*
G01*
G37*
G36*
G01*
X201555000Y-57450000D02*
X201255000Y-57450000D01*
G75*
G02*
X201105000Y-57300000I0J150000D01*
G01*
X201105000Y-55650000D01*
G75*
G02*
X201255000Y-55500000I150000J0D01*
G01*
X201555000Y-55500000D01*
G75*
G02*
X201705000Y-55650000I0J-150000D01*
G01*
X201705000Y-57300000D01*
G75*
G02*
X201555000Y-57450000I-150000J0D01*
G01*
G37*
G36*
G01*
X201555000Y-52500000D02*
X201255000Y-52500000D01*
G75*
G02*
X201105000Y-52350000I0J150000D01*
G01*
X201105000Y-50700000D01*
G75*
G02*
X201255000Y-50550000I150000J0D01*
G01*
X201555000Y-50550000D01*
G75*
G02*
X201705000Y-50700000I0J-150000D01*
G01*
X201705000Y-52350000D01*
G75*
G02*
X201555000Y-52500000I-150000J0D01*
G01*
G37*
G36*
G01*
X200285000Y-52500000D02*
X199985000Y-52500000D01*
G75*
G02*
X199835000Y-52350000I0J150000D01*
G01*
X199835000Y-50700000D01*
G75*
G02*
X199985000Y-50550000I150000J0D01*
G01*
X200285000Y-50550000D01*
G75*
G02*
X200435000Y-50700000I0J-150000D01*
G01*
X200435000Y-52350000D01*
G75*
G02*
X200285000Y-52500000I-150000J0D01*
G01*
G37*
G36*
G01*
X199015000Y-52500000D02*
X198715000Y-52500000D01*
G75*
G02*
X198565000Y-52350000I0J150000D01*
G01*
X198565000Y-50700000D01*
G75*
G02*
X198715000Y-50550000I150000J0D01*
G01*
X199015000Y-50550000D01*
G75*
G02*
X199165000Y-50700000I0J-150000D01*
G01*
X199165000Y-52350000D01*
G75*
G02*
X199015000Y-52500000I-150000J0D01*
G01*
G37*
G36*
G01*
X197745000Y-52500000D02*
X197445000Y-52500000D01*
G75*
G02*
X197295000Y-52350000I0J150000D01*
G01*
X197295000Y-50700000D01*
G75*
G02*
X197445000Y-50550000I150000J0D01*
G01*
X197745000Y-50550000D01*
G75*
G02*
X197895000Y-50700000I0J-150000D01*
G01*
X197895000Y-52350000D01*
G75*
G02*
X197745000Y-52500000I-150000J0D01*
G01*
G37*
D11*
X142500000Y-118000000D03*
G36*
G01*
X197600000Y-90237500D02*
X197600000Y-89762500D01*
G75*
G02*
X197837500Y-89525000I237500J0D01*
G01*
X198437500Y-89525000D01*
G75*
G02*
X198675000Y-89762500I0J-237500D01*
G01*
X198675000Y-90237500D01*
G75*
G02*
X198437500Y-90475000I-237500J0D01*
G01*
X197837500Y-90475000D01*
G75*
G02*
X197600000Y-90237500I0J237500D01*
G01*
G37*
G36*
G01*
X199325000Y-90237500D02*
X199325000Y-89762500D01*
G75*
G02*
X199562500Y-89525000I237500J0D01*
G01*
X200162500Y-89525000D01*
G75*
G02*
X200400000Y-89762500I0J-237500D01*
G01*
X200400000Y-90237500D01*
G75*
G02*
X200162500Y-90475000I-237500J0D01*
G01*
X199562500Y-90475000D01*
G75*
G02*
X199325000Y-90237500I0J237500D01*
G01*
G37*
G36*
G01*
X165845000Y-110565000D02*
X166155000Y-110565000D01*
G75*
G02*
X166310000Y-110720000I0J-155000D01*
G01*
X166310000Y-111145000D01*
G75*
G02*
X166155000Y-111300000I-155000J0D01*
G01*
X165845000Y-111300000D01*
G75*
G02*
X165690000Y-111145000I0J155000D01*
G01*
X165690000Y-110720000D01*
G75*
G02*
X165845000Y-110565000I155000J0D01*
G01*
G37*
G36*
G01*
X165845000Y-111700000D02*
X166155000Y-111700000D01*
G75*
G02*
X166310000Y-111855000I0J-155000D01*
G01*
X166310000Y-112280000D01*
G75*
G02*
X166155000Y-112435000I-155000J0D01*
G01*
X165845000Y-112435000D01*
G75*
G02*
X165690000Y-112280000I0J155000D01*
G01*
X165690000Y-111855000D01*
G75*
G02*
X165845000Y-111700000I155000J0D01*
G01*
G37*
G36*
G01*
X178100000Y-46050000D02*
X178100000Y-46950000D01*
G75*
G02*
X177850000Y-47200000I-250000J0D01*
G01*
X177200000Y-47200000D01*
G75*
G02*
X176950000Y-46950000I0J250000D01*
G01*
X176950000Y-46050000D01*
G75*
G02*
X177200000Y-45800000I250000J0D01*
G01*
X177850000Y-45800000D01*
G75*
G02*
X178100000Y-46050000I0J-250000D01*
G01*
G37*
G36*
G01*
X176050000Y-46050000D02*
X176050000Y-46950000D01*
G75*
G02*
X175800000Y-47200000I-250000J0D01*
G01*
X175150000Y-47200000D01*
G75*
G02*
X174900000Y-46950000I0J250000D01*
G01*
X174900000Y-46050000D01*
G75*
G02*
X175150000Y-45800000I250000J0D01*
G01*
X175800000Y-45800000D01*
G75*
G02*
X176050000Y-46050000I0J-250000D01*
G01*
G37*
G36*
G01*
X198155000Y-61435000D02*
X197845000Y-61435000D01*
G75*
G02*
X197690000Y-61280000I0J155000D01*
G01*
X197690000Y-60855000D01*
G75*
G02*
X197845000Y-60700000I155000J0D01*
G01*
X198155000Y-60700000D01*
G75*
G02*
X198310000Y-60855000I0J-155000D01*
G01*
X198310000Y-61280000D01*
G75*
G02*
X198155000Y-61435000I-155000J0D01*
G01*
G37*
G36*
G01*
X198155000Y-60300000D02*
X197845000Y-60300000D01*
G75*
G02*
X197690000Y-60145000I0J155000D01*
G01*
X197690000Y-59720000D01*
G75*
G02*
X197845000Y-59565000I155000J0D01*
G01*
X198155000Y-59565000D01*
G75*
G02*
X198310000Y-59720000I0J-155000D01*
G01*
X198310000Y-60145000D01*
G75*
G02*
X198155000Y-60300000I-155000J0D01*
G01*
G37*
G36*
G01*
X159565000Y-90155000D02*
X159565000Y-89845000D01*
G75*
G02*
X159720000Y-89690000I155000J0D01*
G01*
X160145000Y-89690000D01*
G75*
G02*
X160300000Y-89845000I0J-155000D01*
G01*
X160300000Y-90155000D01*
G75*
G02*
X160145000Y-90310000I-155000J0D01*
G01*
X159720000Y-90310000D01*
G75*
G02*
X159565000Y-90155000I0J155000D01*
G01*
G37*
G36*
G01*
X160700000Y-90155000D02*
X160700000Y-89845000D01*
G75*
G02*
X160855000Y-89690000I155000J0D01*
G01*
X161280000Y-89690000D01*
G75*
G02*
X161435000Y-89845000I0J-155000D01*
G01*
X161435000Y-90155000D01*
G75*
G02*
X161280000Y-90310000I-155000J0D01*
G01*
X160855000Y-90310000D01*
G75*
G02*
X160700000Y-90155000I0J155000D01*
G01*
G37*
D12*
X193610000Y-58250000D03*
X193610000Y-55750000D03*
G36*
G01*
X200045000Y-58660000D02*
X200045000Y-58340000D01*
G75*
G02*
X200205000Y-58180000I160000J0D01*
G01*
X200600000Y-58180000D01*
G75*
G02*
X200760000Y-58340000I0J-160000D01*
G01*
X200760000Y-58660000D01*
G75*
G02*
X200600000Y-58820000I-160000J0D01*
G01*
X200205000Y-58820000D01*
G75*
G02*
X200045000Y-58660000I0J160000D01*
G01*
G37*
G36*
G01*
X201240000Y-58660000D02*
X201240000Y-58340000D01*
G75*
G02*
X201400000Y-58180000I160000J0D01*
G01*
X201795000Y-58180000D01*
G75*
G02*
X201955000Y-58340000I0J-160000D01*
G01*
X201955000Y-58660000D01*
G75*
G02*
X201795000Y-58820000I-160000J0D01*
G01*
X201400000Y-58820000D01*
G75*
G02*
X201240000Y-58660000I0J160000D01*
G01*
G37*
G36*
G01*
X179285000Y-71795000D02*
X179285000Y-72105000D01*
G75*
G02*
X179130000Y-72260000I-155000J0D01*
G01*
X178705000Y-72260000D01*
G75*
G02*
X178550000Y-72105000I0J155000D01*
G01*
X178550000Y-71795000D01*
G75*
G02*
X178705000Y-71640000I155000J0D01*
G01*
X179130000Y-71640000D01*
G75*
G02*
X179285000Y-71795000I0J-155000D01*
G01*
G37*
G36*
G01*
X178150000Y-71795000D02*
X178150000Y-72105000D01*
G75*
G02*
X177995000Y-72260000I-155000J0D01*
G01*
X177570000Y-72260000D01*
G75*
G02*
X177415000Y-72105000I0J155000D01*
G01*
X177415000Y-71795000D01*
G75*
G02*
X177570000Y-71640000I155000J0D01*
G01*
X177995000Y-71640000D01*
G75*
G02*
X178150000Y-71795000I0J-155000D01*
G01*
G37*
G36*
G01*
X201565000Y-67155000D02*
X201565000Y-66845000D01*
G75*
G02*
X201720000Y-66690000I155000J0D01*
G01*
X202145000Y-66690000D01*
G75*
G02*
X202300000Y-66845000I0J-155000D01*
G01*
X202300000Y-67155000D01*
G75*
G02*
X202145000Y-67310000I-155000J0D01*
G01*
X201720000Y-67310000D01*
G75*
G02*
X201565000Y-67155000I0J155000D01*
G01*
G37*
G36*
G01*
X202700000Y-67155000D02*
X202700000Y-66845000D01*
G75*
G02*
X202855000Y-66690000I155000J0D01*
G01*
X203280000Y-66690000D01*
G75*
G02*
X203435000Y-66845000I0J-155000D01*
G01*
X203435000Y-67155000D01*
G75*
G02*
X203280000Y-67310000I-155000J0D01*
G01*
X202855000Y-67310000D01*
G75*
G02*
X202700000Y-67155000I0J155000D01*
G01*
G37*
G36*
G01*
X175225000Y-100740000D02*
X175225000Y-100420000D01*
G75*
G02*
X175385000Y-100260000I160000J0D01*
G01*
X175780000Y-100260000D01*
G75*
G02*
X175940000Y-100420000I0J-160000D01*
G01*
X175940000Y-100740000D01*
G75*
G02*
X175780000Y-100900000I-160000J0D01*
G01*
X175385000Y-100900000D01*
G75*
G02*
X175225000Y-100740000I0J160000D01*
G01*
G37*
G36*
G01*
X176420000Y-100740000D02*
X176420000Y-100420000D01*
G75*
G02*
X176580000Y-100260000I160000J0D01*
G01*
X176975000Y-100260000D01*
G75*
G02*
X177135000Y-100420000I0J-160000D01*
G01*
X177135000Y-100740000D01*
G75*
G02*
X176975000Y-100900000I-160000J0D01*
G01*
X176580000Y-100900000D01*
G75*
G02*
X176420000Y-100740000I0J160000D01*
G01*
G37*
G36*
G01*
X181750000Y-76100000D02*
X180850000Y-76100000D01*
G75*
G02*
X180600000Y-75850000I0J250000D01*
G01*
X180600000Y-75150000D01*
G75*
G02*
X180850000Y-74900000I250000J0D01*
G01*
X181750000Y-74900000D01*
G75*
G02*
X182000000Y-75150000I0J-250000D01*
G01*
X182000000Y-75850000D01*
G75*
G02*
X181750000Y-76100000I-250000J0D01*
G01*
G37*
G36*
G01*
X181750000Y-74100000D02*
X180850000Y-74100000D01*
G75*
G02*
X180600000Y-73850000I0J250000D01*
G01*
X180600000Y-73150000D01*
G75*
G02*
X180850000Y-72900000I250000J0D01*
G01*
X181750000Y-72900000D01*
G75*
G02*
X182000000Y-73150000I0J-250000D01*
G01*
X182000000Y-73850000D01*
G75*
G02*
X181750000Y-74100000I-250000J0D01*
G01*
G37*
X154250000Y-93500000D03*
X151750000Y-93500000D03*
G36*
G01*
X201840000Y-59545000D02*
X202160000Y-59545000D01*
G75*
G02*
X202320000Y-59705000I0J-160000D01*
G01*
X202320000Y-60100000D01*
G75*
G02*
X202160000Y-60260000I-160000J0D01*
G01*
X201840000Y-60260000D01*
G75*
G02*
X201680000Y-60100000I0J160000D01*
G01*
X201680000Y-59705000D01*
G75*
G02*
X201840000Y-59545000I160000J0D01*
G01*
G37*
G36*
G01*
X201840000Y-60740000D02*
X202160000Y-60740000D01*
G75*
G02*
X202320000Y-60900000I0J-160000D01*
G01*
X202320000Y-61295000D01*
G75*
G02*
X202160000Y-61455000I-160000J0D01*
G01*
X201840000Y-61455000D01*
G75*
G02*
X201680000Y-61295000I0J160000D01*
G01*
X201680000Y-60900000D01*
G75*
G02*
X201840000Y-60740000I160000J0D01*
G01*
G37*
G36*
G01*
X199065000Y-74655000D02*
X199065000Y-74345000D01*
G75*
G02*
X199220000Y-74190000I155000J0D01*
G01*
X199645000Y-74190000D01*
G75*
G02*
X199800000Y-74345000I0J-155000D01*
G01*
X199800000Y-74655000D01*
G75*
G02*
X199645000Y-74810000I-155000J0D01*
G01*
X199220000Y-74810000D01*
G75*
G02*
X199065000Y-74655000I0J155000D01*
G01*
G37*
G36*
G01*
X200200000Y-74655000D02*
X200200000Y-74345000D01*
G75*
G02*
X200355000Y-74190000I155000J0D01*
G01*
X200780000Y-74190000D01*
G75*
G02*
X200935000Y-74345000I0J-155000D01*
G01*
X200935000Y-74655000D01*
G75*
G02*
X200780000Y-74810000I-155000J0D01*
G01*
X200355000Y-74810000D01*
G75*
G02*
X200200000Y-74655000I0J155000D01*
G01*
G37*
G36*
G01*
X196660000Y-90455000D02*
X196340000Y-90455000D01*
G75*
G02*
X196180000Y-90295000I0J160000D01*
G01*
X196180000Y-89900000D01*
G75*
G02*
X196340000Y-89740000I160000J0D01*
G01*
X196660000Y-89740000D01*
G75*
G02*
X196820000Y-89900000I0J-160000D01*
G01*
X196820000Y-90295000D01*
G75*
G02*
X196660000Y-90455000I-160000J0D01*
G01*
G37*
G36*
G01*
X196660000Y-89260000D02*
X196340000Y-89260000D01*
G75*
G02*
X196180000Y-89100000I0J160000D01*
G01*
X196180000Y-88705000D01*
G75*
G02*
X196340000Y-88545000I160000J0D01*
G01*
X196660000Y-88545000D01*
G75*
G02*
X196820000Y-88705000I0J-160000D01*
G01*
X196820000Y-89100000D01*
G75*
G02*
X196660000Y-89260000I-160000J0D01*
G01*
G37*
G36*
G01*
X148200000Y-96300000D02*
X147900000Y-96300000D01*
G75*
G02*
X147750000Y-96150000I0J150000D01*
G01*
X147750000Y-95125000D01*
G75*
G02*
X147900000Y-94975000I150000J0D01*
G01*
X148200000Y-94975000D01*
G75*
G02*
X148350000Y-95125000I0J-150000D01*
G01*
X148350000Y-96150000D01*
G75*
G02*
X148200000Y-96300000I-150000J0D01*
G01*
G37*
G36*
G01*
X149150000Y-96300000D02*
X148850000Y-96300000D01*
G75*
G02*
X148700000Y-96150000I0J150000D01*
G01*
X148700000Y-95125000D01*
G75*
G02*
X148850000Y-94975000I150000J0D01*
G01*
X149150000Y-94975000D01*
G75*
G02*
X149300000Y-95125000I0J-150000D01*
G01*
X149300000Y-96150000D01*
G75*
G02*
X149150000Y-96300000I-150000J0D01*
G01*
G37*
G36*
G01*
X150100000Y-96300000D02*
X149800000Y-96300000D01*
G75*
G02*
X149650000Y-96150000I0J150000D01*
G01*
X149650000Y-95125000D01*
G75*
G02*
X149800000Y-94975000I150000J0D01*
G01*
X150100000Y-94975000D01*
G75*
G02*
X150250000Y-95125000I0J-150000D01*
G01*
X150250000Y-96150000D01*
G75*
G02*
X150100000Y-96300000I-150000J0D01*
G01*
G37*
G36*
G01*
X150100000Y-94025000D02*
X149800000Y-94025000D01*
G75*
G02*
X149650000Y-93875000I0J150000D01*
G01*
X149650000Y-92850000D01*
G75*
G02*
X149800000Y-92700000I150000J0D01*
G01*
X150100000Y-92700000D01*
G75*
G02*
X150250000Y-92850000I0J-150000D01*
G01*
X150250000Y-93875000D01*
G75*
G02*
X150100000Y-94025000I-150000J0D01*
G01*
G37*
G36*
G01*
X149150000Y-94025000D02*
X148850000Y-94025000D01*
G75*
G02*
X148700000Y-93875000I0J150000D01*
G01*
X148700000Y-92850000D01*
G75*
G02*
X148850000Y-92700000I150000J0D01*
G01*
X149150000Y-92700000D01*
G75*
G02*
X149300000Y-92850000I0J-150000D01*
G01*
X149300000Y-93875000D01*
G75*
G02*
X149150000Y-94025000I-150000J0D01*
G01*
G37*
G36*
G01*
X148200000Y-94025000D02*
X147900000Y-94025000D01*
G75*
G02*
X147750000Y-93875000I0J150000D01*
G01*
X147750000Y-92850000D01*
G75*
G02*
X147900000Y-92700000I150000J0D01*
G01*
X148200000Y-92700000D01*
G75*
G02*
X148350000Y-92850000I0J-150000D01*
G01*
X148350000Y-93875000D01*
G75*
G02*
X148200000Y-94025000I-150000J0D01*
G01*
G37*
G36*
G01*
X179635000Y-100420000D02*
X179635000Y-100740000D01*
G75*
G02*
X179475000Y-100900000I-160000J0D01*
G01*
X179080000Y-100900000D01*
G75*
G02*
X178920000Y-100740000I0J160000D01*
G01*
X178920000Y-100420000D01*
G75*
G02*
X179080000Y-100260000I160000J0D01*
G01*
X179475000Y-100260000D01*
G75*
G02*
X179635000Y-100420000I0J-160000D01*
G01*
G37*
G36*
G01*
X178440000Y-100420000D02*
X178440000Y-100740000D01*
G75*
G02*
X178280000Y-100900000I-160000J0D01*
G01*
X177885000Y-100900000D01*
G75*
G02*
X177725000Y-100740000I0J160000D01*
G01*
X177725000Y-100420000D01*
G75*
G02*
X177885000Y-100260000I160000J0D01*
G01*
X178280000Y-100260000D01*
G75*
G02*
X178440000Y-100420000I0J-160000D01*
G01*
G37*
G36*
G01*
X178335000Y-105845000D02*
X178335000Y-106155000D01*
G75*
G02*
X178180000Y-106310000I-155000J0D01*
G01*
X177755000Y-106310000D01*
G75*
G02*
X177600000Y-106155000I0J155000D01*
G01*
X177600000Y-105845000D01*
G75*
G02*
X177755000Y-105690000I155000J0D01*
G01*
X178180000Y-105690000D01*
G75*
G02*
X178335000Y-105845000I0J-155000D01*
G01*
G37*
G36*
G01*
X177200000Y-105845000D02*
X177200000Y-106155000D01*
G75*
G02*
X177045000Y-106310000I-155000J0D01*
G01*
X176620000Y-106310000D01*
G75*
G02*
X176465000Y-106155000I0J155000D01*
G01*
X176465000Y-105845000D01*
G75*
G02*
X176620000Y-105690000I155000J0D01*
G01*
X177045000Y-105690000D01*
G75*
G02*
X177200000Y-105845000I0J-155000D01*
G01*
G37*
G36*
G01*
X181525000Y-81375000D02*
X182475000Y-81375000D01*
G75*
G02*
X182725000Y-81625000I0J-250000D01*
G01*
X182725000Y-82300000D01*
G75*
G02*
X182475000Y-82550000I-250000J0D01*
G01*
X181525000Y-82550000D01*
G75*
G02*
X181275000Y-82300000I0J250000D01*
G01*
X181275000Y-81625000D01*
G75*
G02*
X181525000Y-81375000I250000J0D01*
G01*
G37*
G36*
G01*
X181525000Y-83450000D02*
X182475000Y-83450000D01*
G75*
G02*
X182725000Y-83700000I0J-250000D01*
G01*
X182725000Y-84375000D01*
G75*
G02*
X182475000Y-84625000I-250000J0D01*
G01*
X181525000Y-84625000D01*
G75*
G02*
X181275000Y-84375000I0J250000D01*
G01*
X181275000Y-83700000D01*
G75*
G02*
X181525000Y-83450000I250000J0D01*
G01*
G37*
G36*
G01*
X180840000Y-94535000D02*
X180520000Y-94535000D01*
G75*
G02*
X180360000Y-94375000I0J160000D01*
G01*
X180360000Y-93980000D01*
G75*
G02*
X180520000Y-93820000I160000J0D01*
G01*
X180840000Y-93820000D01*
G75*
G02*
X181000000Y-93980000I0J-160000D01*
G01*
X181000000Y-94375000D01*
G75*
G02*
X180840000Y-94535000I-160000J0D01*
G01*
G37*
G36*
G01*
X180840000Y-93340000D02*
X180520000Y-93340000D01*
G75*
G02*
X180360000Y-93180000I0J160000D01*
G01*
X180360000Y-92785000D01*
G75*
G02*
X180520000Y-92625000I160000J0D01*
G01*
X180840000Y-92625000D01*
G75*
G02*
X181000000Y-92785000I0J-160000D01*
G01*
X181000000Y-93180000D01*
G75*
G02*
X180840000Y-93340000I-160000J0D01*
G01*
G37*
G36*
G01*
X183050000Y-44400000D02*
X183950000Y-44400000D01*
G75*
G02*
X184200000Y-44650000I0J-250000D01*
G01*
X184200000Y-45350000D01*
G75*
G02*
X183950000Y-45600000I-250000J0D01*
G01*
X183050000Y-45600000D01*
G75*
G02*
X182800000Y-45350000I0J250000D01*
G01*
X182800000Y-44650000D01*
G75*
G02*
X183050000Y-44400000I250000J0D01*
G01*
G37*
G36*
G01*
X183050000Y-46400000D02*
X183950000Y-46400000D01*
G75*
G02*
X184200000Y-46650000I0J-250000D01*
G01*
X184200000Y-47350000D01*
G75*
G02*
X183950000Y-47600000I-250000J0D01*
G01*
X183050000Y-47600000D01*
G75*
G02*
X182800000Y-47350000I0J250000D01*
G01*
X182800000Y-46650000D01*
G75*
G02*
X183050000Y-46400000I250000J0D01*
G01*
G37*
G36*
G01*
X201565000Y-66155000D02*
X201565000Y-65845000D01*
G75*
G02*
X201720000Y-65690000I155000J0D01*
G01*
X202145000Y-65690000D01*
G75*
G02*
X202300000Y-65845000I0J-155000D01*
G01*
X202300000Y-66155000D01*
G75*
G02*
X202145000Y-66310000I-155000J0D01*
G01*
X201720000Y-66310000D01*
G75*
G02*
X201565000Y-66155000I0J155000D01*
G01*
G37*
G36*
G01*
X202700000Y-66155000D02*
X202700000Y-65845000D01*
G75*
G02*
X202855000Y-65690000I155000J0D01*
G01*
X203280000Y-65690000D01*
G75*
G02*
X203435000Y-65845000I0J-155000D01*
G01*
X203435000Y-66155000D01*
G75*
G02*
X203280000Y-66310000I-155000J0D01*
G01*
X202855000Y-66310000D01*
G75*
G02*
X202700000Y-66155000I0J155000D01*
G01*
G37*
G36*
G01*
X186975000Y-72125000D02*
X186025000Y-72125000D01*
G75*
G02*
X185775000Y-71875000I0J250000D01*
G01*
X185775000Y-71200000D01*
G75*
G02*
X186025000Y-70950000I250000J0D01*
G01*
X186975000Y-70950000D01*
G75*
G02*
X187225000Y-71200000I0J-250000D01*
G01*
X187225000Y-71875000D01*
G75*
G02*
X186975000Y-72125000I-250000J0D01*
G01*
G37*
G36*
G01*
X186975000Y-70050000D02*
X186025000Y-70050000D01*
G75*
G02*
X185775000Y-69800000I0J250000D01*
G01*
X185775000Y-69125000D01*
G75*
G02*
X186025000Y-68875000I250000J0D01*
G01*
X186975000Y-68875000D01*
G75*
G02*
X187225000Y-69125000I0J-250000D01*
G01*
X187225000Y-69800000D01*
G75*
G02*
X186975000Y-70050000I-250000J0D01*
G01*
G37*
G36*
G01*
X189950000Y-54600000D02*
X189050000Y-54600000D01*
G75*
G02*
X188800000Y-54350000I0J250000D01*
G01*
X188800000Y-53650000D01*
G75*
G02*
X189050000Y-53400000I250000J0D01*
G01*
X189950000Y-53400000D01*
G75*
G02*
X190200000Y-53650000I0J-250000D01*
G01*
X190200000Y-54350000D01*
G75*
G02*
X189950000Y-54600000I-250000J0D01*
G01*
G37*
G36*
G01*
X189950000Y-52600000D02*
X189050000Y-52600000D01*
G75*
G02*
X188800000Y-52350000I0J250000D01*
G01*
X188800000Y-51650000D01*
G75*
G02*
X189050000Y-51400000I250000J0D01*
G01*
X189950000Y-51400000D01*
G75*
G02*
X190200000Y-51650000I0J-250000D01*
G01*
X190200000Y-52350000D01*
G75*
G02*
X189950000Y-52600000I-250000J0D01*
G01*
G37*
D13*
X167500000Y-108250000D03*
X167000000Y-108250000D03*
X166500000Y-108250000D03*
X166500000Y-109750000D03*
X167000000Y-109750000D03*
X167500000Y-109750000D03*
G36*
G01*
X177000000Y-102050000D02*
X177000000Y-102950000D01*
G75*
G02*
X176750000Y-103200000I-250000J0D01*
G01*
X176050000Y-103200000D01*
G75*
G02*
X175800000Y-102950000I0J250000D01*
G01*
X175800000Y-102050000D01*
G75*
G02*
X176050000Y-101800000I250000J0D01*
G01*
X176750000Y-101800000D01*
G75*
G02*
X177000000Y-102050000I0J-250000D01*
G01*
G37*
G36*
G01*
X175000000Y-102050000D02*
X175000000Y-102950000D01*
G75*
G02*
X174750000Y-103200000I-250000J0D01*
G01*
X174050000Y-103200000D01*
G75*
G02*
X173800000Y-102950000I0J250000D01*
G01*
X173800000Y-102050000D01*
G75*
G02*
X174050000Y-101800000I250000J0D01*
G01*
X174750000Y-101800000D01*
G75*
G02*
X175000000Y-102050000I0J-250000D01*
G01*
G37*
G36*
G01*
X182975000Y-72125000D02*
X182025000Y-72125000D01*
G75*
G02*
X181775000Y-71875000I0J250000D01*
G01*
X181775000Y-71200000D01*
G75*
G02*
X182025000Y-70950000I250000J0D01*
G01*
X182975000Y-70950000D01*
G75*
G02*
X183225000Y-71200000I0J-250000D01*
G01*
X183225000Y-71875000D01*
G75*
G02*
X182975000Y-72125000I-250000J0D01*
G01*
G37*
G36*
G01*
X182975000Y-70050000D02*
X182025000Y-70050000D01*
G75*
G02*
X181775000Y-69800000I0J250000D01*
G01*
X181775000Y-69125000D01*
G75*
G02*
X182025000Y-68875000I250000J0D01*
G01*
X182975000Y-68875000D01*
G75*
G02*
X183225000Y-69125000I0J-250000D01*
G01*
X183225000Y-69800000D01*
G75*
G02*
X182975000Y-70050000I-250000J0D01*
G01*
G37*
G36*
G01*
X179050000Y-44400000D02*
X179950000Y-44400000D01*
G75*
G02*
X180200000Y-44650000I0J-250000D01*
G01*
X180200000Y-45350000D01*
G75*
G02*
X179950000Y-45600000I-250000J0D01*
G01*
X179050000Y-45600000D01*
G75*
G02*
X178800000Y-45350000I0J250000D01*
G01*
X178800000Y-44650000D01*
G75*
G02*
X179050000Y-44400000I250000J0D01*
G01*
G37*
G36*
G01*
X179050000Y-46400000D02*
X179950000Y-46400000D01*
G75*
G02*
X180200000Y-46650000I0J-250000D01*
G01*
X180200000Y-47350000D01*
G75*
G02*
X179950000Y-47600000I-250000J0D01*
G01*
X179050000Y-47600000D01*
G75*
G02*
X178800000Y-47350000I0J250000D01*
G01*
X178800000Y-46650000D01*
G75*
G02*
X179050000Y-46400000I250000J0D01*
G01*
G37*
G36*
G01*
X177325000Y-82200000D02*
X177325000Y-81900000D01*
G75*
G02*
X177475000Y-81750000I150000J0D01*
G01*
X178650000Y-81750000D01*
G75*
G02*
X178800000Y-81900000I0J-150000D01*
G01*
X178800000Y-82200000D01*
G75*
G02*
X178650000Y-82350000I-150000J0D01*
G01*
X177475000Y-82350000D01*
G75*
G02*
X177325000Y-82200000I0J150000D01*
G01*
G37*
G36*
G01*
X177325000Y-84100000D02*
X177325000Y-83800000D01*
G75*
G02*
X177475000Y-83650000I150000J0D01*
G01*
X178650000Y-83650000D01*
G75*
G02*
X178800000Y-83800000I0J-150000D01*
G01*
X178800000Y-84100000D01*
G75*
G02*
X178650000Y-84250000I-150000J0D01*
G01*
X177475000Y-84250000D01*
G75*
G02*
X177325000Y-84100000I0J150000D01*
G01*
G37*
G36*
G01*
X179200000Y-83150000D02*
X179200000Y-82850000D01*
G75*
G02*
X179350000Y-82700000I150000J0D01*
G01*
X180525000Y-82700000D01*
G75*
G02*
X180675000Y-82850000I0J-150000D01*
G01*
X180675000Y-83150000D01*
G75*
G02*
X180525000Y-83300000I-150000J0D01*
G01*
X179350000Y-83300000D01*
G75*
G02*
X179200000Y-83150000I0J150000D01*
G01*
G37*
G36*
G01*
X195660000Y-87955000D02*
X195340000Y-87955000D01*
G75*
G02*
X195180000Y-87795000I0J160000D01*
G01*
X195180000Y-87400000D01*
G75*
G02*
X195340000Y-87240000I160000J0D01*
G01*
X195660000Y-87240000D01*
G75*
G02*
X195820000Y-87400000I0J-160000D01*
G01*
X195820000Y-87795000D01*
G75*
G02*
X195660000Y-87955000I-160000J0D01*
G01*
G37*
G36*
G01*
X195660000Y-86760000D02*
X195340000Y-86760000D01*
G75*
G02*
X195180000Y-86600000I0J160000D01*
G01*
X195180000Y-86205000D01*
G75*
G02*
X195340000Y-86045000I160000J0D01*
G01*
X195660000Y-86045000D01*
G75*
G02*
X195820000Y-86205000I0J-160000D01*
G01*
X195820000Y-86600000D01*
G75*
G02*
X195660000Y-86760000I-160000J0D01*
G01*
G37*
G36*
G01*
X180520000Y-99125000D02*
X180840000Y-99125000D01*
G75*
G02*
X181000000Y-99285000I0J-160000D01*
G01*
X181000000Y-99680000D01*
G75*
G02*
X180840000Y-99840000I-160000J0D01*
G01*
X180520000Y-99840000D01*
G75*
G02*
X180360000Y-99680000I0J160000D01*
G01*
X180360000Y-99285000D01*
G75*
G02*
X180520000Y-99125000I160000J0D01*
G01*
G37*
G36*
G01*
X180520000Y-100320000D02*
X180840000Y-100320000D01*
G75*
G02*
X181000000Y-100480000I0J-160000D01*
G01*
X181000000Y-100875000D01*
G75*
G02*
X180840000Y-101035000I-160000J0D01*
G01*
X180520000Y-101035000D01*
G75*
G02*
X180360000Y-100875000I0J160000D01*
G01*
X180360000Y-100480000D01*
G75*
G02*
X180520000Y-100320000I160000J0D01*
G01*
G37*
D14*
X189800000Y-107300000D03*
X200200000Y-107300000D03*
G36*
G01*
X198295000Y-105462500D02*
X198295000Y-102537500D01*
G75*
G02*
X198432500Y-102400000I137500J0D01*
G01*
X198707500Y-102400000D01*
G75*
G02*
X198845000Y-102537500I0J-137500D01*
G01*
X198845000Y-105462500D01*
G75*
G02*
X198707500Y-105600000I-137500J0D01*
G01*
X198432500Y-105600000D01*
G75*
G02*
X198295000Y-105462500I0J137500D01*
G01*
G37*
G36*
G01*
X197275000Y-105462500D02*
X197275000Y-102537500D01*
G75*
G02*
X197412500Y-102400000I137500J0D01*
G01*
X197687500Y-102400000D01*
G75*
G02*
X197825000Y-102537500I0J-137500D01*
G01*
X197825000Y-105462500D01*
G75*
G02*
X197687500Y-105600000I-137500J0D01*
G01*
X197412500Y-105600000D01*
G75*
G02*
X197275000Y-105462500I0J137500D01*
G01*
G37*
G36*
G01*
X196255000Y-105462500D02*
X196255000Y-102537500D01*
G75*
G02*
X196392500Y-102400000I137500J0D01*
G01*
X196667500Y-102400000D01*
G75*
G02*
X196805000Y-102537500I0J-137500D01*
G01*
X196805000Y-105462500D01*
G75*
G02*
X196667500Y-105600000I-137500J0D01*
G01*
X196392500Y-105600000D01*
G75*
G02*
X196255000Y-105462500I0J137500D01*
G01*
G37*
G36*
G01*
X195235000Y-105462500D02*
X195235000Y-102537500D01*
G75*
G02*
X195372500Y-102400000I137500J0D01*
G01*
X195647500Y-102400000D01*
G75*
G02*
X195785000Y-102537500I0J-137500D01*
G01*
X195785000Y-105462500D01*
G75*
G02*
X195647500Y-105600000I-137500J0D01*
G01*
X195372500Y-105600000D01*
G75*
G02*
X195235000Y-105462500I0J137500D01*
G01*
G37*
G36*
G01*
X194215000Y-105462500D02*
X194215000Y-102537500D01*
G75*
G02*
X194352500Y-102400000I137500J0D01*
G01*
X194627500Y-102400000D01*
G75*
G02*
X194765000Y-102537500I0J-137500D01*
G01*
X194765000Y-105462500D01*
G75*
G02*
X194627500Y-105600000I-137500J0D01*
G01*
X194352500Y-105600000D01*
G75*
G02*
X194215000Y-105462500I0J137500D01*
G01*
G37*
G36*
G01*
X193195000Y-105462500D02*
X193195000Y-102537500D01*
G75*
G02*
X193332500Y-102400000I137500J0D01*
G01*
X193607500Y-102400000D01*
G75*
G02*
X193745000Y-102537500I0J-137500D01*
G01*
X193745000Y-105462500D01*
G75*
G02*
X193607500Y-105600000I-137500J0D01*
G01*
X193332500Y-105600000D01*
G75*
G02*
X193195000Y-105462500I0J137500D01*
G01*
G37*
G36*
G01*
X192175000Y-105462500D02*
X192175000Y-102537500D01*
G75*
G02*
X192312500Y-102400000I137500J0D01*
G01*
X192587500Y-102400000D01*
G75*
G02*
X192725000Y-102537500I0J-137500D01*
G01*
X192725000Y-105462500D01*
G75*
G02*
X192587500Y-105600000I-137500J0D01*
G01*
X192312500Y-105600000D01*
G75*
G02*
X192175000Y-105462500I0J137500D01*
G01*
G37*
G36*
G01*
X191155000Y-105462500D02*
X191155000Y-102537500D01*
G75*
G02*
X191292500Y-102400000I137500J0D01*
G01*
X191567500Y-102400000D01*
G75*
G02*
X191705000Y-102537500I0J-137500D01*
G01*
X191705000Y-105462500D01*
G75*
G02*
X191567500Y-105600000I-137500J0D01*
G01*
X191292500Y-105600000D01*
G75*
G02*
X191155000Y-105462500I0J137500D01*
G01*
G37*
D15*
X202050000Y-109200000D03*
X187950000Y-115100000D03*
X202050000Y-115100000D03*
X187950000Y-109200000D03*
G36*
G01*
X180975000Y-72125000D02*
X180025000Y-72125000D01*
G75*
G02*
X179775000Y-71875000I0J250000D01*
G01*
X179775000Y-71200000D01*
G75*
G02*
X180025000Y-70950000I250000J0D01*
G01*
X180975000Y-70950000D01*
G75*
G02*
X181225000Y-71200000I0J-250000D01*
G01*
X181225000Y-71875000D01*
G75*
G02*
X180975000Y-72125000I-250000J0D01*
G01*
G37*
G36*
G01*
X180975000Y-70050000D02*
X180025000Y-70050000D01*
G75*
G02*
X179775000Y-69800000I0J250000D01*
G01*
X179775000Y-69125000D01*
G75*
G02*
X180025000Y-68875000I250000J0D01*
G01*
X180975000Y-68875000D01*
G75*
G02*
X181225000Y-69125000I0J-250000D01*
G01*
X181225000Y-69800000D01*
G75*
G02*
X180975000Y-70050000I-250000J0D01*
G01*
G37*
G36*
G01*
X159660000Y-70455000D02*
X159340000Y-70455000D01*
G75*
G02*
X159180000Y-70295000I0J160000D01*
G01*
X159180000Y-69900000D01*
G75*
G02*
X159340000Y-69740000I160000J0D01*
G01*
X159660000Y-69740000D01*
G75*
G02*
X159820000Y-69900000I0J-160000D01*
G01*
X159820000Y-70295000D01*
G75*
G02*
X159660000Y-70455000I-160000J0D01*
G01*
G37*
G36*
G01*
X159660000Y-69260000D02*
X159340000Y-69260000D01*
G75*
G02*
X159180000Y-69100000I0J160000D01*
G01*
X159180000Y-68705000D01*
G75*
G02*
X159340000Y-68545000I160000J0D01*
G01*
X159660000Y-68545000D01*
G75*
G02*
X159820000Y-68705000I0J-160000D01*
G01*
X159820000Y-69100000D01*
G75*
G02*
X159660000Y-69260000I-160000J0D01*
G01*
G37*
D16*
X196700000Y-59950000D03*
X195300000Y-59950000D03*
X195300000Y-61050000D03*
X196700000Y-61050000D03*
D17*
X160000000Y-72500000D03*
G36*
G01*
X157975000Y-73185000D02*
X157975000Y-71815000D01*
G75*
G02*
X158165000Y-71625000I190000J0D01*
G01*
X158735000Y-71625000D01*
G75*
G02*
X158925000Y-71815000I0J-190000D01*
G01*
X158925000Y-73185000D01*
G75*
G02*
X158735000Y-73375000I-190000J0D01*
G01*
X158165000Y-73375000D01*
G75*
G02*
X157975000Y-73185000I0J190000D01*
G01*
G37*
G36*
G01*
X161075000Y-73185000D02*
X161075000Y-71815000D01*
G75*
G02*
X161265000Y-71625000I190000J0D01*
G01*
X161835000Y-71625000D01*
G75*
G02*
X162025000Y-71815000I0J-190000D01*
G01*
X162025000Y-73185000D01*
G75*
G02*
X161835000Y-73375000I-190000J0D01*
G01*
X161265000Y-73375000D01*
G75*
G02*
X161075000Y-73185000I0J190000D01*
G01*
G37*
G36*
G01*
X202065000Y-82655000D02*
X202065000Y-82345000D01*
G75*
G02*
X202220000Y-82190000I155000J0D01*
G01*
X202645000Y-82190000D01*
G75*
G02*
X202800000Y-82345000I0J-155000D01*
G01*
X202800000Y-82655000D01*
G75*
G02*
X202645000Y-82810000I-155000J0D01*
G01*
X202220000Y-82810000D01*
G75*
G02*
X202065000Y-82655000I0J155000D01*
G01*
G37*
G36*
G01*
X203200000Y-82655000D02*
X203200000Y-82345000D01*
G75*
G02*
X203355000Y-82190000I155000J0D01*
G01*
X203780000Y-82190000D01*
G75*
G02*
X203935000Y-82345000I0J-155000D01*
G01*
X203935000Y-82655000D01*
G75*
G02*
X203780000Y-82810000I-155000J0D01*
G01*
X203355000Y-82810000D01*
G75*
G02*
X203200000Y-82655000I0J155000D01*
G01*
G37*
G36*
G01*
X203455000Y-67840000D02*
X203455000Y-68160000D01*
G75*
G02*
X203295000Y-68320000I-160000J0D01*
G01*
X202900000Y-68320000D01*
G75*
G02*
X202740000Y-68160000I0J160000D01*
G01*
X202740000Y-67840000D01*
G75*
G02*
X202900000Y-67680000I160000J0D01*
G01*
X203295000Y-67680000D01*
G75*
G02*
X203455000Y-67840000I0J-160000D01*
G01*
G37*
G36*
G01*
X202260000Y-67840000D02*
X202260000Y-68160000D01*
G75*
G02*
X202100000Y-68320000I-160000J0D01*
G01*
X201705000Y-68320000D01*
G75*
G02*
X201545000Y-68160000I0J160000D01*
G01*
X201545000Y-67840000D01*
G75*
G02*
X201705000Y-67680000I160000J0D01*
G01*
X202100000Y-67680000D01*
G75*
G02*
X202260000Y-67840000I0J-160000D01*
G01*
G37*
G36*
G01*
X175700000Y-118950000D02*
X175700000Y-117700000D01*
G75*
G02*
X175850000Y-117550000I150000J0D01*
G01*
X176150000Y-117550000D01*
G75*
G02*
X176300000Y-117700000I0J-150000D01*
G01*
X176300000Y-118950000D01*
G75*
G02*
X176150000Y-119100000I-150000J0D01*
G01*
X175850000Y-119100000D01*
G75*
G02*
X175700000Y-118950000I0J150000D01*
G01*
G37*
G36*
G01*
X176700000Y-118950000D02*
X176700000Y-117700000D01*
G75*
G02*
X176850000Y-117550000I150000J0D01*
G01*
X177150000Y-117550000D01*
G75*
G02*
X177300000Y-117700000I0J-150000D01*
G01*
X177300000Y-118950000D01*
G75*
G02*
X177150000Y-119100000I-150000J0D01*
G01*
X176850000Y-119100000D01*
G75*
G02*
X176700000Y-118950000I0J150000D01*
G01*
G37*
G36*
G01*
X177700000Y-118950000D02*
X177700000Y-117700000D01*
G75*
G02*
X177850000Y-117550000I150000J0D01*
G01*
X178150000Y-117550000D01*
G75*
G02*
X178300000Y-117700000I0J-150000D01*
G01*
X178300000Y-118950000D01*
G75*
G02*
X178150000Y-119100000I-150000J0D01*
G01*
X177850000Y-119100000D01*
G75*
G02*
X177700000Y-118950000I0J150000D01*
G01*
G37*
G36*
G01*
X178700000Y-118950000D02*
X178700000Y-117700000D01*
G75*
G02*
X178850000Y-117550000I150000J0D01*
G01*
X179150000Y-117550000D01*
G75*
G02*
X179300000Y-117700000I0J-150000D01*
G01*
X179300000Y-118950000D01*
G75*
G02*
X179150000Y-119100000I-150000J0D01*
G01*
X178850000Y-119100000D01*
G75*
G02*
X178700000Y-118950000I0J150000D01*
G01*
G37*
G36*
G01*
X179700000Y-116450000D02*
X179700000Y-115150000D01*
G75*
G02*
X179950000Y-114900000I250000J0D01*
G01*
X180650000Y-114900000D01*
G75*
G02*
X180900000Y-115150000I0J-250000D01*
G01*
X180900000Y-116450000D01*
G75*
G02*
X180650000Y-116700000I-250000J0D01*
G01*
X179950000Y-116700000D01*
G75*
G02*
X179700000Y-116450000I0J250000D01*
G01*
G37*
G36*
G01*
X174100000Y-116450000D02*
X174100000Y-115150000D01*
G75*
G02*
X174350000Y-114900000I250000J0D01*
G01*
X175050000Y-114900000D01*
G75*
G02*
X175300000Y-115150000I0J-250000D01*
G01*
X175300000Y-116450000D01*
G75*
G02*
X175050000Y-116700000I-250000J0D01*
G01*
X174350000Y-116700000D01*
G75*
G02*
X174100000Y-116450000I0J250000D01*
G01*
G37*
G36*
G01*
X183100000Y-67050000D02*
X183100000Y-67950000D01*
G75*
G02*
X182850000Y-68200000I-250000J0D01*
G01*
X182150000Y-68200000D01*
G75*
G02*
X181900000Y-67950000I0J250000D01*
G01*
X181900000Y-67050000D01*
G75*
G02*
X182150000Y-66800000I250000J0D01*
G01*
X182850000Y-66800000D01*
G75*
G02*
X183100000Y-67050000I0J-250000D01*
G01*
G37*
G36*
G01*
X181100000Y-67050000D02*
X181100000Y-67950000D01*
G75*
G02*
X180850000Y-68200000I-250000J0D01*
G01*
X180150000Y-68200000D01*
G75*
G02*
X179900000Y-67950000I0J250000D01*
G01*
X179900000Y-67050000D01*
G75*
G02*
X180150000Y-66800000I250000J0D01*
G01*
X180850000Y-66800000D01*
G75*
G02*
X181100000Y-67050000I0J-250000D01*
G01*
G37*
G36*
G01*
X178475000Y-80325000D02*
X177525000Y-80325000D01*
G75*
G02*
X177275000Y-80075000I0J250000D01*
G01*
X177275000Y-79400000D01*
G75*
G02*
X177525000Y-79150000I250000J0D01*
G01*
X178475000Y-79150000D01*
G75*
G02*
X178725000Y-79400000I0J-250000D01*
G01*
X178725000Y-80075000D01*
G75*
G02*
X178475000Y-80325000I-250000J0D01*
G01*
G37*
G36*
G01*
X178475000Y-78250000D02*
X177525000Y-78250000D01*
G75*
G02*
X177275000Y-78000000I0J250000D01*
G01*
X177275000Y-77325000D01*
G75*
G02*
X177525000Y-77075000I250000J0D01*
G01*
X178475000Y-77075000D01*
G75*
G02*
X178725000Y-77325000I0J-250000D01*
G01*
X178725000Y-78000000D01*
G75*
G02*
X178475000Y-78250000I-250000J0D01*
G01*
G37*
G36*
G01*
X181525000Y-77075000D02*
X182475000Y-77075000D01*
G75*
G02*
X182725000Y-77325000I0J-250000D01*
G01*
X182725000Y-78000000D01*
G75*
G02*
X182475000Y-78250000I-250000J0D01*
G01*
X181525000Y-78250000D01*
G75*
G02*
X181275000Y-78000000I0J250000D01*
G01*
X181275000Y-77325000D01*
G75*
G02*
X181525000Y-77075000I250000J0D01*
G01*
G37*
G36*
G01*
X181525000Y-79150000D02*
X182475000Y-79150000D01*
G75*
G02*
X182725000Y-79400000I0J-250000D01*
G01*
X182725000Y-80075000D01*
G75*
G02*
X182475000Y-80325000I-250000J0D01*
G01*
X181525000Y-80325000D01*
G75*
G02*
X181275000Y-80075000I0J250000D01*
G01*
X181275000Y-79400000D01*
G75*
G02*
X181525000Y-79150000I250000J0D01*
G01*
G37*
G36*
G01*
X177950000Y-41100000D02*
X177050000Y-41100000D01*
G75*
G02*
X176800000Y-40850000I0J250000D01*
G01*
X176800000Y-40200000D01*
G75*
G02*
X177050000Y-39950000I250000J0D01*
G01*
X177950000Y-39950000D01*
G75*
G02*
X178200000Y-40200000I0J-250000D01*
G01*
X178200000Y-40850000D01*
G75*
G02*
X177950000Y-41100000I-250000J0D01*
G01*
G37*
G36*
G01*
X177950000Y-39050000D02*
X177050000Y-39050000D01*
G75*
G02*
X176800000Y-38800000I0J250000D01*
G01*
X176800000Y-38150000D01*
G75*
G02*
X177050000Y-37900000I250000J0D01*
G01*
X177950000Y-37900000D01*
G75*
G02*
X178200000Y-38150000I0J-250000D01*
G01*
X178200000Y-38800000D01*
G75*
G02*
X177950000Y-39050000I-250000J0D01*
G01*
G37*
G36*
G01*
X181050000Y-44400000D02*
X181950000Y-44400000D01*
G75*
G02*
X182200000Y-44650000I0J-250000D01*
G01*
X182200000Y-45350000D01*
G75*
G02*
X181950000Y-45600000I-250000J0D01*
G01*
X181050000Y-45600000D01*
G75*
G02*
X180800000Y-45350000I0J250000D01*
G01*
X180800000Y-44650000D01*
G75*
G02*
X181050000Y-44400000I250000J0D01*
G01*
G37*
G36*
G01*
X181050000Y-46400000D02*
X181950000Y-46400000D01*
G75*
G02*
X182200000Y-46650000I0J-250000D01*
G01*
X182200000Y-47350000D01*
G75*
G02*
X181950000Y-47600000I-250000J0D01*
G01*
X181050000Y-47600000D01*
G75*
G02*
X180800000Y-47350000I0J250000D01*
G01*
X180800000Y-46650000D01*
G75*
G02*
X181050000Y-46400000I250000J0D01*
G01*
G37*
G36*
G01*
X203955000Y-72360000D02*
X203955000Y-72680000D01*
G75*
G02*
X203795000Y-72840000I-160000J0D01*
G01*
X203400000Y-72840000D01*
G75*
G02*
X203240000Y-72680000I0J160000D01*
G01*
X203240000Y-72360000D01*
G75*
G02*
X203400000Y-72200000I160000J0D01*
G01*
X203795000Y-72200000D01*
G75*
G02*
X203955000Y-72360000I0J-160000D01*
G01*
G37*
G36*
G01*
X202760000Y-72360000D02*
X202760000Y-72680000D01*
G75*
G02*
X202600000Y-72840000I-160000J0D01*
G01*
X202205000Y-72840000D01*
G75*
G02*
X202045000Y-72680000I0J160000D01*
G01*
X202045000Y-72360000D01*
G75*
G02*
X202205000Y-72200000I160000J0D01*
G01*
X202600000Y-72200000D01*
G75*
G02*
X202760000Y-72360000I0J-160000D01*
G01*
G37*
G36*
G01*
X177000000Y-104050000D02*
X177000000Y-104950000D01*
G75*
G02*
X176750000Y-105200000I-250000J0D01*
G01*
X176050000Y-105200000D01*
G75*
G02*
X175800000Y-104950000I0J250000D01*
G01*
X175800000Y-104050000D01*
G75*
G02*
X176050000Y-103800000I250000J0D01*
G01*
X176750000Y-103800000D01*
G75*
G02*
X177000000Y-104050000I0J-250000D01*
G01*
G37*
G36*
G01*
X175000000Y-104050000D02*
X175000000Y-104950000D01*
G75*
G02*
X174750000Y-105200000I-250000J0D01*
G01*
X174050000Y-105200000D01*
G75*
G02*
X173800000Y-104950000I0J250000D01*
G01*
X173800000Y-104050000D01*
G75*
G02*
X174050000Y-103800000I250000J0D01*
G01*
X174750000Y-103800000D01*
G75*
G02*
X175000000Y-104050000I0J-250000D01*
G01*
G37*
G36*
G01*
X173565001Y-73735000D02*
X173255001Y-73735000D01*
G75*
G02*
X173100001Y-73580000I0J155000D01*
G01*
X173100001Y-73155000D01*
G75*
G02*
X173255001Y-73000000I155000J0D01*
G01*
X173565001Y-73000000D01*
G75*
G02*
X173720001Y-73155000I0J-155000D01*
G01*
X173720001Y-73580000D01*
G75*
G02*
X173565001Y-73735000I-155000J0D01*
G01*
G37*
G36*
G01*
X173565001Y-72600000D02*
X173255001Y-72600000D01*
G75*
G02*
X173100001Y-72445000I0J155000D01*
G01*
X173100001Y-72020000D01*
G75*
G02*
X173255001Y-71865000I155000J0D01*
G01*
X173565001Y-71865000D01*
G75*
G02*
X173720001Y-72020000I0J-155000D01*
G01*
X173720001Y-72445000D01*
G75*
G02*
X173565001Y-72600000I-155000J0D01*
G01*
G37*
G36*
G01*
X199345000Y-86065000D02*
X199655000Y-86065000D01*
G75*
G02*
X199810000Y-86220000I0J-155000D01*
G01*
X199810000Y-86645000D01*
G75*
G02*
X199655000Y-86800000I-155000J0D01*
G01*
X199345000Y-86800000D01*
G75*
G02*
X199190000Y-86645000I0J155000D01*
G01*
X199190000Y-86220000D01*
G75*
G02*
X199345000Y-86065000I155000J0D01*
G01*
G37*
G36*
G01*
X199345000Y-87200000D02*
X199655000Y-87200000D01*
G75*
G02*
X199810000Y-87355000I0J-155000D01*
G01*
X199810000Y-87780000D01*
G75*
G02*
X199655000Y-87935000I-155000J0D01*
G01*
X199345000Y-87935000D01*
G75*
G02*
X199190000Y-87780000I0J155000D01*
G01*
X199190000Y-87355000D01*
G75*
G02*
X199345000Y-87200000I155000J0D01*
G01*
G37*
G36*
G01*
X202065000Y-83655000D02*
X202065000Y-83345000D01*
G75*
G02*
X202220000Y-83190000I155000J0D01*
G01*
X202645000Y-83190000D01*
G75*
G02*
X202800000Y-83345000I0J-155000D01*
G01*
X202800000Y-83655000D01*
G75*
G02*
X202645000Y-83810000I-155000J0D01*
G01*
X202220000Y-83810000D01*
G75*
G02*
X202065000Y-83655000I0J155000D01*
G01*
G37*
G36*
G01*
X203200000Y-83655000D02*
X203200000Y-83345000D01*
G75*
G02*
X203355000Y-83190000I155000J0D01*
G01*
X203780000Y-83190000D01*
G75*
G02*
X203935000Y-83345000I0J-155000D01*
G01*
X203935000Y-83655000D01*
G75*
G02*
X203780000Y-83810000I-155000J0D01*
G01*
X203355000Y-83810000D01*
G75*
G02*
X203200000Y-83655000I0J155000D01*
G01*
G37*
G36*
G01*
X184900000Y-45550000D02*
X184900000Y-44650000D01*
G75*
G02*
X185150000Y-44400000I250000J0D01*
G01*
X185850000Y-44400000D01*
G75*
G02*
X186100000Y-44650000I0J-250000D01*
G01*
X186100000Y-45550000D01*
G75*
G02*
X185850000Y-45800000I-250000J0D01*
G01*
X185150000Y-45800000D01*
G75*
G02*
X184900000Y-45550000I0J250000D01*
G01*
G37*
G36*
G01*
X186900000Y-45550000D02*
X186900000Y-44650000D01*
G75*
G02*
X187150000Y-44400000I250000J0D01*
G01*
X187850000Y-44400000D01*
G75*
G02*
X188100000Y-44650000I0J-250000D01*
G01*
X188100000Y-45550000D01*
G75*
G02*
X187850000Y-45800000I-250000J0D01*
G01*
X187150000Y-45800000D01*
G75*
G02*
X186900000Y-45550000I0J250000D01*
G01*
G37*
G36*
G01*
X190160000Y-99955000D02*
X189840000Y-99955000D01*
G75*
G02*
X189680000Y-99795000I0J160000D01*
G01*
X189680000Y-99400000D01*
G75*
G02*
X189840000Y-99240000I160000J0D01*
G01*
X190160000Y-99240000D01*
G75*
G02*
X190320000Y-99400000I0J-160000D01*
G01*
X190320000Y-99795000D01*
G75*
G02*
X190160000Y-99955000I-160000J0D01*
G01*
G37*
G36*
G01*
X190160000Y-98760000D02*
X189840000Y-98760000D01*
G75*
G02*
X189680000Y-98600000I0J160000D01*
G01*
X189680000Y-98205000D01*
G75*
G02*
X189840000Y-98045000I160000J0D01*
G01*
X190160000Y-98045000D01*
G75*
G02*
X190320000Y-98205000I0J-160000D01*
G01*
X190320000Y-98600000D01*
G75*
G02*
X190160000Y-98760000I-160000J0D01*
G01*
G37*
G36*
G01*
X188237500Y-96900000D02*
X187762500Y-96900000D01*
G75*
G02*
X187525000Y-96662500I0J237500D01*
G01*
X187525000Y-96062500D01*
G75*
G02*
X187762500Y-95825000I237500J0D01*
G01*
X188237500Y-95825000D01*
G75*
G02*
X188475000Y-96062500I0J-237500D01*
G01*
X188475000Y-96662500D01*
G75*
G02*
X188237500Y-96900000I-237500J0D01*
G01*
G37*
G36*
G01*
X188237500Y-95175000D02*
X187762500Y-95175000D01*
G75*
G02*
X187525000Y-94937500I0J237500D01*
G01*
X187525000Y-94337500D01*
G75*
G02*
X187762500Y-94100000I237500J0D01*
G01*
X188237500Y-94100000D01*
G75*
G02*
X188475000Y-94337500I0J-237500D01*
G01*
X188475000Y-94937500D01*
G75*
G02*
X188237500Y-95175000I-237500J0D01*
G01*
G37*
D18*
X185000000Y-104500000D03*
X185000000Y-101960000D03*
X185000000Y-99420000D03*
X185000000Y-96880000D03*
X185000000Y-94340000D03*
X185000000Y-91800000D03*
X185000000Y-61320000D03*
X185000000Y-58780000D03*
X185000000Y-56240000D03*
X185000000Y-53700000D03*
G36*
G01*
X203435000Y-68845000D02*
X203435000Y-69155000D01*
G75*
G02*
X203280000Y-69310000I-155000J0D01*
G01*
X202855000Y-69310000D01*
G75*
G02*
X202700000Y-69155000I0J155000D01*
G01*
X202700000Y-68845000D01*
G75*
G02*
X202855000Y-68690000I155000J0D01*
G01*
X203280000Y-68690000D01*
G75*
G02*
X203435000Y-68845000I0J-155000D01*
G01*
G37*
G36*
G01*
X202300000Y-68845000D02*
X202300000Y-69155000D01*
G75*
G02*
X202145000Y-69310000I-155000J0D01*
G01*
X201720000Y-69310000D01*
G75*
G02*
X201565000Y-69155000I0J155000D01*
G01*
X201565000Y-68845000D01*
G75*
G02*
X201720000Y-68690000I155000J0D01*
G01*
X202145000Y-68690000D01*
G75*
G02*
X202300000Y-68845000I0J-155000D01*
G01*
G37*
G36*
G01*
X192565000Y-69155000D02*
X192565000Y-68845000D01*
G75*
G02*
X192720000Y-68690000I155000J0D01*
G01*
X193145000Y-68690000D01*
G75*
G02*
X193300000Y-68845000I0J-155000D01*
G01*
X193300000Y-69155000D01*
G75*
G02*
X193145000Y-69310000I-155000J0D01*
G01*
X192720000Y-69310000D01*
G75*
G02*
X192565000Y-69155000I0J155000D01*
G01*
G37*
G36*
G01*
X193700000Y-69155000D02*
X193700000Y-68845000D01*
G75*
G02*
X193855000Y-68690000I155000J0D01*
G01*
X194280000Y-68690000D01*
G75*
G02*
X194435000Y-68845000I0J-155000D01*
G01*
X194435000Y-69155000D01*
G75*
G02*
X194280000Y-69310000I-155000J0D01*
G01*
X193855000Y-69310000D01*
G75*
G02*
X193700000Y-69155000I0J155000D01*
G01*
G37*
G36*
G01*
X162575000Y-116425000D02*
X162425000Y-116425000D01*
G75*
G02*
X162350000Y-116350000I0J75000D01*
G01*
X162350000Y-115050000D01*
G75*
G02*
X162425000Y-114975000I75000J0D01*
G01*
X162575000Y-114975000D01*
G75*
G02*
X162650000Y-115050000I0J-75000D01*
G01*
X162650000Y-116350000D01*
G75*
G02*
X162575000Y-116425000I-75000J0D01*
G01*
G37*
G36*
G01*
X163075000Y-116425000D02*
X162925000Y-116425000D01*
G75*
G02*
X162850000Y-116350000I0J75000D01*
G01*
X162850000Y-115050000D01*
G75*
G02*
X162925000Y-114975000I75000J0D01*
G01*
X163075000Y-114975000D01*
G75*
G02*
X163150000Y-115050000I0J-75000D01*
G01*
X163150000Y-116350000D01*
G75*
G02*
X163075000Y-116425000I-75000J0D01*
G01*
G37*
G36*
G01*
X163575000Y-116425000D02*
X163425000Y-116425000D01*
G75*
G02*
X163350000Y-116350000I0J75000D01*
G01*
X163350000Y-115050000D01*
G75*
G02*
X163425000Y-114975000I75000J0D01*
G01*
X163575000Y-114975000D01*
G75*
G02*
X163650000Y-115050000I0J-75000D01*
G01*
X163650000Y-116350000D01*
G75*
G02*
X163575000Y-116425000I-75000J0D01*
G01*
G37*
G36*
G01*
X164075000Y-116425000D02*
X163925000Y-116425000D01*
G75*
G02*
X163850000Y-116350000I0J75000D01*
G01*
X163850000Y-115050000D01*
G75*
G02*
X163925000Y-114975000I75000J0D01*
G01*
X164075000Y-114975000D01*
G75*
G02*
X164150000Y-115050000I0J-75000D01*
G01*
X164150000Y-116350000D01*
G75*
G02*
X164075000Y-116425000I-75000J0D01*
G01*
G37*
G36*
G01*
X164575000Y-116425000D02*
X164425000Y-116425000D01*
G75*
G02*
X164350000Y-116350000I0J75000D01*
G01*
X164350000Y-115050000D01*
G75*
G02*
X164425000Y-114975000I75000J0D01*
G01*
X164575000Y-114975000D01*
G75*
G02*
X164650000Y-115050000I0J-75000D01*
G01*
X164650000Y-116350000D01*
G75*
G02*
X164575000Y-116425000I-75000J0D01*
G01*
G37*
G36*
G01*
X164575000Y-112025000D02*
X164425000Y-112025000D01*
G75*
G02*
X164350000Y-111950000I0J75000D01*
G01*
X164350000Y-110650000D01*
G75*
G02*
X164425000Y-110575000I75000J0D01*
G01*
X164575000Y-110575000D01*
G75*
G02*
X164650000Y-110650000I0J-75000D01*
G01*
X164650000Y-111950000D01*
G75*
G02*
X164575000Y-112025000I-75000J0D01*
G01*
G37*
G36*
G01*
X164075000Y-112025000D02*
X163925000Y-112025000D01*
G75*
G02*
X163850000Y-111950000I0J75000D01*
G01*
X163850000Y-110650000D01*
G75*
G02*
X163925000Y-110575000I75000J0D01*
G01*
X164075000Y-110575000D01*
G75*
G02*
X164150000Y-110650000I0J-75000D01*
G01*
X164150000Y-111950000D01*
G75*
G02*
X164075000Y-112025000I-75000J0D01*
G01*
G37*
G36*
G01*
X163575000Y-112025000D02*
X163425000Y-112025000D01*
G75*
G02*
X163350000Y-111950000I0J75000D01*
G01*
X163350000Y-110650000D01*
G75*
G02*
X163425000Y-110575000I75000J0D01*
G01*
X163575000Y-110575000D01*
G75*
G02*
X163650000Y-110650000I0J-75000D01*
G01*
X163650000Y-111950000D01*
G75*
G02*
X163575000Y-112025000I-75000J0D01*
G01*
G37*
G36*
G01*
X163075000Y-112025000D02*
X162925000Y-112025000D01*
G75*
G02*
X162850000Y-111950000I0J75000D01*
G01*
X162850000Y-110650000D01*
G75*
G02*
X162925000Y-110575000I75000J0D01*
G01*
X163075000Y-110575000D01*
G75*
G02*
X163150000Y-110650000I0J-75000D01*
G01*
X163150000Y-111950000D01*
G75*
G02*
X163075000Y-112025000I-75000J0D01*
G01*
G37*
G36*
G01*
X162575000Y-112025000D02*
X162425000Y-112025000D01*
G75*
G02*
X162350000Y-111950000I0J75000D01*
G01*
X162350000Y-110650000D01*
G75*
G02*
X162425000Y-110575000I75000J0D01*
G01*
X162575000Y-110575000D01*
G75*
G02*
X162650000Y-110650000I0J-75000D01*
G01*
X162650000Y-111950000D01*
G75*
G02*
X162575000Y-112025000I-75000J0D01*
G01*
G37*
G36*
G01*
X176450000Y-88600000D02*
X175550000Y-88600000D01*
G75*
G02*
X175300000Y-88350000I0J250000D01*
G01*
X175300000Y-87650000D01*
G75*
G02*
X175550000Y-87400000I250000J0D01*
G01*
X176450000Y-87400000D01*
G75*
G02*
X176700000Y-87650000I0J-250000D01*
G01*
X176700000Y-88350000D01*
G75*
G02*
X176450000Y-88600000I-250000J0D01*
G01*
G37*
G36*
G01*
X176450000Y-86600000D02*
X175550000Y-86600000D01*
G75*
G02*
X175300000Y-86350000I0J250000D01*
G01*
X175300000Y-85650000D01*
G75*
G02*
X175550000Y-85400000I250000J0D01*
G01*
X176450000Y-85400000D01*
G75*
G02*
X176700000Y-85650000I0J-250000D01*
G01*
X176700000Y-86350000D01*
G75*
G02*
X176450000Y-86600000I-250000J0D01*
G01*
G37*
G36*
G01*
X190160000Y-93955000D02*
X189840000Y-93955000D01*
G75*
G02*
X189680000Y-93795000I0J160000D01*
G01*
X189680000Y-93400000D01*
G75*
G02*
X189840000Y-93240000I160000J0D01*
G01*
X190160000Y-93240000D01*
G75*
G02*
X190320000Y-93400000I0J-160000D01*
G01*
X190320000Y-93795000D01*
G75*
G02*
X190160000Y-93955000I-160000J0D01*
G01*
G37*
G36*
G01*
X190160000Y-92760000D02*
X189840000Y-92760000D01*
G75*
G02*
X189680000Y-92600000I0J160000D01*
G01*
X189680000Y-92205000D01*
G75*
G02*
X189840000Y-92045000I160000J0D01*
G01*
X190160000Y-92045000D01*
G75*
G02*
X190320000Y-92205000I0J-160000D01*
G01*
X190320000Y-92600000D01*
G75*
G02*
X190160000Y-92760000I-160000J0D01*
G01*
G37*
D19*
X142150000Y-69025000D03*
X142150000Y-63975000D03*
X144690000Y-69025000D03*
X144690000Y-63975000D03*
X147230000Y-69025000D03*
X147230000Y-63975000D03*
X149770000Y-69025000D03*
X149770000Y-63975000D03*
X152310000Y-69025000D03*
X152310000Y-63975000D03*
X154850000Y-69025000D03*
X154850000Y-63975000D03*
G36*
G01*
X202065000Y-79655000D02*
X202065000Y-79345000D01*
G75*
G02*
X202220000Y-79190000I155000J0D01*
G01*
X202645000Y-79190000D01*
G75*
G02*
X202800000Y-79345000I0J-155000D01*
G01*
X202800000Y-79655000D01*
G75*
G02*
X202645000Y-79810000I-155000J0D01*
G01*
X202220000Y-79810000D01*
G75*
G02*
X202065000Y-79655000I0J155000D01*
G01*
G37*
G36*
G01*
X203200000Y-79655000D02*
X203200000Y-79345000D01*
G75*
G02*
X203355000Y-79190000I155000J0D01*
G01*
X203780000Y-79190000D01*
G75*
G02*
X203935000Y-79345000I0J-155000D01*
G01*
X203935000Y-79655000D01*
G75*
G02*
X203780000Y-79810000I-155000J0D01*
G01*
X203355000Y-79810000D01*
G75*
G02*
X203200000Y-79655000I0J155000D01*
G01*
G37*
G36*
G01*
X196065000Y-38155000D02*
X196065000Y-37845000D01*
G75*
G02*
X196220000Y-37690000I155000J0D01*
G01*
X196645000Y-37690000D01*
G75*
G02*
X196800000Y-37845000I0J-155000D01*
G01*
X196800000Y-38155000D01*
G75*
G02*
X196645000Y-38310000I-155000J0D01*
G01*
X196220000Y-38310000D01*
G75*
G02*
X196065000Y-38155000I0J155000D01*
G01*
G37*
G36*
G01*
X197200000Y-38155000D02*
X197200000Y-37845000D01*
G75*
G02*
X197355000Y-37690000I155000J0D01*
G01*
X197780000Y-37690000D01*
G75*
G02*
X197935000Y-37845000I0J-155000D01*
G01*
X197935000Y-38155000D01*
G75*
G02*
X197780000Y-38310000I-155000J0D01*
G01*
X197355000Y-38310000D01*
G75*
G02*
X197200000Y-38155000I0J155000D01*
G01*
G37*
D12*
X184500000Y-66250000D03*
X184500000Y-63750000D03*
D20*
X197750000Y-40500000D03*
X197750000Y-40000000D03*
X197750000Y-39500000D03*
X196250000Y-39500000D03*
X196250000Y-40000000D03*
X196250000Y-40500000D03*
G36*
G01*
X176200000Y-69350000D02*
X174750000Y-69350000D01*
G75*
G02*
X174500000Y-69100000I0J250000D01*
G01*
X174500000Y-67900000D01*
G75*
G02*
X174750000Y-67650000I250000J0D01*
G01*
X176200000Y-67650000D01*
G75*
G02*
X176450000Y-67900000I0J-250000D01*
G01*
X176450000Y-69100000D01*
G75*
G02*
X176200000Y-69350000I-250000J0D01*
G01*
G37*
D21*
X175975000Y-66000000D03*
D22*
X175475000Y-63500000D03*
X175475000Y-61000000D03*
X175475000Y-58500000D03*
X175475000Y-56000000D03*
D21*
X175975000Y-53500000D03*
D22*
X175475000Y-51000000D03*
G36*
G01*
X199050000Y-47500000D02*
X199050000Y-46350000D01*
G75*
G02*
X199150000Y-46250000I100000J0D01*
G01*
X199350000Y-46250000D01*
G75*
G02*
X199450000Y-46350000I0J-100000D01*
G01*
X199450000Y-47500000D01*
G75*
G02*
X199350000Y-47600000I-100000J0D01*
G01*
X199150000Y-47600000D01*
G75*
G02*
X199050000Y-47500000I0J100000D01*
G01*
G37*
G36*
G01*
X198550000Y-49650000D02*
X198550000Y-48500000D01*
G75*
G02*
X198650000Y-48400000I100000J0D01*
G01*
X198850000Y-48400000D01*
G75*
G02*
X198950000Y-48500000I0J-100000D01*
G01*
X198950000Y-49650000D01*
G75*
G02*
X198850000Y-49750000I-100000J0D01*
G01*
X198650000Y-49750000D01*
G75*
G02*
X198550000Y-49650000I0J100000D01*
G01*
G37*
G36*
G01*
X198050000Y-47500000D02*
X198050000Y-46350000D01*
G75*
G02*
X198150000Y-46250000I100000J0D01*
G01*
X198350000Y-46250000D01*
G75*
G02*
X198450000Y-46350000I0J-100000D01*
G01*
X198450000Y-47500000D01*
G75*
G02*
X198350000Y-47600000I-100000J0D01*
G01*
X198150000Y-47600000D01*
G75*
G02*
X198050000Y-47500000I0J100000D01*
G01*
G37*
G36*
G01*
X197550000Y-49650000D02*
X197550000Y-48500000D01*
G75*
G02*
X197650000Y-48400000I100000J0D01*
G01*
X197850000Y-48400000D01*
G75*
G02*
X197950000Y-48500000I0J-100000D01*
G01*
X197950000Y-49650000D01*
G75*
G02*
X197850000Y-49750000I-100000J0D01*
G01*
X197650000Y-49750000D01*
G75*
G02*
X197550000Y-49650000I0J100000D01*
G01*
G37*
G36*
G01*
X197050000Y-47500000D02*
X197050000Y-46350000D01*
G75*
G02*
X197150000Y-46250000I100000J0D01*
G01*
X197350000Y-46250000D01*
G75*
G02*
X197450000Y-46350000I0J-100000D01*
G01*
X197450000Y-47500000D01*
G75*
G02*
X197350000Y-47600000I-100000J0D01*
G01*
X197150000Y-47600000D01*
G75*
G02*
X197050000Y-47500000I0J100000D01*
G01*
G37*
G36*
G01*
X196550000Y-49650000D02*
X196550000Y-48500000D01*
G75*
G02*
X196650000Y-48400000I100000J0D01*
G01*
X196850000Y-48400000D01*
G75*
G02*
X196950000Y-48500000I0J-100000D01*
G01*
X196950000Y-49650000D01*
G75*
G02*
X196850000Y-49750000I-100000J0D01*
G01*
X196650000Y-49750000D01*
G75*
G02*
X196550000Y-49650000I0J100000D01*
G01*
G37*
G36*
G01*
X196050000Y-47500000D02*
X196050000Y-46350000D01*
G75*
G02*
X196150000Y-46250000I100000J0D01*
G01*
X196350000Y-46250000D01*
G75*
G02*
X196450000Y-46350000I0J-100000D01*
G01*
X196450000Y-47500000D01*
G75*
G02*
X196350000Y-47600000I-100000J0D01*
G01*
X196150000Y-47600000D01*
G75*
G02*
X196050000Y-47500000I0J100000D01*
G01*
G37*
G36*
G01*
X195550000Y-49650000D02*
X195550000Y-48500000D01*
G75*
G02*
X195650000Y-48400000I100000J0D01*
G01*
X195850000Y-48400000D01*
G75*
G02*
X195950000Y-48500000I0J-100000D01*
G01*
X195950000Y-49650000D01*
G75*
G02*
X195850000Y-49750000I-100000J0D01*
G01*
X195650000Y-49750000D01*
G75*
G02*
X195550000Y-49650000I0J100000D01*
G01*
G37*
G36*
G01*
X195050000Y-47500000D02*
X195050000Y-46350000D01*
G75*
G02*
X195150000Y-46250000I100000J0D01*
G01*
X195350000Y-46250000D01*
G75*
G02*
X195450000Y-46350000I0J-100000D01*
G01*
X195450000Y-47500000D01*
G75*
G02*
X195350000Y-47600000I-100000J0D01*
G01*
X195150000Y-47600000D01*
G75*
G02*
X195050000Y-47500000I0J100000D01*
G01*
G37*
G36*
G01*
X194550000Y-49650000D02*
X194550000Y-48500000D01*
G75*
G02*
X194650000Y-48400000I100000J0D01*
G01*
X194850000Y-48400000D01*
G75*
G02*
X194950000Y-48500000I0J-100000D01*
G01*
X194950000Y-49650000D01*
G75*
G02*
X194850000Y-49750000I-100000J0D01*
G01*
X194650000Y-49750000D01*
G75*
G02*
X194550000Y-49650000I0J100000D01*
G01*
G37*
G36*
G01*
X194050000Y-47500000D02*
X194050000Y-46350000D01*
G75*
G02*
X194150000Y-46250000I100000J0D01*
G01*
X194350000Y-46250000D01*
G75*
G02*
X194450000Y-46350000I0J-100000D01*
G01*
X194450000Y-47500000D01*
G75*
G02*
X194350000Y-47600000I-100000J0D01*
G01*
X194150000Y-47600000D01*
G75*
G02*
X194050000Y-47500000I0J100000D01*
G01*
G37*
G36*
G01*
X193550000Y-49650000D02*
X193550000Y-48500000D01*
G75*
G02*
X193650000Y-48400000I100000J0D01*
G01*
X193850000Y-48400000D01*
G75*
G02*
X193950000Y-48500000I0J-100000D01*
G01*
X193950000Y-49650000D01*
G75*
G02*
X193850000Y-49750000I-100000J0D01*
G01*
X193650000Y-49750000D01*
G75*
G02*
X193550000Y-49650000I0J100000D01*
G01*
G37*
G36*
G01*
X193050000Y-47500000D02*
X193050000Y-46350000D01*
G75*
G02*
X193150000Y-46250000I100000J0D01*
G01*
X193350000Y-46250000D01*
G75*
G02*
X193450000Y-46350000I0J-100000D01*
G01*
X193450000Y-47500000D01*
G75*
G02*
X193350000Y-47600000I-100000J0D01*
G01*
X193150000Y-47600000D01*
G75*
G02*
X193050000Y-47500000I0J100000D01*
G01*
G37*
G36*
G01*
X192550000Y-49650000D02*
X192550000Y-48500000D01*
G75*
G02*
X192650000Y-48400000I100000J0D01*
G01*
X192850000Y-48400000D01*
G75*
G02*
X192950000Y-48500000I0J-100000D01*
G01*
X192950000Y-49650000D01*
G75*
G02*
X192850000Y-49750000I-100000J0D01*
G01*
X192650000Y-49750000D01*
G75*
G02*
X192550000Y-49650000I0J100000D01*
G01*
G37*
G36*
G01*
X192050000Y-47500000D02*
X192050000Y-46350000D01*
G75*
G02*
X192150000Y-46250000I100000J0D01*
G01*
X192350000Y-46250000D01*
G75*
G02*
X192450000Y-46350000I0J-100000D01*
G01*
X192450000Y-47500000D01*
G75*
G02*
X192350000Y-47600000I-100000J0D01*
G01*
X192150000Y-47600000D01*
G75*
G02*
X192050000Y-47500000I0J100000D01*
G01*
G37*
G36*
G01*
X191550000Y-49650000D02*
X191550000Y-48500000D01*
G75*
G02*
X191650000Y-48400000I100000J0D01*
G01*
X191850000Y-48400000D01*
G75*
G02*
X191950000Y-48500000I0J-100000D01*
G01*
X191950000Y-49650000D01*
G75*
G02*
X191850000Y-49750000I-100000J0D01*
G01*
X191650000Y-49750000D01*
G75*
G02*
X191550000Y-49650000I0J100000D01*
G01*
G37*
G36*
G01*
X191050000Y-47500000D02*
X191050000Y-46350000D01*
G75*
G02*
X191150000Y-46250000I100000J0D01*
G01*
X191350000Y-46250000D01*
G75*
G02*
X191450000Y-46350000I0J-100000D01*
G01*
X191450000Y-47500000D01*
G75*
G02*
X191350000Y-47600000I-100000J0D01*
G01*
X191150000Y-47600000D01*
G75*
G02*
X191050000Y-47500000I0J100000D01*
G01*
G37*
G36*
G01*
X190550000Y-49650000D02*
X190550000Y-48500000D01*
G75*
G02*
X190650000Y-48400000I100000J0D01*
G01*
X190850000Y-48400000D01*
G75*
G02*
X190950000Y-48500000I0J-100000D01*
G01*
X190950000Y-49650000D01*
G75*
G02*
X190850000Y-49750000I-100000J0D01*
G01*
X190650000Y-49750000D01*
G75*
G02*
X190550000Y-49650000I0J100000D01*
G01*
G37*
G36*
G01*
X190050000Y-47500000D02*
X190050000Y-46350000D01*
G75*
G02*
X190150000Y-46250000I100000J0D01*
G01*
X190350000Y-46250000D01*
G75*
G02*
X190450000Y-46350000I0J-100000D01*
G01*
X190450000Y-47500000D01*
G75*
G02*
X190350000Y-47600000I-100000J0D01*
G01*
X190150000Y-47600000D01*
G75*
G02*
X190050000Y-47500000I0J100000D01*
G01*
G37*
G36*
G01*
X189550000Y-49650000D02*
X189550000Y-48500000D01*
G75*
G02*
X189650000Y-48400000I100000J0D01*
G01*
X189850000Y-48400000D01*
G75*
G02*
X189950000Y-48500000I0J-100000D01*
G01*
X189950000Y-49650000D01*
G75*
G02*
X189850000Y-49750000I-100000J0D01*
G01*
X189650000Y-49750000D01*
G75*
G02*
X189550000Y-49650000I0J100000D01*
G01*
G37*
G36*
G01*
X189050000Y-47500000D02*
X189050000Y-46350000D01*
G75*
G02*
X189150000Y-46250000I100000J0D01*
G01*
X189350000Y-46250000D01*
G75*
G02*
X189450000Y-46350000I0J-100000D01*
G01*
X189450000Y-47500000D01*
G75*
G02*
X189350000Y-47600000I-100000J0D01*
G01*
X189150000Y-47600000D01*
G75*
G02*
X189050000Y-47500000I0J100000D01*
G01*
G37*
G36*
G01*
X188550000Y-49650000D02*
X188550000Y-48500000D01*
G75*
G02*
X188650000Y-48400000I100000J0D01*
G01*
X188850000Y-48400000D01*
G75*
G02*
X188950000Y-48500000I0J-100000D01*
G01*
X188950000Y-49650000D01*
G75*
G02*
X188850000Y-49750000I-100000J0D01*
G01*
X188650000Y-49750000D01*
G75*
G02*
X188550000Y-49650000I0J100000D01*
G01*
G37*
G36*
G01*
X188050000Y-47500000D02*
X188050000Y-46350000D01*
G75*
G02*
X188150000Y-46250000I100000J0D01*
G01*
X188350000Y-46250000D01*
G75*
G02*
X188450000Y-46350000I0J-100000D01*
G01*
X188450000Y-47500000D01*
G75*
G02*
X188350000Y-47600000I-100000J0D01*
G01*
X188150000Y-47600000D01*
G75*
G02*
X188050000Y-47500000I0J100000D01*
G01*
G37*
G36*
G01*
X187550000Y-49650000D02*
X187550000Y-48500000D01*
G75*
G02*
X187650000Y-48400000I100000J0D01*
G01*
X187850000Y-48400000D01*
G75*
G02*
X187950000Y-48500000I0J-100000D01*
G01*
X187950000Y-49650000D01*
G75*
G02*
X187850000Y-49750000I-100000J0D01*
G01*
X187650000Y-49750000D01*
G75*
G02*
X187550000Y-49650000I0J100000D01*
G01*
G37*
G36*
G01*
X184900000Y-48960000D02*
X184900000Y-47040000D01*
G75*
G02*
X185140000Y-46800000I240000J0D01*
G01*
X187060000Y-46800000D01*
G75*
G02*
X187300000Y-47040000I0J-240000D01*
G01*
X187300000Y-48960000D01*
G75*
G02*
X187060000Y-49200000I-240000J0D01*
G01*
X185140000Y-49200000D01*
G75*
G02*
X184900000Y-48960000I0J240000D01*
G01*
G37*
G36*
G01*
X199700000Y-48960000D02*
X199700000Y-47040000D01*
G75*
G02*
X199940000Y-46800000I240000J0D01*
G01*
X201860000Y-46800000D01*
G75*
G02*
X202100000Y-47040000I0J-240000D01*
G01*
X202100000Y-48960000D01*
G75*
G02*
X201860000Y-49200000I-240000J0D01*
G01*
X199940000Y-49200000D01*
G75*
G02*
X199700000Y-48960000I0J240000D01*
G01*
G37*
G36*
G01*
X196660000Y-87955000D02*
X196340000Y-87955000D01*
G75*
G02*
X196180000Y-87795000I0J160000D01*
G01*
X196180000Y-87400000D01*
G75*
G02*
X196340000Y-87240000I160000J0D01*
G01*
X196660000Y-87240000D01*
G75*
G02*
X196820000Y-87400000I0J-160000D01*
G01*
X196820000Y-87795000D01*
G75*
G02*
X196660000Y-87955000I-160000J0D01*
G01*
G37*
G36*
G01*
X196660000Y-86760000D02*
X196340000Y-86760000D01*
G75*
G02*
X196180000Y-86600000I0J160000D01*
G01*
X196180000Y-86205000D01*
G75*
G02*
X196340000Y-86045000I160000J0D01*
G01*
X196660000Y-86045000D01*
G75*
G02*
X196820000Y-86205000I0J-160000D01*
G01*
X196820000Y-86600000D01*
G75*
G02*
X196660000Y-86760000I-160000J0D01*
G01*
G37*
G36*
G01*
X178475000Y-88625000D02*
X177525000Y-88625000D01*
G75*
G02*
X177275000Y-88375000I0J250000D01*
G01*
X177275000Y-87700000D01*
G75*
G02*
X177525000Y-87450000I250000J0D01*
G01*
X178475000Y-87450000D01*
G75*
G02*
X178725000Y-87700000I0J-250000D01*
G01*
X178725000Y-88375000D01*
G75*
G02*
X178475000Y-88625000I-250000J0D01*
G01*
G37*
G36*
G01*
X178475000Y-86550000D02*
X177525000Y-86550000D01*
G75*
G02*
X177275000Y-86300000I0J250000D01*
G01*
X177275000Y-85625000D01*
G75*
G02*
X177525000Y-85375000I250000J0D01*
G01*
X178475000Y-85375000D01*
G75*
G02*
X178725000Y-85625000I0J-250000D01*
G01*
X178725000Y-86300000D01*
G75*
G02*
X178475000Y-86550000I-250000J0D01*
G01*
G37*
G36*
G01*
X199065000Y-73655000D02*
X199065000Y-73345000D01*
G75*
G02*
X199220000Y-73190000I155000J0D01*
G01*
X199645000Y-73190000D01*
G75*
G02*
X199800000Y-73345000I0J-155000D01*
G01*
X199800000Y-73655000D01*
G75*
G02*
X199645000Y-73810000I-155000J0D01*
G01*
X199220000Y-73810000D01*
G75*
G02*
X199065000Y-73655000I0J155000D01*
G01*
G37*
G36*
G01*
X200200000Y-73655000D02*
X200200000Y-73345000D01*
G75*
G02*
X200355000Y-73190000I155000J0D01*
G01*
X200780000Y-73190000D01*
G75*
G02*
X200935000Y-73345000I0J-155000D01*
G01*
X200935000Y-73655000D01*
G75*
G02*
X200780000Y-73810000I-155000J0D01*
G01*
X200355000Y-73810000D01*
G75*
G02*
X200200000Y-73655000I0J155000D01*
G01*
G37*
G36*
G01*
X196545000Y-74660000D02*
X196545000Y-74340000D01*
G75*
G02*
X196705000Y-74180000I160000J0D01*
G01*
X197100000Y-74180000D01*
G75*
G02*
X197260000Y-74340000I0J-160000D01*
G01*
X197260000Y-74660000D01*
G75*
G02*
X197100000Y-74820000I-160000J0D01*
G01*
X196705000Y-74820000D01*
G75*
G02*
X196545000Y-74660000I0J160000D01*
G01*
G37*
G36*
G01*
X197740000Y-74660000D02*
X197740000Y-74340000D01*
G75*
G02*
X197900000Y-74180000I160000J0D01*
G01*
X198295000Y-74180000D01*
G75*
G02*
X198455000Y-74340000I0J-160000D01*
G01*
X198455000Y-74660000D01*
G75*
G02*
X198295000Y-74820000I-160000J0D01*
G01*
X197900000Y-74820000D01*
G75*
G02*
X197740000Y-74660000I0J160000D01*
G01*
G37*
G36*
G01*
X203100000Y-39050000D02*
X203100000Y-39950000D01*
G75*
G02*
X202850000Y-40200000I-250000J0D01*
G01*
X202150000Y-40200000D01*
G75*
G02*
X201900000Y-39950000I0J250000D01*
G01*
X201900000Y-39050000D01*
G75*
G02*
X202150000Y-38800000I250000J0D01*
G01*
X202850000Y-38800000D01*
G75*
G02*
X203100000Y-39050000I0J-250000D01*
G01*
G37*
G36*
G01*
X201100000Y-39050000D02*
X201100000Y-39950000D01*
G75*
G02*
X200850000Y-40200000I-250000J0D01*
G01*
X200150000Y-40200000D01*
G75*
G02*
X199900000Y-39950000I0J250000D01*
G01*
X199900000Y-39050000D01*
G75*
G02*
X200150000Y-38800000I250000J0D01*
G01*
X200850000Y-38800000D01*
G75*
G02*
X201100000Y-39050000I0J-250000D01*
G01*
G37*
G36*
G01*
X184850000Y-106275000D02*
X186150000Y-106275000D01*
G75*
G02*
X186400000Y-106525000I0J-250000D01*
G01*
X186400000Y-107350000D01*
G75*
G02*
X186150000Y-107600000I-250000J0D01*
G01*
X184850000Y-107600000D01*
G75*
G02*
X184600000Y-107350000I0J250000D01*
G01*
X184600000Y-106525000D01*
G75*
G02*
X184850000Y-106275000I250000J0D01*
G01*
G37*
G36*
G01*
X184850000Y-109400000D02*
X186150000Y-109400000D01*
G75*
G02*
X186400000Y-109650000I0J-250000D01*
G01*
X186400000Y-110475000D01*
G75*
G02*
X186150000Y-110725000I-250000J0D01*
G01*
X184850000Y-110725000D01*
G75*
G02*
X184600000Y-110475000I0J250000D01*
G01*
X184600000Y-109650000D01*
G75*
G02*
X184850000Y-109400000I250000J0D01*
G01*
G37*
G36*
G01*
X192545000Y-67160000D02*
X192545000Y-66840000D01*
G75*
G02*
X192705000Y-66680000I160000J0D01*
G01*
X193100000Y-66680000D01*
G75*
G02*
X193260000Y-66840000I0J-160000D01*
G01*
X193260000Y-67160000D01*
G75*
G02*
X193100000Y-67320000I-160000J0D01*
G01*
X192705000Y-67320000D01*
G75*
G02*
X192545000Y-67160000I0J160000D01*
G01*
G37*
G36*
G01*
X193740000Y-67160000D02*
X193740000Y-66840000D01*
G75*
G02*
X193900000Y-66680000I160000J0D01*
G01*
X194295000Y-66680000D01*
G75*
G02*
X194455000Y-66840000I0J-160000D01*
G01*
X194455000Y-67160000D01*
G75*
G02*
X194295000Y-67320000I-160000J0D01*
G01*
X193900000Y-67320000D01*
G75*
G02*
X193740000Y-67160000I0J160000D01*
G01*
G37*
G36*
G01*
X194455000Y-67840000D02*
X194455000Y-68160000D01*
G75*
G02*
X194295000Y-68320000I-160000J0D01*
G01*
X193900000Y-68320000D01*
G75*
G02*
X193740000Y-68160000I0J160000D01*
G01*
X193740000Y-67840000D01*
G75*
G02*
X193900000Y-67680000I160000J0D01*
G01*
X194295000Y-67680000D01*
G75*
G02*
X194455000Y-67840000I0J-160000D01*
G01*
G37*
G36*
G01*
X193260000Y-67840000D02*
X193260000Y-68160000D01*
G75*
G02*
X193100000Y-68320000I-160000J0D01*
G01*
X192705000Y-68320000D01*
G75*
G02*
X192545000Y-68160000I0J160000D01*
G01*
X192545000Y-67840000D01*
G75*
G02*
X192705000Y-67680000I160000J0D01*
G01*
X193100000Y-67680000D01*
G75*
G02*
X193260000Y-67840000I0J-160000D01*
G01*
G37*
G36*
G01*
X202045000Y-71680000D02*
X202045000Y-71360000D01*
G75*
G02*
X202205000Y-71200000I160000J0D01*
G01*
X202600000Y-71200000D01*
G75*
G02*
X202760000Y-71360000I0J-160000D01*
G01*
X202760000Y-71680000D01*
G75*
G02*
X202600000Y-71840000I-160000J0D01*
G01*
X202205000Y-71840000D01*
G75*
G02*
X202045000Y-71680000I0J160000D01*
G01*
G37*
G36*
G01*
X203240000Y-71680000D02*
X203240000Y-71360000D01*
G75*
G02*
X203400000Y-71200000I160000J0D01*
G01*
X203795000Y-71200000D01*
G75*
G02*
X203955000Y-71360000I0J-160000D01*
G01*
X203955000Y-71680000D01*
G75*
G02*
X203795000Y-71840000I-160000J0D01*
G01*
X203400000Y-71840000D01*
G75*
G02*
X203240000Y-71680000I0J160000D01*
G01*
G37*
G36*
G01*
X188237500Y-93400000D02*
X187762500Y-93400000D01*
G75*
G02*
X187525000Y-93162500I0J237500D01*
G01*
X187525000Y-92562500D01*
G75*
G02*
X187762500Y-92325000I237500J0D01*
G01*
X188237500Y-92325000D01*
G75*
G02*
X188475000Y-92562500I0J-237500D01*
G01*
X188475000Y-93162500D01*
G75*
G02*
X188237500Y-93400000I-237500J0D01*
G01*
G37*
G36*
G01*
X188237500Y-91675000D02*
X187762500Y-91675000D01*
G75*
G02*
X187525000Y-91437500I0J237500D01*
G01*
X187525000Y-90837500D01*
G75*
G02*
X187762500Y-90600000I237500J0D01*
G01*
X188237500Y-90600000D01*
G75*
G02*
X188475000Y-90837500I0J-237500D01*
G01*
X188475000Y-91437500D01*
G75*
G02*
X188237500Y-91675000I-237500J0D01*
G01*
G37*
G36*
G01*
X193825000Y-85400000D02*
X193675000Y-85400000D01*
G75*
G02*
X193600000Y-85325000I0J75000D01*
G01*
X193600000Y-84000000D01*
G75*
G02*
X193675000Y-83925000I75000J0D01*
G01*
X193825000Y-83925000D01*
G75*
G02*
X193900000Y-84000000I0J-75000D01*
G01*
X193900000Y-85325000D01*
G75*
G02*
X193825000Y-85400000I-75000J0D01*
G01*
G37*
G36*
G01*
X194325000Y-85400000D02*
X194175000Y-85400000D01*
G75*
G02*
X194100000Y-85325000I0J75000D01*
G01*
X194100000Y-84000000D01*
G75*
G02*
X194175000Y-83925000I75000J0D01*
G01*
X194325000Y-83925000D01*
G75*
G02*
X194400000Y-84000000I0J-75000D01*
G01*
X194400000Y-85325000D01*
G75*
G02*
X194325000Y-85400000I-75000J0D01*
G01*
G37*
G36*
G01*
X194825000Y-85400000D02*
X194675000Y-85400000D01*
G75*
G02*
X194600000Y-85325000I0J75000D01*
G01*
X194600000Y-84000000D01*
G75*
G02*
X194675000Y-83925000I75000J0D01*
G01*
X194825000Y-83925000D01*
G75*
G02*
X194900000Y-84000000I0J-75000D01*
G01*
X194900000Y-85325000D01*
G75*
G02*
X194825000Y-85400000I-75000J0D01*
G01*
G37*
G36*
G01*
X195325000Y-85400000D02*
X195175000Y-85400000D01*
G75*
G02*
X195100000Y-85325000I0J75000D01*
G01*
X195100000Y-84000000D01*
G75*
G02*
X195175000Y-83925000I75000J0D01*
G01*
X195325000Y-83925000D01*
G75*
G02*
X195400000Y-84000000I0J-75000D01*
G01*
X195400000Y-85325000D01*
G75*
G02*
X195325000Y-85400000I-75000J0D01*
G01*
G37*
G36*
G01*
X195825000Y-85400000D02*
X195675000Y-85400000D01*
G75*
G02*
X195600000Y-85325000I0J75000D01*
G01*
X195600000Y-84000000D01*
G75*
G02*
X195675000Y-83925000I75000J0D01*
G01*
X195825000Y-83925000D01*
G75*
G02*
X195900000Y-84000000I0J-75000D01*
G01*
X195900000Y-85325000D01*
G75*
G02*
X195825000Y-85400000I-75000J0D01*
G01*
G37*
G36*
G01*
X196325000Y-85400000D02*
X196175000Y-85400000D01*
G75*
G02*
X196100000Y-85325000I0J75000D01*
G01*
X196100000Y-84000000D01*
G75*
G02*
X196175000Y-83925000I75000J0D01*
G01*
X196325000Y-83925000D01*
G75*
G02*
X196400000Y-84000000I0J-75000D01*
G01*
X196400000Y-85325000D01*
G75*
G02*
X196325000Y-85400000I-75000J0D01*
G01*
G37*
G36*
G01*
X196825000Y-85400000D02*
X196675000Y-85400000D01*
G75*
G02*
X196600000Y-85325000I0J75000D01*
G01*
X196600000Y-84000000D01*
G75*
G02*
X196675000Y-83925000I75000J0D01*
G01*
X196825000Y-83925000D01*
G75*
G02*
X196900000Y-84000000I0J-75000D01*
G01*
X196900000Y-85325000D01*
G75*
G02*
X196825000Y-85400000I-75000J0D01*
G01*
G37*
G36*
G01*
X197325000Y-85400000D02*
X197175000Y-85400000D01*
G75*
G02*
X197100000Y-85325000I0J75000D01*
G01*
X197100000Y-84000000D01*
G75*
G02*
X197175000Y-83925000I75000J0D01*
G01*
X197325000Y-83925000D01*
G75*
G02*
X197400000Y-84000000I0J-75000D01*
G01*
X197400000Y-85325000D01*
G75*
G02*
X197325000Y-85400000I-75000J0D01*
G01*
G37*
G36*
G01*
X197825000Y-85400000D02*
X197675000Y-85400000D01*
G75*
G02*
X197600000Y-85325000I0J75000D01*
G01*
X197600000Y-84000000D01*
G75*
G02*
X197675000Y-83925000I75000J0D01*
G01*
X197825000Y-83925000D01*
G75*
G02*
X197900000Y-84000000I0J-75000D01*
G01*
X197900000Y-85325000D01*
G75*
G02*
X197825000Y-85400000I-75000J0D01*
G01*
G37*
G36*
G01*
X198325000Y-85400000D02*
X198175000Y-85400000D01*
G75*
G02*
X198100000Y-85325000I0J75000D01*
G01*
X198100000Y-84000000D01*
G75*
G02*
X198175000Y-83925000I75000J0D01*
G01*
X198325000Y-83925000D01*
G75*
G02*
X198400000Y-84000000I0J-75000D01*
G01*
X198400000Y-85325000D01*
G75*
G02*
X198325000Y-85400000I-75000J0D01*
G01*
G37*
G36*
G01*
X198825000Y-85400000D02*
X198675000Y-85400000D01*
G75*
G02*
X198600000Y-85325000I0J75000D01*
G01*
X198600000Y-84000000D01*
G75*
G02*
X198675000Y-83925000I75000J0D01*
G01*
X198825000Y-83925000D01*
G75*
G02*
X198900000Y-84000000I0J-75000D01*
G01*
X198900000Y-85325000D01*
G75*
G02*
X198825000Y-85400000I-75000J0D01*
G01*
G37*
G36*
G01*
X199325000Y-85400000D02*
X199175000Y-85400000D01*
G75*
G02*
X199100000Y-85325000I0J75000D01*
G01*
X199100000Y-84000000D01*
G75*
G02*
X199175000Y-83925000I75000J0D01*
G01*
X199325000Y-83925000D01*
G75*
G02*
X199400000Y-84000000I0J-75000D01*
G01*
X199400000Y-85325000D01*
G75*
G02*
X199325000Y-85400000I-75000J0D01*
G01*
G37*
G36*
G01*
X201325000Y-83400000D02*
X200000000Y-83400000D01*
G75*
G02*
X199925000Y-83325000I0J75000D01*
G01*
X199925000Y-83175000D01*
G75*
G02*
X200000000Y-83100000I75000J0D01*
G01*
X201325000Y-83100000D01*
G75*
G02*
X201400000Y-83175000I0J-75000D01*
G01*
X201400000Y-83325000D01*
G75*
G02*
X201325000Y-83400000I-75000J0D01*
G01*
G37*
G36*
G01*
X201325000Y-82900000D02*
X200000000Y-82900000D01*
G75*
G02*
X199925000Y-82825000I0J75000D01*
G01*
X199925000Y-82675000D01*
G75*
G02*
X200000000Y-82600000I75000J0D01*
G01*
X201325000Y-82600000D01*
G75*
G02*
X201400000Y-82675000I0J-75000D01*
G01*
X201400000Y-82825000D01*
G75*
G02*
X201325000Y-82900000I-75000J0D01*
G01*
G37*
G36*
G01*
X201325000Y-82400000D02*
X200000000Y-82400000D01*
G75*
G02*
X199925000Y-82325000I0J75000D01*
G01*
X199925000Y-82175000D01*
G75*
G02*
X200000000Y-82100000I75000J0D01*
G01*
X201325000Y-82100000D01*
G75*
G02*
X201400000Y-82175000I0J-75000D01*
G01*
X201400000Y-82325000D01*
G75*
G02*
X201325000Y-82400000I-75000J0D01*
G01*
G37*
G36*
G01*
X201325000Y-81900000D02*
X200000000Y-81900000D01*
G75*
G02*
X199925000Y-81825000I0J75000D01*
G01*
X199925000Y-81675000D01*
G75*
G02*
X200000000Y-81600000I75000J0D01*
G01*
X201325000Y-81600000D01*
G75*
G02*
X201400000Y-81675000I0J-75000D01*
G01*
X201400000Y-81825000D01*
G75*
G02*
X201325000Y-81900000I-75000J0D01*
G01*
G37*
G36*
G01*
X201325000Y-81400000D02*
X200000000Y-81400000D01*
G75*
G02*
X199925000Y-81325000I0J75000D01*
G01*
X199925000Y-81175000D01*
G75*
G02*
X200000000Y-81100000I75000J0D01*
G01*
X201325000Y-81100000D01*
G75*
G02*
X201400000Y-81175000I0J-75000D01*
G01*
X201400000Y-81325000D01*
G75*
G02*
X201325000Y-81400000I-75000J0D01*
G01*
G37*
G36*
G01*
X201325000Y-80900000D02*
X200000000Y-80900000D01*
G75*
G02*
X199925000Y-80825000I0J75000D01*
G01*
X199925000Y-80675000D01*
G75*
G02*
X200000000Y-80600000I75000J0D01*
G01*
X201325000Y-80600000D01*
G75*
G02*
X201400000Y-80675000I0J-75000D01*
G01*
X201400000Y-80825000D01*
G75*
G02*
X201325000Y-80900000I-75000J0D01*
G01*
G37*
G36*
G01*
X201325000Y-80400000D02*
X200000000Y-80400000D01*
G75*
G02*
X199925000Y-80325000I0J75000D01*
G01*
X199925000Y-80175000D01*
G75*
G02*
X200000000Y-80100000I75000J0D01*
G01*
X201325000Y-80100000D01*
G75*
G02*
X201400000Y-80175000I0J-75000D01*
G01*
X201400000Y-80325000D01*
G75*
G02*
X201325000Y-80400000I-75000J0D01*
G01*
G37*
G36*
G01*
X201325000Y-79900000D02*
X200000000Y-79900000D01*
G75*
G02*
X199925000Y-79825000I0J75000D01*
G01*
X199925000Y-79675000D01*
G75*
G02*
X200000000Y-79600000I75000J0D01*
G01*
X201325000Y-79600000D01*
G75*
G02*
X201400000Y-79675000I0J-75000D01*
G01*
X201400000Y-79825000D01*
G75*
G02*
X201325000Y-79900000I-75000J0D01*
G01*
G37*
G36*
G01*
X201325000Y-79400000D02*
X200000000Y-79400000D01*
G75*
G02*
X199925000Y-79325000I0J75000D01*
G01*
X199925000Y-79175000D01*
G75*
G02*
X200000000Y-79100000I75000J0D01*
G01*
X201325000Y-79100000D01*
G75*
G02*
X201400000Y-79175000I0J-75000D01*
G01*
X201400000Y-79325000D01*
G75*
G02*
X201325000Y-79400000I-75000J0D01*
G01*
G37*
G36*
G01*
X201325000Y-78900000D02*
X200000000Y-78900000D01*
G75*
G02*
X199925000Y-78825000I0J75000D01*
G01*
X199925000Y-78675000D01*
G75*
G02*
X200000000Y-78600000I75000J0D01*
G01*
X201325000Y-78600000D01*
G75*
G02*
X201400000Y-78675000I0J-75000D01*
G01*
X201400000Y-78825000D01*
G75*
G02*
X201325000Y-78900000I-75000J0D01*
G01*
G37*
G36*
G01*
X201325000Y-78400000D02*
X200000000Y-78400000D01*
G75*
G02*
X199925000Y-78325000I0J75000D01*
G01*
X199925000Y-78175000D01*
G75*
G02*
X200000000Y-78100000I75000J0D01*
G01*
X201325000Y-78100000D01*
G75*
G02*
X201400000Y-78175000I0J-75000D01*
G01*
X201400000Y-78325000D01*
G75*
G02*
X201325000Y-78400000I-75000J0D01*
G01*
G37*
G36*
G01*
X201325000Y-77900000D02*
X200000000Y-77900000D01*
G75*
G02*
X199925000Y-77825000I0J75000D01*
G01*
X199925000Y-77675000D01*
G75*
G02*
X200000000Y-77600000I75000J0D01*
G01*
X201325000Y-77600000D01*
G75*
G02*
X201400000Y-77675000I0J-75000D01*
G01*
X201400000Y-77825000D01*
G75*
G02*
X201325000Y-77900000I-75000J0D01*
G01*
G37*
G36*
G01*
X199325000Y-77075000D02*
X199175000Y-77075000D01*
G75*
G02*
X199100000Y-77000000I0J75000D01*
G01*
X199100000Y-75675000D01*
G75*
G02*
X199175000Y-75600000I75000J0D01*
G01*
X199325000Y-75600000D01*
G75*
G02*
X199400000Y-75675000I0J-75000D01*
G01*
X199400000Y-77000000D01*
G75*
G02*
X199325000Y-77075000I-75000J0D01*
G01*
G37*
G36*
G01*
X198825000Y-77075000D02*
X198675000Y-77075000D01*
G75*
G02*
X198600000Y-77000000I0J75000D01*
G01*
X198600000Y-75675000D01*
G75*
G02*
X198675000Y-75600000I75000J0D01*
G01*
X198825000Y-75600000D01*
G75*
G02*
X198900000Y-75675000I0J-75000D01*
G01*
X198900000Y-77000000D01*
G75*
G02*
X198825000Y-77075000I-75000J0D01*
G01*
G37*
G36*
G01*
X198325000Y-77075000D02*
X198175000Y-77075000D01*
G75*
G02*
X198100000Y-77000000I0J75000D01*
G01*
X198100000Y-75675000D01*
G75*
G02*
X198175000Y-75600000I75000J0D01*
G01*
X198325000Y-75600000D01*
G75*
G02*
X198400000Y-75675000I0J-75000D01*
G01*
X198400000Y-77000000D01*
G75*
G02*
X198325000Y-77075000I-75000J0D01*
G01*
G37*
G36*
G01*
X197825000Y-77075000D02*
X197675000Y-77075000D01*
G75*
G02*
X197600000Y-77000000I0J75000D01*
G01*
X197600000Y-75675000D01*
G75*
G02*
X197675000Y-75600000I75000J0D01*
G01*
X197825000Y-75600000D01*
G75*
G02*
X197900000Y-75675000I0J-75000D01*
G01*
X197900000Y-77000000D01*
G75*
G02*
X197825000Y-77075000I-75000J0D01*
G01*
G37*
G36*
G01*
X197325000Y-77075000D02*
X197175000Y-77075000D01*
G75*
G02*
X197100000Y-77000000I0J75000D01*
G01*
X197100000Y-75675000D01*
G75*
G02*
X197175000Y-75600000I75000J0D01*
G01*
X197325000Y-75600000D01*
G75*
G02*
X197400000Y-75675000I0J-75000D01*
G01*
X197400000Y-77000000D01*
G75*
G02*
X197325000Y-77075000I-75000J0D01*
G01*
G37*
G36*
G01*
X196825000Y-77075000D02*
X196675000Y-77075000D01*
G75*
G02*
X196600000Y-77000000I0J75000D01*
G01*
X196600000Y-75675000D01*
G75*
G02*
X196675000Y-75600000I75000J0D01*
G01*
X196825000Y-75600000D01*
G75*
G02*
X196900000Y-75675000I0J-75000D01*
G01*
X196900000Y-77000000D01*
G75*
G02*
X196825000Y-77075000I-75000J0D01*
G01*
G37*
G36*
G01*
X196325000Y-77075000D02*
X196175000Y-77075000D01*
G75*
G02*
X196100000Y-77000000I0J75000D01*
G01*
X196100000Y-75675000D01*
G75*
G02*
X196175000Y-75600000I75000J0D01*
G01*
X196325000Y-75600000D01*
G75*
G02*
X196400000Y-75675000I0J-75000D01*
G01*
X196400000Y-77000000D01*
G75*
G02*
X196325000Y-77075000I-75000J0D01*
G01*
G37*
G36*
G01*
X195825000Y-77075000D02*
X195675000Y-77075000D01*
G75*
G02*
X195600000Y-77000000I0J75000D01*
G01*
X195600000Y-75675000D01*
G75*
G02*
X195675000Y-75600000I75000J0D01*
G01*
X195825000Y-75600000D01*
G75*
G02*
X195900000Y-75675000I0J-75000D01*
G01*
X195900000Y-77000000D01*
G75*
G02*
X195825000Y-77075000I-75000J0D01*
G01*
G37*
G36*
G01*
X195325000Y-77075000D02*
X195175000Y-77075000D01*
G75*
G02*
X195100000Y-77000000I0J75000D01*
G01*
X195100000Y-75675000D01*
G75*
G02*
X195175000Y-75600000I75000J0D01*
G01*
X195325000Y-75600000D01*
G75*
G02*
X195400000Y-75675000I0J-75000D01*
G01*
X195400000Y-77000000D01*
G75*
G02*
X195325000Y-77075000I-75000J0D01*
G01*
G37*
G36*
G01*
X194825000Y-77075000D02*
X194675000Y-77075000D01*
G75*
G02*
X194600000Y-77000000I0J75000D01*
G01*
X194600000Y-75675000D01*
G75*
G02*
X194675000Y-75600000I75000J0D01*
G01*
X194825000Y-75600000D01*
G75*
G02*
X194900000Y-75675000I0J-75000D01*
G01*
X194900000Y-77000000D01*
G75*
G02*
X194825000Y-77075000I-75000J0D01*
G01*
G37*
G36*
G01*
X194325000Y-77075000D02*
X194175000Y-77075000D01*
G75*
G02*
X194100000Y-77000000I0J75000D01*
G01*
X194100000Y-75675000D01*
G75*
G02*
X194175000Y-75600000I75000J0D01*
G01*
X194325000Y-75600000D01*
G75*
G02*
X194400000Y-75675000I0J-75000D01*
G01*
X194400000Y-77000000D01*
G75*
G02*
X194325000Y-77075000I-75000J0D01*
G01*
G37*
G36*
G01*
X193825000Y-77075000D02*
X193675000Y-77075000D01*
G75*
G02*
X193600000Y-77000000I0J75000D01*
G01*
X193600000Y-75675000D01*
G75*
G02*
X193675000Y-75600000I75000J0D01*
G01*
X193825000Y-75600000D01*
G75*
G02*
X193900000Y-75675000I0J-75000D01*
G01*
X193900000Y-77000000D01*
G75*
G02*
X193825000Y-77075000I-75000J0D01*
G01*
G37*
G36*
G01*
X193000000Y-77900000D02*
X191675000Y-77900000D01*
G75*
G02*
X191600000Y-77825000I0J75000D01*
G01*
X191600000Y-77675000D01*
G75*
G02*
X191675000Y-77600000I75000J0D01*
G01*
X193000000Y-77600000D01*
G75*
G02*
X193075000Y-77675000I0J-75000D01*
G01*
X193075000Y-77825000D01*
G75*
G02*
X193000000Y-77900000I-75000J0D01*
G01*
G37*
G36*
G01*
X193000000Y-78400000D02*
X191675000Y-78400000D01*
G75*
G02*
X191600000Y-78325000I0J75000D01*
G01*
X191600000Y-78175000D01*
G75*
G02*
X191675000Y-78100000I75000J0D01*
G01*
X193000000Y-78100000D01*
G75*
G02*
X193075000Y-78175000I0J-75000D01*
G01*
X193075000Y-78325000D01*
G75*
G02*
X193000000Y-78400000I-75000J0D01*
G01*
G37*
G36*
G01*
X193000000Y-78900000D02*
X191675000Y-78900000D01*
G75*
G02*
X191600000Y-78825000I0J75000D01*
G01*
X191600000Y-78675000D01*
G75*
G02*
X191675000Y-78600000I75000J0D01*
G01*
X193000000Y-78600000D01*
G75*
G02*
X193075000Y-78675000I0J-75000D01*
G01*
X193075000Y-78825000D01*
G75*
G02*
X193000000Y-78900000I-75000J0D01*
G01*
G37*
G36*
G01*
X193000000Y-79400000D02*
X191675000Y-79400000D01*
G75*
G02*
X191600000Y-79325000I0J75000D01*
G01*
X191600000Y-79175000D01*
G75*
G02*
X191675000Y-79100000I75000J0D01*
G01*
X193000000Y-79100000D01*
G75*
G02*
X193075000Y-79175000I0J-75000D01*
G01*
X193075000Y-79325000D01*
G75*
G02*
X193000000Y-79400000I-75000J0D01*
G01*
G37*
G36*
G01*
X193000000Y-79900000D02*
X191675000Y-79900000D01*
G75*
G02*
X191600000Y-79825000I0J75000D01*
G01*
X191600000Y-79675000D01*
G75*
G02*
X191675000Y-79600000I75000J0D01*
G01*
X193000000Y-79600000D01*
G75*
G02*
X193075000Y-79675000I0J-75000D01*
G01*
X193075000Y-79825000D01*
G75*
G02*
X193000000Y-79900000I-75000J0D01*
G01*
G37*
G36*
G01*
X193000000Y-80400000D02*
X191675000Y-80400000D01*
G75*
G02*
X191600000Y-80325000I0J75000D01*
G01*
X191600000Y-80175000D01*
G75*
G02*
X191675000Y-80100000I75000J0D01*
G01*
X193000000Y-80100000D01*
G75*
G02*
X193075000Y-80175000I0J-75000D01*
G01*
X193075000Y-80325000D01*
G75*
G02*
X193000000Y-80400000I-75000J0D01*
G01*
G37*
G36*
G01*
X193000000Y-80900000D02*
X191675000Y-80900000D01*
G75*
G02*
X191600000Y-80825000I0J75000D01*
G01*
X191600000Y-80675000D01*
G75*
G02*
X191675000Y-80600000I75000J0D01*
G01*
X193000000Y-80600000D01*
G75*
G02*
X193075000Y-80675000I0J-75000D01*
G01*
X193075000Y-80825000D01*
G75*
G02*
X193000000Y-80900000I-75000J0D01*
G01*
G37*
G36*
G01*
X193000000Y-81400000D02*
X191675000Y-81400000D01*
G75*
G02*
X191600000Y-81325000I0J75000D01*
G01*
X191600000Y-81175000D01*
G75*
G02*
X191675000Y-81100000I75000J0D01*
G01*
X193000000Y-81100000D01*
G75*
G02*
X193075000Y-81175000I0J-75000D01*
G01*
X193075000Y-81325000D01*
G75*
G02*
X193000000Y-81400000I-75000J0D01*
G01*
G37*
G36*
G01*
X193000000Y-81900000D02*
X191675000Y-81900000D01*
G75*
G02*
X191600000Y-81825000I0J75000D01*
G01*
X191600000Y-81675000D01*
G75*
G02*
X191675000Y-81600000I75000J0D01*
G01*
X193000000Y-81600000D01*
G75*
G02*
X193075000Y-81675000I0J-75000D01*
G01*
X193075000Y-81825000D01*
G75*
G02*
X193000000Y-81900000I-75000J0D01*
G01*
G37*
G36*
G01*
X193000000Y-82400000D02*
X191675000Y-82400000D01*
G75*
G02*
X191600000Y-82325000I0J75000D01*
G01*
X191600000Y-82175000D01*
G75*
G02*
X191675000Y-82100000I75000J0D01*
G01*
X193000000Y-82100000D01*
G75*
G02*
X193075000Y-82175000I0J-75000D01*
G01*
X193075000Y-82325000D01*
G75*
G02*
X193000000Y-82400000I-75000J0D01*
G01*
G37*
G36*
G01*
X193000000Y-82900000D02*
X191675000Y-82900000D01*
G75*
G02*
X191600000Y-82825000I0J75000D01*
G01*
X191600000Y-82675000D01*
G75*
G02*
X191675000Y-82600000I75000J0D01*
G01*
X193000000Y-82600000D01*
G75*
G02*
X193075000Y-82675000I0J-75000D01*
G01*
X193075000Y-82825000D01*
G75*
G02*
X193000000Y-82900000I-75000J0D01*
G01*
G37*
G36*
G01*
X193000000Y-83400000D02*
X191675000Y-83400000D01*
G75*
G02*
X191600000Y-83325000I0J75000D01*
G01*
X191600000Y-83175000D01*
G75*
G02*
X191675000Y-83100000I75000J0D01*
G01*
X193000000Y-83100000D01*
G75*
G02*
X193075000Y-83175000I0J-75000D01*
G01*
X193075000Y-83325000D01*
G75*
G02*
X193000000Y-83400000I-75000J0D01*
G01*
G37*
G36*
G01*
X166231840Y-105571840D02*
X163131840Y-105571840D01*
G75*
G02*
X162881840Y-105321840I0J250000D01*
G01*
X162881840Y-104021840D01*
G75*
G02*
X163131840Y-103771840I250000J0D01*
G01*
X166231840Y-103771840D01*
G75*
G02*
X166481840Y-104021840I0J-250000D01*
G01*
X166481840Y-105321840D01*
G75*
G02*
X166231840Y-105571840I-250000J0D01*
G01*
G37*
D23*
X164681840Y-101171840D03*
X164681840Y-97671840D03*
X164681840Y-94171840D03*
G36*
G01*
X190160000Y-102955000D02*
X189840000Y-102955000D01*
G75*
G02*
X189680000Y-102795000I0J160000D01*
G01*
X189680000Y-102400000D01*
G75*
G02*
X189840000Y-102240000I160000J0D01*
G01*
X190160000Y-102240000D01*
G75*
G02*
X190320000Y-102400000I0J-160000D01*
G01*
X190320000Y-102795000D01*
G75*
G02*
X190160000Y-102955000I-160000J0D01*
G01*
G37*
G36*
G01*
X190160000Y-101760000D02*
X189840000Y-101760000D01*
G75*
G02*
X189680000Y-101600000I0J160000D01*
G01*
X189680000Y-101205000D01*
G75*
G02*
X189840000Y-101045000I160000J0D01*
G01*
X190160000Y-101045000D01*
G75*
G02*
X190320000Y-101205000I0J-160000D01*
G01*
X190320000Y-101600000D01*
G75*
G02*
X190160000Y-101760000I-160000J0D01*
G01*
G37*
G36*
G01*
X194435000Y-63345000D02*
X194435000Y-63655000D01*
G75*
G02*
X194280000Y-63810000I-155000J0D01*
G01*
X193855000Y-63810000D01*
G75*
G02*
X193700000Y-63655000I0J155000D01*
G01*
X193700000Y-63345000D01*
G75*
G02*
X193855000Y-63190000I155000J0D01*
G01*
X194280000Y-63190000D01*
G75*
G02*
X194435000Y-63345000I0J-155000D01*
G01*
G37*
G36*
G01*
X193300000Y-63345000D02*
X193300000Y-63655000D01*
G75*
G02*
X193145000Y-63810000I-155000J0D01*
G01*
X192720000Y-63810000D01*
G75*
G02*
X192565000Y-63655000I0J155000D01*
G01*
X192565000Y-63345000D01*
G75*
G02*
X192720000Y-63190000I155000J0D01*
G01*
X193145000Y-63190000D01*
G75*
G02*
X193300000Y-63345000I0J-155000D01*
G01*
G37*
G36*
G01*
X140840000Y-96545000D02*
X141160000Y-96545000D01*
G75*
G02*
X141320000Y-96705000I0J-160000D01*
G01*
X141320000Y-97100000D01*
G75*
G02*
X141160000Y-97260000I-160000J0D01*
G01*
X140840000Y-97260000D01*
G75*
G02*
X140680000Y-97100000I0J160000D01*
G01*
X140680000Y-96705000D01*
G75*
G02*
X140840000Y-96545000I160000J0D01*
G01*
G37*
G36*
G01*
X140840000Y-97740000D02*
X141160000Y-97740000D01*
G75*
G02*
X141320000Y-97900000I0J-160000D01*
G01*
X141320000Y-98295000D01*
G75*
G02*
X141160000Y-98455000I-160000J0D01*
G01*
X140840000Y-98455000D01*
G75*
G02*
X140680000Y-98295000I0J160000D01*
G01*
X140680000Y-97900000D01*
G75*
G02*
X140840000Y-97740000I160000J0D01*
G01*
G37*
G36*
G01*
X180650001Y-60125000D02*
X182349999Y-60125000D01*
G75*
G02*
X182600000Y-60375001I0J-250001D01*
G01*
X182600000Y-61299999D01*
G75*
G02*
X182349999Y-61550000I-250001J0D01*
G01*
X180650001Y-61550000D01*
G75*
G02*
X180400000Y-61299999I0J250001D01*
G01*
X180400000Y-60375001D01*
G75*
G02*
X180650001Y-60125000I250001J0D01*
G01*
G37*
G36*
G01*
X180650001Y-62450000D02*
X182349999Y-62450000D01*
G75*
G02*
X182600000Y-62700001I0J-250001D01*
G01*
X182600000Y-63624999D01*
G75*
G02*
X182349999Y-63875000I-250001J0D01*
G01*
X180650001Y-63875000D01*
G75*
G02*
X180400000Y-63624999I0J250001D01*
G01*
X180400000Y-62700001D01*
G75*
G02*
X180650001Y-62450000I250001J0D01*
G01*
G37*
G36*
G01*
X160550000Y-36000000D02*
X160550000Y-34850000D01*
G75*
G02*
X160650000Y-34750000I100000J0D01*
G01*
X160850000Y-34750000D01*
G75*
G02*
X160950000Y-34850000I0J-100000D01*
G01*
X160950000Y-36000000D01*
G75*
G02*
X160850000Y-36100000I-100000J0D01*
G01*
X160650000Y-36100000D01*
G75*
G02*
X160550000Y-36000000I0J100000D01*
G01*
G37*
G36*
G01*
X160050000Y-38150000D02*
X160050000Y-37000000D01*
G75*
G02*
X160150000Y-36900000I100000J0D01*
G01*
X160350000Y-36900000D01*
G75*
G02*
X160450000Y-37000000I0J-100000D01*
G01*
X160450000Y-38150000D01*
G75*
G02*
X160350000Y-38250000I-100000J0D01*
G01*
X160150000Y-38250000D01*
G75*
G02*
X160050000Y-38150000I0J100000D01*
G01*
G37*
G36*
G01*
X159550000Y-36000000D02*
X159550000Y-34850000D01*
G75*
G02*
X159650000Y-34750000I100000J0D01*
G01*
X159850000Y-34750000D01*
G75*
G02*
X159950000Y-34850000I0J-100000D01*
G01*
X159950000Y-36000000D01*
G75*
G02*
X159850000Y-36100000I-100000J0D01*
G01*
X159650000Y-36100000D01*
G75*
G02*
X159550000Y-36000000I0J100000D01*
G01*
G37*
G36*
G01*
X159050000Y-38150000D02*
X159050000Y-37000000D01*
G75*
G02*
X159150000Y-36900000I100000J0D01*
G01*
X159350000Y-36900000D01*
G75*
G02*
X159450000Y-37000000I0J-100000D01*
G01*
X159450000Y-38150000D01*
G75*
G02*
X159350000Y-38250000I-100000J0D01*
G01*
X159150000Y-38250000D01*
G75*
G02*
X159050000Y-38150000I0J100000D01*
G01*
G37*
G36*
G01*
X158550000Y-36000000D02*
X158550000Y-34850000D01*
G75*
G02*
X158650000Y-34750000I100000J0D01*
G01*
X158850000Y-34750000D01*
G75*
G02*
X158950000Y-34850000I0J-100000D01*
G01*
X158950000Y-36000000D01*
G75*
G02*
X158850000Y-36100000I-100000J0D01*
G01*
X158650000Y-36100000D01*
G75*
G02*
X158550000Y-36000000I0J100000D01*
G01*
G37*
G36*
G01*
X158050000Y-38150000D02*
X158050000Y-37000000D01*
G75*
G02*
X158150000Y-36900000I100000J0D01*
G01*
X158350000Y-36900000D01*
G75*
G02*
X158450000Y-37000000I0J-100000D01*
G01*
X158450000Y-38150000D01*
G75*
G02*
X158350000Y-38250000I-100000J0D01*
G01*
X158150000Y-38250000D01*
G75*
G02*
X158050000Y-38150000I0J100000D01*
G01*
G37*
G36*
G01*
X157550000Y-36000000D02*
X157550000Y-34850000D01*
G75*
G02*
X157650000Y-34750000I100000J0D01*
G01*
X157850000Y-34750000D01*
G75*
G02*
X157950000Y-34850000I0J-100000D01*
G01*
X157950000Y-36000000D01*
G75*
G02*
X157850000Y-36100000I-100000J0D01*
G01*
X157650000Y-36100000D01*
G75*
G02*
X157550000Y-36000000I0J100000D01*
G01*
G37*
G36*
G01*
X157050000Y-38150000D02*
X157050000Y-37000000D01*
G75*
G02*
X157150000Y-36900000I100000J0D01*
G01*
X157350000Y-36900000D01*
G75*
G02*
X157450000Y-37000000I0J-100000D01*
G01*
X157450000Y-38150000D01*
G75*
G02*
X157350000Y-38250000I-100000J0D01*
G01*
X157150000Y-38250000D01*
G75*
G02*
X157050000Y-38150000I0J100000D01*
G01*
G37*
G36*
G01*
X156550000Y-36000000D02*
X156550000Y-34850000D01*
G75*
G02*
X156650000Y-34750000I100000J0D01*
G01*
X156850000Y-34750000D01*
G75*
G02*
X156950000Y-34850000I0J-100000D01*
G01*
X156950000Y-36000000D01*
G75*
G02*
X156850000Y-36100000I-100000J0D01*
G01*
X156650000Y-36100000D01*
G75*
G02*
X156550000Y-36000000I0J100000D01*
G01*
G37*
G36*
G01*
X156050000Y-38150000D02*
X156050000Y-37000000D01*
G75*
G02*
X156150000Y-36900000I100000J0D01*
G01*
X156350000Y-36900000D01*
G75*
G02*
X156450000Y-37000000I0J-100000D01*
G01*
X156450000Y-38150000D01*
G75*
G02*
X156350000Y-38250000I-100000J0D01*
G01*
X156150000Y-38250000D01*
G75*
G02*
X156050000Y-38150000I0J100000D01*
G01*
G37*
G36*
G01*
X155550000Y-36000000D02*
X155550000Y-34850000D01*
G75*
G02*
X155650000Y-34750000I100000J0D01*
G01*
X155850000Y-34750000D01*
G75*
G02*
X155950000Y-34850000I0J-100000D01*
G01*
X155950000Y-36000000D01*
G75*
G02*
X155850000Y-36100000I-100000J0D01*
G01*
X155650000Y-36100000D01*
G75*
G02*
X155550000Y-36000000I0J100000D01*
G01*
G37*
G36*
G01*
X155050000Y-38150000D02*
X155050000Y-37000000D01*
G75*
G02*
X155150000Y-36900000I100000J0D01*
G01*
X155350000Y-36900000D01*
G75*
G02*
X155450000Y-37000000I0J-100000D01*
G01*
X155450000Y-38150000D01*
G75*
G02*
X155350000Y-38250000I-100000J0D01*
G01*
X155150000Y-38250000D01*
G75*
G02*
X155050000Y-38150000I0J100000D01*
G01*
G37*
G36*
G01*
X154550000Y-36000000D02*
X154550000Y-34850000D01*
G75*
G02*
X154650000Y-34750000I100000J0D01*
G01*
X154850000Y-34750000D01*
G75*
G02*
X154950000Y-34850000I0J-100000D01*
G01*
X154950000Y-36000000D01*
G75*
G02*
X154850000Y-36100000I-100000J0D01*
G01*
X154650000Y-36100000D01*
G75*
G02*
X154550000Y-36000000I0J100000D01*
G01*
G37*
G36*
G01*
X154050000Y-38150000D02*
X154050000Y-37000000D01*
G75*
G02*
X154150000Y-36900000I100000J0D01*
G01*
X154350000Y-36900000D01*
G75*
G02*
X154450000Y-37000000I0J-100000D01*
G01*
X154450000Y-38150000D01*
G75*
G02*
X154350000Y-38250000I-100000J0D01*
G01*
X154150000Y-38250000D01*
G75*
G02*
X154050000Y-38150000I0J100000D01*
G01*
G37*
G36*
G01*
X153550000Y-36000000D02*
X153550000Y-34850000D01*
G75*
G02*
X153650000Y-34750000I100000J0D01*
G01*
X153850000Y-34750000D01*
G75*
G02*
X153950000Y-34850000I0J-100000D01*
G01*
X153950000Y-36000000D01*
G75*
G02*
X153850000Y-36100000I-100000J0D01*
G01*
X153650000Y-36100000D01*
G75*
G02*
X153550000Y-36000000I0J100000D01*
G01*
G37*
G36*
G01*
X153050000Y-38150000D02*
X153050000Y-37000000D01*
G75*
G02*
X153150000Y-36900000I100000J0D01*
G01*
X153350000Y-36900000D01*
G75*
G02*
X153450000Y-37000000I0J-100000D01*
G01*
X153450000Y-38150000D01*
G75*
G02*
X153350000Y-38250000I-100000J0D01*
G01*
X153150000Y-38250000D01*
G75*
G02*
X153050000Y-38150000I0J100000D01*
G01*
G37*
G36*
G01*
X152550000Y-36000000D02*
X152550000Y-34850000D01*
G75*
G02*
X152650000Y-34750000I100000J0D01*
G01*
X152850000Y-34750000D01*
G75*
G02*
X152950000Y-34850000I0J-100000D01*
G01*
X152950000Y-36000000D01*
G75*
G02*
X152850000Y-36100000I-100000J0D01*
G01*
X152650000Y-36100000D01*
G75*
G02*
X152550000Y-36000000I0J100000D01*
G01*
G37*
G36*
G01*
X152050000Y-38150000D02*
X152050000Y-37000000D01*
G75*
G02*
X152150000Y-36900000I100000J0D01*
G01*
X152350000Y-36900000D01*
G75*
G02*
X152450000Y-37000000I0J-100000D01*
G01*
X152450000Y-38150000D01*
G75*
G02*
X152350000Y-38250000I-100000J0D01*
G01*
X152150000Y-38250000D01*
G75*
G02*
X152050000Y-38150000I0J100000D01*
G01*
G37*
G36*
G01*
X151550000Y-36000000D02*
X151550000Y-34850000D01*
G75*
G02*
X151650000Y-34750000I100000J0D01*
G01*
X151850000Y-34750000D01*
G75*
G02*
X151950000Y-34850000I0J-100000D01*
G01*
X151950000Y-36000000D01*
G75*
G02*
X151850000Y-36100000I-100000J0D01*
G01*
X151650000Y-36100000D01*
G75*
G02*
X151550000Y-36000000I0J100000D01*
G01*
G37*
G36*
G01*
X151050000Y-38150000D02*
X151050000Y-37000000D01*
G75*
G02*
X151150000Y-36900000I100000J0D01*
G01*
X151350000Y-36900000D01*
G75*
G02*
X151450000Y-37000000I0J-100000D01*
G01*
X151450000Y-38150000D01*
G75*
G02*
X151350000Y-38250000I-100000J0D01*
G01*
X151150000Y-38250000D01*
G75*
G02*
X151050000Y-38150000I0J100000D01*
G01*
G37*
G36*
G01*
X150550000Y-36000000D02*
X150550000Y-34850000D01*
G75*
G02*
X150650000Y-34750000I100000J0D01*
G01*
X150850000Y-34750000D01*
G75*
G02*
X150950000Y-34850000I0J-100000D01*
G01*
X150950000Y-36000000D01*
G75*
G02*
X150850000Y-36100000I-100000J0D01*
G01*
X150650000Y-36100000D01*
G75*
G02*
X150550000Y-36000000I0J100000D01*
G01*
G37*
G36*
G01*
X150050000Y-38150000D02*
X150050000Y-37000000D01*
G75*
G02*
X150150000Y-36900000I100000J0D01*
G01*
X150350000Y-36900000D01*
G75*
G02*
X150450000Y-37000000I0J-100000D01*
G01*
X150450000Y-38150000D01*
G75*
G02*
X150350000Y-38250000I-100000J0D01*
G01*
X150150000Y-38250000D01*
G75*
G02*
X150050000Y-38150000I0J100000D01*
G01*
G37*
G36*
G01*
X149550000Y-36000000D02*
X149550000Y-34850000D01*
G75*
G02*
X149650000Y-34750000I100000J0D01*
G01*
X149850000Y-34750000D01*
G75*
G02*
X149950000Y-34850000I0J-100000D01*
G01*
X149950000Y-36000000D01*
G75*
G02*
X149850000Y-36100000I-100000J0D01*
G01*
X149650000Y-36100000D01*
G75*
G02*
X149550000Y-36000000I0J100000D01*
G01*
G37*
G36*
G01*
X149050000Y-38150000D02*
X149050000Y-37000000D01*
G75*
G02*
X149150000Y-36900000I100000J0D01*
G01*
X149350000Y-36900000D01*
G75*
G02*
X149450000Y-37000000I0J-100000D01*
G01*
X149450000Y-38150000D01*
G75*
G02*
X149350000Y-38250000I-100000J0D01*
G01*
X149150000Y-38250000D01*
G75*
G02*
X149050000Y-38150000I0J100000D01*
G01*
G37*
G36*
G01*
X161200000Y-37460000D02*
X161200000Y-35540000D01*
G75*
G02*
X161440000Y-35300000I240000J0D01*
G01*
X163360000Y-35300000D01*
G75*
G02*
X163600000Y-35540000I0J-240000D01*
G01*
X163600000Y-37460000D01*
G75*
G02*
X163360000Y-37700000I-240000J0D01*
G01*
X161440000Y-37700000D01*
G75*
G02*
X161200000Y-37460000I0J240000D01*
G01*
G37*
G36*
G01*
X146400000Y-37460000D02*
X146400000Y-35540000D01*
G75*
G02*
X146640000Y-35300000I240000J0D01*
G01*
X148560000Y-35300000D01*
G75*
G02*
X148800000Y-35540000I0J-240000D01*
G01*
X148800000Y-37460000D01*
G75*
G02*
X148560000Y-37700000I-240000J0D01*
G01*
X146640000Y-37700000D01*
G75*
G02*
X146400000Y-37460000I0J240000D01*
G01*
G37*
D17*
X150000000Y-72500000D03*
G36*
G01*
X147975000Y-73185000D02*
X147975000Y-71815000D01*
G75*
G02*
X148165000Y-71625000I190000J0D01*
G01*
X148735000Y-71625000D01*
G75*
G02*
X148925000Y-71815000I0J-190000D01*
G01*
X148925000Y-73185000D01*
G75*
G02*
X148735000Y-73375000I-190000J0D01*
G01*
X148165000Y-73375000D01*
G75*
G02*
X147975000Y-73185000I0J190000D01*
G01*
G37*
G36*
G01*
X151075000Y-73185000D02*
X151075000Y-71815000D01*
G75*
G02*
X151265000Y-71625000I190000J0D01*
G01*
X151835000Y-71625000D01*
G75*
G02*
X152025000Y-71815000I0J-190000D01*
G01*
X152025000Y-73185000D01*
G75*
G02*
X151835000Y-73375000I-190000J0D01*
G01*
X151265000Y-73375000D01*
G75*
G02*
X151075000Y-73185000I0J190000D01*
G01*
G37*
X165000000Y-72500000D03*
G36*
G01*
X162975000Y-73185000D02*
X162975000Y-71815000D01*
G75*
G02*
X163165000Y-71625000I190000J0D01*
G01*
X163735000Y-71625000D01*
G75*
G02*
X163925000Y-71815000I0J-190000D01*
G01*
X163925000Y-73185000D01*
G75*
G02*
X163735000Y-73375000I-190000J0D01*
G01*
X163165000Y-73375000D01*
G75*
G02*
X162975000Y-73185000I0J190000D01*
G01*
G37*
G36*
G01*
X166075000Y-73185000D02*
X166075000Y-71815000D01*
G75*
G02*
X166265000Y-71625000I190000J0D01*
G01*
X166835000Y-71625000D01*
G75*
G02*
X167025000Y-71815000I0J-190000D01*
G01*
X167025000Y-73185000D01*
G75*
G02*
X166835000Y-73375000I-190000J0D01*
G01*
X166265000Y-73375000D01*
G75*
G02*
X166075000Y-73185000I0J190000D01*
G01*
G37*
G36*
G01*
X142160000Y-73455000D02*
X141840000Y-73455000D01*
G75*
G02*
X141680000Y-73295000I0J160000D01*
G01*
X141680000Y-72900000D01*
G75*
G02*
X141840000Y-72740000I160000J0D01*
G01*
X142160000Y-72740000D01*
G75*
G02*
X142320000Y-72900000I0J-160000D01*
G01*
X142320000Y-73295000D01*
G75*
G02*
X142160000Y-73455000I-160000J0D01*
G01*
G37*
G36*
G01*
X142160000Y-72260000D02*
X141840000Y-72260000D01*
G75*
G02*
X141680000Y-72100000I0J160000D01*
G01*
X141680000Y-71705000D01*
G75*
G02*
X141840000Y-71545000I160000J0D01*
G01*
X142160000Y-71545000D01*
G75*
G02*
X142320000Y-71705000I0J-160000D01*
G01*
X142320000Y-72100000D01*
G75*
G02*
X142160000Y-72260000I-160000J0D01*
G01*
G37*
D24*
X152500000Y-100000000D03*
D25*
X150282689Y-99081560D03*
X150282689Y-100918440D03*
X151581560Y-97782689D03*
X153418440Y-102217311D03*
X153418440Y-97782689D03*
X154717311Y-100918440D03*
X154717311Y-99081560D03*
X151581560Y-102217311D03*
G36*
G01*
X195655000Y-90435000D02*
X195345000Y-90435000D01*
G75*
G02*
X195190000Y-90280000I0J155000D01*
G01*
X195190000Y-89855000D01*
G75*
G02*
X195345000Y-89700000I155000J0D01*
G01*
X195655000Y-89700000D01*
G75*
G02*
X195810000Y-89855000I0J-155000D01*
G01*
X195810000Y-90280000D01*
G75*
G02*
X195655000Y-90435000I-155000J0D01*
G01*
G37*
G36*
G01*
X195655000Y-89300000D02*
X195345000Y-89300000D01*
G75*
G02*
X195190000Y-89145000I0J155000D01*
G01*
X195190000Y-88720000D01*
G75*
G02*
X195345000Y-88565000I155000J0D01*
G01*
X195655000Y-88565000D01*
G75*
G02*
X195810000Y-88720000I0J-155000D01*
G01*
X195810000Y-89145000D01*
G75*
G02*
X195655000Y-89300000I-155000J0D01*
G01*
G37*
G36*
G01*
X188237500Y-103900000D02*
X187762500Y-103900000D01*
G75*
G02*
X187525000Y-103662500I0J237500D01*
G01*
X187525000Y-103062500D01*
G75*
G02*
X187762500Y-102825000I237500J0D01*
G01*
X188237500Y-102825000D01*
G75*
G02*
X188475000Y-103062500I0J-237500D01*
G01*
X188475000Y-103662500D01*
G75*
G02*
X188237500Y-103900000I-237500J0D01*
G01*
G37*
G36*
G01*
X188237500Y-102175000D02*
X187762500Y-102175000D01*
G75*
G02*
X187525000Y-101937500I0J237500D01*
G01*
X187525000Y-101337500D01*
G75*
G02*
X187762500Y-101100000I237500J0D01*
G01*
X188237500Y-101100000D01*
G75*
G02*
X188475000Y-101337500I0J-237500D01*
G01*
X188475000Y-101937500D01*
G75*
G02*
X188237500Y-102175000I-237500J0D01*
G01*
G37*
G36*
G01*
X179550000Y-77100000D02*
X180450000Y-77100000D01*
G75*
G02*
X180700000Y-77350000I0J-250000D01*
G01*
X180700000Y-78050000D01*
G75*
G02*
X180450000Y-78300000I-250000J0D01*
G01*
X179550000Y-78300000D01*
G75*
G02*
X179300000Y-78050000I0J250000D01*
G01*
X179300000Y-77350000D01*
G75*
G02*
X179550000Y-77100000I250000J0D01*
G01*
G37*
G36*
G01*
X179550000Y-79100000D02*
X180450000Y-79100000D01*
G75*
G02*
X180700000Y-79350000I0J-250000D01*
G01*
X180700000Y-80050000D01*
G75*
G02*
X180450000Y-80300000I-250000J0D01*
G01*
X179550000Y-80300000D01*
G75*
G02*
X179300000Y-80050000I0J250000D01*
G01*
X179300000Y-79350000D01*
G75*
G02*
X179550000Y-79100000I250000J0D01*
G01*
G37*
G36*
G01*
X199900000Y-35950000D02*
X199900000Y-35050000D01*
G75*
G02*
X200150000Y-34800000I250000J0D01*
G01*
X200850000Y-34800000D01*
G75*
G02*
X201100000Y-35050000I0J-250000D01*
G01*
X201100000Y-35950000D01*
G75*
G02*
X200850000Y-36200000I-250000J0D01*
G01*
X200150000Y-36200000D01*
G75*
G02*
X199900000Y-35950000I0J250000D01*
G01*
G37*
G36*
G01*
X201900000Y-35950000D02*
X201900000Y-35050000D01*
G75*
G02*
X202150000Y-34800000I250000J0D01*
G01*
X202850000Y-34800000D01*
G75*
G02*
X203100000Y-35050000I0J-250000D01*
G01*
X203100000Y-35950000D01*
G75*
G02*
X202850000Y-36200000I-250000J0D01*
G01*
X202150000Y-36200000D01*
G75*
G02*
X201900000Y-35950000I0J250000D01*
G01*
G37*
G36*
G01*
X177700000Y-76300000D02*
X177400000Y-76300000D01*
G75*
G02*
X177250000Y-76150000I0J150000D01*
G01*
X177250000Y-75125000D01*
G75*
G02*
X177400000Y-74975000I150000J0D01*
G01*
X177700000Y-74975000D01*
G75*
G02*
X177850000Y-75125000I0J-150000D01*
G01*
X177850000Y-76150000D01*
G75*
G02*
X177700000Y-76300000I-150000J0D01*
G01*
G37*
G36*
G01*
X178650000Y-76300000D02*
X178350000Y-76300000D01*
G75*
G02*
X178200000Y-76150000I0J150000D01*
G01*
X178200000Y-75125000D01*
G75*
G02*
X178350000Y-74975000I150000J0D01*
G01*
X178650000Y-74975000D01*
G75*
G02*
X178800000Y-75125000I0J-150000D01*
G01*
X178800000Y-76150000D01*
G75*
G02*
X178650000Y-76300000I-150000J0D01*
G01*
G37*
G36*
G01*
X179600000Y-76300000D02*
X179300000Y-76300000D01*
G75*
G02*
X179150000Y-76150000I0J150000D01*
G01*
X179150000Y-75125000D01*
G75*
G02*
X179300000Y-74975000I150000J0D01*
G01*
X179600000Y-74975000D01*
G75*
G02*
X179750000Y-75125000I0J-150000D01*
G01*
X179750000Y-76150000D01*
G75*
G02*
X179600000Y-76300000I-150000J0D01*
G01*
G37*
G36*
G01*
X179600000Y-74025000D02*
X179300000Y-74025000D01*
G75*
G02*
X179150000Y-73875000I0J150000D01*
G01*
X179150000Y-72850000D01*
G75*
G02*
X179300000Y-72700000I150000J0D01*
G01*
X179600000Y-72700000D01*
G75*
G02*
X179750000Y-72850000I0J-150000D01*
G01*
X179750000Y-73875000D01*
G75*
G02*
X179600000Y-74025000I-150000J0D01*
G01*
G37*
G36*
G01*
X178650000Y-74025000D02*
X178350000Y-74025000D01*
G75*
G02*
X178200000Y-73875000I0J150000D01*
G01*
X178200000Y-72850000D01*
G75*
G02*
X178350000Y-72700000I150000J0D01*
G01*
X178650000Y-72700000D01*
G75*
G02*
X178800000Y-72850000I0J-150000D01*
G01*
X178800000Y-73875000D01*
G75*
G02*
X178650000Y-74025000I-150000J0D01*
G01*
G37*
G36*
G01*
X177700000Y-74025000D02*
X177400000Y-74025000D01*
G75*
G02*
X177250000Y-73875000I0J150000D01*
G01*
X177250000Y-72850000D01*
G75*
G02*
X177400000Y-72700000I150000J0D01*
G01*
X177700000Y-72700000D01*
G75*
G02*
X177850000Y-72850000I0J-150000D01*
G01*
X177850000Y-73875000D01*
G75*
G02*
X177700000Y-74025000I-150000J0D01*
G01*
G37*
G36*
G01*
X184850000Y-111275000D02*
X186150000Y-111275000D01*
G75*
G02*
X186400000Y-111525000I0J-250000D01*
G01*
X186400000Y-112350000D01*
G75*
G02*
X186150000Y-112600000I-250000J0D01*
G01*
X184850000Y-112600000D01*
G75*
G02*
X184600000Y-112350000I0J250000D01*
G01*
X184600000Y-111525000D01*
G75*
G02*
X184850000Y-111275000I250000J0D01*
G01*
G37*
G36*
G01*
X184850000Y-114400000D02*
X186150000Y-114400000D01*
G75*
G02*
X186400000Y-114650000I0J-250000D01*
G01*
X186400000Y-115475000D01*
G75*
G02*
X186150000Y-115725000I-250000J0D01*
G01*
X184850000Y-115725000D01*
G75*
G02*
X184600000Y-115475000I0J250000D01*
G01*
X184600000Y-114650000D01*
G75*
G02*
X184850000Y-114400000I250000J0D01*
G01*
G37*
G36*
G01*
X140840000Y-99045000D02*
X141160000Y-99045000D01*
G75*
G02*
X141320000Y-99205000I0J-160000D01*
G01*
X141320000Y-99600000D01*
G75*
G02*
X141160000Y-99760000I-160000J0D01*
G01*
X140840000Y-99760000D01*
G75*
G02*
X140680000Y-99600000I0J160000D01*
G01*
X140680000Y-99205000D01*
G75*
G02*
X140840000Y-99045000I160000J0D01*
G01*
G37*
G36*
G01*
X140840000Y-100240000D02*
X141160000Y-100240000D01*
G75*
G02*
X141320000Y-100400000I0J-160000D01*
G01*
X141320000Y-100795000D01*
G75*
G02*
X141160000Y-100955000I-160000J0D01*
G01*
X140840000Y-100955000D01*
G75*
G02*
X140680000Y-100795000I0J160000D01*
G01*
X140680000Y-100400000D01*
G75*
G02*
X140840000Y-100240000I160000J0D01*
G01*
G37*
G36*
G01*
X197051544Y-69729253D02*
X197270747Y-69948456D01*
G75*
G02*
X197270747Y-70167660I-109602J-109602D01*
G01*
X196970226Y-70468181D01*
G75*
G02*
X196751022Y-70468181I-109602J109602D01*
G01*
X196531819Y-70248978D01*
G75*
G02*
X196531819Y-70029774I109602J109602D01*
G01*
X196832340Y-69729253D01*
G75*
G02*
X197051544Y-69729253I109602J-109602D01*
G01*
G37*
G36*
G01*
X196248978Y-70531819D02*
X196468181Y-70751022D01*
G75*
G02*
X196468181Y-70970226I-109602J-109602D01*
G01*
X196167660Y-71270747D01*
G75*
G02*
X195948456Y-71270747I-109602J109602D01*
G01*
X195729253Y-71051544D01*
G75*
G02*
X195729253Y-70832340I109602J109602D01*
G01*
X196029774Y-70531819D01*
G75*
G02*
X196248978Y-70531819I109602J-109602D01*
G01*
G37*
D11*
X202500000Y-45000000D03*
G36*
G01*
X190065000Y-63655000D02*
X190065000Y-63345000D01*
G75*
G02*
X190220000Y-63190000I155000J0D01*
G01*
X190645000Y-63190000D01*
G75*
G02*
X190800000Y-63345000I0J-155000D01*
G01*
X190800000Y-63655000D01*
G75*
G02*
X190645000Y-63810000I-155000J0D01*
G01*
X190220000Y-63810000D01*
G75*
G02*
X190065000Y-63655000I0J155000D01*
G01*
G37*
G36*
G01*
X191200000Y-63655000D02*
X191200000Y-63345000D01*
G75*
G02*
X191355000Y-63190000I155000J0D01*
G01*
X191780000Y-63190000D01*
G75*
G02*
X191935000Y-63345000I0J-155000D01*
G01*
X191935000Y-63655000D01*
G75*
G02*
X191780000Y-63810000I-155000J0D01*
G01*
X191355000Y-63810000D01*
G75*
G02*
X191200000Y-63655000I0J155000D01*
G01*
G37*
G36*
G01*
X174340000Y-101035000D02*
X174020000Y-101035000D01*
G75*
G02*
X173860000Y-100875000I0J160000D01*
G01*
X173860000Y-100480000D01*
G75*
G02*
X174020000Y-100320000I160000J0D01*
G01*
X174340000Y-100320000D01*
G75*
G02*
X174500000Y-100480000I0J-160000D01*
G01*
X174500000Y-100875000D01*
G75*
G02*
X174340000Y-101035000I-160000J0D01*
G01*
G37*
G36*
G01*
X174340000Y-99840000D02*
X174020000Y-99840000D01*
G75*
G02*
X173860000Y-99680000I0J160000D01*
G01*
X173860000Y-99285000D01*
G75*
G02*
X174020000Y-99125000I160000J0D01*
G01*
X174340000Y-99125000D01*
G75*
G02*
X174500000Y-99285000I0J-160000D01*
G01*
X174500000Y-99680000D01*
G75*
G02*
X174340000Y-99840000I-160000J0D01*
G01*
G37*
D12*
X182750000Y-49000000D03*
X180250000Y-49000000D03*
G36*
G01*
X202065000Y-78655000D02*
X202065000Y-78345000D01*
G75*
G02*
X202220000Y-78190000I155000J0D01*
G01*
X202645000Y-78190000D01*
G75*
G02*
X202800000Y-78345000I0J-155000D01*
G01*
X202800000Y-78655000D01*
G75*
G02*
X202645000Y-78810000I-155000J0D01*
G01*
X202220000Y-78810000D01*
G75*
G02*
X202065000Y-78655000I0J155000D01*
G01*
G37*
G36*
G01*
X203200000Y-78655000D02*
X203200000Y-78345000D01*
G75*
G02*
X203355000Y-78190000I155000J0D01*
G01*
X203780000Y-78190000D01*
G75*
G02*
X203935000Y-78345000I0J-155000D01*
G01*
X203935000Y-78655000D01*
G75*
G02*
X203780000Y-78810000I-155000J0D01*
G01*
X203355000Y-78810000D01*
G75*
G02*
X203200000Y-78655000I0J155000D01*
G01*
G37*
G36*
G01*
X193660000Y-87955000D02*
X193340000Y-87955000D01*
G75*
G02*
X193180000Y-87795000I0J160000D01*
G01*
X193180000Y-87400000D01*
G75*
G02*
X193340000Y-87240000I160000J0D01*
G01*
X193660000Y-87240000D01*
G75*
G02*
X193820000Y-87400000I0J-160000D01*
G01*
X193820000Y-87795000D01*
G75*
G02*
X193660000Y-87955000I-160000J0D01*
G01*
G37*
G36*
G01*
X193660000Y-86760000D02*
X193340000Y-86760000D01*
G75*
G02*
X193180000Y-86600000I0J160000D01*
G01*
X193180000Y-86205000D01*
G75*
G02*
X193340000Y-86045000I160000J0D01*
G01*
X193660000Y-86045000D01*
G75*
G02*
X193820000Y-86205000I0J-160000D01*
G01*
X193820000Y-86600000D01*
G75*
G02*
X193660000Y-86760000I-160000J0D01*
G01*
G37*
G36*
G01*
X202840000Y-59545000D02*
X203160000Y-59545000D01*
G75*
G02*
X203320000Y-59705000I0J-160000D01*
G01*
X203320000Y-60100000D01*
G75*
G02*
X203160000Y-60260000I-160000J0D01*
G01*
X202840000Y-60260000D01*
G75*
G02*
X202680000Y-60100000I0J160000D01*
G01*
X202680000Y-59705000D01*
G75*
G02*
X202840000Y-59545000I160000J0D01*
G01*
G37*
G36*
G01*
X202840000Y-60740000D02*
X203160000Y-60740000D01*
G75*
G02*
X203320000Y-60900000I0J-160000D01*
G01*
X203320000Y-61295000D01*
G75*
G02*
X203160000Y-61455000I-160000J0D01*
G01*
X202840000Y-61455000D01*
G75*
G02*
X202680000Y-61295000I0J160000D01*
G01*
X202680000Y-60900000D01*
G75*
G02*
X202840000Y-60740000I160000J0D01*
G01*
G37*
G36*
G01*
X176450000Y-80300000D02*
X175550000Y-80300000D01*
G75*
G02*
X175300000Y-80050000I0J250000D01*
G01*
X175300000Y-79350000D01*
G75*
G02*
X175550000Y-79100000I250000J0D01*
G01*
X176450000Y-79100000D01*
G75*
G02*
X176700000Y-79350000I0J-250000D01*
G01*
X176700000Y-80050000D01*
G75*
G02*
X176450000Y-80300000I-250000J0D01*
G01*
G37*
G36*
G01*
X176450000Y-78300000D02*
X175550000Y-78300000D01*
G75*
G02*
X175300000Y-78050000I0J250000D01*
G01*
X175300000Y-77350000D01*
G75*
G02*
X175550000Y-77100000I250000J0D01*
G01*
X176450000Y-77100000D01*
G75*
G02*
X176700000Y-77350000I0J-250000D01*
G01*
X176700000Y-78050000D01*
G75*
G02*
X176450000Y-78300000I-250000J0D01*
G01*
G37*
X177500000Y-44750000D03*
X177500000Y-42250000D03*
G36*
G01*
X181000000Y-104050000D02*
X181000000Y-104950000D01*
G75*
G02*
X180750000Y-105200000I-250000J0D01*
G01*
X180050000Y-105200000D01*
G75*
G02*
X179800000Y-104950000I0J250000D01*
G01*
X179800000Y-104050000D01*
G75*
G02*
X180050000Y-103800000I250000J0D01*
G01*
X180750000Y-103800000D01*
G75*
G02*
X181000000Y-104050000I0J-250000D01*
G01*
G37*
G36*
G01*
X179000000Y-104050000D02*
X179000000Y-104950000D01*
G75*
G02*
X178750000Y-105200000I-250000J0D01*
G01*
X178050000Y-105200000D01*
G75*
G02*
X177800000Y-104950000I0J250000D01*
G01*
X177800000Y-104050000D01*
G75*
G02*
X178050000Y-103800000I250000J0D01*
G01*
X178750000Y-103800000D01*
G75*
G02*
X179000000Y-104050000I0J-250000D01*
G01*
G37*
G36*
G01*
X199155000Y-38435000D02*
X198845000Y-38435000D01*
G75*
G02*
X198690000Y-38280000I0J155000D01*
G01*
X198690000Y-37855000D01*
G75*
G02*
X198845000Y-37700000I155000J0D01*
G01*
X199155000Y-37700000D01*
G75*
G02*
X199310000Y-37855000I0J-155000D01*
G01*
X199310000Y-38280000D01*
G75*
G02*
X199155000Y-38435000I-155000J0D01*
G01*
G37*
G36*
G01*
X199155000Y-37300000D02*
X198845000Y-37300000D01*
G75*
G02*
X198690000Y-37145000I0J155000D01*
G01*
X198690000Y-36720000D01*
G75*
G02*
X198845000Y-36565000I155000J0D01*
G01*
X199155000Y-36565000D01*
G75*
G02*
X199310000Y-36720000I0J-155000D01*
G01*
X199310000Y-37145000D01*
G75*
G02*
X199155000Y-37300000I-155000J0D01*
G01*
G37*
G36*
G01*
X153730000Y-107245000D02*
X154770000Y-107245000D01*
G75*
G02*
X154900000Y-107375000I0J-130000D01*
G01*
X154900000Y-108665000D01*
G75*
G02*
X154770000Y-108795000I-130000J0D01*
G01*
X153730000Y-108795000D01*
G75*
G02*
X153600000Y-108665000I0J130000D01*
G01*
X153600000Y-107375000D01*
G75*
G02*
X153730000Y-107245000I130000J0D01*
G01*
G37*
G36*
G01*
X153730000Y-115205000D02*
X154770000Y-115205000D01*
G75*
G02*
X154900000Y-115335000I0J-130000D01*
G01*
X154900000Y-116625000D01*
G75*
G02*
X154770000Y-116755000I-130000J0D01*
G01*
X153730000Y-116755000D01*
G75*
G02*
X153600000Y-116625000I0J130000D01*
G01*
X153600000Y-115335000D01*
G75*
G02*
X153730000Y-115205000I130000J0D01*
G01*
G37*
G36*
G01*
X149230000Y-115205000D02*
X150270000Y-115205000D01*
G75*
G02*
X150400000Y-115335000I0J-130000D01*
G01*
X150400000Y-116625000D01*
G75*
G02*
X150270000Y-116755000I-130000J0D01*
G01*
X149230000Y-116755000D01*
G75*
G02*
X149100000Y-116625000I0J130000D01*
G01*
X149100000Y-115335000D01*
G75*
G02*
X149230000Y-115205000I130000J0D01*
G01*
G37*
G36*
G01*
X149230000Y-107245000D02*
X150270000Y-107245000D01*
G75*
G02*
X150400000Y-107375000I0J-130000D01*
G01*
X150400000Y-108665000D01*
G75*
G02*
X150270000Y-108795000I-130000J0D01*
G01*
X149230000Y-108795000D01*
G75*
G02*
X149100000Y-108665000I0J130000D01*
G01*
X149100000Y-107375000D01*
G75*
G02*
X149230000Y-107245000I130000J0D01*
G01*
G37*
G36*
G01*
X183645000Y-67760000D02*
X183645000Y-67440000D01*
G75*
G02*
X183805000Y-67280000I160000J0D01*
G01*
X184200000Y-67280000D01*
G75*
G02*
X184360000Y-67440000I0J-160000D01*
G01*
X184360000Y-67760000D01*
G75*
G02*
X184200000Y-67920000I-160000J0D01*
G01*
X183805000Y-67920000D01*
G75*
G02*
X183645000Y-67760000I0J160000D01*
G01*
G37*
G36*
G01*
X184840000Y-67760000D02*
X184840000Y-67440000D01*
G75*
G02*
X185000000Y-67280000I160000J0D01*
G01*
X185395000Y-67280000D01*
G75*
G02*
X185555000Y-67440000I0J-160000D01*
G01*
X185555000Y-67760000D01*
G75*
G02*
X185395000Y-67920000I-160000J0D01*
G01*
X185000000Y-67920000D01*
G75*
G02*
X184840000Y-67760000I0J160000D01*
G01*
G37*
G36*
G01*
X193025000Y-59375000D02*
X193975000Y-59375000D01*
G75*
G02*
X194225000Y-59625000I0J-250000D01*
G01*
X194225000Y-60300000D01*
G75*
G02*
X193975000Y-60550000I-250000J0D01*
G01*
X193025000Y-60550000D01*
G75*
G02*
X192775000Y-60300000I0J250000D01*
G01*
X192775000Y-59625000D01*
G75*
G02*
X193025000Y-59375000I250000J0D01*
G01*
G37*
G36*
G01*
X193025000Y-61450000D02*
X193975000Y-61450000D01*
G75*
G02*
X194225000Y-61700000I0J-250000D01*
G01*
X194225000Y-62375000D01*
G75*
G02*
X193975000Y-62625000I-250000J0D01*
G01*
X193025000Y-62625000D01*
G75*
G02*
X192775000Y-62375000I0J250000D01*
G01*
X192775000Y-61700000D01*
G75*
G02*
X193025000Y-61450000I250000J0D01*
G01*
G37*
D26*
X181500000Y-51500000D03*
X181500000Y-55500000D03*
G36*
G01*
X194660000Y-90455000D02*
X194340000Y-90455000D01*
G75*
G02*
X194180000Y-90295000I0J160000D01*
G01*
X194180000Y-89900000D01*
G75*
G02*
X194340000Y-89740000I160000J0D01*
G01*
X194660000Y-89740000D01*
G75*
G02*
X194820000Y-89900000I0J-160000D01*
G01*
X194820000Y-90295000D01*
G75*
G02*
X194660000Y-90455000I-160000J0D01*
G01*
G37*
G36*
G01*
X194660000Y-89260000D02*
X194340000Y-89260000D01*
G75*
G02*
X194180000Y-89100000I0J160000D01*
G01*
X194180000Y-88705000D01*
G75*
G02*
X194340000Y-88545000I160000J0D01*
G01*
X194660000Y-88545000D01*
G75*
G02*
X194820000Y-88705000I0J-160000D01*
G01*
X194820000Y-89100000D01*
G75*
G02*
X194660000Y-89260000I-160000J0D01*
G01*
G37*
G36*
G01*
X197345000Y-86065000D02*
X197655000Y-86065000D01*
G75*
G02*
X197810000Y-86220000I0J-155000D01*
G01*
X197810000Y-86645000D01*
G75*
G02*
X197655000Y-86800000I-155000J0D01*
G01*
X197345000Y-86800000D01*
G75*
G02*
X197190000Y-86645000I0J155000D01*
G01*
X197190000Y-86220000D01*
G75*
G02*
X197345000Y-86065000I155000J0D01*
G01*
G37*
G36*
G01*
X197345000Y-87200000D02*
X197655000Y-87200000D01*
G75*
G02*
X197810000Y-87355000I0J-155000D01*
G01*
X197810000Y-87780000D01*
G75*
G02*
X197655000Y-87935000I-155000J0D01*
G01*
X197345000Y-87935000D01*
G75*
G02*
X197190000Y-87780000I0J155000D01*
G01*
X197190000Y-87355000D01*
G75*
G02*
X197345000Y-87200000I155000J0D01*
G01*
G37*
D17*
X145000000Y-72500000D03*
G36*
G01*
X142975000Y-73185000D02*
X142975000Y-71815000D01*
G75*
G02*
X143165000Y-71625000I190000J0D01*
G01*
X143735000Y-71625000D01*
G75*
G02*
X143925000Y-71815000I0J-190000D01*
G01*
X143925000Y-73185000D01*
G75*
G02*
X143735000Y-73375000I-190000J0D01*
G01*
X143165000Y-73375000D01*
G75*
G02*
X142975000Y-73185000I0J190000D01*
G01*
G37*
G36*
G01*
X146075000Y-73185000D02*
X146075000Y-71815000D01*
G75*
G02*
X146265000Y-71625000I190000J0D01*
G01*
X146835000Y-71625000D01*
G75*
G02*
X147025000Y-71815000I0J-190000D01*
G01*
X147025000Y-73185000D01*
G75*
G02*
X146835000Y-73375000I-190000J0D01*
G01*
X146265000Y-73375000D01*
G75*
G02*
X146075000Y-73185000I0J190000D01*
G01*
G37*
G36*
G01*
X192660000Y-87955000D02*
X192340000Y-87955000D01*
G75*
G02*
X192180000Y-87795000I0J160000D01*
G01*
X192180000Y-87400000D01*
G75*
G02*
X192340000Y-87240000I160000J0D01*
G01*
X192660000Y-87240000D01*
G75*
G02*
X192820000Y-87400000I0J-160000D01*
G01*
X192820000Y-87795000D01*
G75*
G02*
X192660000Y-87955000I-160000J0D01*
G01*
G37*
G36*
G01*
X192660000Y-86760000D02*
X192340000Y-86760000D01*
G75*
G02*
X192180000Y-86600000I0J160000D01*
G01*
X192180000Y-86205000D01*
G75*
G02*
X192340000Y-86045000I160000J0D01*
G01*
X192660000Y-86045000D01*
G75*
G02*
X192820000Y-86205000I0J-160000D01*
G01*
X192820000Y-86600000D01*
G75*
G02*
X192660000Y-86760000I-160000J0D01*
G01*
G37*
G36*
G01*
X157660000Y-70455000D02*
X157340000Y-70455000D01*
G75*
G02*
X157180000Y-70295000I0J160000D01*
G01*
X157180000Y-69900000D01*
G75*
G02*
X157340000Y-69740000I160000J0D01*
G01*
X157660000Y-69740000D01*
G75*
G02*
X157820000Y-69900000I0J-160000D01*
G01*
X157820000Y-70295000D01*
G75*
G02*
X157660000Y-70455000I-160000J0D01*
G01*
G37*
G36*
G01*
X157660000Y-69260000D02*
X157340000Y-69260000D01*
G75*
G02*
X157180000Y-69100000I0J160000D01*
G01*
X157180000Y-68705000D01*
G75*
G02*
X157340000Y-68545000I160000J0D01*
G01*
X157660000Y-68545000D01*
G75*
G02*
X157820000Y-68705000I0J-160000D01*
G01*
X157820000Y-69100000D01*
G75*
G02*
X157660000Y-69260000I-160000J0D01*
G01*
G37*
G36*
G01*
X179155000Y-92550000D02*
X179455000Y-92550000D01*
G75*
G02*
X179605000Y-92700000I0J-150000D01*
G01*
X179605000Y-94350000D01*
G75*
G02*
X179455000Y-94500000I-150000J0D01*
G01*
X179155000Y-94500000D01*
G75*
G02*
X179005000Y-94350000I0J150000D01*
G01*
X179005000Y-92700000D01*
G75*
G02*
X179155000Y-92550000I150000J0D01*
G01*
G37*
G36*
G01*
X177885000Y-92550000D02*
X178185000Y-92550000D01*
G75*
G02*
X178335000Y-92700000I0J-150000D01*
G01*
X178335000Y-94350000D01*
G75*
G02*
X178185000Y-94500000I-150000J0D01*
G01*
X177885000Y-94500000D01*
G75*
G02*
X177735000Y-94350000I0J150000D01*
G01*
X177735000Y-92700000D01*
G75*
G02*
X177885000Y-92550000I150000J0D01*
G01*
G37*
G36*
G01*
X176615000Y-92550000D02*
X176915000Y-92550000D01*
G75*
G02*
X177065000Y-92700000I0J-150000D01*
G01*
X177065000Y-94350000D01*
G75*
G02*
X176915000Y-94500000I-150000J0D01*
G01*
X176615000Y-94500000D01*
G75*
G02*
X176465000Y-94350000I0J150000D01*
G01*
X176465000Y-92700000D01*
G75*
G02*
X176615000Y-92550000I150000J0D01*
G01*
G37*
G36*
G01*
X175345000Y-92550000D02*
X175645000Y-92550000D01*
G75*
G02*
X175795000Y-92700000I0J-150000D01*
G01*
X175795000Y-94350000D01*
G75*
G02*
X175645000Y-94500000I-150000J0D01*
G01*
X175345000Y-94500000D01*
G75*
G02*
X175195000Y-94350000I0J150000D01*
G01*
X175195000Y-92700000D01*
G75*
G02*
X175345000Y-92550000I150000J0D01*
G01*
G37*
G36*
G01*
X175345000Y-97500000D02*
X175645000Y-97500000D01*
G75*
G02*
X175795000Y-97650000I0J-150000D01*
G01*
X175795000Y-99300000D01*
G75*
G02*
X175645000Y-99450000I-150000J0D01*
G01*
X175345000Y-99450000D01*
G75*
G02*
X175195000Y-99300000I0J150000D01*
G01*
X175195000Y-97650000D01*
G75*
G02*
X175345000Y-97500000I150000J0D01*
G01*
G37*
G36*
G01*
X176615000Y-97500000D02*
X176915000Y-97500000D01*
G75*
G02*
X177065000Y-97650000I0J-150000D01*
G01*
X177065000Y-99300000D01*
G75*
G02*
X176915000Y-99450000I-150000J0D01*
G01*
X176615000Y-99450000D01*
G75*
G02*
X176465000Y-99300000I0J150000D01*
G01*
X176465000Y-97650000D01*
G75*
G02*
X176615000Y-97500000I150000J0D01*
G01*
G37*
G36*
G01*
X177885000Y-97500000D02*
X178185000Y-97500000D01*
G75*
G02*
X178335000Y-97650000I0J-150000D01*
G01*
X178335000Y-99300000D01*
G75*
G02*
X178185000Y-99450000I-150000J0D01*
G01*
X177885000Y-99450000D01*
G75*
G02*
X177735000Y-99300000I0J150000D01*
G01*
X177735000Y-97650000D01*
G75*
G02*
X177885000Y-97500000I150000J0D01*
G01*
G37*
G36*
G01*
X179155000Y-97500000D02*
X179455000Y-97500000D01*
G75*
G02*
X179605000Y-97650000I0J-150000D01*
G01*
X179605000Y-99300000D01*
G75*
G02*
X179455000Y-99450000I-150000J0D01*
G01*
X179155000Y-99450000D01*
G75*
G02*
X179005000Y-99300000I0J150000D01*
G01*
X179005000Y-97650000D01*
G75*
G02*
X179155000Y-97500000I150000J0D01*
G01*
G37*
G36*
G01*
X158200000Y-86700000D02*
X158200000Y-86400000D01*
G75*
G02*
X158350000Y-86250000I150000J0D01*
G01*
X159375000Y-86250000D01*
G75*
G02*
X159525000Y-86400000I0J-150000D01*
G01*
X159525000Y-86700000D01*
G75*
G02*
X159375000Y-86850000I-150000J0D01*
G01*
X158350000Y-86850000D01*
G75*
G02*
X158200000Y-86700000I0J150000D01*
G01*
G37*
G36*
G01*
X158200000Y-87650000D02*
X158200000Y-87350000D01*
G75*
G02*
X158350000Y-87200000I150000J0D01*
G01*
X159375000Y-87200000D01*
G75*
G02*
X159525000Y-87350000I0J-150000D01*
G01*
X159525000Y-87650000D01*
G75*
G02*
X159375000Y-87800000I-150000J0D01*
G01*
X158350000Y-87800000D01*
G75*
G02*
X158200000Y-87650000I0J150000D01*
G01*
G37*
G36*
G01*
X158200000Y-88600000D02*
X158200000Y-88300000D01*
G75*
G02*
X158350000Y-88150000I150000J0D01*
G01*
X159375000Y-88150000D01*
G75*
G02*
X159525000Y-88300000I0J-150000D01*
G01*
X159525000Y-88600000D01*
G75*
G02*
X159375000Y-88750000I-150000J0D01*
G01*
X158350000Y-88750000D01*
G75*
G02*
X158200000Y-88600000I0J150000D01*
G01*
G37*
G36*
G01*
X160475000Y-88600000D02*
X160475000Y-88300000D01*
G75*
G02*
X160625000Y-88150000I150000J0D01*
G01*
X161650000Y-88150000D01*
G75*
G02*
X161800000Y-88300000I0J-150000D01*
G01*
X161800000Y-88600000D01*
G75*
G02*
X161650000Y-88750000I-150000J0D01*
G01*
X160625000Y-88750000D01*
G75*
G02*
X160475000Y-88600000I0J150000D01*
G01*
G37*
G36*
G01*
X160475000Y-86700000D02*
X160475000Y-86400000D01*
G75*
G02*
X160625000Y-86250000I150000J0D01*
G01*
X161650000Y-86250000D01*
G75*
G02*
X161800000Y-86400000I0J-150000D01*
G01*
X161800000Y-86700000D01*
G75*
G02*
X161650000Y-86850000I-150000J0D01*
G01*
X160625000Y-86850000D01*
G75*
G02*
X160475000Y-86700000I0J150000D01*
G01*
G37*
G36*
G01*
X202065000Y-80655000D02*
X202065000Y-80345000D01*
G75*
G02*
X202220000Y-80190000I155000J0D01*
G01*
X202645000Y-80190000D01*
G75*
G02*
X202800000Y-80345000I0J-155000D01*
G01*
X202800000Y-80655000D01*
G75*
G02*
X202645000Y-80810000I-155000J0D01*
G01*
X202220000Y-80810000D01*
G75*
G02*
X202065000Y-80655000I0J155000D01*
G01*
G37*
G36*
G01*
X203200000Y-80655000D02*
X203200000Y-80345000D01*
G75*
G02*
X203355000Y-80190000I155000J0D01*
G01*
X203780000Y-80190000D01*
G75*
G02*
X203935000Y-80345000I0J-155000D01*
G01*
X203935000Y-80655000D01*
G75*
G02*
X203780000Y-80810000I-155000J0D01*
G01*
X203355000Y-80810000D01*
G75*
G02*
X203200000Y-80655000I0J155000D01*
G01*
G37*
G36*
G01*
X146660000Y-95300000D02*
X146660000Y-95700000D01*
G75*
G02*
X146610000Y-95750000I-50000J0D01*
G01*
X145120000Y-95750000D01*
G75*
G02*
X145070000Y-95700000I0J50000D01*
G01*
X145070000Y-95300000D01*
G75*
G02*
X145120000Y-95250000I50000J0D01*
G01*
X146610000Y-95250000D01*
G75*
G02*
X146660000Y-95300000I0J-50000D01*
G01*
G37*
G36*
G01*
X146660000Y-96300000D02*
X146660000Y-96700000D01*
G75*
G02*
X146610000Y-96750000I-50000J0D01*
G01*
X145120000Y-96750000D01*
G75*
G02*
X145070000Y-96700000I0J50000D01*
G01*
X145070000Y-96300000D01*
G75*
G02*
X145120000Y-96250000I50000J0D01*
G01*
X146610000Y-96250000D01*
G75*
G02*
X146660000Y-96300000I0J-50000D01*
G01*
G37*
G36*
G01*
X146660000Y-97300000D02*
X146660000Y-97700000D01*
G75*
G02*
X146610000Y-97750000I-50000J0D01*
G01*
X145120000Y-97750000D01*
G75*
G02*
X145070000Y-97700000I0J50000D01*
G01*
X145070000Y-97300000D01*
G75*
G02*
X145120000Y-97250000I50000J0D01*
G01*
X146610000Y-97250000D01*
G75*
G02*
X146660000Y-97300000I0J-50000D01*
G01*
G37*
G36*
G01*
X146660000Y-98300000D02*
X146660000Y-98700000D01*
G75*
G02*
X146610000Y-98750000I-50000J0D01*
G01*
X145120000Y-98750000D01*
G75*
G02*
X145070000Y-98700000I0J50000D01*
G01*
X145070000Y-98300000D01*
G75*
G02*
X145120000Y-98250000I50000J0D01*
G01*
X146610000Y-98250000D01*
G75*
G02*
X146660000Y-98300000I0J-50000D01*
G01*
G37*
G36*
G01*
X146660000Y-99300000D02*
X146660000Y-99700000D01*
G75*
G02*
X146610000Y-99750000I-50000J0D01*
G01*
X145120000Y-99750000D01*
G75*
G02*
X145070000Y-99700000I0J50000D01*
G01*
X145070000Y-99300000D01*
G75*
G02*
X145120000Y-99250000I50000J0D01*
G01*
X146610000Y-99250000D01*
G75*
G02*
X146660000Y-99300000I0J-50000D01*
G01*
G37*
G36*
G01*
X146660000Y-100300000D02*
X146660000Y-100700000D01*
G75*
G02*
X146610000Y-100750000I-50000J0D01*
G01*
X145120000Y-100750000D01*
G75*
G02*
X145070000Y-100700000I0J50000D01*
G01*
X145070000Y-100300000D01*
G75*
G02*
X145120000Y-100250000I50000J0D01*
G01*
X146610000Y-100250000D01*
G75*
G02*
X146660000Y-100300000I0J-50000D01*
G01*
G37*
G36*
G01*
X146660000Y-101300000D02*
X146660000Y-101700000D01*
G75*
G02*
X146610000Y-101750000I-50000J0D01*
G01*
X145120000Y-101750000D01*
G75*
G02*
X145070000Y-101700000I0J50000D01*
G01*
X145070000Y-101300000D01*
G75*
G02*
X145120000Y-101250000I50000J0D01*
G01*
X146610000Y-101250000D01*
G75*
G02*
X146660000Y-101300000I0J-50000D01*
G01*
G37*
G36*
G01*
X146660000Y-102300000D02*
X146660000Y-102700000D01*
G75*
G02*
X146610000Y-102750000I-50000J0D01*
G01*
X145120000Y-102750000D01*
G75*
G02*
X145070000Y-102700000I0J50000D01*
G01*
X145070000Y-102300000D01*
G75*
G02*
X145120000Y-102250000I50000J0D01*
G01*
X146610000Y-102250000D01*
G75*
G02*
X146660000Y-102300000I0J-50000D01*
G01*
G37*
G36*
G01*
X143930000Y-102300000D02*
X143930000Y-102700000D01*
G75*
G02*
X143880000Y-102750000I-50000J0D01*
G01*
X142390000Y-102750000D01*
G75*
G02*
X142340000Y-102700000I0J50000D01*
G01*
X142340000Y-102300000D01*
G75*
G02*
X142390000Y-102250000I50000J0D01*
G01*
X143880000Y-102250000D01*
G75*
G02*
X143930000Y-102300000I0J-50000D01*
G01*
G37*
G36*
G01*
X143930000Y-101300000D02*
X143930000Y-101700000D01*
G75*
G02*
X143880000Y-101750000I-50000J0D01*
G01*
X142390000Y-101750000D01*
G75*
G02*
X142340000Y-101700000I0J50000D01*
G01*
X142340000Y-101300000D01*
G75*
G02*
X142390000Y-101250000I50000J0D01*
G01*
X143880000Y-101250000D01*
G75*
G02*
X143930000Y-101300000I0J-50000D01*
G01*
G37*
G36*
G01*
X143930000Y-100300000D02*
X143930000Y-100700000D01*
G75*
G02*
X143880000Y-100750000I-50000J0D01*
G01*
X142390000Y-100750000D01*
G75*
G02*
X142340000Y-100700000I0J50000D01*
G01*
X142340000Y-100300000D01*
G75*
G02*
X142390000Y-100250000I50000J0D01*
G01*
X143880000Y-100250000D01*
G75*
G02*
X143930000Y-100300000I0J-50000D01*
G01*
G37*
G36*
G01*
X143930000Y-99300000D02*
X143930000Y-99700000D01*
G75*
G02*
X143880000Y-99750000I-50000J0D01*
G01*
X142390000Y-99750000D01*
G75*
G02*
X142340000Y-99700000I0J50000D01*
G01*
X142340000Y-99300000D01*
G75*
G02*
X142390000Y-99250000I50000J0D01*
G01*
X143880000Y-99250000D01*
G75*
G02*
X143930000Y-99300000I0J-50000D01*
G01*
G37*
G36*
G01*
X143930000Y-98300000D02*
X143930000Y-98700000D01*
G75*
G02*
X143880000Y-98750000I-50000J0D01*
G01*
X142390000Y-98750000D01*
G75*
G02*
X142340000Y-98700000I0J50000D01*
G01*
X142340000Y-98300000D01*
G75*
G02*
X142390000Y-98250000I50000J0D01*
G01*
X143880000Y-98250000D01*
G75*
G02*
X143930000Y-98300000I0J-50000D01*
G01*
G37*
G36*
G01*
X143930000Y-97300000D02*
X143930000Y-97700000D01*
G75*
G02*
X143880000Y-97750000I-50000J0D01*
G01*
X142390000Y-97750000D01*
G75*
G02*
X142340000Y-97700000I0J50000D01*
G01*
X142340000Y-97300000D01*
G75*
G02*
X142390000Y-97250000I50000J0D01*
G01*
X143880000Y-97250000D01*
G75*
G02*
X143930000Y-97300000I0J-50000D01*
G01*
G37*
G36*
G01*
X143930000Y-96300000D02*
X143930000Y-96700000D01*
G75*
G02*
X143880000Y-96750000I-50000J0D01*
G01*
X142390000Y-96750000D01*
G75*
G02*
X142340000Y-96700000I0J50000D01*
G01*
X142340000Y-96300000D01*
G75*
G02*
X142390000Y-96250000I50000J0D01*
G01*
X143880000Y-96250000D01*
G75*
G02*
X143930000Y-96300000I0J-50000D01*
G01*
G37*
G36*
G01*
X143930000Y-95300000D02*
X143930000Y-95700000D01*
G75*
G02*
X143880000Y-95750000I-50000J0D01*
G01*
X142390000Y-95750000D01*
G75*
G02*
X142340000Y-95700000I0J50000D01*
G01*
X142340000Y-95300000D01*
G75*
G02*
X142390000Y-95250000I50000J0D01*
G01*
X143880000Y-95250000D01*
G75*
G02*
X143930000Y-95300000I0J-50000D01*
G01*
G37*
G36*
G01*
X143700000Y-95575000D02*
X142440000Y-95575000D01*
G75*
G02*
X142370000Y-95505000I0J70000D01*
G01*
X142370000Y-94045000D01*
G75*
G02*
X142440000Y-93975000I70000J0D01*
G01*
X143700000Y-93975000D01*
G75*
G02*
X143770000Y-94045000I0J-70000D01*
G01*
X143770000Y-95505000D01*
G75*
G02*
X143700000Y-95575000I-70000J0D01*
G01*
G37*
G36*
G01*
X146560000Y-104025000D02*
X145300000Y-104025000D01*
G75*
G02*
X145230000Y-103955000I0J70000D01*
G01*
X145230000Y-102495000D01*
G75*
G02*
X145300000Y-102425000I70000J0D01*
G01*
X146560000Y-102425000D01*
G75*
G02*
X146630000Y-102495000I0J-70000D01*
G01*
X146630000Y-103955000D01*
G75*
G02*
X146560000Y-104025000I-70000J0D01*
G01*
G37*
G36*
G01*
X143585000Y-105100000D02*
X142415000Y-105100000D01*
G75*
G02*
X142350000Y-105035000I0J65000D01*
G01*
X142350000Y-102465000D01*
G75*
G02*
X142415000Y-102400000I65000J0D01*
G01*
X143585000Y-102400000D01*
G75*
G02*
X143650000Y-102465000I0J-65000D01*
G01*
X143650000Y-105035000D01*
G75*
G02*
X143585000Y-105100000I-65000J0D01*
G01*
G37*
G36*
G01*
X146585000Y-95600000D02*
X145415000Y-95600000D01*
G75*
G02*
X145350000Y-95535000I0J65000D01*
G01*
X145350000Y-92965000D01*
G75*
G02*
X145415000Y-92900000I65000J0D01*
G01*
X146585000Y-92900000D01*
G75*
G02*
X146650000Y-92965000I0J-65000D01*
G01*
X146650000Y-95535000D01*
G75*
G02*
X146585000Y-95600000I-65000J0D01*
G01*
G37*
G36*
G01*
X194340000Y-52545000D02*
X194660000Y-52545000D01*
G75*
G02*
X194820000Y-52705000I0J-160000D01*
G01*
X194820000Y-53100000D01*
G75*
G02*
X194660000Y-53260000I-160000J0D01*
G01*
X194340000Y-53260000D01*
G75*
G02*
X194180000Y-53100000I0J160000D01*
G01*
X194180000Y-52705000D01*
G75*
G02*
X194340000Y-52545000I160000J0D01*
G01*
G37*
G36*
G01*
X194340000Y-53740000D02*
X194660000Y-53740000D01*
G75*
G02*
X194820000Y-53900000I0J-160000D01*
G01*
X194820000Y-54295000D01*
G75*
G02*
X194660000Y-54455000I-160000J0D01*
G01*
X194340000Y-54455000D01*
G75*
G02*
X194180000Y-54295000I0J160000D01*
G01*
X194180000Y-53900000D01*
G75*
G02*
X194340000Y-53740000I160000J0D01*
G01*
G37*
G36*
G01*
X203455000Y-90340000D02*
X203455000Y-90660000D01*
G75*
G02*
X203295000Y-90820000I-160000J0D01*
G01*
X202900000Y-90820000D01*
G75*
G02*
X202740000Y-90660000I0J160000D01*
G01*
X202740000Y-90340000D01*
G75*
G02*
X202900000Y-90180000I160000J0D01*
G01*
X203295000Y-90180000D01*
G75*
G02*
X203455000Y-90340000I0J-160000D01*
G01*
G37*
G36*
G01*
X202260000Y-90340000D02*
X202260000Y-90660000D01*
G75*
G02*
X202100000Y-90820000I-160000J0D01*
G01*
X201705000Y-90820000D01*
G75*
G02*
X201545000Y-90660000I0J160000D01*
G01*
X201545000Y-90340000D01*
G75*
G02*
X201705000Y-90180000I160000J0D01*
G01*
X202100000Y-90180000D01*
G75*
G02*
X202260000Y-90340000I0J-160000D01*
G01*
G37*
G36*
G01*
X203100000Y-41050000D02*
X203100000Y-41950000D01*
G75*
G02*
X202850000Y-42200000I-250000J0D01*
G01*
X202150000Y-42200000D01*
G75*
G02*
X201900000Y-41950000I0J250000D01*
G01*
X201900000Y-41050000D01*
G75*
G02*
X202150000Y-40800000I250000J0D01*
G01*
X202850000Y-40800000D01*
G75*
G02*
X203100000Y-41050000I0J-250000D01*
G01*
G37*
G36*
G01*
X201100000Y-41050000D02*
X201100000Y-41950000D01*
G75*
G02*
X200850000Y-42200000I-250000J0D01*
G01*
X200150000Y-42200000D01*
G75*
G02*
X199900000Y-41950000I0J250000D01*
G01*
X199900000Y-41050000D01*
G75*
G02*
X200150000Y-40800000I250000J0D01*
G01*
X200850000Y-40800000D01*
G75*
G02*
X201100000Y-41050000I0J-250000D01*
G01*
G37*
D27*
X152500000Y-54000000D03*
D28*
X152500000Y-54000000D03*
G36*
G01*
X187950000Y-61100000D02*
X187050000Y-61100000D01*
G75*
G02*
X186800000Y-60850000I0J250000D01*
G01*
X186800000Y-60150000D01*
G75*
G02*
X187050000Y-59900000I250000J0D01*
G01*
X187950000Y-59900000D01*
G75*
G02*
X188200000Y-60150000I0J-250000D01*
G01*
X188200000Y-60850000D01*
G75*
G02*
X187950000Y-61100000I-250000J0D01*
G01*
G37*
G36*
G01*
X187950000Y-59100000D02*
X187050000Y-59100000D01*
G75*
G02*
X186800000Y-58850000I0J250000D01*
G01*
X186800000Y-58150000D01*
G75*
G02*
X187050000Y-57900000I250000J0D01*
G01*
X187950000Y-57900000D01*
G75*
G02*
X188200000Y-58150000I0J-250000D01*
G01*
X188200000Y-58850000D01*
G75*
G02*
X187950000Y-59100000I-250000J0D01*
G01*
G37*
G36*
G01*
X183050000Y-72900000D02*
X183950000Y-72900000D01*
G75*
G02*
X184200000Y-73150000I0J-250000D01*
G01*
X184200000Y-73850000D01*
G75*
G02*
X183950000Y-74100000I-250000J0D01*
G01*
X183050000Y-74100000D01*
G75*
G02*
X182800000Y-73850000I0J250000D01*
G01*
X182800000Y-73150000D01*
G75*
G02*
X183050000Y-72900000I250000J0D01*
G01*
G37*
G36*
G01*
X183050000Y-74900000D02*
X183950000Y-74900000D01*
G75*
G02*
X184200000Y-75150000I0J-250000D01*
G01*
X184200000Y-75850000D01*
G75*
G02*
X183950000Y-76100000I-250000J0D01*
G01*
X183050000Y-76100000D01*
G75*
G02*
X182800000Y-75850000I0J250000D01*
G01*
X182800000Y-75150000D01*
G75*
G02*
X183050000Y-74900000I250000J0D01*
G01*
G37*
G36*
G01*
X184975000Y-72125000D02*
X184025000Y-72125000D01*
G75*
G02*
X183775000Y-71875000I0J250000D01*
G01*
X183775000Y-71200000D01*
G75*
G02*
X184025000Y-70950000I250000J0D01*
G01*
X184975000Y-70950000D01*
G75*
G02*
X185225000Y-71200000I0J-250000D01*
G01*
X185225000Y-71875000D01*
G75*
G02*
X184975000Y-72125000I-250000J0D01*
G01*
G37*
G36*
G01*
X184975000Y-70050000D02*
X184025000Y-70050000D01*
G75*
G02*
X183775000Y-69800000I0J250000D01*
G01*
X183775000Y-69125000D01*
G75*
G02*
X184025000Y-68875000I250000J0D01*
G01*
X184975000Y-68875000D01*
G75*
G02*
X185225000Y-69125000I0J-250000D01*
G01*
X185225000Y-69800000D01*
G75*
G02*
X184975000Y-70050000I-250000J0D01*
G01*
G37*
G36*
G01*
X195150000Y-64312500D02*
X195150000Y-64187500D01*
G75*
G02*
X195212500Y-64125000I62500J0D01*
G01*
X195837500Y-64125000D01*
G75*
G02*
X195900000Y-64187500I0J-62500D01*
G01*
X195900000Y-64312500D01*
G75*
G02*
X195837500Y-64375000I-62500J0D01*
G01*
X195212500Y-64375000D01*
G75*
G02*
X195150000Y-64312500I0J62500D01*
G01*
G37*
G36*
G01*
X195150000Y-64812500D02*
X195150000Y-64687500D01*
G75*
G02*
X195212500Y-64625000I62500J0D01*
G01*
X195837500Y-64625000D01*
G75*
G02*
X195900000Y-64687500I0J-62500D01*
G01*
X195900000Y-64812500D01*
G75*
G02*
X195837500Y-64875000I-62500J0D01*
G01*
X195212500Y-64875000D01*
G75*
G02*
X195150000Y-64812500I0J62500D01*
G01*
G37*
G36*
G01*
X195150000Y-65312500D02*
X195150000Y-65187500D01*
G75*
G02*
X195212500Y-65125000I62500J0D01*
G01*
X195837500Y-65125000D01*
G75*
G02*
X195900000Y-65187500I0J-62500D01*
G01*
X195900000Y-65312500D01*
G75*
G02*
X195837500Y-65375000I-62500J0D01*
G01*
X195212500Y-65375000D01*
G75*
G02*
X195150000Y-65312500I0J62500D01*
G01*
G37*
G36*
G01*
X195150000Y-65812500D02*
X195150000Y-65687500D01*
G75*
G02*
X195212500Y-65625000I62500J0D01*
G01*
X195837500Y-65625000D01*
G75*
G02*
X195900000Y-65687500I0J-62500D01*
G01*
X195900000Y-65812500D01*
G75*
G02*
X195837500Y-65875000I-62500J0D01*
G01*
X195212500Y-65875000D01*
G75*
G02*
X195150000Y-65812500I0J62500D01*
G01*
G37*
G36*
G01*
X195150000Y-66312500D02*
X195150000Y-66187500D01*
G75*
G02*
X195212500Y-66125000I62500J0D01*
G01*
X195837500Y-66125000D01*
G75*
G02*
X195900000Y-66187500I0J-62500D01*
G01*
X195900000Y-66312500D01*
G75*
G02*
X195837500Y-66375000I-62500J0D01*
G01*
X195212500Y-66375000D01*
G75*
G02*
X195150000Y-66312500I0J62500D01*
G01*
G37*
G36*
G01*
X195150000Y-66812500D02*
X195150000Y-66687500D01*
G75*
G02*
X195212500Y-66625000I62500J0D01*
G01*
X195837500Y-66625000D01*
G75*
G02*
X195900000Y-66687500I0J-62500D01*
G01*
X195900000Y-66812500D01*
G75*
G02*
X195837500Y-66875000I-62500J0D01*
G01*
X195212500Y-66875000D01*
G75*
G02*
X195150000Y-66812500I0J62500D01*
G01*
G37*
G36*
G01*
X195150000Y-67312500D02*
X195150000Y-67187500D01*
G75*
G02*
X195212500Y-67125000I62500J0D01*
G01*
X195837500Y-67125000D01*
G75*
G02*
X195900000Y-67187500I0J-62500D01*
G01*
X195900000Y-67312500D01*
G75*
G02*
X195837500Y-67375000I-62500J0D01*
G01*
X195212500Y-67375000D01*
G75*
G02*
X195150000Y-67312500I0J62500D01*
G01*
G37*
G36*
G01*
X195150000Y-67812500D02*
X195150000Y-67687500D01*
G75*
G02*
X195212500Y-67625000I62500J0D01*
G01*
X195837500Y-67625000D01*
G75*
G02*
X195900000Y-67687500I0J-62500D01*
G01*
X195900000Y-67812500D01*
G75*
G02*
X195837500Y-67875000I-62500J0D01*
G01*
X195212500Y-67875000D01*
G75*
G02*
X195150000Y-67812500I0J62500D01*
G01*
G37*
G36*
G01*
X196125000Y-68787500D02*
X196125000Y-68162500D01*
G75*
G02*
X196187500Y-68100000I62500J0D01*
G01*
X196312500Y-68100000D01*
G75*
G02*
X196375000Y-68162500I0J-62500D01*
G01*
X196375000Y-68787500D01*
G75*
G02*
X196312500Y-68850000I-62500J0D01*
G01*
X196187500Y-68850000D01*
G75*
G02*
X196125000Y-68787500I0J62500D01*
G01*
G37*
G36*
G01*
X196625000Y-68787500D02*
X196625000Y-68162500D01*
G75*
G02*
X196687500Y-68100000I62500J0D01*
G01*
X196812500Y-68100000D01*
G75*
G02*
X196875000Y-68162500I0J-62500D01*
G01*
X196875000Y-68787500D01*
G75*
G02*
X196812500Y-68850000I-62500J0D01*
G01*
X196687500Y-68850000D01*
G75*
G02*
X196625000Y-68787500I0J62500D01*
G01*
G37*
G36*
G01*
X197125000Y-68787500D02*
X197125000Y-68162500D01*
G75*
G02*
X197187500Y-68100000I62500J0D01*
G01*
X197312500Y-68100000D01*
G75*
G02*
X197375000Y-68162500I0J-62500D01*
G01*
X197375000Y-68787500D01*
G75*
G02*
X197312500Y-68850000I-62500J0D01*
G01*
X197187500Y-68850000D01*
G75*
G02*
X197125000Y-68787500I0J62500D01*
G01*
G37*
G36*
G01*
X197625000Y-68787500D02*
X197625000Y-68162500D01*
G75*
G02*
X197687500Y-68100000I62500J0D01*
G01*
X197812500Y-68100000D01*
G75*
G02*
X197875000Y-68162500I0J-62500D01*
G01*
X197875000Y-68787500D01*
G75*
G02*
X197812500Y-68850000I-62500J0D01*
G01*
X197687500Y-68850000D01*
G75*
G02*
X197625000Y-68787500I0J62500D01*
G01*
G37*
G36*
G01*
X198125000Y-68787500D02*
X198125000Y-68162500D01*
G75*
G02*
X198187500Y-68100000I62500J0D01*
G01*
X198312500Y-68100000D01*
G75*
G02*
X198375000Y-68162500I0J-62500D01*
G01*
X198375000Y-68787500D01*
G75*
G02*
X198312500Y-68850000I-62500J0D01*
G01*
X198187500Y-68850000D01*
G75*
G02*
X198125000Y-68787500I0J62500D01*
G01*
G37*
G36*
G01*
X198625000Y-68787500D02*
X198625000Y-68162500D01*
G75*
G02*
X198687500Y-68100000I62500J0D01*
G01*
X198812500Y-68100000D01*
G75*
G02*
X198875000Y-68162500I0J-62500D01*
G01*
X198875000Y-68787500D01*
G75*
G02*
X198812500Y-68850000I-62500J0D01*
G01*
X198687500Y-68850000D01*
G75*
G02*
X198625000Y-68787500I0J62500D01*
G01*
G37*
G36*
G01*
X199125000Y-68787500D02*
X199125000Y-68162500D01*
G75*
G02*
X199187500Y-68100000I62500J0D01*
G01*
X199312500Y-68100000D01*
G75*
G02*
X199375000Y-68162500I0J-62500D01*
G01*
X199375000Y-68787500D01*
G75*
G02*
X199312500Y-68850000I-62500J0D01*
G01*
X199187500Y-68850000D01*
G75*
G02*
X199125000Y-68787500I0J62500D01*
G01*
G37*
G36*
G01*
X199625000Y-68787500D02*
X199625000Y-68162500D01*
G75*
G02*
X199687500Y-68100000I62500J0D01*
G01*
X199812500Y-68100000D01*
G75*
G02*
X199875000Y-68162500I0J-62500D01*
G01*
X199875000Y-68787500D01*
G75*
G02*
X199812500Y-68850000I-62500J0D01*
G01*
X199687500Y-68850000D01*
G75*
G02*
X199625000Y-68787500I0J62500D01*
G01*
G37*
G36*
G01*
X200100000Y-67812500D02*
X200100000Y-67687500D01*
G75*
G02*
X200162500Y-67625000I62500J0D01*
G01*
X200787500Y-67625000D01*
G75*
G02*
X200850000Y-67687500I0J-62500D01*
G01*
X200850000Y-67812500D01*
G75*
G02*
X200787500Y-67875000I-62500J0D01*
G01*
X200162500Y-67875000D01*
G75*
G02*
X200100000Y-67812500I0J62500D01*
G01*
G37*
G36*
G01*
X200100000Y-67312500D02*
X200100000Y-67187500D01*
G75*
G02*
X200162500Y-67125000I62500J0D01*
G01*
X200787500Y-67125000D01*
G75*
G02*
X200850000Y-67187500I0J-62500D01*
G01*
X200850000Y-67312500D01*
G75*
G02*
X200787500Y-67375000I-62500J0D01*
G01*
X200162500Y-67375000D01*
G75*
G02*
X200100000Y-67312500I0J62500D01*
G01*
G37*
G36*
G01*
X200100000Y-66812500D02*
X200100000Y-66687500D01*
G75*
G02*
X200162500Y-66625000I62500J0D01*
G01*
X200787500Y-66625000D01*
G75*
G02*
X200850000Y-66687500I0J-62500D01*
G01*
X200850000Y-66812500D01*
G75*
G02*
X200787500Y-66875000I-62500J0D01*
G01*
X200162500Y-66875000D01*
G75*
G02*
X200100000Y-66812500I0J62500D01*
G01*
G37*
G36*
G01*
X200100000Y-66312500D02*
X200100000Y-66187500D01*
G75*
G02*
X200162500Y-66125000I62500J0D01*
G01*
X200787500Y-66125000D01*
G75*
G02*
X200850000Y-66187500I0J-62500D01*
G01*
X200850000Y-66312500D01*
G75*
G02*
X200787500Y-66375000I-62500J0D01*
G01*
X200162500Y-66375000D01*
G75*
G02*
X200100000Y-66312500I0J62500D01*
G01*
G37*
G36*
G01*
X200100000Y-65812500D02*
X200100000Y-65687500D01*
G75*
G02*
X200162500Y-65625000I62500J0D01*
G01*
X200787500Y-65625000D01*
G75*
G02*
X200850000Y-65687500I0J-62500D01*
G01*
X200850000Y-65812500D01*
G75*
G02*
X200787500Y-65875000I-62500J0D01*
G01*
X200162500Y-65875000D01*
G75*
G02*
X200100000Y-65812500I0J62500D01*
G01*
G37*
G36*
G01*
X200100000Y-65312500D02*
X200100000Y-65187500D01*
G75*
G02*
X200162500Y-65125000I62500J0D01*
G01*
X200787500Y-65125000D01*
G75*
G02*
X200850000Y-65187500I0J-62500D01*
G01*
X200850000Y-65312500D01*
G75*
G02*
X200787500Y-65375000I-62500J0D01*
G01*
X200162500Y-65375000D01*
G75*
G02*
X200100000Y-65312500I0J62500D01*
G01*
G37*
G36*
G01*
X200100000Y-64812500D02*
X200100000Y-64687500D01*
G75*
G02*
X200162500Y-64625000I62500J0D01*
G01*
X200787500Y-64625000D01*
G75*
G02*
X200850000Y-64687500I0J-62500D01*
G01*
X200850000Y-64812500D01*
G75*
G02*
X200787500Y-64875000I-62500J0D01*
G01*
X200162500Y-64875000D01*
G75*
G02*
X200100000Y-64812500I0J62500D01*
G01*
G37*
G36*
G01*
X200100000Y-64312500D02*
X200100000Y-64187500D01*
G75*
G02*
X200162500Y-64125000I62500J0D01*
G01*
X200787500Y-64125000D01*
G75*
G02*
X200850000Y-64187500I0J-62500D01*
G01*
X200850000Y-64312500D01*
G75*
G02*
X200787500Y-64375000I-62500J0D01*
G01*
X200162500Y-64375000D01*
G75*
G02*
X200100000Y-64312500I0J62500D01*
G01*
G37*
G36*
G01*
X199625000Y-63837500D02*
X199625000Y-63212500D01*
G75*
G02*
X199687500Y-63150000I62500J0D01*
G01*
X199812500Y-63150000D01*
G75*
G02*
X199875000Y-63212500I0J-62500D01*
G01*
X199875000Y-63837500D01*
G75*
G02*
X199812500Y-63900000I-62500J0D01*
G01*
X199687500Y-63900000D01*
G75*
G02*
X199625000Y-63837500I0J62500D01*
G01*
G37*
G36*
G01*
X199125000Y-63837500D02*
X199125000Y-63212500D01*
G75*
G02*
X199187500Y-63150000I62500J0D01*
G01*
X199312500Y-63150000D01*
G75*
G02*
X199375000Y-63212500I0J-62500D01*
G01*
X199375000Y-63837500D01*
G75*
G02*
X199312500Y-63900000I-62500J0D01*
G01*
X199187500Y-63900000D01*
G75*
G02*
X199125000Y-63837500I0J62500D01*
G01*
G37*
G36*
G01*
X198625000Y-63837500D02*
X198625000Y-63212500D01*
G75*
G02*
X198687500Y-63150000I62500J0D01*
G01*
X198812500Y-63150000D01*
G75*
G02*
X198875000Y-63212500I0J-62500D01*
G01*
X198875000Y-63837500D01*
G75*
G02*
X198812500Y-63900000I-62500J0D01*
G01*
X198687500Y-63900000D01*
G75*
G02*
X198625000Y-63837500I0J62500D01*
G01*
G37*
G36*
G01*
X198125000Y-63837500D02*
X198125000Y-63212500D01*
G75*
G02*
X198187500Y-63150000I62500J0D01*
G01*
X198312500Y-63150000D01*
G75*
G02*
X198375000Y-63212500I0J-62500D01*
G01*
X198375000Y-63837500D01*
G75*
G02*
X198312500Y-63900000I-62500J0D01*
G01*
X198187500Y-63900000D01*
G75*
G02*
X198125000Y-63837500I0J62500D01*
G01*
G37*
G36*
G01*
X197625000Y-63837500D02*
X197625000Y-63212500D01*
G75*
G02*
X197687500Y-63150000I62500J0D01*
G01*
X197812500Y-63150000D01*
G75*
G02*
X197875000Y-63212500I0J-62500D01*
G01*
X197875000Y-63837500D01*
G75*
G02*
X197812500Y-63900000I-62500J0D01*
G01*
X197687500Y-63900000D01*
G75*
G02*
X197625000Y-63837500I0J62500D01*
G01*
G37*
G36*
G01*
X197125000Y-63837500D02*
X197125000Y-63212500D01*
G75*
G02*
X197187500Y-63150000I62500J0D01*
G01*
X197312500Y-63150000D01*
G75*
G02*
X197375000Y-63212500I0J-62500D01*
G01*
X197375000Y-63837500D01*
G75*
G02*
X197312500Y-63900000I-62500J0D01*
G01*
X197187500Y-63900000D01*
G75*
G02*
X197125000Y-63837500I0J62500D01*
G01*
G37*
G36*
G01*
X196625000Y-63837500D02*
X196625000Y-63212500D01*
G75*
G02*
X196687500Y-63150000I62500J0D01*
G01*
X196812500Y-63150000D01*
G75*
G02*
X196875000Y-63212500I0J-62500D01*
G01*
X196875000Y-63837500D01*
G75*
G02*
X196812500Y-63900000I-62500J0D01*
G01*
X196687500Y-63900000D01*
G75*
G02*
X196625000Y-63837500I0J62500D01*
G01*
G37*
G36*
G01*
X196125000Y-63837500D02*
X196125000Y-63212500D01*
G75*
G02*
X196187500Y-63150000I62500J0D01*
G01*
X196312500Y-63150000D01*
G75*
G02*
X196375000Y-63212500I0J-62500D01*
G01*
X196375000Y-63837500D01*
G75*
G02*
X196312500Y-63900000I-62500J0D01*
G01*
X196187500Y-63900000D01*
G75*
G02*
X196125000Y-63837500I0J62500D01*
G01*
G37*
D29*
X198000000Y-66000000D03*
G36*
G01*
X146230000Y-107245000D02*
X147270000Y-107245000D01*
G75*
G02*
X147400000Y-107375000I0J-130000D01*
G01*
X147400000Y-108665000D01*
G75*
G02*
X147270000Y-108795000I-130000J0D01*
G01*
X146230000Y-108795000D01*
G75*
G02*
X146100000Y-108665000I0J130000D01*
G01*
X146100000Y-107375000D01*
G75*
G02*
X146230000Y-107245000I130000J0D01*
G01*
G37*
G36*
G01*
X146230000Y-115205000D02*
X147270000Y-115205000D01*
G75*
G02*
X147400000Y-115335000I0J-130000D01*
G01*
X147400000Y-116625000D01*
G75*
G02*
X147270000Y-116755000I-130000J0D01*
G01*
X146230000Y-116755000D01*
G75*
G02*
X146100000Y-116625000I0J130000D01*
G01*
X146100000Y-115335000D01*
G75*
G02*
X146230000Y-115205000I130000J0D01*
G01*
G37*
G36*
G01*
X141730000Y-107245000D02*
X142770000Y-107245000D01*
G75*
G02*
X142900000Y-107375000I0J-130000D01*
G01*
X142900000Y-108665000D01*
G75*
G02*
X142770000Y-108795000I-130000J0D01*
G01*
X141730000Y-108795000D01*
G75*
G02*
X141600000Y-108665000I0J130000D01*
G01*
X141600000Y-107375000D01*
G75*
G02*
X141730000Y-107245000I130000J0D01*
G01*
G37*
G36*
G01*
X141730000Y-115205000D02*
X142770000Y-115205000D01*
G75*
G02*
X142900000Y-115335000I0J-130000D01*
G01*
X142900000Y-116625000D01*
G75*
G02*
X142770000Y-116755000I-130000J0D01*
G01*
X141730000Y-116755000D01*
G75*
G02*
X141600000Y-116625000I0J130000D01*
G01*
X141600000Y-115335000D01*
G75*
G02*
X141730000Y-115205000I130000J0D01*
G01*
G37*
G36*
G01*
X181000000Y-102050000D02*
X181000000Y-102950000D01*
G75*
G02*
X180750000Y-103200000I-250000J0D01*
G01*
X180050000Y-103200000D01*
G75*
G02*
X179800000Y-102950000I0J250000D01*
G01*
X179800000Y-102050000D01*
G75*
G02*
X180050000Y-101800000I250000J0D01*
G01*
X180750000Y-101800000D01*
G75*
G02*
X181000000Y-102050000I0J-250000D01*
G01*
G37*
G36*
G01*
X179000000Y-102050000D02*
X179000000Y-102950000D01*
G75*
G02*
X178750000Y-103200000I-250000J0D01*
G01*
X178050000Y-103200000D01*
G75*
G02*
X177800000Y-102950000I0J250000D01*
G01*
X177800000Y-102050000D01*
G75*
G02*
X178050000Y-101800000I250000J0D01*
G01*
X178750000Y-101800000D01*
G75*
G02*
X179000000Y-102050000I0J-250000D01*
G01*
G37*
G36*
G01*
X194345000Y-86065000D02*
X194655000Y-86065000D01*
G75*
G02*
X194810000Y-86220000I0J-155000D01*
G01*
X194810000Y-86645000D01*
G75*
G02*
X194655000Y-86800000I-155000J0D01*
G01*
X194345000Y-86800000D01*
G75*
G02*
X194190000Y-86645000I0J155000D01*
G01*
X194190000Y-86220000D01*
G75*
G02*
X194345000Y-86065000I155000J0D01*
G01*
G37*
G36*
G01*
X194345000Y-87200000D02*
X194655000Y-87200000D01*
G75*
G02*
X194810000Y-87355000I0J-155000D01*
G01*
X194810000Y-87780000D01*
G75*
G02*
X194655000Y-87935000I-155000J0D01*
G01*
X194345000Y-87935000D01*
G75*
G02*
X194190000Y-87780000I0J155000D01*
G01*
X194190000Y-87355000D01*
G75*
G02*
X194345000Y-87200000I155000J0D01*
G01*
G37*
G36*
G01*
X191955000Y-64340000D02*
X191955000Y-64660000D01*
G75*
G02*
X191795000Y-64820000I-160000J0D01*
G01*
X191400000Y-64820000D01*
G75*
G02*
X191240000Y-64660000I0J160000D01*
G01*
X191240000Y-64340000D01*
G75*
G02*
X191400000Y-64180000I160000J0D01*
G01*
X191795000Y-64180000D01*
G75*
G02*
X191955000Y-64340000I0J-160000D01*
G01*
G37*
G36*
G01*
X190760000Y-64340000D02*
X190760000Y-64660000D01*
G75*
G02*
X190600000Y-64820000I-160000J0D01*
G01*
X190205000Y-64820000D01*
G75*
G02*
X190045000Y-64660000I0J160000D01*
G01*
X190045000Y-64340000D01*
G75*
G02*
X190205000Y-64180000I160000J0D01*
G01*
X190600000Y-64180000D01*
G75*
G02*
X190760000Y-64340000I0J-160000D01*
G01*
G37*
G36*
G01*
X203935000Y-73345000D02*
X203935000Y-73655000D01*
G75*
G02*
X203780000Y-73810000I-155000J0D01*
G01*
X203355000Y-73810000D01*
G75*
G02*
X203200000Y-73655000I0J155000D01*
G01*
X203200000Y-73345000D01*
G75*
G02*
X203355000Y-73190000I155000J0D01*
G01*
X203780000Y-73190000D01*
G75*
G02*
X203935000Y-73345000I0J-155000D01*
G01*
G37*
G36*
G01*
X202800000Y-73345000D02*
X202800000Y-73655000D01*
G75*
G02*
X202645000Y-73810000I-155000J0D01*
G01*
X202220000Y-73810000D01*
G75*
G02*
X202065000Y-73655000I0J155000D01*
G01*
X202065000Y-73345000D01*
G75*
G02*
X202220000Y-73190000I155000J0D01*
G01*
X202645000Y-73190000D01*
G75*
G02*
X202800000Y-73345000I0J-155000D01*
G01*
G37*
G36*
G01*
X194435000Y-64345000D02*
X194435000Y-64655000D01*
G75*
G02*
X194280000Y-64810000I-155000J0D01*
G01*
X193855000Y-64810000D01*
G75*
G02*
X193700000Y-64655000I0J155000D01*
G01*
X193700000Y-64345000D01*
G75*
G02*
X193855000Y-64190000I155000J0D01*
G01*
X194280000Y-64190000D01*
G75*
G02*
X194435000Y-64345000I0J-155000D01*
G01*
G37*
G36*
G01*
X193300000Y-64345000D02*
X193300000Y-64655000D01*
G75*
G02*
X193145000Y-64810000I-155000J0D01*
G01*
X192720000Y-64810000D01*
G75*
G02*
X192565000Y-64655000I0J155000D01*
G01*
X192565000Y-64345000D01*
G75*
G02*
X192720000Y-64190000I155000J0D01*
G01*
X193145000Y-64190000D01*
G75*
G02*
X193300000Y-64345000I0J-155000D01*
G01*
G37*
G36*
G01*
X198660000Y-87955000D02*
X198340000Y-87955000D01*
G75*
G02*
X198180000Y-87795000I0J160000D01*
G01*
X198180000Y-87400000D01*
G75*
G02*
X198340000Y-87240000I160000J0D01*
G01*
X198660000Y-87240000D01*
G75*
G02*
X198820000Y-87400000I0J-160000D01*
G01*
X198820000Y-87795000D01*
G75*
G02*
X198660000Y-87955000I-160000J0D01*
G01*
G37*
G36*
G01*
X198660000Y-86760000D02*
X198340000Y-86760000D01*
G75*
G02*
X198180000Y-86600000I0J160000D01*
G01*
X198180000Y-86205000D01*
G75*
G02*
X198340000Y-86045000I160000J0D01*
G01*
X198660000Y-86045000D01*
G75*
G02*
X198820000Y-86205000I0J-160000D01*
G01*
X198820000Y-86600000D01*
G75*
G02*
X198660000Y-86760000I-160000J0D01*
G01*
G37*
G36*
G01*
X166845000Y-110565000D02*
X167155000Y-110565000D01*
G75*
G02*
X167310000Y-110720000I0J-155000D01*
G01*
X167310000Y-111145000D01*
G75*
G02*
X167155000Y-111300000I-155000J0D01*
G01*
X166845000Y-111300000D01*
G75*
G02*
X166690000Y-111145000I0J155000D01*
G01*
X166690000Y-110720000D01*
G75*
G02*
X166845000Y-110565000I155000J0D01*
G01*
G37*
G36*
G01*
X166845000Y-111700000D02*
X167155000Y-111700000D01*
G75*
G02*
X167310000Y-111855000I0J-155000D01*
G01*
X167310000Y-112280000D01*
G75*
G02*
X167155000Y-112435000I-155000J0D01*
G01*
X166845000Y-112435000D01*
G75*
G02*
X166690000Y-112280000I0J155000D01*
G01*
X166690000Y-111855000D01*
G75*
G02*
X166845000Y-111700000I155000J0D01*
G01*
G37*
G36*
G01*
X190600000Y-89737500D02*
X190600000Y-89262500D01*
G75*
G02*
X190837500Y-89025000I237500J0D01*
G01*
X191437500Y-89025000D01*
G75*
G02*
X191675000Y-89262500I0J-237500D01*
G01*
X191675000Y-89737500D01*
G75*
G02*
X191437500Y-89975000I-237500J0D01*
G01*
X190837500Y-89975000D01*
G75*
G02*
X190600000Y-89737500I0J237500D01*
G01*
G37*
G36*
G01*
X192325000Y-89737500D02*
X192325000Y-89262500D01*
G75*
G02*
X192562500Y-89025000I237500J0D01*
G01*
X193162500Y-89025000D01*
G75*
G02*
X193400000Y-89262500I0J-237500D01*
G01*
X193400000Y-89737500D01*
G75*
G02*
X193162500Y-89975000I-237500J0D01*
G01*
X192562500Y-89975000D01*
G75*
G02*
X192325000Y-89737500I0J237500D01*
G01*
G37*
D17*
X155000000Y-72500000D03*
G36*
G01*
X152975000Y-73185000D02*
X152975000Y-71815000D01*
G75*
G02*
X153165000Y-71625000I190000J0D01*
G01*
X153735000Y-71625000D01*
G75*
G02*
X153925000Y-71815000I0J-190000D01*
G01*
X153925000Y-73185000D01*
G75*
G02*
X153735000Y-73375000I-190000J0D01*
G01*
X153165000Y-73375000D01*
G75*
G02*
X152975000Y-73185000I0J190000D01*
G01*
G37*
G36*
G01*
X156075000Y-73185000D02*
X156075000Y-71815000D01*
G75*
G02*
X156265000Y-71625000I190000J0D01*
G01*
X156835000Y-71625000D01*
G75*
G02*
X157025000Y-71815000I0J-190000D01*
G01*
X157025000Y-73185000D01*
G75*
G02*
X156835000Y-73375000I-190000J0D01*
G01*
X156265000Y-73375000D01*
G75*
G02*
X156075000Y-73185000I0J190000D01*
G01*
G37*
G36*
G01*
X198435000Y-73345000D02*
X198435000Y-73655000D01*
G75*
G02*
X198280000Y-73810000I-155000J0D01*
G01*
X197855000Y-73810000D01*
G75*
G02*
X197700000Y-73655000I0J155000D01*
G01*
X197700000Y-73345000D01*
G75*
G02*
X197855000Y-73190000I155000J0D01*
G01*
X198280000Y-73190000D01*
G75*
G02*
X198435000Y-73345000I0J-155000D01*
G01*
G37*
G36*
G01*
X197300000Y-73345000D02*
X197300000Y-73655000D01*
G75*
G02*
X197145000Y-73810000I-155000J0D01*
G01*
X196720000Y-73810000D01*
G75*
G02*
X196565000Y-73655000I0J155000D01*
G01*
X196565000Y-73345000D01*
G75*
G02*
X196720000Y-73190000I155000J0D01*
G01*
X197145000Y-73190000D01*
G75*
G02*
X197300000Y-73345000I0J-155000D01*
G01*
G37*
G36*
G01*
X199435000Y-58345000D02*
X199435000Y-58655000D01*
G75*
G02*
X199280000Y-58810000I-155000J0D01*
G01*
X198855000Y-58810000D01*
G75*
G02*
X198700000Y-58655000I0J155000D01*
G01*
X198700000Y-58345000D01*
G75*
G02*
X198855000Y-58190000I155000J0D01*
G01*
X199280000Y-58190000D01*
G75*
G02*
X199435000Y-58345000I0J-155000D01*
G01*
G37*
G36*
G01*
X198300000Y-58345000D02*
X198300000Y-58655000D01*
G75*
G02*
X198145000Y-58810000I-155000J0D01*
G01*
X197720000Y-58810000D01*
G75*
G02*
X197565000Y-58655000I0J155000D01*
G01*
X197565000Y-58345000D01*
G75*
G02*
X197720000Y-58190000I155000J0D01*
G01*
X198145000Y-58190000D01*
G75*
G02*
X198300000Y-58345000I0J-155000D01*
G01*
G37*
G36*
G01*
X193132500Y-37807500D02*
X193132500Y-40907500D01*
G75*
G02*
X192882500Y-41157500I-250000J0D01*
G01*
X191582500Y-41157500D01*
G75*
G02*
X191332500Y-40907500I0J250000D01*
G01*
X191332500Y-37807500D01*
G75*
G02*
X191582500Y-37557500I250000J0D01*
G01*
X192882500Y-37557500D01*
G75*
G02*
X193132500Y-37807500I0J-250000D01*
G01*
G37*
D30*
X188732500Y-39357500D03*
X185232500Y-39357500D03*
X181732500Y-39357500D03*
G36*
G01*
X183125000Y-58025000D02*
X183125000Y-58975000D01*
G75*
G02*
X182875000Y-59225000I-250000J0D01*
G01*
X182200000Y-59225000D01*
G75*
G02*
X181950000Y-58975000I0J250000D01*
G01*
X181950000Y-58025000D01*
G75*
G02*
X182200000Y-57775000I250000J0D01*
G01*
X182875000Y-57775000D01*
G75*
G02*
X183125000Y-58025000I0J-250000D01*
G01*
G37*
G36*
G01*
X181050000Y-58025000D02*
X181050000Y-58975000D01*
G75*
G02*
X180800000Y-59225000I-250000J0D01*
G01*
X180125000Y-59225000D01*
G75*
G02*
X179875000Y-58975000I0J250000D01*
G01*
X179875000Y-58025000D01*
G75*
G02*
X180125000Y-57775000I250000J0D01*
G01*
X180800000Y-57775000D01*
G75*
G02*
X181050000Y-58025000I0J-250000D01*
G01*
G37*
G36*
G01*
X203350000Y-77675000D02*
X202650000Y-77675000D01*
G75*
G02*
X202400000Y-77425000I0J250000D01*
G01*
X202400000Y-76875000D01*
G75*
G02*
X202650000Y-76625000I250000J0D01*
G01*
X203350000Y-76625000D01*
G75*
G02*
X203600000Y-76875000I0J-250000D01*
G01*
X203600000Y-77425000D01*
G75*
G02*
X203350000Y-77675000I-250000J0D01*
G01*
G37*
G36*
G01*
X203350000Y-75375000D02*
X202650000Y-75375000D01*
G75*
G02*
X202400000Y-75125000I0J250000D01*
G01*
X202400000Y-74575000D01*
G75*
G02*
X202650000Y-74325000I250000J0D01*
G01*
X203350000Y-74325000D01*
G75*
G02*
X203600000Y-74575000I0J-250000D01*
G01*
X203600000Y-75125000D01*
G75*
G02*
X203350000Y-75375000I-250000J0D01*
G01*
G37*
D31*
X199450000Y-70800000D03*
X199450000Y-72200000D03*
X200550000Y-72200000D03*
X200550000Y-70800000D03*
G36*
G01*
X160800000Y-109625000D02*
X160800000Y-108375000D01*
G75*
G02*
X161050000Y-108125000I250000J0D01*
G01*
X161850000Y-108125000D01*
G75*
G02*
X162100000Y-108375000I0J-250000D01*
G01*
X162100000Y-109625000D01*
G75*
G02*
X161850000Y-109875000I-250000J0D01*
G01*
X161050000Y-109875000D01*
G75*
G02*
X160800000Y-109625000I0J250000D01*
G01*
G37*
G36*
G01*
X163900000Y-109625000D02*
X163900000Y-108375000D01*
G75*
G02*
X164150000Y-108125000I250000J0D01*
G01*
X164950000Y-108125000D01*
G75*
G02*
X165200000Y-108375000I0J-250000D01*
G01*
X165200000Y-109625000D01*
G75*
G02*
X164950000Y-109875000I-250000J0D01*
G01*
X164150000Y-109875000D01*
G75*
G02*
X163900000Y-109625000I0J250000D01*
G01*
G37*
G36*
G01*
X201565000Y-89155000D02*
X201565000Y-88845000D01*
G75*
G02*
X201720000Y-88690000I155000J0D01*
G01*
X202145000Y-88690000D01*
G75*
G02*
X202300000Y-88845000I0J-155000D01*
G01*
X202300000Y-89155000D01*
G75*
G02*
X202145000Y-89310000I-155000J0D01*
G01*
X201720000Y-89310000D01*
G75*
G02*
X201565000Y-89155000I0J155000D01*
G01*
G37*
G36*
G01*
X202700000Y-89155000D02*
X202700000Y-88845000D01*
G75*
G02*
X202855000Y-88690000I155000J0D01*
G01*
X203280000Y-88690000D01*
G75*
G02*
X203435000Y-88845000I0J-155000D01*
G01*
X203435000Y-89155000D01*
G75*
G02*
X203280000Y-89310000I-155000J0D01*
G01*
X202855000Y-89310000D01*
G75*
G02*
X202700000Y-89155000I0J155000D01*
G01*
G37*
G36*
G01*
X202065000Y-81655000D02*
X202065000Y-81345000D01*
G75*
G02*
X202220000Y-81190000I155000J0D01*
G01*
X202645000Y-81190000D01*
G75*
G02*
X202800000Y-81345000I0J-155000D01*
G01*
X202800000Y-81655000D01*
G75*
G02*
X202645000Y-81810000I-155000J0D01*
G01*
X202220000Y-81810000D01*
G75*
G02*
X202065000Y-81655000I0J155000D01*
G01*
G37*
G36*
G01*
X203200000Y-81655000D02*
X203200000Y-81345000D01*
G75*
G02*
X203355000Y-81190000I155000J0D01*
G01*
X203780000Y-81190000D01*
G75*
G02*
X203935000Y-81345000I0J-155000D01*
G01*
X203935000Y-81655000D01*
G75*
G02*
X203780000Y-81810000I-155000J0D01*
G01*
X203355000Y-81810000D01*
G75*
G02*
X203200000Y-81655000I0J155000D01*
G01*
G37*
D12*
X195610000Y-58250000D03*
X195610000Y-55750000D03*
G36*
G01*
X188237500Y-100400000D02*
X187762500Y-100400000D01*
G75*
G02*
X187525000Y-100162500I0J237500D01*
G01*
X187525000Y-99562500D01*
G75*
G02*
X187762500Y-99325000I237500J0D01*
G01*
X188237500Y-99325000D01*
G75*
G02*
X188475000Y-99562500I0J-237500D01*
G01*
X188475000Y-100162500D01*
G75*
G02*
X188237500Y-100400000I-237500J0D01*
G01*
G37*
G36*
G01*
X188237500Y-98675000D02*
X187762500Y-98675000D01*
G75*
G02*
X187525000Y-98437500I0J237500D01*
G01*
X187525000Y-97837500D01*
G75*
G02*
X187762500Y-97600000I237500J0D01*
G01*
X188237500Y-97600000D01*
G75*
G02*
X188475000Y-97837500I0J-237500D01*
G01*
X188475000Y-98437500D01*
G75*
G02*
X188237500Y-98675000I-237500J0D01*
G01*
G37*
G36*
G01*
X201795000Y-91325000D02*
X202095000Y-91325000D01*
G75*
G02*
X202245000Y-91475000I0J-150000D01*
G01*
X202245000Y-92550000D01*
G75*
G02*
X202095000Y-92700000I-150000J0D01*
G01*
X201795000Y-92700000D01*
G75*
G02*
X201645000Y-92550000I0J150000D01*
G01*
X201645000Y-91475000D01*
G75*
G02*
X201795000Y-91325000I150000J0D01*
G01*
G37*
G36*
G01*
X200525000Y-91325000D02*
X200825000Y-91325000D01*
G75*
G02*
X200975000Y-91475000I0J-150000D01*
G01*
X200975000Y-92550000D01*
G75*
G02*
X200825000Y-92700000I-150000J0D01*
G01*
X200525000Y-92700000D01*
G75*
G02*
X200375000Y-92550000I0J150000D01*
G01*
X200375000Y-91475000D01*
G75*
G02*
X200525000Y-91325000I150000J0D01*
G01*
G37*
G36*
G01*
X199255000Y-91325000D02*
X199555000Y-91325000D01*
G75*
G02*
X199705000Y-91475000I0J-150000D01*
G01*
X199705000Y-92550000D01*
G75*
G02*
X199555000Y-92700000I-150000J0D01*
G01*
X199255000Y-92700000D01*
G75*
G02*
X199105000Y-92550000I0J150000D01*
G01*
X199105000Y-91475000D01*
G75*
G02*
X199255000Y-91325000I150000J0D01*
G01*
G37*
G36*
G01*
X195445000Y-91325000D02*
X195745000Y-91325000D01*
G75*
G02*
X195895000Y-91475000I0J-150000D01*
G01*
X195895000Y-92550000D01*
G75*
G02*
X195745000Y-92700000I-150000J0D01*
G01*
X195445000Y-92700000D01*
G75*
G02*
X195295000Y-92550000I0J150000D01*
G01*
X195295000Y-91475000D01*
G75*
G02*
X195445000Y-91325000I150000J0D01*
G01*
G37*
G36*
G01*
X194175000Y-91325000D02*
X194475000Y-91325000D01*
G75*
G02*
X194625000Y-91475000I0J-150000D01*
G01*
X194625000Y-92550000D01*
G75*
G02*
X194475000Y-92700000I-150000J0D01*
G01*
X194175000Y-92700000D01*
G75*
G02*
X194025000Y-92550000I0J150000D01*
G01*
X194025000Y-91475000D01*
G75*
G02*
X194175000Y-91325000I150000J0D01*
G01*
G37*
G36*
G01*
X192905000Y-91325000D02*
X193205000Y-91325000D01*
G75*
G02*
X193355000Y-91475000I0J-150000D01*
G01*
X193355000Y-92550000D01*
G75*
G02*
X193205000Y-92700000I-150000J0D01*
G01*
X192905000Y-92700000D01*
G75*
G02*
X192755000Y-92550000I0J150000D01*
G01*
X192755000Y-91475000D01*
G75*
G02*
X192905000Y-91325000I150000J0D01*
G01*
G37*
G36*
G01*
X192905000Y-100300000D02*
X193205000Y-100300000D01*
G75*
G02*
X193355000Y-100450000I0J-150000D01*
G01*
X193355000Y-101525000D01*
G75*
G02*
X193205000Y-101675000I-150000J0D01*
G01*
X192905000Y-101675000D01*
G75*
G02*
X192755000Y-101525000I0J150000D01*
G01*
X192755000Y-100450000D01*
G75*
G02*
X192905000Y-100300000I150000J0D01*
G01*
G37*
G36*
G01*
X194175000Y-100300000D02*
X194475000Y-100300000D01*
G75*
G02*
X194625000Y-100450000I0J-150000D01*
G01*
X194625000Y-101525000D01*
G75*
G02*
X194475000Y-101675000I-150000J0D01*
G01*
X194175000Y-101675000D01*
G75*
G02*
X194025000Y-101525000I0J150000D01*
G01*
X194025000Y-100450000D01*
G75*
G02*
X194175000Y-100300000I150000J0D01*
G01*
G37*
G36*
G01*
X195445000Y-100300000D02*
X195745000Y-100300000D01*
G75*
G02*
X195895000Y-100450000I0J-150000D01*
G01*
X195895000Y-101525000D01*
G75*
G02*
X195745000Y-101675000I-150000J0D01*
G01*
X195445000Y-101675000D01*
G75*
G02*
X195295000Y-101525000I0J150000D01*
G01*
X195295000Y-100450000D01*
G75*
G02*
X195445000Y-100300000I150000J0D01*
G01*
G37*
G36*
G01*
X199255000Y-100300000D02*
X199555000Y-100300000D01*
G75*
G02*
X199705000Y-100450000I0J-150000D01*
G01*
X199705000Y-101525000D01*
G75*
G02*
X199555000Y-101675000I-150000J0D01*
G01*
X199255000Y-101675000D01*
G75*
G02*
X199105000Y-101525000I0J150000D01*
G01*
X199105000Y-100450000D01*
G75*
G02*
X199255000Y-100300000I150000J0D01*
G01*
G37*
G36*
G01*
X200525000Y-100300000D02*
X200825000Y-100300000D01*
G75*
G02*
X200975000Y-100450000I0J-150000D01*
G01*
X200975000Y-101525000D01*
G75*
G02*
X200825000Y-101675000I-150000J0D01*
G01*
X200525000Y-101675000D01*
G75*
G02*
X200375000Y-101525000I0J150000D01*
G01*
X200375000Y-100450000D01*
G75*
G02*
X200525000Y-100300000I150000J0D01*
G01*
G37*
G36*
G01*
X201795000Y-100300000D02*
X202095000Y-100300000D01*
G75*
G02*
X202245000Y-100450000I0J-150000D01*
G01*
X202245000Y-101525000D01*
G75*
G02*
X202095000Y-101675000I-150000J0D01*
G01*
X201795000Y-101675000D01*
G75*
G02*
X201645000Y-101525000I0J150000D01*
G01*
X201645000Y-100450000D01*
G75*
G02*
X201795000Y-100300000I150000J0D01*
G01*
G37*
G36*
G01*
X196935000Y-62145000D02*
X196935000Y-62455000D01*
G75*
G02*
X196780000Y-62610000I-155000J0D01*
G01*
X196355000Y-62610000D01*
G75*
G02*
X196200000Y-62455000I0J155000D01*
G01*
X196200000Y-62145000D01*
G75*
G02*
X196355000Y-61990000I155000J0D01*
G01*
X196780000Y-61990000D01*
G75*
G02*
X196935000Y-62145000I0J-155000D01*
G01*
G37*
G36*
G01*
X195800000Y-62145000D02*
X195800000Y-62455000D01*
G75*
G02*
X195645000Y-62610000I-155000J0D01*
G01*
X195220000Y-62610000D01*
G75*
G02*
X195065000Y-62455000I0J155000D01*
G01*
X195065000Y-62145000D01*
G75*
G02*
X195220000Y-61990000I155000J0D01*
G01*
X195645000Y-61990000D01*
G75*
G02*
X195800000Y-62145000I0J-155000D01*
G01*
G37*
G36*
G01*
X180525000Y-96645000D02*
X180835000Y-96645000D01*
G75*
G02*
X180990000Y-96800000I0J-155000D01*
G01*
X180990000Y-97225000D01*
G75*
G02*
X180835000Y-97380000I-155000J0D01*
G01*
X180525000Y-97380000D01*
G75*
G02*
X180370000Y-97225000I0J155000D01*
G01*
X180370000Y-96800000D01*
G75*
G02*
X180525000Y-96645000I155000J0D01*
G01*
G37*
G36*
G01*
X180525000Y-97780000D02*
X180835000Y-97780000D01*
G75*
G02*
X180990000Y-97935000I0J-155000D01*
G01*
X180990000Y-98360000D01*
G75*
G02*
X180835000Y-98515000I-155000J0D01*
G01*
X180525000Y-98515000D01*
G75*
G02*
X180370000Y-98360000I0J155000D01*
G01*
X180370000Y-97935000D01*
G75*
G02*
X180525000Y-97780000I155000J0D01*
G01*
G37*
G36*
G01*
X176475000Y-84625000D02*
X175525000Y-84625000D01*
G75*
G02*
X175275000Y-84375000I0J250000D01*
G01*
X175275000Y-83700000D01*
G75*
G02*
X175525000Y-83450000I250000J0D01*
G01*
X176475000Y-83450000D01*
G75*
G02*
X176725000Y-83700000I0J-250000D01*
G01*
X176725000Y-84375000D01*
G75*
G02*
X176475000Y-84625000I-250000J0D01*
G01*
G37*
G36*
G01*
X176475000Y-82550000D02*
X175525000Y-82550000D01*
G75*
G02*
X175275000Y-82300000I0J250000D01*
G01*
X175275000Y-81625000D01*
G75*
G02*
X175525000Y-81375000I250000J0D01*
G01*
X176475000Y-81375000D01*
G75*
G02*
X176725000Y-81625000I0J-250000D01*
G01*
X176725000Y-82300000D01*
G75*
G02*
X176475000Y-82550000I-250000J0D01*
G01*
G37*
G36*
G01*
X203455000Y-69840000D02*
X203455000Y-70160000D01*
G75*
G02*
X203295000Y-70320000I-160000J0D01*
G01*
X202900000Y-70320000D01*
G75*
G02*
X202740000Y-70160000I0J160000D01*
G01*
X202740000Y-69840000D01*
G75*
G02*
X202900000Y-69680000I160000J0D01*
G01*
X203295000Y-69680000D01*
G75*
G02*
X203455000Y-69840000I0J-160000D01*
G01*
G37*
G36*
G01*
X202260000Y-69840000D02*
X202260000Y-70160000D01*
G75*
G02*
X202100000Y-70320000I-160000J0D01*
G01*
X201705000Y-70320000D01*
G75*
G02*
X201545000Y-70160000I0J160000D01*
G01*
X201545000Y-69840000D01*
G75*
G02*
X201705000Y-69680000I160000J0D01*
G01*
X202100000Y-69680000D01*
G75*
G02*
X202260000Y-69840000I0J-160000D01*
G01*
G37*
G36*
G01*
X199900000Y-37950000D02*
X199900000Y-37050000D01*
G75*
G02*
X200150000Y-36800000I250000J0D01*
G01*
X200850000Y-36800000D01*
G75*
G02*
X201100000Y-37050000I0J-250000D01*
G01*
X201100000Y-37950000D01*
G75*
G02*
X200850000Y-38200000I-250000J0D01*
G01*
X200150000Y-38200000D01*
G75*
G02*
X199900000Y-37950000I0J250000D01*
G01*
G37*
G36*
G01*
X201900000Y-37950000D02*
X201900000Y-37050000D01*
G75*
G02*
X202150000Y-36800000I250000J0D01*
G01*
X202850000Y-36800000D01*
G75*
G02*
X203100000Y-37050000I0J-250000D01*
G01*
X203100000Y-37950000D01*
G75*
G02*
X202850000Y-38200000I-250000J0D01*
G01*
X202150000Y-38200000D01*
G75*
G02*
X201900000Y-37950000I0J250000D01*
G01*
G37*
D32*
X142150000Y-84980000D03*
X142150000Y-90020000D03*
X144690000Y-84980000D03*
X144690000Y-90020000D03*
X147230000Y-84980000D03*
X147230000Y-90020000D03*
X149770000Y-84980000D03*
X149770000Y-90020000D03*
X152310000Y-84980000D03*
X152310000Y-90020000D03*
X154850000Y-84980000D03*
X154850000Y-90020000D03*
D11*
X182500000Y-115000000D03*
G36*
G01*
X179875000Y-65975000D02*
X179875000Y-65025000D01*
G75*
G02*
X180125000Y-64775000I250000J0D01*
G01*
X180800000Y-64775000D01*
G75*
G02*
X181050000Y-65025000I0J-250000D01*
G01*
X181050000Y-65975000D01*
G75*
G02*
X180800000Y-66225000I-250000J0D01*
G01*
X180125000Y-66225000D01*
G75*
G02*
X179875000Y-65975000I0J250000D01*
G01*
G37*
G36*
G01*
X181950000Y-65975000D02*
X181950000Y-65025000D01*
G75*
G02*
X182200000Y-64775000I250000J0D01*
G01*
X182875000Y-64775000D01*
G75*
G02*
X183125000Y-65025000I0J-250000D01*
G01*
X183125000Y-65975000D01*
G75*
G02*
X182875000Y-66225000I-250000J0D01*
G01*
X182200000Y-66225000D01*
G75*
G02*
X181950000Y-65975000I0J250000D01*
G01*
G37*
G36*
G01*
X175150000Y-110725000D02*
X175150000Y-109275000D01*
G75*
G02*
X175400000Y-109025000I250000J0D01*
G01*
X176600000Y-109025000D01*
G75*
G02*
X176850000Y-109275000I0J-250000D01*
G01*
X176850000Y-110725000D01*
G75*
G02*
X176600000Y-110975000I-250000J0D01*
G01*
X175400000Y-110975000D01*
G75*
G02*
X175150000Y-110725000I0J250000D01*
G01*
G37*
D33*
X178500000Y-110000000D03*
X181000000Y-110000000D03*
G36*
G01*
X203455000Y-87840000D02*
X203455000Y-88160000D01*
G75*
G02*
X203295000Y-88320000I-160000J0D01*
G01*
X202900000Y-88320000D01*
G75*
G02*
X202740000Y-88160000I0J160000D01*
G01*
X202740000Y-87840000D01*
G75*
G02*
X202900000Y-87680000I160000J0D01*
G01*
X203295000Y-87680000D01*
G75*
G02*
X203455000Y-87840000I0J-160000D01*
G01*
G37*
G36*
G01*
X202260000Y-87840000D02*
X202260000Y-88160000D01*
G75*
G02*
X202100000Y-88320000I-160000J0D01*
G01*
X201705000Y-88320000D01*
G75*
G02*
X201545000Y-88160000I0J160000D01*
G01*
X201545000Y-87840000D01*
G75*
G02*
X201705000Y-87680000I160000J0D01*
G01*
X202100000Y-87680000D01*
G75*
G02*
X202260000Y-87840000I0J-160000D01*
G01*
G37*
G36*
G01*
X190160000Y-96955000D02*
X189840000Y-96955000D01*
G75*
G02*
X189680000Y-96795000I0J160000D01*
G01*
X189680000Y-96400000D01*
G75*
G02*
X189840000Y-96240000I160000J0D01*
G01*
X190160000Y-96240000D01*
G75*
G02*
X190320000Y-96400000I0J-160000D01*
G01*
X190320000Y-96795000D01*
G75*
G02*
X190160000Y-96955000I-160000J0D01*
G01*
G37*
G36*
G01*
X190160000Y-95760000D02*
X189840000Y-95760000D01*
G75*
G02*
X189680000Y-95600000I0J160000D01*
G01*
X189680000Y-95205000D01*
G75*
G02*
X189840000Y-95045000I160000J0D01*
G01*
X190160000Y-95045000D01*
G75*
G02*
X190320000Y-95205000I0J-160000D01*
G01*
X190320000Y-95600000D01*
G75*
G02*
X190160000Y-95760000I-160000J0D01*
G01*
G37*
D12*
X186500000Y-66250000D03*
X186500000Y-63750000D03*
G36*
G01*
X174450001Y-71825000D02*
X176149999Y-71825000D01*
G75*
G02*
X176400000Y-72075001I0J-250001D01*
G01*
X176400000Y-72999999D01*
G75*
G02*
X176149999Y-73250000I-250001J0D01*
G01*
X174450001Y-73250000D01*
G75*
G02*
X174200000Y-72999999I0J250001D01*
G01*
X174200000Y-72075001D01*
G75*
G02*
X174450001Y-71825000I250001J0D01*
G01*
G37*
G36*
G01*
X174450001Y-74150000D02*
X176149999Y-74150000D01*
G75*
G02*
X176400000Y-74400001I0J-250001D01*
G01*
X176400000Y-75324999D01*
G75*
G02*
X176149999Y-75575000I-250001J0D01*
G01*
X174450001Y-75575000D01*
G75*
G02*
X174200000Y-75324999I0J250001D01*
G01*
X174200000Y-74400001D01*
G75*
G02*
X174450001Y-74150000I250001J0D01*
G01*
G37*
G36*
X163500000Y-87775000D02*
G01*
X162750000Y-87275000D01*
X162750000Y-86275000D01*
X164250000Y-86275000D01*
X164250000Y-87275000D01*
X163500000Y-87775000D01*
G37*
G36*
X162750000Y-88725000D02*
G01*
X162750000Y-87575000D01*
X163500000Y-88075000D01*
X164250000Y-87575000D01*
X164250000Y-88725000D01*
X162750000Y-88725000D01*
G37*
D34*
X174000000Y-82025000D03*
D35*
X174000000Y-79485000D03*
X174000000Y-76945000D03*
D34*
X174000000Y-91025000D03*
D35*
X174000000Y-88485000D03*
X174000000Y-85945000D03*
G36*
G01*
X157250000Y-96150000D02*
X158700000Y-96150000D01*
G75*
G02*
X158950000Y-96400000I0J-250000D01*
G01*
X158950000Y-97600000D01*
G75*
G02*
X158700000Y-97850000I-250000J0D01*
G01*
X157250000Y-97850000D01*
G75*
G02*
X157000000Y-97600000I0J250000D01*
G01*
X157000000Y-96400000D01*
G75*
G02*
X157250000Y-96150000I250000J0D01*
G01*
G37*
D21*
X158475000Y-99500000D03*
D22*
X157975000Y-102000000D03*
X157975000Y-104500000D03*
X157975000Y-107000000D03*
X157975000Y-109500000D03*
D21*
X158475000Y-112000000D03*
D22*
X157975000Y-114500000D03*
D34*
X187500000Y-56525000D03*
D35*
X187500000Y-53985000D03*
X187500000Y-51445000D03*
M02*
