G04 #@! TF.GenerationSoftware,KiCad,Pcbnew,6.0.11+dfsg-1*
G04 #@! TF.ProjectId,project,70726f6a-6563-4742-9e6b-696361645f70,rev?*
G04 #@! TF.SameCoordinates,Original*
G04 #@! TF.FileFunction,Paste,Bot*
G04 #@! TF.FilePolarity,Positive*
%FSLAX46Y46*%
G04 Gerber Fmt 4.6, Leading zero omitted, Abs format (unit mm)*
%MOMM*%
%LPD*%
G01*
G04 APERTURE LIST*
G04 #@! TA.AperFunction,Profile*
%ADD10C,0.100000*%
G04 #@! TD*
G04 APERTURE END LIST*
D10*
X169500000Y-111000000D02*
X169500000Y-88000000D01*
X150500000Y-75000000D02*
G75*
G03*
X150500000Y-79000000I0J-2000000D01*
G01*
X172500000Y-88000000D02*
G75*
G03*
X169500000Y-88000000I-1500000J0D01*
G01*
X146200000Y-52100000D02*
G75*
G03*
X142800000Y-52100000I-1700000J3000D01*
G01*
X169500000Y-38000000D02*
G75*
G03*
X172500000Y-38000000I1500000J0D01*
G01*
X169500000Y-118500000D02*
X169500000Y-116000000D01*
X172500000Y-88000000D02*
X172499999Y-106500001D01*
X203500000Y-120000000D02*
G75*
G03*
X204500000Y-119000000I0J1000000D01*
G01*
X169500000Y-80500000D02*
X169500000Y-83000000D01*
X168000000Y-120000000D02*
X165500000Y-120000000D01*
X141500000Y-120000000D02*
X144000000Y-120000000D01*
X172500000Y-116000000D02*
G75*
G03*
X169500000Y-116000000I-1500000J0D01*
G01*
X142800000Y-57900000D02*
G75*
G03*
X146200000Y-57900000I1700000J-3000D01*
G01*
X172500000Y-43000000D02*
G75*
G03*
X169500000Y-43000000I-1500000J0D01*
G01*
X169500000Y-35500000D02*
G75*
G03*
X168000000Y-34000000I-1500000J0D01*
G01*
X169500000Y-111000000D02*
G75*
G03*
X172500000Y-111000000I1500000J0D01*
G01*
X165500000Y-75000000D02*
G75*
G03*
X165500000Y-79000000I0J-2000000D01*
G01*
X169500000Y-66000000D02*
G75*
G03*
X172500000Y-66000000I1500000J0D01*
G01*
X140000000Y-73500000D02*
X140000000Y-35500000D01*
X172499999Y-46500001D02*
X172500000Y-43000000D01*
X204500001Y-46500001D02*
X204500000Y-35000000D01*
X159500000Y-62000000D02*
X159500000Y-47000000D01*
X204500000Y-119000000D02*
X204500001Y-107499999D01*
X172499999Y-47499999D02*
G75*
G03*
X172499999Y-46500001I-499999J499999D01*
G01*
X140000000Y-118500000D02*
G75*
G03*
X141500000Y-120000000I1500000J0D01*
G01*
X204500001Y-46500001D02*
G75*
G03*
X204500001Y-47499999I499999J-499999D01*
G01*
X169500000Y-38000000D02*
X169500000Y-35500000D01*
X159500000Y-75000000D02*
X150500000Y-75000000D01*
X146500000Y-117500000D02*
G75*
G03*
X145000000Y-119000000I0J-1500000D01*
G01*
X160000000Y-46500000D02*
X169000000Y-46500000D01*
X168000000Y-34000000D02*
X141500000Y-34000000D01*
X167500000Y-79000000D02*
X168000000Y-79000000D01*
X144500000Y-79000000D02*
G75*
G03*
X144500000Y-75000000I0J2000000D01*
G01*
X146300000Y-42000000D02*
G75*
G03*
X146300000Y-42000000I-1800000J0D01*
G01*
X172499999Y-107499999D02*
G75*
G03*
X172499999Y-106500001I-499999J499999D01*
G01*
X169000000Y-62500000D02*
X160000000Y-62500000D01*
X153800000Y-42000000D02*
G75*
G03*
X153800000Y-42000000I-1800000J0D01*
G01*
X140000000Y-73500000D02*
G75*
G03*
X141500000Y-75000000I1500000J0D01*
G01*
X141500000Y-79000000D02*
G75*
G03*
X140000000Y-80500000I0J-1500000D01*
G01*
X142800000Y-57900000D02*
X142800000Y-52100000D01*
X159500000Y-62000000D02*
G75*
G03*
X160000000Y-62500000I500000J0D01*
G01*
X140000000Y-118500000D02*
X140000000Y-80500000D01*
X165500000Y-79000000D02*
X167500000Y-79000000D01*
X144500000Y-75000000D02*
X141500000Y-75000000D01*
X169500000Y-46000000D02*
X169500000Y-43000000D01*
X172500000Y-116000000D02*
X172500000Y-119000000D01*
X168000000Y-75000000D02*
X167500000Y-75000000D01*
X165500000Y-75000000D02*
X167500000Y-75000000D01*
X146200000Y-52100000D02*
X146200000Y-57900000D01*
X172500000Y-119000000D02*
G75*
G03*
X173500000Y-120000000I1000000J0D01*
G01*
X204500000Y-35000000D02*
G75*
G03*
X203500000Y-34000000I-1000000J0D01*
G01*
X169500000Y-71000000D02*
X169500000Y-73500000D01*
X159500000Y-79000000D02*
G75*
G03*
X159500000Y-75000000I0J2000000D01*
G01*
X163000000Y-117500000D02*
X146500000Y-117500000D01*
X173500000Y-34000000D02*
X203500000Y-34000000D01*
X164500000Y-119000000D02*
G75*
G03*
X165500000Y-120000000I1000000J0D01*
G01*
X172499999Y-47499999D02*
X172500000Y-66000000D01*
X172499999Y-107499999D02*
X172500000Y-111000000D01*
X160000000Y-46500000D02*
G75*
G03*
X159500000Y-47000000I0J-500000D01*
G01*
X172500000Y-38000000D02*
X172500000Y-35000000D01*
X169500000Y-83000000D02*
G75*
G03*
X172500000Y-83000000I1500000J0D01*
G01*
X169500000Y-80500000D02*
G75*
G03*
X168000000Y-79000000I-1500000J0D01*
G01*
X150500000Y-79000000D02*
X159500000Y-79000000D01*
X168000000Y-75000000D02*
G75*
G03*
X169500000Y-73500000I0J1500000D01*
G01*
X164500000Y-119000000D02*
G75*
G03*
X163000000Y-117500000I-1500000J0D01*
G01*
X168000000Y-120000000D02*
G75*
G03*
X169500000Y-118500000I0J1500000D01*
G01*
X204500001Y-106500001D02*
G75*
G03*
X204500001Y-107499999I499999J-499999D01*
G01*
X172500000Y-71000000D02*
G75*
G03*
X169500000Y-71000000I-1500000J0D01*
G01*
X169000000Y-46500000D02*
G75*
G03*
X169500000Y-46000000I0J500000D01*
G01*
X173500000Y-120000000D02*
X203500000Y-120000000D01*
X141500000Y-34000000D02*
G75*
G03*
X140000000Y-35500000I0J-1500000D01*
G01*
X169500000Y-63000000D02*
X169500000Y-66000000D01*
X173500000Y-34000000D02*
G75*
G03*
X172500000Y-35000000I0J-1000000D01*
G01*
X144000000Y-120000000D02*
G75*
G03*
X145000000Y-119000000I0J1000000D01*
G01*
X141500000Y-79000000D02*
X144500000Y-79000000D01*
X172500000Y-71000000D02*
X172500000Y-83000000D01*
X204500001Y-106500001D02*
X204500001Y-47499999D01*
X169500000Y-63000000D02*
G75*
G03*
X169000000Y-62500000I-500000J0D01*
G01*
M02*
