%TF.GenerationSoftware,KiCad,Pcbnew,6.0.11+dfsg-1*%
%TF.ProjectId,project,70726f6a-6563-4742-9e6b-696361645f70,rev?*%
%TF.SameCoordinates,Original*%
%TF.FileFunction,Drillmap*%
%TF.FilePolarity,Positive*%
%FSLAX45Y45*%
G04 Gerber Fmt 4.5, Leading zero omitted, Abs format (unit mm)*
%MOMM*%
%LPD*%
G01*
G04 APERTURE LIST*
%ADD10C,0.100000*%
%ADD11C,0.200000*%
%ADD12C,0.115200*%
%ADD13C,0.180000*%
G04 APERTURE END LIST*
D10*
X16950000Y-11100000D02*
X16950000Y-8800000D01*
X15050000Y-7500000D02*
G75*
G03*
X15050000Y-7900000I0J-200000D01*
G01*
X17250000Y-8800000D02*
G75*
G03*
X16950000Y-8800000I-150000J0D01*
G01*
X14620000Y-5210000D02*
G75*
G03*
X14280000Y-5210000I-170000J300D01*
G01*
X16950000Y-3800000D02*
G75*
G03*
X17250000Y-3800000I150000J0D01*
G01*
X16950000Y-11850000D02*
X16950000Y-11600000D01*
X17250000Y-8800000D02*
X17250000Y-10650000D01*
X20350000Y-12000000D02*
G75*
G03*
X20450000Y-11900000I0J100000D01*
G01*
X16950000Y-8050000D02*
X16950000Y-8300000D01*
X16800000Y-12000000D02*
X16550000Y-12000000D01*
X14150000Y-12000000D02*
X14400000Y-12000000D01*
X17250000Y-11600000D02*
G75*
G03*
X16950000Y-11600000I-150000J0D01*
G01*
X14280000Y-5790000D02*
G75*
G03*
X14620000Y-5790000I170000J-300D01*
G01*
X17250000Y-4300000D02*
G75*
G03*
X16950000Y-4300000I-150000J0D01*
G01*
X16950000Y-3550000D02*
G75*
G03*
X16800000Y-3400000I-150000J0D01*
G01*
X16950000Y-11100000D02*
G75*
G03*
X17250000Y-11100000I150000J0D01*
G01*
X16550000Y-7500000D02*
G75*
G03*
X16550000Y-7900000I0J-200000D01*
G01*
X16950000Y-6600000D02*
G75*
G03*
X17250000Y-6600000I150000J0D01*
G01*
X14000000Y-7350000D02*
X14000000Y-3550000D01*
X17250000Y-4650000D02*
X17250000Y-4300000D01*
X20450000Y-4650000D02*
X20450000Y-3500000D01*
X15950000Y-6200000D02*
X15950000Y-4700000D01*
X20450000Y-11900000D02*
X20450000Y-10750000D01*
X17250000Y-4750000D02*
G75*
G03*
X17250000Y-4650000I-50000J50000D01*
G01*
X14000000Y-11850000D02*
G75*
G03*
X14150000Y-12000000I150000J0D01*
G01*
X20450000Y-4650000D02*
G75*
G03*
X20450000Y-4750000I50000J-50000D01*
G01*
X16950000Y-3800000D02*
X16950000Y-3550000D01*
X15950000Y-7500000D02*
X15050000Y-7500000D01*
X14650000Y-11750000D02*
G75*
G03*
X14500000Y-11900000I0J-150000D01*
G01*
X16000000Y-4650000D02*
X16900000Y-4650000D01*
X16800000Y-3400000D02*
X14150000Y-3400000D01*
X16750000Y-7900000D02*
X16800000Y-7900000D01*
X14450000Y-7900000D02*
G75*
G03*
X14450000Y-7500000I0J200000D01*
G01*
X14630000Y-4200000D02*
G75*
G03*
X14630000Y-4200000I-180000J0D01*
G01*
X17250000Y-10750000D02*
G75*
G03*
X17250000Y-10650000I-50000J50000D01*
G01*
X16900000Y-6250000D02*
X16000000Y-6250000D01*
X15380000Y-4200000D02*
G75*
G03*
X15380000Y-4200000I-180000J0D01*
G01*
X14000000Y-7350000D02*
G75*
G03*
X14150000Y-7500000I150000J0D01*
G01*
X14150000Y-7900000D02*
G75*
G03*
X14000000Y-8050000I0J-150000D01*
G01*
X14280000Y-5790000D02*
X14280000Y-5210000D01*
X15950000Y-6200000D02*
G75*
G03*
X16000000Y-6250000I50000J0D01*
G01*
X14000000Y-11850000D02*
X14000000Y-8050000D01*
X16550000Y-7900000D02*
X16750000Y-7900000D01*
X14450000Y-7500000D02*
X14150000Y-7500000D01*
X16950000Y-4600000D02*
X16950000Y-4300000D01*
X17250000Y-11600000D02*
X17250000Y-11900000D01*
X16800000Y-7500000D02*
X16750000Y-7500000D01*
X16550000Y-7500000D02*
X16750000Y-7500000D01*
X14620000Y-5210000D02*
X14620000Y-5790000D01*
X17250000Y-11900000D02*
G75*
G03*
X17350000Y-12000000I100000J0D01*
G01*
X20450000Y-3500000D02*
G75*
G03*
X20350000Y-3400000I-100000J0D01*
G01*
X16950000Y-7100000D02*
X16950000Y-7350000D01*
X15950000Y-7900000D02*
G75*
G03*
X15950000Y-7500000I0J200000D01*
G01*
X16300000Y-11750000D02*
X14650000Y-11750000D01*
X17350000Y-3400000D02*
X20350000Y-3400000D01*
X16450000Y-11900000D02*
G75*
G03*
X16550000Y-12000000I100000J0D01*
G01*
X17250000Y-4750000D02*
X17250000Y-6600000D01*
X17250000Y-10750000D02*
X17250000Y-11100000D01*
X16000000Y-4650000D02*
G75*
G03*
X15950000Y-4700000I0J-50000D01*
G01*
X17250000Y-3800000D02*
X17250000Y-3500000D01*
X16950000Y-8300000D02*
G75*
G03*
X17250000Y-8300000I150000J0D01*
G01*
X16950000Y-8050000D02*
G75*
G03*
X16800000Y-7900000I-150000J0D01*
G01*
X15050000Y-7900000D02*
X15950000Y-7900000D01*
X16800000Y-7500000D02*
G75*
G03*
X16950000Y-7350000I0J150000D01*
G01*
X16450000Y-11900000D02*
G75*
G03*
X16300000Y-11750000I-150000J0D01*
G01*
X16800000Y-12000000D02*
G75*
G03*
X16950000Y-11850000I0J150000D01*
G01*
X20450000Y-10650000D02*
G75*
G03*
X20450000Y-10750000I50000J-50000D01*
G01*
X17250000Y-7100000D02*
G75*
G03*
X16950000Y-7100000I-150000J0D01*
G01*
X16900000Y-4650000D02*
G75*
G03*
X16950000Y-4600000I0J50000D01*
G01*
X17350000Y-12000000D02*
X20350000Y-12000000D01*
X14150000Y-3400000D02*
G75*
G03*
X14000000Y-3550000I0J-150000D01*
G01*
X16950000Y-6300000D02*
X16950000Y-6600000D01*
X17350000Y-3400000D02*
G75*
G03*
X17250000Y-3500000I0J-100000D01*
G01*
X14400000Y-12000000D02*
G75*
G03*
X14500000Y-11900000I0J100000D01*
G01*
X14150000Y-7900000D02*
X14450000Y-7900000D01*
X17250000Y-7100000D02*
X17250000Y-8300000D01*
X20450000Y-10650000D02*
X20450000Y-4750000D01*
X16950000Y-6300000D02*
G75*
G03*
X16900000Y-6250000I-50000J0D01*
G01*
D11*
D12*
X14192400Y-11742400D02*
X14307600Y-11857600D01*
X14307600Y-11742400D02*
X14192400Y-11857600D01*
X18192400Y-11442400D02*
X18307600Y-11557600D01*
X18307600Y-11442400D02*
X18192400Y-11557600D01*
X20192400Y-4442400D02*
X20307600Y-4557600D01*
X20307600Y-4442400D02*
X20192400Y-4557600D01*
D13*
X19070000Y-10730000D02*
G75*
G03*
X19070000Y-10730000I-90000J0D01*
G01*
X20110000Y-10730000D02*
G75*
G03*
X20110000Y-10730000I-90000J0D01*
G01*
D11*
X14500000Y-7150000D02*
X14500000Y-7350000D01*
X14400000Y-7250000D02*
X14600000Y-7250000D01*
X14400000Y-7200000D02*
X14400000Y-7300000D01*
X14600000Y-7200000D02*
X14600000Y-7300000D01*
X14400000Y-7300000D02*
G75*
G03*
X14600000Y-7300000I100000J0D01*
G01*
X14600000Y-7200000D02*
G75*
G03*
X14400000Y-7200000I-100000J0D01*
G01*
X15000000Y-7150000D02*
X15000000Y-7350000D01*
X14900000Y-7250000D02*
X15100000Y-7250000D01*
X14900000Y-7200000D02*
X14900000Y-7300000D01*
X15100000Y-7200000D02*
X15100000Y-7300000D01*
X14900000Y-7300000D02*
G75*
G03*
X15100000Y-7300000I100000J0D01*
G01*
X15100000Y-7200000D02*
G75*
G03*
X14900000Y-7200000I-100000J0D01*
G01*
X15500000Y-7150000D02*
X15500000Y-7350000D01*
X15400000Y-7250000D02*
X15600000Y-7250000D01*
X15400000Y-7200000D02*
X15400000Y-7300000D01*
X15600000Y-7200000D02*
X15600000Y-7300000D01*
X15400000Y-7300000D02*
G75*
G03*
X15600000Y-7300000I100000J0D01*
G01*
X15600000Y-7200000D02*
G75*
G03*
X15400000Y-7200000I-100000J0D01*
G01*
X16000000Y-7150000D02*
X16000000Y-7350000D01*
X15900000Y-7250000D02*
X16100000Y-7250000D01*
X15900000Y-7200000D02*
X15900000Y-7300000D01*
X16100000Y-7200000D02*
X16100000Y-7300000D01*
X15900000Y-7300000D02*
G75*
G03*
X16100000Y-7300000I100000J0D01*
G01*
X16100000Y-7200000D02*
G75*
G03*
X15900000Y-7200000I-100000J0D01*
G01*
X16500000Y-7150000D02*
X16500000Y-7350000D01*
X16400000Y-7250000D02*
X16600000Y-7250000D01*
X16400000Y-7200000D02*
X16400000Y-7300000D01*
X16600000Y-7200000D02*
X16600000Y-7300000D01*
X16400000Y-7300000D02*
G75*
G03*
X16600000Y-7300000I100000J0D01*
G01*
X16600000Y-7200000D02*
G75*
G03*
X16400000Y-7200000I-100000J0D01*
G01*
X14252619Y-12315476D02*
X14252619Y-12115476D01*
X14300238Y-12115476D01*
X14328809Y-12125000D01*
X14347857Y-12144048D01*
X14357381Y-12163095D01*
X14366905Y-12201190D01*
X14366905Y-12229762D01*
X14357381Y-12267857D01*
X14347857Y-12286905D01*
X14328809Y-12305952D01*
X14300238Y-12315476D01*
X14252619Y-12315476D01*
X14452619Y-12315476D02*
X14452619Y-12182143D01*
X14452619Y-12220238D02*
X14462143Y-12201190D01*
X14471667Y-12191667D01*
X14490714Y-12182143D01*
X14509762Y-12182143D01*
X14576428Y-12315476D02*
X14576428Y-12182143D01*
X14576428Y-12115476D02*
X14566905Y-12125000D01*
X14576428Y-12134524D01*
X14585952Y-12125000D01*
X14576428Y-12115476D01*
X14576428Y-12134524D01*
X14700238Y-12315476D02*
X14681190Y-12305952D01*
X14671667Y-12286905D01*
X14671667Y-12115476D01*
X14805000Y-12315476D02*
X14785952Y-12305952D01*
X14776428Y-12286905D01*
X14776428Y-12115476D01*
X15033571Y-12315476D02*
X15033571Y-12115476D01*
X15100238Y-12258333D01*
X15166905Y-12115476D01*
X15166905Y-12315476D01*
X15347857Y-12315476D02*
X15347857Y-12210714D01*
X15338333Y-12191667D01*
X15319286Y-12182143D01*
X15281190Y-12182143D01*
X15262143Y-12191667D01*
X15347857Y-12305952D02*
X15328809Y-12315476D01*
X15281190Y-12315476D01*
X15262143Y-12305952D01*
X15252619Y-12286905D01*
X15252619Y-12267857D01*
X15262143Y-12248809D01*
X15281190Y-12239286D01*
X15328809Y-12239286D01*
X15347857Y-12229762D01*
X15443095Y-12182143D02*
X15443095Y-12382143D01*
X15443095Y-12191667D02*
X15462143Y-12182143D01*
X15500238Y-12182143D01*
X15519286Y-12191667D01*
X15528809Y-12201190D01*
X15538333Y-12220238D01*
X15538333Y-12277381D01*
X15528809Y-12296428D01*
X15519286Y-12305952D01*
X15500238Y-12315476D01*
X15462143Y-12315476D01*
X15443095Y-12305952D01*
X15624048Y-12296428D02*
X15633571Y-12305952D01*
X15624048Y-12315476D01*
X15614524Y-12305952D01*
X15624048Y-12296428D01*
X15624048Y-12315476D01*
X15624048Y-12191667D02*
X15633571Y-12201190D01*
X15624048Y-12210714D01*
X15614524Y-12201190D01*
X15624048Y-12191667D01*
X15624048Y-12210714D01*
D12*
X13879800Y-12587400D02*
X13995000Y-12702600D01*
X13995000Y-12587400D02*
X13879800Y-12702600D01*
D11*
X14357381Y-12735476D02*
X14243095Y-12735476D01*
X14300238Y-12735476D02*
X14300238Y-12535476D01*
X14281190Y-12564048D01*
X14262143Y-12583095D01*
X14243095Y-12592619D01*
X14443095Y-12716428D02*
X14452619Y-12725952D01*
X14443095Y-12735476D01*
X14433571Y-12725952D01*
X14443095Y-12716428D01*
X14443095Y-12735476D01*
X14643095Y-12735476D02*
X14528809Y-12735476D01*
X14585952Y-12735476D02*
X14585952Y-12535476D01*
X14566905Y-12564048D01*
X14547857Y-12583095D01*
X14528809Y-12592619D01*
X14824048Y-12535476D02*
X14728809Y-12535476D01*
X14719286Y-12630714D01*
X14728809Y-12621190D01*
X14747857Y-12611667D01*
X14795476Y-12611667D01*
X14814524Y-12621190D01*
X14824048Y-12630714D01*
X14833571Y-12649762D01*
X14833571Y-12697381D01*
X14824048Y-12716428D01*
X14814524Y-12725952D01*
X14795476Y-12735476D01*
X14747857Y-12735476D01*
X14728809Y-12725952D01*
X14719286Y-12716428D01*
X14909762Y-12554524D02*
X14919286Y-12545000D01*
X14938333Y-12535476D01*
X14985952Y-12535476D01*
X15005000Y-12545000D01*
X15014524Y-12554524D01*
X15024048Y-12573571D01*
X15024048Y-12592619D01*
X15014524Y-12621190D01*
X14900238Y-12735476D01*
X15024048Y-12735476D01*
X15109762Y-12735476D02*
X15109762Y-12602143D01*
X15109762Y-12621190D02*
X15119286Y-12611667D01*
X15138333Y-12602143D01*
X15166905Y-12602143D01*
X15185952Y-12611667D01*
X15195476Y-12630714D01*
X15195476Y-12735476D01*
X15195476Y-12630714D02*
X15205000Y-12611667D01*
X15224048Y-12602143D01*
X15252619Y-12602143D01*
X15271667Y-12611667D01*
X15281190Y-12630714D01*
X15281190Y-12735476D01*
X15376428Y-12735476D02*
X15376428Y-12602143D01*
X15376428Y-12621190D02*
X15385952Y-12611667D01*
X15405000Y-12602143D01*
X15433571Y-12602143D01*
X15452619Y-12611667D01*
X15462143Y-12630714D01*
X15462143Y-12735476D01*
X15462143Y-12630714D02*
X15471667Y-12611667D01*
X15490714Y-12602143D01*
X15519286Y-12602143D01*
X15538333Y-12611667D01*
X15547857Y-12630714D01*
X15547857Y-12735476D01*
X15938333Y-12525952D02*
X15766905Y-12783095D01*
X16195476Y-12535476D02*
X16214524Y-12535476D01*
X16233571Y-12545000D01*
X16243095Y-12554524D01*
X16252619Y-12573571D01*
X16262143Y-12611667D01*
X16262143Y-12659286D01*
X16252619Y-12697381D01*
X16243095Y-12716428D01*
X16233571Y-12725952D01*
X16214524Y-12735476D01*
X16195476Y-12735476D01*
X16176428Y-12725952D01*
X16166905Y-12716428D01*
X16157381Y-12697381D01*
X16147857Y-12659286D01*
X16147857Y-12611667D01*
X16157381Y-12573571D01*
X16166905Y-12554524D01*
X16176428Y-12545000D01*
X16195476Y-12535476D01*
X16347857Y-12716428D02*
X16357381Y-12725952D01*
X16347857Y-12735476D01*
X16338333Y-12725952D01*
X16347857Y-12716428D01*
X16347857Y-12735476D01*
X16481190Y-12535476D02*
X16500238Y-12535476D01*
X16519286Y-12545000D01*
X16528809Y-12554524D01*
X16538333Y-12573571D01*
X16547857Y-12611667D01*
X16547857Y-12659286D01*
X16538333Y-12697381D01*
X16528809Y-12716428D01*
X16519286Y-12725952D01*
X16500238Y-12735476D01*
X16481190Y-12735476D01*
X16462143Y-12725952D01*
X16452619Y-12716428D01*
X16443095Y-12697381D01*
X16433571Y-12659286D01*
X16433571Y-12611667D01*
X16443095Y-12573571D01*
X16452619Y-12554524D01*
X16462143Y-12545000D01*
X16481190Y-12535476D01*
X16719286Y-12602143D02*
X16719286Y-12735476D01*
X16671667Y-12525952D02*
X16624048Y-12668809D01*
X16747857Y-12668809D01*
X16919286Y-12535476D02*
X16824048Y-12535476D01*
X16814524Y-12630714D01*
X16824048Y-12621190D01*
X16843095Y-12611667D01*
X16890714Y-12611667D01*
X16909762Y-12621190D01*
X16919286Y-12630714D01*
X16928810Y-12649762D01*
X16928810Y-12697381D01*
X16919286Y-12716428D01*
X16909762Y-12725952D01*
X16890714Y-12735476D01*
X16843095Y-12735476D01*
X16824048Y-12725952D01*
X16814524Y-12716428D01*
X17100238Y-12602143D02*
X17100238Y-12735476D01*
X17052619Y-12525952D02*
X17005000Y-12668809D01*
X17128810Y-12668809D01*
X17195476Y-12535476D02*
X17195476Y-12573571D01*
X17271667Y-12535476D02*
X17271667Y-12573571D01*
X17566905Y-12811667D02*
X17557381Y-12802143D01*
X17538333Y-12773571D01*
X17528810Y-12754524D01*
X17519286Y-12725952D01*
X17509762Y-12678333D01*
X17509762Y-12640238D01*
X17519286Y-12592619D01*
X17528810Y-12564048D01*
X17538333Y-12545000D01*
X17557381Y-12516428D01*
X17566905Y-12506905D01*
X17624048Y-12535476D02*
X17747857Y-12535476D01*
X17681190Y-12611667D01*
X17709762Y-12611667D01*
X17728810Y-12621190D01*
X17738333Y-12630714D01*
X17747857Y-12649762D01*
X17747857Y-12697381D01*
X17738333Y-12716428D01*
X17728810Y-12725952D01*
X17709762Y-12735476D01*
X17652619Y-12735476D01*
X17633571Y-12725952D01*
X17624048Y-12716428D01*
X17985952Y-12735476D02*
X17985952Y-12535476D01*
X18071667Y-12735476D02*
X18071667Y-12630714D01*
X18062143Y-12611667D01*
X18043095Y-12602143D01*
X18014524Y-12602143D01*
X17995476Y-12611667D01*
X17985952Y-12621190D01*
X18195476Y-12735476D02*
X18176429Y-12725952D01*
X18166905Y-12716428D01*
X18157381Y-12697381D01*
X18157381Y-12640238D01*
X18166905Y-12621190D01*
X18176429Y-12611667D01*
X18195476Y-12602143D01*
X18224048Y-12602143D01*
X18243095Y-12611667D01*
X18252619Y-12621190D01*
X18262143Y-12640238D01*
X18262143Y-12697381D01*
X18252619Y-12716428D01*
X18243095Y-12725952D01*
X18224048Y-12735476D01*
X18195476Y-12735476D01*
X18376429Y-12735476D02*
X18357381Y-12725952D01*
X18347857Y-12706905D01*
X18347857Y-12535476D01*
X18528810Y-12725952D02*
X18509762Y-12735476D01*
X18471667Y-12735476D01*
X18452619Y-12725952D01*
X18443095Y-12706905D01*
X18443095Y-12630714D01*
X18452619Y-12611667D01*
X18471667Y-12602143D01*
X18509762Y-12602143D01*
X18528810Y-12611667D01*
X18538333Y-12630714D01*
X18538333Y-12649762D01*
X18443095Y-12668809D01*
X18614524Y-12725952D02*
X18633571Y-12735476D01*
X18671667Y-12735476D01*
X18690714Y-12725952D01*
X18700238Y-12706905D01*
X18700238Y-12697381D01*
X18690714Y-12678333D01*
X18671667Y-12668809D01*
X18643095Y-12668809D01*
X18624048Y-12659286D01*
X18614524Y-12640238D01*
X18614524Y-12630714D01*
X18624048Y-12611667D01*
X18643095Y-12602143D01*
X18671667Y-12602143D01*
X18690714Y-12611667D01*
X18766905Y-12811667D02*
X18776429Y-12802143D01*
X18795476Y-12773571D01*
X18805000Y-12754524D01*
X18814524Y-12725952D01*
X18824048Y-12678333D01*
X18824048Y-12640238D01*
X18814524Y-12592619D01*
X18805000Y-12564048D01*
X18795476Y-12545000D01*
X18776429Y-12516428D01*
X18766905Y-12506905D01*
X19128810Y-12811667D02*
X19119286Y-12802143D01*
X19100238Y-12773571D01*
X19090714Y-12754524D01*
X19081190Y-12725952D01*
X19071667Y-12678333D01*
X19071667Y-12640238D01*
X19081190Y-12592619D01*
X19090714Y-12564048D01*
X19100238Y-12545000D01*
X19119286Y-12516428D01*
X19128810Y-12506905D01*
X19205000Y-12602143D02*
X19205000Y-12735476D01*
X19205000Y-12621190D02*
X19214524Y-12611667D01*
X19233571Y-12602143D01*
X19262143Y-12602143D01*
X19281190Y-12611667D01*
X19290714Y-12630714D01*
X19290714Y-12735476D01*
X19414524Y-12735476D02*
X19395476Y-12725952D01*
X19385952Y-12716428D01*
X19376429Y-12697381D01*
X19376429Y-12640238D01*
X19385952Y-12621190D01*
X19395476Y-12611667D01*
X19414524Y-12602143D01*
X19443095Y-12602143D01*
X19462143Y-12611667D01*
X19471667Y-12621190D01*
X19481190Y-12640238D01*
X19481190Y-12697381D01*
X19471667Y-12716428D01*
X19462143Y-12725952D01*
X19443095Y-12735476D01*
X19414524Y-12735476D01*
X19538333Y-12602143D02*
X19614524Y-12602143D01*
X19566905Y-12535476D02*
X19566905Y-12706905D01*
X19576429Y-12725952D01*
X19595476Y-12735476D01*
X19614524Y-12735476D01*
X19833571Y-12602143D02*
X19833571Y-12802143D01*
X19833571Y-12611667D02*
X19852619Y-12602143D01*
X19890714Y-12602143D01*
X19909762Y-12611667D01*
X19919286Y-12621190D01*
X19928810Y-12640238D01*
X19928810Y-12697381D01*
X19919286Y-12716428D01*
X19909762Y-12725952D01*
X19890714Y-12735476D01*
X19852619Y-12735476D01*
X19833571Y-12725952D01*
X20043095Y-12735476D02*
X20024048Y-12725952D01*
X20014524Y-12706905D01*
X20014524Y-12535476D01*
X20205000Y-12735476D02*
X20205000Y-12630714D01*
X20195476Y-12611667D01*
X20176429Y-12602143D01*
X20138333Y-12602143D01*
X20119286Y-12611667D01*
X20205000Y-12725952D02*
X20185952Y-12735476D01*
X20138333Y-12735476D01*
X20119286Y-12725952D01*
X20109762Y-12706905D01*
X20109762Y-12687857D01*
X20119286Y-12668809D01*
X20138333Y-12659286D01*
X20185952Y-12659286D01*
X20205000Y-12649762D01*
X20271667Y-12602143D02*
X20347857Y-12602143D01*
X20300238Y-12535476D02*
X20300238Y-12706905D01*
X20309762Y-12725952D01*
X20328810Y-12735476D01*
X20347857Y-12735476D01*
X20490714Y-12725952D02*
X20471667Y-12735476D01*
X20433571Y-12735476D01*
X20414524Y-12725952D01*
X20405000Y-12706905D01*
X20405000Y-12630714D01*
X20414524Y-12611667D01*
X20433571Y-12602143D01*
X20471667Y-12602143D01*
X20490714Y-12611667D01*
X20500238Y-12630714D01*
X20500238Y-12649762D01*
X20405000Y-12668809D01*
X20671667Y-12735476D02*
X20671667Y-12535476D01*
X20671667Y-12725952D02*
X20652619Y-12735476D01*
X20614524Y-12735476D01*
X20595476Y-12725952D01*
X20585952Y-12716428D01*
X20576429Y-12697381D01*
X20576429Y-12640238D01*
X20585952Y-12621190D01*
X20595476Y-12611667D01*
X20614524Y-12602143D01*
X20652619Y-12602143D01*
X20671667Y-12611667D01*
X20747857Y-12811667D02*
X20757381Y-12802143D01*
X20776429Y-12773571D01*
X20785952Y-12754524D01*
X20795476Y-12725952D01*
X20805000Y-12678333D01*
X20805000Y-12640238D01*
X20795476Y-12592619D01*
X20785952Y-12564048D01*
X20776429Y-12545000D01*
X20757381Y-12516428D01*
X20747857Y-12506905D01*
D13*
X13995000Y-12909000D02*
G75*
G03*
X13995000Y-12909000I-90000J0D01*
G01*
D11*
X14357381Y-12999476D02*
X14243095Y-12999476D01*
X14300238Y-12999476D02*
X14300238Y-12799476D01*
X14281190Y-12828048D01*
X14262143Y-12847095D01*
X14243095Y-12856619D01*
X14443095Y-12980428D02*
X14452619Y-12989952D01*
X14443095Y-12999476D01*
X14433571Y-12989952D01*
X14443095Y-12980428D01*
X14443095Y-12999476D01*
X14566905Y-12885190D02*
X14547857Y-12875667D01*
X14538333Y-12866143D01*
X14528809Y-12847095D01*
X14528809Y-12837571D01*
X14538333Y-12818524D01*
X14547857Y-12809000D01*
X14566905Y-12799476D01*
X14605000Y-12799476D01*
X14624048Y-12809000D01*
X14633571Y-12818524D01*
X14643095Y-12837571D01*
X14643095Y-12847095D01*
X14633571Y-12866143D01*
X14624048Y-12875667D01*
X14605000Y-12885190D01*
X14566905Y-12885190D01*
X14547857Y-12894714D01*
X14538333Y-12904238D01*
X14528809Y-12923286D01*
X14528809Y-12961381D01*
X14538333Y-12980428D01*
X14547857Y-12989952D01*
X14566905Y-12999476D01*
X14605000Y-12999476D01*
X14624048Y-12989952D01*
X14633571Y-12980428D01*
X14643095Y-12961381D01*
X14643095Y-12923286D01*
X14633571Y-12904238D01*
X14624048Y-12894714D01*
X14605000Y-12885190D01*
X14766905Y-12799476D02*
X14785952Y-12799476D01*
X14805000Y-12809000D01*
X14814524Y-12818524D01*
X14824048Y-12837571D01*
X14833571Y-12875667D01*
X14833571Y-12923286D01*
X14824048Y-12961381D01*
X14814524Y-12980428D01*
X14805000Y-12989952D01*
X14785952Y-12999476D01*
X14766905Y-12999476D01*
X14747857Y-12989952D01*
X14738333Y-12980428D01*
X14728809Y-12961381D01*
X14719286Y-12923286D01*
X14719286Y-12875667D01*
X14728809Y-12837571D01*
X14738333Y-12818524D01*
X14747857Y-12809000D01*
X14766905Y-12799476D01*
X14957381Y-12799476D02*
X14976428Y-12799476D01*
X14995476Y-12809000D01*
X15005000Y-12818524D01*
X15014524Y-12837571D01*
X15024048Y-12875667D01*
X15024048Y-12923286D01*
X15014524Y-12961381D01*
X15005000Y-12980428D01*
X14995476Y-12989952D01*
X14976428Y-12999476D01*
X14957381Y-12999476D01*
X14938333Y-12989952D01*
X14928809Y-12980428D01*
X14919286Y-12961381D01*
X14909762Y-12923286D01*
X14909762Y-12875667D01*
X14919286Y-12837571D01*
X14928809Y-12818524D01*
X14938333Y-12809000D01*
X14957381Y-12799476D01*
X15109762Y-12999476D02*
X15109762Y-12866143D01*
X15109762Y-12885190D02*
X15119286Y-12875667D01*
X15138333Y-12866143D01*
X15166905Y-12866143D01*
X15185952Y-12875667D01*
X15195476Y-12894714D01*
X15195476Y-12999476D01*
X15195476Y-12894714D02*
X15205000Y-12875667D01*
X15224048Y-12866143D01*
X15252619Y-12866143D01*
X15271667Y-12875667D01*
X15281190Y-12894714D01*
X15281190Y-12999476D01*
X15376428Y-12999476D02*
X15376428Y-12866143D01*
X15376428Y-12885190D02*
X15385952Y-12875667D01*
X15405000Y-12866143D01*
X15433571Y-12866143D01*
X15452619Y-12875667D01*
X15462143Y-12894714D01*
X15462143Y-12999476D01*
X15462143Y-12894714D02*
X15471667Y-12875667D01*
X15490714Y-12866143D01*
X15519286Y-12866143D01*
X15538333Y-12875667D01*
X15547857Y-12894714D01*
X15547857Y-12999476D01*
X15938333Y-12789952D02*
X15766905Y-13047095D01*
X16195476Y-12799476D02*
X16214524Y-12799476D01*
X16233571Y-12809000D01*
X16243095Y-12818524D01*
X16252619Y-12837571D01*
X16262143Y-12875667D01*
X16262143Y-12923286D01*
X16252619Y-12961381D01*
X16243095Y-12980428D01*
X16233571Y-12989952D01*
X16214524Y-12999476D01*
X16195476Y-12999476D01*
X16176428Y-12989952D01*
X16166905Y-12980428D01*
X16157381Y-12961381D01*
X16147857Y-12923286D01*
X16147857Y-12875667D01*
X16157381Y-12837571D01*
X16166905Y-12818524D01*
X16176428Y-12809000D01*
X16195476Y-12799476D01*
X16347857Y-12980428D02*
X16357381Y-12989952D01*
X16347857Y-12999476D01*
X16338333Y-12989952D01*
X16347857Y-12980428D01*
X16347857Y-12999476D01*
X16481190Y-12799476D02*
X16500238Y-12799476D01*
X16519286Y-12809000D01*
X16528809Y-12818524D01*
X16538333Y-12837571D01*
X16547857Y-12875667D01*
X16547857Y-12923286D01*
X16538333Y-12961381D01*
X16528809Y-12980428D01*
X16519286Y-12989952D01*
X16500238Y-12999476D01*
X16481190Y-12999476D01*
X16462143Y-12989952D01*
X16452619Y-12980428D01*
X16443095Y-12961381D01*
X16433571Y-12923286D01*
X16433571Y-12875667D01*
X16443095Y-12837571D01*
X16452619Y-12818524D01*
X16462143Y-12809000D01*
X16481190Y-12799476D01*
X16614524Y-12799476D02*
X16747857Y-12799476D01*
X16662143Y-12999476D01*
X16862143Y-12799476D02*
X16881190Y-12799476D01*
X16900238Y-12809000D01*
X16909762Y-12818524D01*
X16919286Y-12837571D01*
X16928810Y-12875667D01*
X16928810Y-12923286D01*
X16919286Y-12961381D01*
X16909762Y-12980428D01*
X16900238Y-12989952D01*
X16881190Y-12999476D01*
X16862143Y-12999476D01*
X16843095Y-12989952D01*
X16833571Y-12980428D01*
X16824048Y-12961381D01*
X16814524Y-12923286D01*
X16814524Y-12875667D01*
X16824048Y-12837571D01*
X16833571Y-12818524D01*
X16843095Y-12809000D01*
X16862143Y-12799476D01*
X17024048Y-12999476D02*
X17062143Y-12999476D01*
X17081190Y-12989952D01*
X17090714Y-12980428D01*
X17109762Y-12951857D01*
X17119286Y-12913762D01*
X17119286Y-12837571D01*
X17109762Y-12818524D01*
X17100238Y-12809000D01*
X17081190Y-12799476D01*
X17043095Y-12799476D01*
X17024048Y-12809000D01*
X17014524Y-12818524D01*
X17005000Y-12837571D01*
X17005000Y-12885190D01*
X17014524Y-12904238D01*
X17024048Y-12913762D01*
X17043095Y-12923286D01*
X17081190Y-12923286D01*
X17100238Y-12913762D01*
X17109762Y-12904238D01*
X17119286Y-12885190D01*
X17195476Y-12799476D02*
X17195476Y-12837571D01*
X17271667Y-12799476D02*
X17271667Y-12837571D01*
X17566905Y-13075667D02*
X17557381Y-13066143D01*
X17538333Y-13037571D01*
X17528810Y-13018524D01*
X17519286Y-12989952D01*
X17509762Y-12942333D01*
X17509762Y-12904238D01*
X17519286Y-12856619D01*
X17528810Y-12828048D01*
X17538333Y-12809000D01*
X17557381Y-12780428D01*
X17566905Y-12770905D01*
X17633571Y-12818524D02*
X17643095Y-12809000D01*
X17662143Y-12799476D01*
X17709762Y-12799476D01*
X17728810Y-12809000D01*
X17738333Y-12818524D01*
X17747857Y-12837571D01*
X17747857Y-12856619D01*
X17738333Y-12885190D01*
X17624048Y-12999476D01*
X17747857Y-12999476D01*
X17985952Y-12999476D02*
X17985952Y-12799476D01*
X18071667Y-12999476D02*
X18071667Y-12894714D01*
X18062143Y-12875667D01*
X18043095Y-12866143D01*
X18014524Y-12866143D01*
X17995476Y-12875667D01*
X17985952Y-12885190D01*
X18195476Y-12999476D02*
X18176429Y-12989952D01*
X18166905Y-12980428D01*
X18157381Y-12961381D01*
X18157381Y-12904238D01*
X18166905Y-12885190D01*
X18176429Y-12875667D01*
X18195476Y-12866143D01*
X18224048Y-12866143D01*
X18243095Y-12875667D01*
X18252619Y-12885190D01*
X18262143Y-12904238D01*
X18262143Y-12961381D01*
X18252619Y-12980428D01*
X18243095Y-12989952D01*
X18224048Y-12999476D01*
X18195476Y-12999476D01*
X18376429Y-12999476D02*
X18357381Y-12989952D01*
X18347857Y-12970905D01*
X18347857Y-12799476D01*
X18528810Y-12989952D02*
X18509762Y-12999476D01*
X18471667Y-12999476D01*
X18452619Y-12989952D01*
X18443095Y-12970905D01*
X18443095Y-12894714D01*
X18452619Y-12875667D01*
X18471667Y-12866143D01*
X18509762Y-12866143D01*
X18528810Y-12875667D01*
X18538333Y-12894714D01*
X18538333Y-12913762D01*
X18443095Y-12932809D01*
X18614524Y-12989952D02*
X18633571Y-12999476D01*
X18671667Y-12999476D01*
X18690714Y-12989952D01*
X18700238Y-12970905D01*
X18700238Y-12961381D01*
X18690714Y-12942333D01*
X18671667Y-12932809D01*
X18643095Y-12932809D01*
X18624048Y-12923286D01*
X18614524Y-12904238D01*
X18614524Y-12894714D01*
X18624048Y-12875667D01*
X18643095Y-12866143D01*
X18671667Y-12866143D01*
X18690714Y-12875667D01*
X18766905Y-13075667D02*
X18776429Y-13066143D01*
X18795476Y-13037571D01*
X18805000Y-13018524D01*
X18814524Y-12989952D01*
X18824048Y-12942333D01*
X18824048Y-12904238D01*
X18814524Y-12856619D01*
X18805000Y-12828048D01*
X18795476Y-12809000D01*
X18776429Y-12780428D01*
X18766905Y-12770905D01*
X19128810Y-13075667D02*
X19119286Y-13066143D01*
X19100238Y-13037571D01*
X19090714Y-13018524D01*
X19081190Y-12989952D01*
X19071667Y-12942333D01*
X19071667Y-12904238D01*
X19081190Y-12856619D01*
X19090714Y-12828048D01*
X19100238Y-12809000D01*
X19119286Y-12780428D01*
X19128810Y-12770905D01*
X19205000Y-12866143D02*
X19205000Y-12999476D01*
X19205000Y-12885190D02*
X19214524Y-12875667D01*
X19233571Y-12866143D01*
X19262143Y-12866143D01*
X19281190Y-12875667D01*
X19290714Y-12894714D01*
X19290714Y-12999476D01*
X19414524Y-12999476D02*
X19395476Y-12989952D01*
X19385952Y-12980428D01*
X19376429Y-12961381D01*
X19376429Y-12904238D01*
X19385952Y-12885190D01*
X19395476Y-12875667D01*
X19414524Y-12866143D01*
X19443095Y-12866143D01*
X19462143Y-12875667D01*
X19471667Y-12885190D01*
X19481190Y-12904238D01*
X19481190Y-12961381D01*
X19471667Y-12980428D01*
X19462143Y-12989952D01*
X19443095Y-12999476D01*
X19414524Y-12999476D01*
X19538333Y-12866143D02*
X19614524Y-12866143D01*
X19566905Y-12799476D02*
X19566905Y-12970905D01*
X19576429Y-12989952D01*
X19595476Y-12999476D01*
X19614524Y-12999476D01*
X19833571Y-12866143D02*
X19833571Y-13066143D01*
X19833571Y-12875667D02*
X19852619Y-12866143D01*
X19890714Y-12866143D01*
X19909762Y-12875667D01*
X19919286Y-12885190D01*
X19928810Y-12904238D01*
X19928810Y-12961381D01*
X19919286Y-12980428D01*
X19909762Y-12989952D01*
X19890714Y-12999476D01*
X19852619Y-12999476D01*
X19833571Y-12989952D01*
X20043095Y-12999476D02*
X20024048Y-12989952D01*
X20014524Y-12970905D01*
X20014524Y-12799476D01*
X20205000Y-12999476D02*
X20205000Y-12894714D01*
X20195476Y-12875667D01*
X20176429Y-12866143D01*
X20138333Y-12866143D01*
X20119286Y-12875667D01*
X20205000Y-12989952D02*
X20185952Y-12999476D01*
X20138333Y-12999476D01*
X20119286Y-12989952D01*
X20109762Y-12970905D01*
X20109762Y-12951857D01*
X20119286Y-12932809D01*
X20138333Y-12923286D01*
X20185952Y-12923286D01*
X20205000Y-12913762D01*
X20271667Y-12866143D02*
X20347857Y-12866143D01*
X20300238Y-12799476D02*
X20300238Y-12970905D01*
X20309762Y-12989952D01*
X20328810Y-12999476D01*
X20347857Y-12999476D01*
X20490714Y-12989952D02*
X20471667Y-12999476D01*
X20433571Y-12999476D01*
X20414524Y-12989952D01*
X20405000Y-12970905D01*
X20405000Y-12894714D01*
X20414524Y-12875667D01*
X20433571Y-12866143D01*
X20471667Y-12866143D01*
X20490714Y-12875667D01*
X20500238Y-12894714D01*
X20500238Y-12913762D01*
X20405000Y-12932809D01*
X20671667Y-12999476D02*
X20671667Y-12799476D01*
X20671667Y-12989952D02*
X20652619Y-12999476D01*
X20614524Y-12999476D01*
X20595476Y-12989952D01*
X20585952Y-12980428D01*
X20576429Y-12961381D01*
X20576429Y-12904238D01*
X20585952Y-12885190D01*
X20595476Y-12875667D01*
X20614524Y-12866143D01*
X20652619Y-12866143D01*
X20671667Y-12875667D01*
X20747857Y-13075667D02*
X20757381Y-13066143D01*
X20776429Y-13037571D01*
X20785952Y-13018524D01*
X20795476Y-12989952D01*
X20805000Y-12942333D01*
X20805000Y-12904238D01*
X20795476Y-12856619D01*
X20785952Y-12828048D01*
X20776429Y-12809000D01*
X20757381Y-12780428D01*
X20747857Y-12770905D01*
X13895000Y-13109000D02*
X13895000Y-13309000D01*
X13795000Y-13209000D02*
X13995000Y-13209000D01*
X14243095Y-13118524D02*
X14252619Y-13109000D01*
X14271667Y-13099476D01*
X14319286Y-13099476D01*
X14338333Y-13109000D01*
X14347857Y-13118524D01*
X14357381Y-13137571D01*
X14357381Y-13156619D01*
X14347857Y-13185190D01*
X14233571Y-13299476D01*
X14357381Y-13299476D01*
X14443095Y-13280428D02*
X14452619Y-13289952D01*
X14443095Y-13299476D01*
X14433571Y-13289952D01*
X14443095Y-13280428D01*
X14443095Y-13299476D01*
X14576428Y-13099476D02*
X14595476Y-13099476D01*
X14614524Y-13109000D01*
X14624048Y-13118524D01*
X14633571Y-13137571D01*
X14643095Y-13175667D01*
X14643095Y-13223286D01*
X14633571Y-13261381D01*
X14624048Y-13280428D01*
X14614524Y-13289952D01*
X14595476Y-13299476D01*
X14576428Y-13299476D01*
X14557381Y-13289952D01*
X14547857Y-13280428D01*
X14538333Y-13261381D01*
X14528809Y-13223286D01*
X14528809Y-13175667D01*
X14538333Y-13137571D01*
X14547857Y-13118524D01*
X14557381Y-13109000D01*
X14576428Y-13099476D01*
X14766905Y-13099476D02*
X14785952Y-13099476D01*
X14805000Y-13109000D01*
X14814524Y-13118524D01*
X14824048Y-13137571D01*
X14833571Y-13175667D01*
X14833571Y-13223286D01*
X14824048Y-13261381D01*
X14814524Y-13280428D01*
X14805000Y-13289952D01*
X14785952Y-13299476D01*
X14766905Y-13299476D01*
X14747857Y-13289952D01*
X14738333Y-13280428D01*
X14728809Y-13261381D01*
X14719286Y-13223286D01*
X14719286Y-13175667D01*
X14728809Y-13137571D01*
X14738333Y-13118524D01*
X14747857Y-13109000D01*
X14766905Y-13099476D01*
X14957381Y-13099476D02*
X14976428Y-13099476D01*
X14995476Y-13109000D01*
X15005000Y-13118524D01*
X15014524Y-13137571D01*
X15024048Y-13175667D01*
X15024048Y-13223286D01*
X15014524Y-13261381D01*
X15005000Y-13280428D01*
X14995476Y-13289952D01*
X14976428Y-13299476D01*
X14957381Y-13299476D01*
X14938333Y-13289952D01*
X14928809Y-13280428D01*
X14919286Y-13261381D01*
X14909762Y-13223286D01*
X14909762Y-13175667D01*
X14919286Y-13137571D01*
X14928809Y-13118524D01*
X14938333Y-13109000D01*
X14957381Y-13099476D01*
X15109762Y-13299476D02*
X15109762Y-13166143D01*
X15109762Y-13185190D02*
X15119286Y-13175667D01*
X15138333Y-13166143D01*
X15166905Y-13166143D01*
X15185952Y-13175667D01*
X15195476Y-13194714D01*
X15195476Y-13299476D01*
X15195476Y-13194714D02*
X15205000Y-13175667D01*
X15224048Y-13166143D01*
X15252619Y-13166143D01*
X15271667Y-13175667D01*
X15281190Y-13194714D01*
X15281190Y-13299476D01*
X15376428Y-13299476D02*
X15376428Y-13166143D01*
X15376428Y-13185190D02*
X15385952Y-13175667D01*
X15405000Y-13166143D01*
X15433571Y-13166143D01*
X15452619Y-13175667D01*
X15462143Y-13194714D01*
X15462143Y-13299476D01*
X15462143Y-13194714D02*
X15471667Y-13175667D01*
X15490714Y-13166143D01*
X15519286Y-13166143D01*
X15538333Y-13175667D01*
X15547857Y-13194714D01*
X15547857Y-13299476D01*
X15938333Y-13089952D02*
X15766905Y-13347095D01*
X16195476Y-13099476D02*
X16214524Y-13099476D01*
X16233571Y-13109000D01*
X16243095Y-13118524D01*
X16252619Y-13137571D01*
X16262143Y-13175667D01*
X16262143Y-13223286D01*
X16252619Y-13261381D01*
X16243095Y-13280428D01*
X16233571Y-13289952D01*
X16214524Y-13299476D01*
X16195476Y-13299476D01*
X16176428Y-13289952D01*
X16166905Y-13280428D01*
X16157381Y-13261381D01*
X16147857Y-13223286D01*
X16147857Y-13175667D01*
X16157381Y-13137571D01*
X16166905Y-13118524D01*
X16176428Y-13109000D01*
X16195476Y-13099476D01*
X16347857Y-13280428D02*
X16357381Y-13289952D01*
X16347857Y-13299476D01*
X16338333Y-13289952D01*
X16347857Y-13280428D01*
X16347857Y-13299476D01*
X16481190Y-13099476D02*
X16500238Y-13099476D01*
X16519286Y-13109000D01*
X16528809Y-13118524D01*
X16538333Y-13137571D01*
X16547857Y-13175667D01*
X16547857Y-13223286D01*
X16538333Y-13261381D01*
X16528809Y-13280428D01*
X16519286Y-13289952D01*
X16500238Y-13299476D01*
X16481190Y-13299476D01*
X16462143Y-13289952D01*
X16452619Y-13280428D01*
X16443095Y-13261381D01*
X16433571Y-13223286D01*
X16433571Y-13175667D01*
X16443095Y-13137571D01*
X16452619Y-13118524D01*
X16462143Y-13109000D01*
X16481190Y-13099476D01*
X16614524Y-13099476D02*
X16747857Y-13099476D01*
X16662143Y-13299476D01*
X16852619Y-13185190D02*
X16833571Y-13175667D01*
X16824048Y-13166143D01*
X16814524Y-13147095D01*
X16814524Y-13137571D01*
X16824048Y-13118524D01*
X16833571Y-13109000D01*
X16852619Y-13099476D01*
X16890714Y-13099476D01*
X16909762Y-13109000D01*
X16919286Y-13118524D01*
X16928810Y-13137571D01*
X16928810Y-13147095D01*
X16919286Y-13166143D01*
X16909762Y-13175667D01*
X16890714Y-13185190D01*
X16852619Y-13185190D01*
X16833571Y-13194714D01*
X16824048Y-13204238D01*
X16814524Y-13223286D01*
X16814524Y-13261381D01*
X16824048Y-13280428D01*
X16833571Y-13289952D01*
X16852619Y-13299476D01*
X16890714Y-13299476D01*
X16909762Y-13289952D01*
X16919286Y-13280428D01*
X16928810Y-13261381D01*
X16928810Y-13223286D01*
X16919286Y-13204238D01*
X16909762Y-13194714D01*
X16890714Y-13185190D01*
X16995476Y-13099476D02*
X17128810Y-13099476D01*
X17043095Y-13299476D01*
X17195476Y-13099476D02*
X17195476Y-13137571D01*
X17271667Y-13099476D02*
X17271667Y-13137571D01*
X17566905Y-13375667D02*
X17557381Y-13366143D01*
X17538333Y-13337571D01*
X17528810Y-13318524D01*
X17519286Y-13289952D01*
X17509762Y-13242333D01*
X17509762Y-13204238D01*
X17519286Y-13156619D01*
X17528810Y-13128048D01*
X17538333Y-13109000D01*
X17557381Y-13080428D01*
X17566905Y-13070905D01*
X17681190Y-13099476D02*
X17700238Y-13099476D01*
X17719286Y-13109000D01*
X17728810Y-13118524D01*
X17738333Y-13137571D01*
X17747857Y-13175667D01*
X17747857Y-13223286D01*
X17738333Y-13261381D01*
X17728810Y-13280428D01*
X17719286Y-13289952D01*
X17700238Y-13299476D01*
X17681190Y-13299476D01*
X17662143Y-13289952D01*
X17652619Y-13280428D01*
X17643095Y-13261381D01*
X17633571Y-13223286D01*
X17633571Y-13175667D01*
X17643095Y-13137571D01*
X17652619Y-13118524D01*
X17662143Y-13109000D01*
X17681190Y-13099476D01*
X17985952Y-13299476D02*
X17985952Y-13099476D01*
X18071667Y-13299476D02*
X18071667Y-13194714D01*
X18062143Y-13175667D01*
X18043095Y-13166143D01*
X18014524Y-13166143D01*
X17995476Y-13175667D01*
X17985952Y-13185190D01*
X18195476Y-13299476D02*
X18176429Y-13289952D01*
X18166905Y-13280428D01*
X18157381Y-13261381D01*
X18157381Y-13204238D01*
X18166905Y-13185190D01*
X18176429Y-13175667D01*
X18195476Y-13166143D01*
X18224048Y-13166143D01*
X18243095Y-13175667D01*
X18252619Y-13185190D01*
X18262143Y-13204238D01*
X18262143Y-13261381D01*
X18252619Y-13280428D01*
X18243095Y-13289952D01*
X18224048Y-13299476D01*
X18195476Y-13299476D01*
X18376429Y-13299476D02*
X18357381Y-13289952D01*
X18347857Y-13270905D01*
X18347857Y-13099476D01*
X18528810Y-13289952D02*
X18509762Y-13299476D01*
X18471667Y-13299476D01*
X18452619Y-13289952D01*
X18443095Y-13270905D01*
X18443095Y-13194714D01*
X18452619Y-13175667D01*
X18471667Y-13166143D01*
X18509762Y-13166143D01*
X18528810Y-13175667D01*
X18538333Y-13194714D01*
X18538333Y-13213762D01*
X18443095Y-13232809D01*
X18614524Y-13289952D02*
X18633571Y-13299476D01*
X18671667Y-13299476D01*
X18690714Y-13289952D01*
X18700238Y-13270905D01*
X18700238Y-13261381D01*
X18690714Y-13242333D01*
X18671667Y-13232809D01*
X18643095Y-13232809D01*
X18624048Y-13223286D01*
X18614524Y-13204238D01*
X18614524Y-13194714D01*
X18624048Y-13175667D01*
X18643095Y-13166143D01*
X18671667Y-13166143D01*
X18690714Y-13175667D01*
X18938333Y-13223286D02*
X19090714Y-13223286D01*
X19014524Y-13299476D02*
X19014524Y-13147095D01*
X19433571Y-13099476D02*
X19338333Y-13099476D01*
X19328810Y-13194714D01*
X19338333Y-13185190D01*
X19357381Y-13175667D01*
X19405000Y-13175667D01*
X19424048Y-13185190D01*
X19433571Y-13194714D01*
X19443095Y-13213762D01*
X19443095Y-13261381D01*
X19433571Y-13280428D01*
X19424048Y-13289952D01*
X19405000Y-13299476D01*
X19357381Y-13299476D01*
X19338333Y-13289952D01*
X19328810Y-13280428D01*
X19671667Y-13289952D02*
X19690714Y-13299476D01*
X19728810Y-13299476D01*
X19747857Y-13289952D01*
X19757381Y-13270905D01*
X19757381Y-13261381D01*
X19747857Y-13242333D01*
X19728810Y-13232809D01*
X19700238Y-13232809D01*
X19681190Y-13223286D01*
X19671667Y-13204238D01*
X19671667Y-13194714D01*
X19681190Y-13175667D01*
X19700238Y-13166143D01*
X19728810Y-13166143D01*
X19747857Y-13175667D01*
X19871667Y-13299476D02*
X19852619Y-13289952D01*
X19843095Y-13270905D01*
X19843095Y-13099476D01*
X19976429Y-13299476D02*
X19957381Y-13289952D01*
X19947857Y-13280428D01*
X19938333Y-13261381D01*
X19938333Y-13204238D01*
X19947857Y-13185190D01*
X19957381Y-13175667D01*
X19976429Y-13166143D01*
X20005000Y-13166143D01*
X20024048Y-13175667D01*
X20033571Y-13185190D01*
X20043095Y-13204238D01*
X20043095Y-13261381D01*
X20033571Y-13280428D01*
X20024048Y-13289952D01*
X20005000Y-13299476D01*
X19976429Y-13299476D01*
X20100238Y-13166143D02*
X20176429Y-13166143D01*
X20128810Y-13099476D02*
X20128810Y-13270905D01*
X20138333Y-13289952D01*
X20157381Y-13299476D01*
X20176429Y-13299476D01*
X20233571Y-13289952D02*
X20252619Y-13299476D01*
X20290714Y-13299476D01*
X20309762Y-13289952D01*
X20319286Y-13270905D01*
X20319286Y-13261381D01*
X20309762Y-13242333D01*
X20290714Y-13232809D01*
X20262143Y-13232809D01*
X20243095Y-13223286D01*
X20233571Y-13204238D01*
X20233571Y-13194714D01*
X20243095Y-13175667D01*
X20262143Y-13166143D01*
X20290714Y-13166143D01*
X20309762Y-13175667D01*
X20385952Y-13375667D02*
X20395476Y-13366143D01*
X20414524Y-13337571D01*
X20424048Y-13318524D01*
X20433571Y-13289952D01*
X20443095Y-13242333D01*
X20443095Y-13204238D01*
X20433571Y-13156619D01*
X20424048Y-13128048D01*
X20414524Y-13109000D01*
X20395476Y-13080428D01*
X20385952Y-13070905D01*
X20747857Y-13375667D02*
X20738333Y-13366143D01*
X20719286Y-13337571D01*
X20709762Y-13318524D01*
X20700238Y-13289952D01*
X20690714Y-13242333D01*
X20690714Y-13204238D01*
X20700238Y-13156619D01*
X20709762Y-13128048D01*
X20719286Y-13109000D01*
X20738333Y-13080428D01*
X20747857Y-13070905D01*
X20824048Y-13166143D02*
X20824048Y-13299476D01*
X20824048Y-13185190D02*
X20833571Y-13175667D01*
X20852619Y-13166143D01*
X20881190Y-13166143D01*
X20900238Y-13175667D01*
X20909762Y-13194714D01*
X20909762Y-13299476D01*
X21033571Y-13299476D02*
X21014524Y-13289952D01*
X21005000Y-13280428D01*
X20995476Y-13261381D01*
X20995476Y-13204238D01*
X21005000Y-13185190D01*
X21014524Y-13175667D01*
X21033571Y-13166143D01*
X21062143Y-13166143D01*
X21081190Y-13175667D01*
X21090714Y-13185190D01*
X21100238Y-13204238D01*
X21100238Y-13261381D01*
X21090714Y-13280428D01*
X21081190Y-13289952D01*
X21062143Y-13299476D01*
X21033571Y-13299476D01*
X21157381Y-13166143D02*
X21233571Y-13166143D01*
X21185952Y-13099476D02*
X21185952Y-13270905D01*
X21195476Y-13289952D01*
X21214524Y-13299476D01*
X21233571Y-13299476D01*
X21452619Y-13166143D02*
X21452619Y-13366143D01*
X21452619Y-13175667D02*
X21471667Y-13166143D01*
X21509762Y-13166143D01*
X21528810Y-13175667D01*
X21538333Y-13185190D01*
X21547857Y-13204238D01*
X21547857Y-13261381D01*
X21538333Y-13280428D01*
X21528810Y-13289952D01*
X21509762Y-13299476D01*
X21471667Y-13299476D01*
X21452619Y-13289952D01*
X21662143Y-13299476D02*
X21643095Y-13289952D01*
X21633571Y-13270905D01*
X21633571Y-13099476D01*
X21824048Y-13299476D02*
X21824048Y-13194714D01*
X21814524Y-13175667D01*
X21795476Y-13166143D01*
X21757381Y-13166143D01*
X21738333Y-13175667D01*
X21824048Y-13289952D02*
X21805000Y-13299476D01*
X21757381Y-13299476D01*
X21738333Y-13289952D01*
X21728810Y-13270905D01*
X21728810Y-13251857D01*
X21738333Y-13232809D01*
X21757381Y-13223286D01*
X21805000Y-13223286D01*
X21824048Y-13213762D01*
X21890714Y-13166143D02*
X21966905Y-13166143D01*
X21919286Y-13099476D02*
X21919286Y-13270905D01*
X21928810Y-13289952D01*
X21947857Y-13299476D01*
X21966905Y-13299476D01*
X22109762Y-13289952D02*
X22090714Y-13299476D01*
X22052619Y-13299476D01*
X22033571Y-13289952D01*
X22024048Y-13270905D01*
X22024048Y-13194714D01*
X22033571Y-13175667D01*
X22052619Y-13166143D01*
X22090714Y-13166143D01*
X22109762Y-13175667D01*
X22119286Y-13194714D01*
X22119286Y-13213762D01*
X22024048Y-13232809D01*
X22290714Y-13299476D02*
X22290714Y-13099476D01*
X22290714Y-13289952D02*
X22271667Y-13299476D01*
X22233571Y-13299476D01*
X22214524Y-13289952D01*
X22205000Y-13280428D01*
X22195476Y-13261381D01*
X22195476Y-13204238D01*
X22205000Y-13185190D01*
X22214524Y-13175667D01*
X22233571Y-13166143D01*
X22271667Y-13166143D01*
X22290714Y-13175667D01*
X22366905Y-13375667D02*
X22376428Y-13366143D01*
X22395476Y-13337571D01*
X22405000Y-13318524D01*
X22414524Y-13289952D01*
X22424048Y-13242333D01*
X22424048Y-13204238D01*
X22414524Y-13156619D01*
X22405000Y-13128048D01*
X22395476Y-13109000D01*
X22376428Y-13080428D01*
X22366905Y-13070905D01*
M02*
