M48
; FORMAT={-:-/ absolute / metric / decimal}
; #@! TF.GenerationSoftware,Kicad,Pcbnew,6.0.11+dfsg-1
; #@! TF.FileFunction,Plated,1,4,PTH
FMAT,2
METRIC
; #@! TA.AperFunction,Plated,PTH,ViaDrill
T1C0.300
; #@! TA.AperFunction,Plated,PTH,ComponentDrill
T2C0.500
; #@! TA.AperFunction,Plated,PTH,ComponentDrill
T3C0.650
; #@! TA.AperFunction,Plated,PTH,ComponentDrill
T4C0.900
; #@! TA.AperFunction,Plated,PTH,ComponentDrill
T5C0.950
; #@! TA.AperFunction,Plated,PTH,ComponentDrill
T6C1.000
; #@! TA.AperFunction,Plated,PTH,ComponentDrill
T7C1.100
; #@! TA.AperFunction,Plated,PTH,ComponentDrill
T8C1.200
; #@! TA.AperFunction,Plated,PTH,ComponentDrill
T9C2.000
; #@! TA.AperFunction,Plated,PTH,ComponentDrill
T10C3.200
; #@! TA.AperFunction,Plated,PTH,ComponentDrill
T11C4.200
%
G90
G05
T1
X140.5Y-98.5
X141.492Y-71.021
X141.5Y-40.0
X141.5Y-42.0
X141.5Y-44.0
X141.5Y-46.0
X141.5Y-48.0
X141.5Y-72.0
X141.5Y-74.0
X141.5Y-81.0
X141.5Y-83.0
X141.5Y-87.0
X141.5Y-89.0
X141.5Y-91.0
X141.5Y-93.0
X141.5Y-94.0
X141.5Y-95.0
X141.5Y-96.0
X141.5Y-102.0
X141.5Y-103.0
X141.5Y-104.0
X141.5Y-105.0
X141.5Y-106.0
X141.5Y-107.0
X141.5Y-115.0
X141.5Y-117.0
X141.5Y-119.0
X141.542Y-97.425
X141.914Y-99.85
X141.985Y-98.007
X142.0Y-61.0
X142.0Y-62.0
X142.0Y-66.0
X142.0Y-67.0
X142.5Y-39.0
X142.5Y-72.0
X142.5Y-80.0
X142.5Y-82.0
X142.5Y-88.0
X142.5Y-92.0
X142.5Y-93.0
X142.5Y-106.0
X142.5Y-107.0
X142.5Y-115.0
X143.0Y-68.5
X143.5Y-71.0
X143.5Y-81.0
X143.5Y-83.0
X143.5Y-86.0
X143.5Y-89.0
X143.5Y-91.0
X143.5Y-93.0
X143.5Y-106.0
X143.5Y-119.0
X144.186Y-98.501
X144.5Y-39.0
X144.5Y-80.0
X144.5Y-82.0
X144.5Y-92.0
X144.5Y-93.0
X144.5Y-94.0
X144.5Y-95.0
X144.5Y-100.5
X144.5Y-103.0
X144.5Y-104.0
X144.5Y-105.0
X144.5Y-106.0
X144.557Y-97.908
X144.793Y-97.2
X144.802Y-99.869
X145.5Y-49.0
X145.5Y-60.0
X145.5Y-81.0
X145.5Y-87.0
X145.5Y-92.0
X145.5Y-105.0
X145.5Y-106.0
X145.615Y-61.796
X146.0Y-90.0
X146.0Y-91.0
X146.215Y-61.078
X146.5Y-34.6
X146.5Y-39.0
X146.5Y-50.0
X146.5Y-80.0
X146.5Y-88.0
X146.5Y-105.0
X146.5Y-106.0
X146.55Y-71.05
X146.8Y-52.0
X146.8Y-56.7
X147.0Y-58.9
X147.0Y-93.0
X147.0Y-94.0
X147.0Y-96.5
X147.0Y-101.5
X147.0Y-103.0
X147.0Y-104.0
X147.5Y-34.6
X147.5Y-49.0
X147.5Y-57.5
X147.5Y-87.0
X148.0Y-101.5
X148.1Y-55.0
X148.15Y-62.0
X148.5Y-34.6
X148.5Y-42.0
X148.5Y-44.0
X148.5Y-46.0
X148.5Y-48.0
X148.5Y-60.5
X148.5Y-64.0
X148.5Y-65.0
X148.5Y-66.0
X148.5Y-67.0
X148.5Y-68.0
X148.5Y-69.0
X148.5Y-70.0
X148.5Y-80.0
X148.5Y-84.0
X148.5Y-86.0
X148.5Y-88.0
X148.5Y-89.0
X148.5Y-91.0
X148.7Y-55.726
X148.7Y-101.5
X148.85Y-62.0
X149.0Y-51.5
X149.0Y-56.5
X149.0Y-96.5
X149.5Y-34.6
X149.5Y-87.0
X149.5Y-104.0
X149.5Y-106.0
X149.5Y-107.0
X149.5Y-115.0
X149.617Y-56.901
X150.0Y-61.95
X150.1Y-59.0
X150.5Y-80.0
X150.5Y-84.0
X150.5Y-86.0
X150.5Y-88.0
X150.5Y-105.0
X150.5Y-107.0
X150.5Y-115.0
X150.992Y-36.474
X151.0Y-38.5
X151.5Y-49.0
X151.5Y-87.0
X151.5Y-106.0
X151.75Y-36.623
X152.5Y-34.6
X152.5Y-80.0
X152.5Y-88.0
X152.8Y-61.0
X153.5Y-34.6
X153.5Y-40.0
X153.5Y-69.0
X153.5Y-71.0
X153.5Y-89.0
X153.5Y-91.0
X153.57Y-59.138
X154.0Y-61.9
X154.376Y-39.224
X154.5Y-34.6
X154.5Y-38.5
X154.5Y-46.0
X154.5Y-49.0
X154.5Y-80.0
X155.0Y-58.5
X155.5Y-34.6
X155.5Y-38.5
X155.5Y-61.0
X155.776Y-88.424
X155.8Y-89.4
X156.5Y-34.6
X156.5Y-41.0
X156.5Y-43.0
X156.5Y-57.0
X156.5Y-69.0
X156.5Y-70.5
X156.5Y-80.0
X156.5Y-83.0
X156.5Y-85.5
X156.583Y-86.73
X157.5Y-34.6
X157.5Y-38.5
X157.5Y-66.0
X157.5Y-68.0
X157.5Y-91.0
X157.5Y-93.0
X157.5Y-95.0
X157.785Y-87.85
X158.2Y-38.5
X158.5Y-34.6
X158.5Y-80.0
X158.5Y-83.0
X158.5Y-90.0
X158.5Y-96.0
X158.5Y-98.0
X158.5Y-101.0
X158.5Y-103.0
X158.899Y-36.982
X159.1Y-35.224
X159.25Y-36.377
X159.5Y-39.0
X159.5Y-41.0
X159.5Y-43.0
X159.5Y-63.0
X159.5Y-96.0
X159.5Y-103.0
X159.933Y-87.849
X159.933Y-89.432
X160.409Y-35.575
X160.5Y-34.6
X160.5Y-45.0
X160.5Y-64.0
X160.5Y-80.0
X160.5Y-83.0
X160.5Y-96.0
X160.5Y-97.0
X160.5Y-98.0
X160.5Y-101.0
X160.5Y-102.0
X160.5Y-103.0
X160.5Y-104.0
X160.5Y-105.0
X160.75Y-36.55
X161.5Y-34.6
X161.5Y-39.0
X161.5Y-40.0
X161.5Y-97.0
X161.5Y-98.0
X161.5Y-99.0
X161.5Y-100.0
X161.5Y-101.0
X161.5Y-102.0
X161.5Y-103.0
X161.5Y-104.0
X161.5Y-111.0
X161.5Y-112.0
X161.5Y-113.0
X162.0Y-87.5
X162.0Y-90.0
X162.5Y-34.6
X162.5Y-39.0
X162.5Y-45.0
X162.5Y-64.0
X162.5Y-66.0
X162.5Y-68.0
X162.5Y-70.0
X162.5Y-80.0
X162.5Y-83.0
X162.5Y-93.0
X162.5Y-95.0
X162.5Y-97.0
X162.5Y-99.0
X162.5Y-100.0
X162.5Y-101.0
X162.5Y-102.0
X162.5Y-103.0
X162.5Y-113.0
X163.425Y-114.507
X163.5Y-34.6
X163.5Y-84.0
X163.5Y-96.0
X163.5Y-100.0
X163.5Y-103.0
X164.5Y-39.0
X164.5Y-45.0
X164.5Y-64.0
X164.5Y-80.0
X164.5Y-90.0
X164.5Y-100.0
X164.5Y-113.0
X165.0Y-111.5
X165.5Y-96.0
X165.5Y-100.0
X165.5Y-112.0
X165.5Y-115.075
X165.5Y-117.0
X165.5Y-119.0
X166.5Y-39.0
X166.5Y-45.0
X166.5Y-64.0
X166.5Y-80.0
X166.5Y-99.0
X166.5Y-100.0
X166.5Y-102.0
X166.5Y-103.0
X166.5Y-112.0
X166.5Y-116.0
X166.5Y-118.0
X167.0Y-84.5
X167.0Y-107.5
X167.0Y-109.0
X167.5Y-81.0
X167.5Y-90.0
X167.5Y-92.0
X167.5Y-98.0
X167.5Y-99.0
X167.5Y-100.0
X167.5Y-101.0
X167.5Y-102.0
X167.5Y-103.0
X167.5Y-104.0
X167.5Y-112.5
X167.5Y-117.0
X167.5Y-119.0
X167.96Y-109.5
X168.0Y-87.0
X168.0Y-88.0
X168.0Y-89.0
X168.25Y-107.75
X168.5Y-35.0
X168.5Y-37.0
X168.5Y-39.0
X168.5Y-41.0
X168.5Y-43.0
X168.5Y-45.0
X168.5Y-64.0
X168.5Y-66.0
X168.5Y-68.0
X168.5Y-70.0
X168.5Y-72.0
X168.5Y-74.0
X168.5Y-82.0
X168.5Y-84.0
X168.5Y-86.0
X168.5Y-116.0
X168.5Y-118.0
X173.5Y-36.0
X173.5Y-38.0
X173.5Y-40.0
X173.5Y-42.0
X173.5Y-44.0
X173.5Y-46.0
X173.5Y-48.0
X173.5Y-50.0
X173.5Y-52.0
X173.5Y-54.0
X173.5Y-56.0
X173.5Y-58.0
X173.5Y-62.0
X173.5Y-64.0
X173.5Y-66.0
X173.5Y-68.0
X173.5Y-70.0
X173.5Y-81.0
X173.5Y-83.0
X173.5Y-84.0
X173.5Y-90.0
X173.5Y-92.0
X173.5Y-94.0
X173.5Y-96.0
X173.5Y-98.0
X173.5Y-101.5
X173.5Y-103.5
X173.5Y-106.0
X173.5Y-108.0
X173.5Y-110.0
X173.5Y-112.0
X173.5Y-114.0
X173.5Y-116.0
X173.5Y-118.0
X174.5Y-71.0
X174.5Y-81.0
X174.5Y-83.0
X174.5Y-84.0
X174.5Y-90.0
X174.5Y-107.0
X174.5Y-109.0
X174.5Y-111.0
X174.5Y-117.0
X174.5Y-119.0
X174.916Y-98.481
X175.5Y-81.0
X175.5Y-83.0
X175.5Y-90.0
X175.5Y-95.0
X175.5Y-96.0
X175.5Y-112.0
X175.5Y-114.0
X175.5Y-116.0
X175.5Y-118.0
X175.939Y-99.643
X176.5Y-60.0
X176.5Y-62.0
X176.5Y-71.0
X176.5Y-76.5
X176.5Y-83.0
X176.5Y-90.0
X177.0Y-71.5
X177.5Y-55.0
X177.5Y-83.0
X177.5Y-85.0
X177.5Y-90.0
X177.5Y-95.0
X177.5Y-96.0
X177.5Y-108.0
X177.5Y-112.0
X178.0Y-71.0
X178.0Y-78.5
X178.5Y-36.5
X178.5Y-54.0
X178.5Y-76.5
X178.5Y-83.0
X178.5Y-85.0
X178.5Y-90.0
X178.5Y-107.0
X178.5Y-109.0
X178.6Y-74.6
X179.0Y-78.5
X179.475Y-74.525
X179.5Y-38.0
X179.5Y-39.0
X179.5Y-54.0
X179.5Y-68.5
X179.5Y-69.5
X179.5Y-82.0
X179.5Y-89.5
X179.5Y-95.0
X179.5Y-96.0
X179.5Y-106.0
X179.5Y-108.0
X179.5Y-111.0
X180.0Y-57.5
X180.0Y-59.5
X180.177Y-98.623
X180.5Y-36.5
X180.5Y-42.0
X180.5Y-44.0
X180.5Y-47.0
X180.5Y-74.5
X180.5Y-82.0
X180.5Y-84.0
X180.5Y-86.0
X180.5Y-95.0
X180.5Y-96.0
X180.5Y-114.0
X180.5Y-117.0
X181.184Y-99.042
X181.5Y-43.0
X181.5Y-48.0
X181.5Y-57.5
X181.5Y-68.5
X181.5Y-69.5
X181.5Y-74.45
X181.5Y-85.0
X181.5Y-114.0
X181.5Y-116.0
X181.7Y-66.5
X182.0Y-64.5
X182.0Y-93.0
X182.5Y-36.5
X182.5Y-42.0
X182.5Y-44.0
X182.5Y-47.0
X182.5Y-73.5
X182.5Y-74.5
X182.5Y-86.0
X182.5Y-117.0
X183.5Y-43.0
X183.5Y-51.0
X183.5Y-53.0
X183.5Y-54.0
X183.5Y-55.0
X183.5Y-56.0
X183.5Y-57.0
X183.5Y-61.5
X183.5Y-64.5
X183.5Y-66.5
X183.5Y-68.5
X183.5Y-69.5
X183.5Y-113.0
X184.0Y-60.5
X184.0Y-62.5
X184.5Y-36.5
X184.5Y-44.0
X184.5Y-65.0
X184.5Y-74.0
X184.5Y-78.0
X184.5Y-80.0
X184.5Y-82.0
X184.5Y-84.0
X184.5Y-86.0
X184.5Y-115.0
X184.5Y-117.0
X185.0Y-46.5
X185.0Y-49.5
X185.5Y-62.5
X185.5Y-69.5
X185.5Y-71.5
X185.5Y-116.0
X186.0Y-46.5
X186.0Y-49.5
X186.0Y-60.5
X186.1Y-48.0
X186.5Y-36.5
X186.5Y-41.0
X186.5Y-55.5
X186.5Y-57.5
X186.5Y-61.5
X186.5Y-74.0
X186.5Y-76.0
X186.5Y-78.0
X186.5Y-80.0
X186.5Y-82.0
X186.5Y-84.0
X186.5Y-91.0
X186.5Y-93.0
X186.975Y-67.506
X187.0Y-46.5
X187.0Y-49.5
X187.0Y-59.0
X187.224Y-65.05
X187.5Y-38.0
X187.5Y-39.0
X187.5Y-40.0
X187.5Y-41.0
X187.5Y-42.0
X187.5Y-58.075
X187.5Y-70.0
X187.5Y-90.0
X188.0Y-59.0
X188.0Y-71.224
X188.25Y-46.0
X188.386Y-69.26
X188.425Y-60.0
X188.5Y-36.5
X188.5Y-42.0
X188.5Y-45.0
X188.5Y-55.5
X188.5Y-72.0
X188.5Y-74.0
X188.5Y-89.0
X188.5Y-90.0
X188.5Y-105.0
X188.575Y-67.691
X188.75Y-48.0
X189.0Y-99.5
X189.0Y-102.5
X189.064Y-96.436
X189.092Y-93.102
X189.394Y-66.319
X189.492Y-47.974
X189.5Y-42.0
X189.5Y-45.0
X189.5Y-88.0
X189.5Y-91.0
X189.974Y-69.958
X190.075Y-68.04
X190.144Y-66.156
X190.492Y-47.974
X190.5Y-36.5
X190.5Y-70.925
X190.5Y-87.0
X190.5Y-68.7
X190.55Y-67.371
X190.921Y-62.924
X191.0Y-38.0
X191.0Y-39.0
X191.0Y-40.0
X191.0Y-41.0
X191.0Y-69.25
X191.25Y-46.0
X191.25Y-48.0
X191.5Y-62.5
X191.5Y-66.0
X191.5Y-86.0
X192.2Y-69.194
X192.206Y-65.781
X192.25Y-46.0
X192.282Y-67.401
X192.5Y-36.5
X192.5Y-60.0
X192.5Y-61.0
X192.5Y-63.0
X192.5Y-64.0
X192.5Y-69.826
X192.5Y-84.0
X192.5Y-85.0
X192.5Y-96.0
X192.501Y-48.028
X192.912Y-53.986
X193.023Y-65.781
X193.112Y-50.201
X193.25Y-48.0
X193.3Y-45.0
X193.5Y-38.0
X193.5Y-39.0
X193.5Y-40.0
X193.5Y-41.0
X193.5Y-61.0
X193.5Y-83.0
X193.5Y-97.0
X193.992Y-48.026
X194.0Y-44.549
X194.25Y-46.0
X194.27Y-88.031
X194.406Y-65.094
X194.437Y-60.473
X194.5Y-59.0
X194.5Y-78.0
X194.5Y-79.0
X194.5Y-80.0
X194.5Y-81.0
X194.5Y-82.0
X194.5Y-83.0
X194.5Y-98.0
X194.674Y-62.0
X194.75Y-47.95
X194.837Y-85.861
X195.0Y-83.5
X195.25Y-46.0
X195.472Y-71.972
X195.5Y-35.0
X195.5Y-37.0
X195.5Y-51.0
X195.5Y-54.0
X195.5Y-78.0
X195.5Y-83.0
X195.5Y-97.0
X195.508Y-48.026
X195.777Y-88.405
X195.92Y-44.834
X196.25Y-48.0
X196.5Y-55.0
X196.5Y-65.4
X196.5Y-66.6
X196.5Y-78.0
X196.5Y-83.0
X196.5Y-98.0
X196.566Y-44.566
X196.992Y-48.026
X197.0Y-37.0
X197.0Y-39.0
X197.0Y-77.5
X197.15Y-69.425
X197.175Y-61.679
X197.25Y-46.0
X197.25Y-85.75
X197.4Y-64.5
X197.4Y-65.4
X197.4Y-66.6
X197.4Y-67.5
X197.405Y-72.939
X197.5Y-78.0
X197.5Y-83.0
X197.5Y-97.0
X197.75Y-48.0
X197.75Y-50.0
X198.0Y-37.0
X198.0Y-83.5
X198.016Y-87.139
X198.422Y-57.922
X198.5Y-40.0
X198.5Y-45.0
X198.5Y-60.0
X198.5Y-79.0
X198.5Y-80.0
X198.5Y-81.0
X198.5Y-82.0
X198.5Y-83.0
X198.5Y-98.0
X198.6Y-64.5
X198.6Y-65.4
X198.6Y-66.6
X198.6Y-67.5
X198.849Y-69.926
X198.855Y-72.855
X199.0Y-35.0
X199.0Y-36.0
X199.0Y-41.5
X199.0Y-75.0
X199.008Y-87.147
X199.157Y-85.852
X199.385Y-56.0
X199.385Y-57.0
X199.5Y-44.0
X199.5Y-46.0
X199.5Y-65.4
X199.5Y-66.6
X199.5Y-80.0
X199.5Y-81.5
X199.5Y-82.5
X199.5Y-97.0
X199.5Y-105.0
X199.717Y-60.5
X199.717Y-61.427
X199.825Y-68.813
X200.0Y-46.5
X200.156Y-73.978
X200.5Y-45.0
X200.5Y-46.0
X200.5Y-53.901
X200.5Y-55.1
X200.5Y-68.576
X200.5Y-98.0
X200.532Y-77.032
X200.9Y-48.0
X201.0Y-46.5
X201.066Y-70.266
X201.095Y-68.0
X201.325Y-69.05
X201.5Y-44.0
X201.5Y-46.0
X201.5Y-53.0
X201.5Y-54.0
X201.5Y-64.0
X201.5Y-65.0
X201.5Y-70.952
X201.5Y-97.0
X201.5Y-99.0
X201.5Y-105.0
X201.75Y-85.75
X201.751Y-81.369
X201.832Y-79.25
X202.0Y-46.5
X202.314Y-73.961
X202.358Y-88.501
X202.5Y-48.0
X202.5Y-63.0
X202.5Y-96.0
X202.5Y-98.0
X202.5Y-100.0
X202.5Y-104.0
X202.5Y-106.0
X202.595Y-89.561
X202.656Y-66.478
X202.742Y-68.749
X203.023Y-77.84
X203.156Y-78.978
X203.156Y-79.978
X203.156Y-80.978
X203.156Y-81.978
X203.156Y-82.978
X203.5Y-44.0
X203.5Y-46.0
X203.5Y-48.0
X203.5Y-49.0
X203.5Y-63.0
X203.5Y-65.0
X203.5Y-95.0
X203.5Y-97.0
X203.5Y-99.0
X203.5Y-101.0
X203.5Y-103.0
X203.5Y-105.0
X203.5Y-107.0
X203.5Y-109.0
X203.5Y-111.0
X203.5Y-113.0
X203.5Y-115.0
X203.5Y-117.0
X203.5Y-119.0
X203.567Y-74.067
X203.76Y-69.74
T2
X150.283Y-99.082
X150.283Y-100.918
X151.582Y-97.783
X151.582Y-102.217
X153.418Y-97.783
X153.418Y-102.217
X154.717Y-99.082
X154.717Y-100.918
T5
X157.975Y-97.0
X157.975Y-102.0
X157.975Y-104.5
X157.975Y-107.0
X157.975Y-109.5
X157.975Y-114.5
X175.475Y-51.0
X175.475Y-56.0
X175.475Y-58.5
X175.475Y-61.0
X175.475Y-63.5
X175.475Y-68.5
X176.0Y-110.0
X178.5Y-110.0
X181.0Y-110.0
T6
X174.0Y-76.945
X174.0Y-79.485
X174.0Y-82.025
X174.0Y-85.945
X174.0Y-88.485
X174.0Y-91.025
X187.5Y-51.445
X187.5Y-53.985
X187.5Y-56.525
T7
X185.0Y-53.7
X185.0Y-56.24
X185.0Y-58.78
X185.0Y-61.32
X185.0Y-91.8
X185.0Y-94.34
X185.0Y-96.88
X185.0Y-99.42
X185.0Y-101.96
X185.0Y-104.5
T8
X164.682Y-94.172
X164.682Y-97.672
X164.682Y-101.172
X164.682Y-104.672
X181.732Y-39.358
X185.232Y-39.358
X188.732Y-39.358
X192.232Y-39.358
T9
X158.475Y-99.5
X158.475Y-112.0
X175.975Y-53.5
X175.975Y-66.0
T10
X152.5Y-100.0
T11
X152.5Y-54.0
T2
G00X143.07Y-95.125
M15
G01X143.07Y-94.425
M16
G05
G00X145.93Y-103.575
M15
G01X145.93Y-102.875
M16
G05
T3
G00X187.95Y-108.55
M15
G01X187.95Y-109.85
M16
G05
G00X187.95Y-114.45
M15
G01X187.95Y-115.75
M16
G05
G00X202.05Y-108.55
M15
G01X202.05Y-109.85
M16
G05
G00X202.05Y-114.45
M15
G01X202.05Y-115.75
M16
G05
T4
G00X143.0Y-104.42
M15
G01X143.0Y-103.08
M16
G05
G00X146.0Y-94.92
M15
G01X146.0Y-93.58
M16
G05
T0
M30
