G04 #@! TF.GenerationSoftware,KiCad,Pcbnew,6.0.11+dfsg-1*
G04 #@! TF.ProjectId,project,70726f6a-6563-4742-9e6b-696361645f70,rev?*
G04 #@! TF.SameCoordinates,Original*
G04 #@! TF.FileFunction,Soldermask,Bot*
G04 #@! TF.FilePolarity,Negative*
%FSLAX46Y46*%
G04 Gerber Fmt 4.6, Leading zero omitted, Abs format (unit mm)*
%MOMM*%
%LPD*%
G01*
G04 APERTURE LIST*
G04 #@! TA.AperFunction,Profile*
%ADD10C,0.100000*%
G04 #@! TD*
%ADD11C,1.552000*%
%ADD12C,1.800000*%
%ADD13O,1.450000X2.750000*%
%ADD14O,2.000000X3.000000*%
%ADD15C,2.000000*%
%ADD16O,3.000000X2.600000*%
%ADD17O,1.950000X1.700000*%
%ADD18O,3.600000X1.800000*%
%ADD19C,6.400000*%
%ADD20C,0.900000*%
%ADD21C,5.000000*%
%ADD22O,1.800000X3.600000*%
%ADD23O,1.700000X1.950000*%
%ADD24R,1.700000X1.700000*%
%ADD25O,1.700000X1.700000*%
G04 APERTURE END LIST*
D10*
X169500000Y-111000000D02*
X169500000Y-88000000D01*
X150500000Y-75000000D02*
G75*
G03*
X150500000Y-79000000I0J-2000000D01*
G01*
X172500000Y-88000000D02*
G75*
G03*
X169500000Y-88000000I-1500000J0D01*
G01*
X146200000Y-52100000D02*
G75*
G03*
X142800000Y-52100000I-1700000J3000D01*
G01*
X169500000Y-38000000D02*
G75*
G03*
X172500000Y-38000000I1500000J0D01*
G01*
X169500000Y-118500000D02*
X169500000Y-116000000D01*
X172500000Y-88000000D02*
X172499999Y-106500001D01*
X203500000Y-120000000D02*
G75*
G03*
X204500000Y-119000000I0J1000000D01*
G01*
X169500000Y-80500000D02*
X169500000Y-83000000D01*
X168000000Y-120000000D02*
X165500000Y-120000000D01*
X141500000Y-120000000D02*
X144000000Y-120000000D01*
X172500000Y-116000000D02*
G75*
G03*
X169500000Y-116000000I-1500000J0D01*
G01*
X142800000Y-57900000D02*
G75*
G03*
X146200000Y-57900000I1700000J-3000D01*
G01*
X172500000Y-43000000D02*
G75*
G03*
X169500000Y-43000000I-1500000J0D01*
G01*
X169500000Y-35500000D02*
G75*
G03*
X168000000Y-34000000I-1500000J0D01*
G01*
X169500000Y-111000000D02*
G75*
G03*
X172500000Y-111000000I1500000J0D01*
G01*
X165500000Y-75000000D02*
G75*
G03*
X165500000Y-79000000I0J-2000000D01*
G01*
X169500000Y-66000000D02*
G75*
G03*
X172500000Y-66000000I1500000J0D01*
G01*
X140000000Y-73500000D02*
X140000000Y-35500000D01*
X172499999Y-46500001D02*
X172500000Y-43000000D01*
X204500001Y-46500001D02*
X204500000Y-35000000D01*
X159500000Y-62000000D02*
X159500000Y-47000000D01*
X204500000Y-119000000D02*
X204500001Y-107499999D01*
X172499999Y-47499999D02*
G75*
G03*
X172499999Y-46500001I-499999J499999D01*
G01*
X140000000Y-118500000D02*
G75*
G03*
X141500000Y-120000000I1500000J0D01*
G01*
X204500001Y-46500001D02*
G75*
G03*
X204500001Y-47499999I499999J-499999D01*
G01*
X169500000Y-38000000D02*
X169500000Y-35500000D01*
X159500000Y-75000000D02*
X150500000Y-75000000D01*
X146500000Y-117500000D02*
G75*
G03*
X145000000Y-119000000I0J-1500000D01*
G01*
X160000000Y-46500000D02*
X169000000Y-46500000D01*
X168000000Y-34000000D02*
X141500000Y-34000000D01*
X167500000Y-79000000D02*
X168000000Y-79000000D01*
X144500000Y-79000000D02*
G75*
G03*
X144500000Y-75000000I0J2000000D01*
G01*
X146300000Y-42000000D02*
G75*
G03*
X146300000Y-42000000I-1800000J0D01*
G01*
X172499999Y-107499999D02*
G75*
G03*
X172499999Y-106500001I-499999J499999D01*
G01*
X169000000Y-62500000D02*
X160000000Y-62500000D01*
X153800000Y-42000000D02*
G75*
G03*
X153800000Y-42000000I-1800000J0D01*
G01*
X140000000Y-73500000D02*
G75*
G03*
X141500000Y-75000000I1500000J0D01*
G01*
X141500000Y-79000000D02*
G75*
G03*
X140000000Y-80500000I0J-1500000D01*
G01*
X142800000Y-57900000D02*
X142800000Y-52100000D01*
X159500000Y-62000000D02*
G75*
G03*
X160000000Y-62500000I500000J0D01*
G01*
X140000000Y-118500000D02*
X140000000Y-80500000D01*
X165500000Y-79000000D02*
X167500000Y-79000000D01*
X144500000Y-75000000D02*
X141500000Y-75000000D01*
X169500000Y-46000000D02*
X169500000Y-43000000D01*
X172500000Y-116000000D02*
X172500000Y-119000000D01*
X168000000Y-75000000D02*
X167500000Y-75000000D01*
X165500000Y-75000000D02*
X167500000Y-75000000D01*
X146200000Y-52100000D02*
X146200000Y-57900000D01*
X172500000Y-119000000D02*
G75*
G03*
X173500000Y-120000000I1000000J0D01*
G01*
X204500000Y-35000000D02*
G75*
G03*
X203500000Y-34000000I-1000000J0D01*
G01*
X169500000Y-71000000D02*
X169500000Y-73500000D01*
X159500000Y-79000000D02*
G75*
G03*
X159500000Y-75000000I0J2000000D01*
G01*
X163000000Y-117500000D02*
X146500000Y-117500000D01*
X173500000Y-34000000D02*
X203500000Y-34000000D01*
X164500000Y-119000000D02*
G75*
G03*
X165500000Y-120000000I1000000J0D01*
G01*
X172499999Y-47499999D02*
X172500000Y-66000000D01*
X172499999Y-107499999D02*
X172500000Y-111000000D01*
X160000000Y-46500000D02*
G75*
G03*
X159500000Y-47000000I0J-500000D01*
G01*
X172500000Y-38000000D02*
X172500000Y-35000000D01*
X169500000Y-83000000D02*
G75*
G03*
X172500000Y-83000000I1500000J0D01*
G01*
X169500000Y-80500000D02*
G75*
G03*
X168000000Y-79000000I-1500000J0D01*
G01*
X150500000Y-79000000D02*
X159500000Y-79000000D01*
X168000000Y-75000000D02*
G75*
G03*
X169500000Y-73500000I0J1500000D01*
G01*
X164500000Y-119000000D02*
G75*
G03*
X163000000Y-117500000I-1500000J0D01*
G01*
X168000000Y-120000000D02*
G75*
G03*
X169500000Y-118500000I0J1500000D01*
G01*
X204500001Y-106500001D02*
G75*
G03*
X204500001Y-107499999I499999J-499999D01*
G01*
X172500000Y-71000000D02*
G75*
G03*
X169500000Y-71000000I-1500000J0D01*
G01*
X169000000Y-46500000D02*
G75*
G03*
X169500000Y-46000000I0J500000D01*
G01*
X173500000Y-120000000D02*
X203500000Y-120000000D01*
X141500000Y-34000000D02*
G75*
G03*
X140000000Y-35500000I0J-1500000D01*
G01*
X169500000Y-63000000D02*
X169500000Y-66000000D01*
X173500000Y-34000000D02*
G75*
G03*
X172500000Y-35000000I0J-1000000D01*
G01*
X144000000Y-120000000D02*
G75*
G03*
X145000000Y-119000000I0J1000000D01*
G01*
X141500000Y-79000000D02*
X144500000Y-79000000D01*
X172500000Y-71000000D02*
X172500000Y-83000000D01*
X204500001Y-106500001D02*
X204500001Y-47499999D01*
X169500000Y-63000000D02*
G75*
G03*
X169000000Y-62500000I-500000J0D01*
G01*
D11*
X142500000Y-118000000D03*
D12*
X189800000Y-107300000D03*
X200200000Y-107300000D03*
D13*
X202050000Y-109200000D03*
X187950000Y-115100000D03*
X202050000Y-115100000D03*
X187950000Y-109200000D03*
D14*
X160000000Y-72500000D03*
D15*
X185000000Y-104500000D03*
X185000000Y-101960000D03*
X185000000Y-99420000D03*
X185000000Y-96880000D03*
X185000000Y-94340000D03*
X185000000Y-91800000D03*
X185000000Y-61320000D03*
X185000000Y-58780000D03*
X185000000Y-56240000D03*
X185000000Y-53700000D03*
G36*
G01*
X176200000Y-69350000D02*
X174750000Y-69350000D01*
G75*
G02*
X174500000Y-69100000I0J250000D01*
G01*
X174500000Y-67900000D01*
G75*
G02*
X174750000Y-67650000I250000J0D01*
G01*
X176200000Y-67650000D01*
G75*
G02*
X176450000Y-67900000I0J-250000D01*
G01*
X176450000Y-69100000D01*
G75*
G02*
X176200000Y-69350000I-250000J0D01*
G01*
G37*
D16*
X175975000Y-66000000D03*
D17*
X175475000Y-63500000D03*
X175475000Y-61000000D03*
X175475000Y-58500000D03*
X175475000Y-56000000D03*
D16*
X175975000Y-53500000D03*
D17*
X175475000Y-51000000D03*
G36*
G01*
X166231840Y-105571840D02*
X163131840Y-105571840D01*
G75*
G02*
X162881840Y-105321840I0J250000D01*
G01*
X162881840Y-104021840D01*
G75*
G02*
X163131840Y-103771840I250000J0D01*
G01*
X166231840Y-103771840D01*
G75*
G02*
X166481840Y-104021840I0J-250000D01*
G01*
X166481840Y-105321840D01*
G75*
G02*
X166231840Y-105571840I-250000J0D01*
G01*
G37*
D18*
X164681840Y-101171840D03*
X164681840Y-97671840D03*
X164681840Y-94171840D03*
D14*
X150000000Y-72500000D03*
X165000000Y-72500000D03*
D19*
X152500000Y-100000000D03*
D20*
X150282689Y-99081560D03*
X150282689Y-100918440D03*
X151581560Y-97782689D03*
X153418440Y-102217311D03*
X153418440Y-97782689D03*
X154717311Y-100918440D03*
X154717311Y-99081560D03*
X151581560Y-102217311D03*
D11*
X202500000Y-45000000D03*
D14*
X145000000Y-72500000D03*
G36*
G01*
X143700000Y-95575000D02*
X142440000Y-95575000D01*
G75*
G02*
X142370000Y-95505000I0J70000D01*
G01*
X142370000Y-94045000D01*
G75*
G02*
X142440000Y-93975000I70000J0D01*
G01*
X143700000Y-93975000D01*
G75*
G02*
X143770000Y-94045000I0J-70000D01*
G01*
X143770000Y-95505000D01*
G75*
G02*
X143700000Y-95575000I-70000J0D01*
G01*
G37*
G36*
G01*
X146560000Y-104025000D02*
X145300000Y-104025000D01*
G75*
G02*
X145230000Y-103955000I0J70000D01*
G01*
X145230000Y-102495000D01*
G75*
G02*
X145300000Y-102425000I70000J0D01*
G01*
X146560000Y-102425000D01*
G75*
G02*
X146630000Y-102495000I0J-70000D01*
G01*
X146630000Y-103955000D01*
G75*
G02*
X146560000Y-104025000I-70000J0D01*
G01*
G37*
G36*
G01*
X143585000Y-105100000D02*
X142415000Y-105100000D01*
G75*
G02*
X142350000Y-105035000I0J65000D01*
G01*
X142350000Y-102465000D01*
G75*
G02*
X142415000Y-102400000I65000J0D01*
G01*
X143585000Y-102400000D01*
G75*
G02*
X143650000Y-102465000I0J-65000D01*
G01*
X143650000Y-105035000D01*
G75*
G02*
X143585000Y-105100000I-65000J0D01*
G01*
G37*
G36*
G01*
X146585000Y-95600000D02*
X145415000Y-95600000D01*
G75*
G02*
X145350000Y-95535000I0J65000D01*
G01*
X145350000Y-92965000D01*
G75*
G02*
X145415000Y-92900000I65000J0D01*
G01*
X146585000Y-92900000D01*
G75*
G02*
X146650000Y-92965000I0J-65000D01*
G01*
X146650000Y-95535000D01*
G75*
G02*
X146585000Y-95600000I-65000J0D01*
G01*
G37*
D21*
X152500000Y-54000000D03*
D14*
X155000000Y-72500000D03*
G36*
G01*
X193132500Y-37807500D02*
X193132500Y-40907500D01*
G75*
G02*
X192882500Y-41157500I-250000J0D01*
G01*
X191582500Y-41157500D01*
G75*
G02*
X191332500Y-40907500I0J250000D01*
G01*
X191332500Y-37807500D01*
G75*
G02*
X191582500Y-37557500I250000J0D01*
G01*
X192882500Y-37557500D01*
G75*
G02*
X193132500Y-37807500I0J-250000D01*
G01*
G37*
D22*
X188732500Y-39357500D03*
X185232500Y-39357500D03*
X181732500Y-39357500D03*
D11*
X182500000Y-115000000D03*
G36*
G01*
X175150000Y-110725000D02*
X175150000Y-109275000D01*
G75*
G02*
X175400000Y-109025000I250000J0D01*
G01*
X176600000Y-109025000D01*
G75*
G02*
X176850000Y-109275000I0J-250000D01*
G01*
X176850000Y-110725000D01*
G75*
G02*
X176600000Y-110975000I-250000J0D01*
G01*
X175400000Y-110975000D01*
G75*
G02*
X175150000Y-110725000I0J250000D01*
G01*
G37*
D23*
X178500000Y-110000000D03*
X181000000Y-110000000D03*
D24*
X174000000Y-82025000D03*
D25*
X174000000Y-79485000D03*
X174000000Y-76945000D03*
D24*
X174000000Y-91025000D03*
D25*
X174000000Y-88485000D03*
X174000000Y-85945000D03*
G36*
G01*
X157250000Y-96150000D02*
X158700000Y-96150000D01*
G75*
G02*
X158950000Y-96400000I0J-250000D01*
G01*
X158950000Y-97600000D01*
G75*
G02*
X158700000Y-97850000I-250000J0D01*
G01*
X157250000Y-97850000D01*
G75*
G02*
X157000000Y-97600000I0J250000D01*
G01*
X157000000Y-96400000D01*
G75*
G02*
X157250000Y-96150000I250000J0D01*
G01*
G37*
D16*
X158475000Y-99500000D03*
D17*
X157975000Y-102000000D03*
X157975000Y-104500000D03*
X157975000Y-107000000D03*
X157975000Y-109500000D03*
D16*
X158475000Y-112000000D03*
D17*
X157975000Y-114500000D03*
D24*
X187500000Y-56525000D03*
D25*
X187500000Y-53985000D03*
X187500000Y-51445000D03*
M02*
